<?xml version="1.0" encoding="iso-8859-1"?>
<!-- Generator: Adobe Illustrator 19.0.0, SVG Export Plug-In . SVG Version: 6.00 Build 0)  -->
<svg xmlns="http://www.w3.org/2000/svg" xmlns:xlink="http://www.w3.org/1999/xlink" version="1.1" id="Layer_1" x="0px" y="0px" viewBox="0 0 512 512" style="enable-background:new 0 0 512 512;" xml:space="preserve">
<g>
	<g>
		<g>
			<path d="M277.558,495.832H61.979c-19.316,0-35.032-15.716-35.032-35.032V350.316h35.032c4.465,0,8.084-3.62,8.084-8.084     c0-4.465-3.62-8.084-8.084-8.084H18.863c-1.485,0-2.695-1.209-2.695-2.695V202.105c0-1.485,1.209-2.695,2.695-2.695h344.926     c1.485,0,2.695,1.209,2.695,2.695v129.347c0,1.485-1.209,2.695-2.695,2.695H94.316c-4.465,0-8.084,3.62-8.084,8.084     c0,4.465,3.62,8.084,8.084,8.084h261.389v35.032c0,4.465,3.62,8.084,8.084,8.084c4.465,0,8.084-3.62,8.084-8.084v-36.853     c6.368-3.032,10.779-9.532,10.779-17.042V202.105c0-7.51-4.411-14.009-10.779-17.042v-4.516c0-28.231-22.969-51.2-51.2-51.2     H307.2v-28.068c12.428-3.527,21.558-14.977,21.558-28.521V29.642C328.758,13.297,315.461,0,299.116,0H83.537     C67.192,0,53.895,13.297,53.895,29.642v43.116c0,13.544,9.13,24.994,21.558,28.521v28.068H61.979     c-28.231,0-51.2,22.969-51.2,51.2v4.516C4.411,188.096,0,194.596,0,202.105v129.347c0,7.51,4.411,14.009,10.779,17.042V460.8     c0,28.231,22.969,51.2,51.2,51.2h215.579c4.465,0,8.084-3.62,8.084-8.084C285.642,499.451,282.023,495.832,277.558,495.832z      M26.947,180.547c0-19.316,15.716-35.032,35.032-35.032h161.684c4.465,0,8.084-3.62,8.084-8.084c0-4.465-3.62-8.084-8.084-8.084     H91.621V102.4h142.821c4.465,0,8.084-3.62,8.084-8.084s-3.62-8.084-8.084-8.084H83.537c-7.43,0-13.474-6.044-13.474-13.474     V48.505h78.147c4.465,0,8.084-3.62,8.084-8.084c0-4.465-3.62-8.084-8.084-8.084H70.063v-2.695c0-7.43,6.044-13.474,13.474-13.474     h215.579c7.43,0,13.474,6.044,13.474,13.474v43.116c0,7.43-6.044,13.474-13.474,13.474h-32.337c-4.465,0-8.084,3.62-8.084,8.084     s3.62,8.084,8.084,8.084h24.253v35.032c0,4.465,3.62,8.084,8.084,8.084h21.558c19.316,0,35.032,15.716,35.032,35.032v2.695     H26.947V180.547z"/>
			<path d="M466.189,409.6H336.842c-25.26,0-45.811,20.55-45.811,45.811v10.779c0,25.26,20.55,45.811,45.811,45.811h129.347     C491.45,512,512,491.45,512,466.189v-10.779C512,430.15,491.45,409.6,466.189,409.6z M495.832,466.189     c0,16.345-13.297,29.642-29.642,29.642H409.6v-46.169c0-4.465-3.62-8.084-8.084-8.084c-4.465,0-8.084,3.62-8.084,8.084v46.169     h-56.589c-16.345,0-29.642-13.297-29.642-29.642v-10.779c0-16.345,13.297-29.642,29.642-29.642h129.347     c16.345,0,29.642,13.297,29.642,29.642V466.189z"/>
			<path d="M61.979,253.305h161.684c4.465,0,8.084-3.62,8.084-8.084c0-4.465-3.62-8.084-8.084-8.084H61.979     c-4.465,0-8.084,3.62-8.084,8.084C53.895,249.686,57.514,253.305,61.979,253.305z"/>
			<path d="M61.979,296.421h118.568c4.465,0,8.084-3.62,8.084-8.084c0-4.465-3.62-8.084-8.084-8.084H61.979     c-4.465,0-8.084,3.62-8.084,8.084C53.895,292.801,57.514,296.421,61.979,296.421z"/>
		</g>
	</g>
</g>
<g>
</g>
<g>
</g>
<g>
</g>
<g>
</g>
<g>
</g>
<g>
</g>
<g>
</g>
<g>
</g>
<g>
</g>
<g>
</g>
<g>
</g>
<g>
</g>
<g>
</g>
<g>
</g>
<g>
</g>
</svg>
