<?xml version="1.0" encoding="iso-8859-1"?>
<!-- Generator: Adobe Illustrator 19.0.0, SVG Export Plug-In . SVG Version: 6.00 Build 0)  -->
<svg xmlns="http://www.w3.org/2000/svg" xmlns:xlink="http://www.w3.org/1999/xlink" version="1.1" id="Layer_1" x="0px" y="0px" viewBox="0 0 512 512" style="enable-background:new 0 0 512 512;" xml:space="preserve">
<g>
	<g>
		<g>
			<path d="M296.423,153.6c0-13.372-10.88-24.253-24.254-24.253h-32.338c-13.373,0-24.254,10.88-24.254,24.253     c0,13.372,10.879,24.253,24.254,24.253h32.338C285.543,177.853,296.423,166.973,296.423,153.6z M239.832,161.684     c-4.458,0-8.085-3.626-8.085-8.084c0-4.458,3.626-8.084,8.084-8.084h32.338c4.458,0,8.084,3.626,8.084,8.084     c0,4.458-3.626,8.084-8.084,8.084H239.832z"/>
			<path d="M148.206,339.537c16.345,0,29.643-13.298,29.643-29.642v-24.253h24.254c16.345,0,29.643-13.298,29.643-29.642     s-13.298-29.642-29.643-29.642h-32.338c-4.465,0-8.084,3.618-8.084,8.084c0,4.466,3.62,8.084,8.084,8.084h32.338     c7.43,0,13.475,6.044,13.475,13.474c0,7.43-6.045,13.474-13.475,13.474h-32.338c-4.465,0-8.084,3.618-8.084,8.084v32.337     c0,7.43-6.045,13.474-13.475,13.474s-13.475-6.044-13.475-13.474c0-4.466-3.62-8.084-8.084-8.084     c-4.465,0-8.084,3.618-8.084,8.084C118.563,326.239,131.861,339.537,148.206,339.537z"/>
			<path d="M94.31,242.526h32.338c4.465,0,8.084-3.618,8.084-8.084v-32.337c0-7.43,6.045-13.474,13.475-13.474     s13.475,6.044,13.475,13.474c0,4.466,3.62,8.084,8.084,8.084s8.084-3.618,8.084-8.084c0-16.344-13.298-29.642-29.643-29.642     s-29.643,13.298-29.643,29.642v24.253H94.31c-16.346,0-29.643,13.298-29.643,29.642s13.298,29.642,29.643,29.642h32.338     c4.465,0,8.084-3.618,8.084-8.084c0-4.466-3.62-8.084-8.084-8.084H94.31c-7.43,0-13.475-6.044-13.475-13.474     C80.835,248.57,86.88,242.526,94.31,242.526z"/>
			<path d="M363.795,172.463c-16.345,0-29.643,13.298-29.643,29.642s13.298,29.642,29.643,29.642s29.643-13.298,29.643-29.642     S380.14,172.463,363.795,172.463z M363.795,215.579c-7.43,0-13.475-6.044-13.475-13.474s6.045-13.474,13.475-13.474     s13.475,6.044,13.475,13.474S371.225,215.579,363.795,215.579z"/>
			<path d="M417.692,285.642c16.345,0,29.643-13.298,29.643-29.642s-13.298-29.642-29.643-29.642     c-16.345,0-29.643,13.298-29.643,29.642S401.347,285.642,417.692,285.642z M417.692,242.526c7.43,0,13.475,6.044,13.475,13.474     c0,7.43-6.045,13.474-13.475,13.474S404.217,263.43,404.217,256C404.217,248.57,410.262,242.526,417.692,242.526z"/>
			<path d="M510.545,369.125L470.37,154.942c-5.705-30.418-27.386-54.465-55.373-64.12V72.758c0-16.344-13.298-29.642-29.643-29.642     h-43.118c-16.345,0-29.643,13.298-29.643,29.642v13.474H199.409V72.758c0-16.344-13.298-29.642-29.643-29.642h-43.118     c-16.345,0-29.643,13.298-29.643,29.642v18.064c-27.988,9.655-49.667,33.7-55.374,64.12L1.455,369.125     c-4.634,24.703,1.915,49.965,17.968,69.308c16.061,19.353,39.699,30.452,64.854,30.452c24.914,0,48.408-10.926,64.455-29.975     l21.878-25.971c12.968-15.394,31.953-24.224,52.088-24.224c4.465,0,8.084-3.618,8.084-8.084c0-4.466-3.62-8.084-8.084-8.084     c-24.914,0-48.407,10.926-64.455,29.975l-21.878,25.971c-12.968,15.394-31.953,24.224-52.088,24.224     c-20.328,0-39.432-8.969-52.41-24.608c-12.971-15.63-18.263-36.041-14.519-56.001l40.174-214.183     c6.035-32.173,34.183-55.523,66.931-55.523h12.974c4.465,0,8.084-3.619,8.084-8.084s-3.62-8.084-8.084-8.084h-12.974     c-3.817,0-7.583,0.257-11.28,0.753V72.758c0-7.43,6.045-13.474,13.475-13.474h43.118c7.43,0,13.475,6.044,13.475,13.474v13.474     h-13.475c-4.465,0-8.084,3.619-8.084,8.084s3.62,8.084,8.084,8.084h183.249c4.465,0,8.084-3.619,8.084-8.084     s-3.618-8.084-8.084-8.084H328.76V72.758c0-7.43,6.045-13.474,13.475-13.474h43.118c7.43,0,13.475,6.044,13.475,13.474v14.227     c-3.697-0.497-7.464-0.753-11.28-0.753h-2.194c-4.465,0-8.084,3.619-8.084,8.084s3.618,8.084,8.084,8.084h2.194     c32.747,0,60.897,23.35,66.931,55.523l40.174,214.183c3.744,19.959-1.548,40.37-14.519,56.001     c-12.978,15.639-32.081,24.608-52.41,24.608c-20.134,0-39.119-8.829-52.088-24.224l-21.878-25.971     c-16.049-19.05-39.542-29.975-64.456-29.975H256c-4.465,0-8.084,3.618-8.084,8.084c0,4.466,3.62,8.084,8.084,8.084h33.3     c20.135,0,39.12,8.83,52.088,24.224l21.878,25.971c16.05,19.05,39.543,29.975,64.456,29.975     c25.155,0,48.793-11.099,64.854-30.452C508.63,419.09,515.179,393.827,510.545,369.125z"/>
			<path d="M309.898,226.358c-16.345,0-29.643,13.298-29.643,29.642s13.298,29.642,29.643,29.642     c16.345,0,29.643-13.298,29.643-29.642S326.242,226.358,309.898,226.358z M309.898,269.474c-7.43,0-13.475-6.044-13.475-13.474     c0-7.43,6.045-13.474,13.475-13.474s13.475,6.044,13.475,13.474C323.373,263.43,317.328,269.474,309.898,269.474z"/>
			<path d="M363.795,280.253c-16.345,0-29.643,13.298-29.643,29.642s13.298,29.642,29.643,29.642s29.643-13.298,29.643-29.642     S380.14,280.253,363.795,280.253z M363.795,323.369c-7.43,0-13.475-6.044-13.475-13.474s6.045-13.474,13.475-13.474     s13.475,6.044,13.475,13.474S371.225,323.369,363.795,323.369z"/>
		</g>
	</g>
</g>
<g>
</g>
<g>
</g>
<g>
</g>
<g>
</g>
<g>
</g>
<g>
</g>
<g>
</g>
<g>
</g>
<g>
</g>
<g>
</g>
<g>
</g>
<g>
</g>
<g>
</g>
<g>
</g>
<g>
</g>
</svg>
