<?xml version="1.0" encoding="iso-8859-1"?>
<!-- Generator: Adobe Illustrator 19.0.0, SVG Export Plug-In . SVG Version: 6.00 Build 0)  -->
<svg xmlns="http://www.w3.org/2000/svg" xmlns:xlink="http://www.w3.org/1999/xlink" version="1.1" id="Layer_1" x="0px" y="0px" viewBox="0 0 512.001 512.001" style="enable-background:new 0 0 512.001 512.001;" xml:space="preserve">
<g>
	<g>
		<path d="M482.358,80.843h-32.337c-4.466,0-8.084,3.619-8.084,8.084s3.618,8.084,8.084,8.084h32.337    c7.43,0,13.474,6.044,13.474,13.474v35.032H16.168v-16.168h175.158c4.466,0,8.084-3.618,8.084-8.084    c0-4.466-3.618-8.084-8.084-8.084H16.168v-2.695c0-7.43,6.044-13.474,13.474-13.474h388.042c4.466,0,8.084-3.619,8.084-8.084    s-3.619-8.084-8.084-8.084H29.642C13.298,80.843,0,94.141,0,110.485v117.301c0,10.217,5.406,19.89,14.106,25.245l128.066,78.808    l46.706,84.073c5.226,9.405,15.154,15.247,25.913,15.247h82.419c10.758,0,20.687-5.842,25.913-15.247l46.706-84.073    l128.066-78.808c8.701-5.355,14.106-15.028,14.106-25.245V110.485C512,94.141,498.702,80.843,482.358,80.843z M495.832,227.786    c0,4.645-2.456,9.041-6.411,11.475l-117.547,72.335V185.937c0-4.466-3.618-8.084-8.084-8.084c-4.466,0-8.084,3.618-8.084,8.084    v138.032l-46.718,84.091c-2.375,4.275-6.888,6.931-11.778,6.931H214.79c-4.89,0-9.404-2.656-11.779-6.931l-46.716-84.091V185.937    c0-4.466-3.618-8.084-8.084-8.084c-4.466,0-8.084,3.618-8.084,8.084v125.659L22.58,239.261c-3.955-2.434-6.411-6.831-6.411-11.475    v-66.101h479.663V227.786z"/>
	</g>
</g>
<g>
</g>
<g>
</g>
<g>
</g>
<g>
</g>
<g>
</g>
<g>
</g>
<g>
</g>
<g>
</g>
<g>
</g>
<g>
</g>
<g>
</g>
<g>
</g>
<g>
</g>
<g>
</g>
<g>
</g>
</svg>
