<?xml version="1.0" encoding="iso-8859-1"?>
<!-- Generator: Adobe Illustrator 19.0.0, SVG Export Plug-In . SVG Version: 6.00 Build 0)  -->
<svg xmlns="http://www.w3.org/2000/svg" xmlns:xlink="http://www.w3.org/1999/xlink" version="1.1" id="Layer_1" x="0px" y="0px" viewBox="0 0 512 512" style="enable-background:new 0 0 512 512;" xml:space="preserve">
<g>
	<g>
		<g>
			<path d="M223.663,48.505h64.674c40.773,0,80.235,11.815,114.116,34.169c3.724,2.458,8.74,1.431,11.199-2.296     s1.431-8.741-2.296-11.2c-34.507-22.766-74.37-35.395-115.723-36.724C291.923,13.967,275.562,0,256,0     s-35.923,13.967-39.633,32.454C96.399,36.314,0,135.111,0,256c0,4.465,3.62,8.084,8.084,8.084h53.895     c4.465,0,8.084-3.62,8.084-8.084c0-4.465-3.62-8.084-8.084-8.084H16.324C20.589,137.238,111.96,48.505,223.663,48.505z      M256,16.168c10.54,0,19.53,6.758,22.868,16.168h-45.735C236.469,22.927,245.46,16.168,256,16.168z"/>
			<path d="M436.286,88.256c-3.348-2.954-8.456-2.637-11.411,0.711c-2.955,3.347-2.635,8.456,0.711,11.411     c42.615,37.615,67.881,91.013,70.088,147.538H382.51c-0.053-1.485-0.12-2.967-0.202-4.439     c-2.568-46.499-18.814-87.459-46.982-118.451C309.854,97,275.564,77.643,236.166,69.05c-4.362-0.955-8.671,1.813-9.621,6.175     c-0.952,4.362,1.813,8.669,6.175,9.621c78.993,17.23,128.881,76.865,133.444,159.523c0.065,1.177,0.12,2.359,0.165,3.546H94.316     c-4.465,0-8.084,3.62-8.084,8.084c0,4.465,3.62,8.084,8.084,8.084h153.6v212.884c0,19.316,15.715,35.032,35.032,35.032     c19.317,0,35.032-15.716,35.032-35.032c0-4.465-3.618-8.084-8.084-8.084c-4.466,0-8.084,3.62-8.084,8.084     c0,10.401-8.463,18.863-18.863,18.863c-10.401,0-18.863-8.463-18.863-18.863V264.084h239.832c4.466,0,8.084-3.62,8.084-8.084     C512,191.869,484.403,130.728,436.286,88.256z"/>
		</g>
	</g>
</g>
<g>
</g>
<g>
</g>
<g>
</g>
<g>
</g>
<g>
</g>
<g>
</g>
<g>
</g>
<g>
</g>
<g>
</g>
<g>
</g>
<g>
</g>
<g>
</g>
<g>
</g>
<g>
</g>
<g>
</g>
</svg>
