<?xml version="1.0" encoding="iso-8859-1"?>
<!-- Generator: Adobe Illustrator 19.0.0, SVG Export Plug-In . SVG Version: 6.00 Build 0)  -->
<svg xmlns="http://www.w3.org/2000/svg" xmlns:xlink="http://www.w3.org/1999/xlink" version="1.1" id="Layer_1" x="0px" y="0px" viewBox="0 0 512 512" style="enable-background:new 0 0 512 512;" xml:space="preserve">
<g>
	<g>
		<path d="M497.144,52.234L356.467,21.652C349.695,8.79,336.191,0,320.674,0H191.326c-15.517,0-29.021,8.79-35.794,21.652    L14.857,52.234C6.247,54.105,0,61.857,0,70.667v109.881c0,10.401,8.463,18.863,18.863,18.863h86.232    c0.661,0,1.319-0.081,1.961-0.241l43.116-10.779c4.332-1.082,6.965-5.472,5.882-9.803c-1.083-4.333-5.475-6.968-9.803-5.882    l-42.15,10.538H18.863c-1.485,0-2.695-1.209-2.695-2.695V70.667c0-1.258,0.892-2.366,2.122-2.633L150.924,39.2    c-0.012,0.405-0.018,0.814-0.018,1.221c0,40.119,32.639,72.758,72.758,72.758H256c4.465,0,8.084-3.62,8.084-8.084    c0-4.465-3.62-8.084-8.084-8.084h-32.337c-31.204,0-56.589-25.385-56.589-56.589c0-13.373,10.879-24.253,24.253-24.253h2.695    v24.253c0,16.345,13.297,29.642,29.642,29.642h64.674c16.345,0,29.642-13.297,29.642-29.642V16.168h2.695    c13.373,0,24.253,10.879,24.253,24.253c0,31.204-25.385,56.589-56.589,56.589c-4.465,0-8.084,3.62-8.084,8.084    c0,4.465,3.62,8.084,8.084,8.084c40.119,0,72.758-32.639,72.758-72.758c0-0.407-0.006-0.816-0.018-1.221L493.71,68.033    c1.23,0.267,2.121,1.374,2.121,2.632v109.882c0,1.485-1.209,2.695-2.695,2.695H407.9l-42.15-10.538    c-4.327-1.081-8.72,1.55-9.803,5.882c-1.083,4.331,1.55,8.72,5.882,9.803l36.992,9.248v295.498c0,1.485-1.209,2.695-2.695,2.695    h-24.253v-29.642c0-7.43-6.044-13.474-13.474-13.474h-21.558c-7.43,0-13.474,6.044-13.474,13.474v29.642H115.874    c-1.485,0-2.695-1.209-2.695-2.695V224.022c0-4.465-3.62-8.084-8.084-8.084c-4.465,0-8.084,3.62-8.084,8.084v269.115    c0,10.401,8.463,18.863,18.863,18.863h280.253c10.401,0,18.863-8.463,18.863-18.863V199.411h78.147    c10.401,0,18.863-8.463,18.863-18.863V70.667C512,61.857,505.753,54.105,497.144,52.234z M301.811,40.421    c0,7.43-6.044,13.474-13.474,13.474h-64.674c-7.43,0-13.474-6.044-13.474-13.474V16.168h91.621V40.421z M355.705,495.832h-16.168    v-26.947h16.168V495.832z"/>
	</g>
</g>
<g>
</g>
<g>
</g>
<g>
</g>
<g>
</g>
<g>
</g>
<g>
</g>
<g>
</g>
<g>
</g>
<g>
</g>
<g>
</g>
<g>
</g>
<g>
</g>
<g>
</g>
<g>
</g>
<g>
</g>
</svg>
