<?xml version="1.0" encoding="iso-8859-1"?>
<!-- Generator: Adobe Illustrator 19.0.0, SVG Export Plug-In . SVG Version: 6.00 Build 0)  -->
<svg xmlns="http://www.w3.org/2000/svg" xmlns:xlink="http://www.w3.org/1999/xlink" version="1.1" id="Layer_1" x="0px" y="0px" viewBox="0 0 512 512" style="enable-background:new 0 0 512 512;" xml:space="preserve">
<g>
	<g>
		<g>
			<path d="M207.495,215.579c-4.466,0-8.084,3.62-8.084,8.084v204.8c0,4.465,3.618,8.084,8.084,8.084     c4.466,0,8.084-3.62,8.084-8.084v-204.8C215.579,219.199,211.96,215.579,207.495,215.579z"/>
			<path d="M78.147,495.832H67.368c-4.466,0-8.084,3.62-8.084,8.084c0,4.465,3.618,8.084,8.084,8.084h10.779     c4.466,0,8.084-3.62,8.084-8.084C86.232,499.451,82.613,495.832,78.147,495.832z"/>
			<path d="M344.926,428.463v-204.8c0-4.465-3.619-8.084-8.084-8.084s-8.084,3.62-8.084,8.084v204.8     c0,4.465,3.619,8.084,8.084,8.084S344.926,432.928,344.926,428.463z"/>
			<path d="M423.074,53.895h-35.032V29.642C388.042,13.297,374.744,0,358.4,0H185.937c-16.344,0-29.642,13.297-29.642,29.642v24.253     h-35.032c-16.344,0-29.642,13.297-29.642,29.642v53.895c0,13.627,9.243,25.134,21.787,28.586l10.549,316.486     c0.024,4.794,1.192,9.325,3.243,13.328h-16.717c-4.466,0-8.084,3.62-8.084,8.084c0,4.465,3.618,8.084,8.084,8.084h97.011     c4.466,0,8.084-3.62,8.084-8.084c0-4.465-3.619-8.084-8.084-8.084H153.6c-7.43,0-13.474-6.044-13.474-13.474     c0-0.089-0.001-0.18-0.004-0.269l-10.501-315.015h207.221c4.466,0,8.084-3.62,8.084-8.084c0-4.465-3.619-8.084-8.084-8.084     H121.306c-0.024,0-0.047,0-0.07,0c-7.417-0.015-13.447-6.053-13.447-13.474v-18.863h185.937c4.466,0,8.084-3.62,8.084-8.084     c0-4.465-3.619-8.084-8.084-8.084H107.79V83.537c0-7.43,6.044-13.474,13.474-13.474h301.81c7.43,0,13.474,6.044,13.474,13.474     v53.895c0,7.42-6.03,13.459-13.447,13.474c-0.021,0-0.045,0-0.07,0h-43.073c-4.466,0-8.084,3.62-8.084,8.084     c0,4.465,3.619,8.084,8.084,8.084h34.758l-10.501,315.015c-0.003,0.089-0.004,0.18-0.004,0.269     c0,7.43-6.044,13.474-13.474,13.474H239.832c-4.466,0-8.084,3.62-8.084,8.084c0,4.465,3.618,8.084,8.084,8.084h150.905     c16.296,0,29.562-13.219,29.642-29.497l10.549-316.486c12.545-3.451,21.787-14.959,21.787-28.586V83.537     C452.716,67.192,439.418,53.895,423.074,53.895z M371.874,53.895h-199.41V29.642c0-7.43,6.044-13.474,13.474-13.474H358.4     c7.43,0,13.474,6.044,13.474,13.474V53.895z"/>
			<path d="M280.253,428.463v-204.8c0-4.465-3.618-8.084-8.084-8.084c-4.466,0-8.084,3.62-8.084,8.084v204.8     c0,4.465,3.618,8.084,8.084,8.084C276.634,436.547,280.253,432.928,280.253,428.463z"/>
		</g>
	</g>
</g>
<g>
</g>
<g>
</g>
<g>
</g>
<g>
</g>
<g>
</g>
<g>
</g>
<g>
</g>
<g>
</g>
<g>
</g>
<g>
</g>
<g>
</g>
<g>
</g>
<g>
</g>
<g>
</g>
<g>
</g>
</svg>
