<?xml version="1.0" encoding="iso-8859-1"?>
<!-- Generator: Adobe Illustrator 19.0.0, SVG Export Plug-In . SVG Version: 6.00 Build 0)  -->
<svg xmlns="http://www.w3.org/2000/svg" xmlns:xlink="http://www.w3.org/1999/xlink" version="1.1" id="Layer_1" x="0px" y="0px" viewBox="0 0 512 512" style="enable-background:new 0 0 512 512;" xml:space="preserve">
<g>
	<g>
		<g>
			<path d="M503.916,53.895c-43.335,0-79.07,33.169-83.149,75.453h-78.535c-4.466,0-8.084,3.619-8.084,8.084     c0,4.466,3.619,8.084,8.084,8.084H460.8c4.466,0,8.084-3.618,8.084-8.084c0-4.466-3.618-8.084-8.084-8.084h-23.771     c3.686-30.702,28.102-55.116,58.802-58.802v104.613c0,16.344-13.298,29.642-29.642,29.642H293.726     c-16.344,0-29.642-13.298-29.642-29.642s13.298-29.642,29.642-29.642h16.168c4.466,0,8.084-3.618,8.084-8.084     c0-4.466-3.618-8.084-8.084-8.084h-16.168c-25.26,0-45.811,20.55-45.811,45.811s20.55,45.811,45.811,45.811h172.463     c25.26,0,45.811-20.55,45.811-45.811V61.979C512,57.513,508.382,53.895,503.916,53.895z"/>
			<path d="M490.442,378.383V277.558c0-16.344-13.298-29.642-29.642-29.642H299.116c-16.344,0-29.642,13.298-29.642,29.642v99.705     H29.642C13.298,377.263,0,390.561,0,406.905v21.558c0,16.344,13.298,29.642,29.642,29.642h452.716     c16.344,0,29.642-13.298,29.642-29.642v-21.558C512,393.363,502.87,381.911,490.442,378.383z M495.832,428.463     c0,7.43-6.044,13.474-13.474,13.474H29.642c-7.43,0-13.474-6.044-13.474-13.474v-2.695h218.274c4.466,0,8.084-3.619,8.084-8.084     s-3.618-8.084-8.084-8.084H16.168v-2.695c0-7.43,6.044-13.474,13.474-13.474h388.042c4.466,0,8.084-3.618,8.084-8.084     c0-4.466-3.619-8.084-8.084-8.084H285.642v-99.705c0-7.43,6.044-13.474,13.474-13.474h8.084v67.368     c0,4.466,3.618,8.084,8.084,8.084c4.466,0,8.084-3.619,8.084-8.084v-67.368h26.947v35.032c0,4.466,3.618,8.084,8.084,8.084     c4.466,0,8.084-3.618,8.084-8.084v-35.032h26.947v67.368c0,4.466,3.618,8.084,8.084,8.084c4.466,0,8.084-3.619,8.084-8.084     v-67.368h26.947v35.032c0,4.466,3.618,8.084,8.084,8.084c4.466,0,8.084-3.618,8.084-8.084v-35.032h8.084     c7.43,0,13.474,6.044,13.474,13.474v99.705h-24.253c-4.466,0-8.084,3.618-8.084,8.084c0,4.466,3.618,8.084,8.084,8.084h32.337     c7.43,0,13.474,6.044,13.474,13.474V428.463z"/>
		</g>
	</g>
</g>
<g>
</g>
<g>
</g>
<g>
</g>
<g>
</g>
<g>
</g>
<g>
</g>
<g>
</g>
<g>
</g>
<g>
</g>
<g>
</g>
<g>
</g>
<g>
</g>
<g>
</g>
<g>
</g>
<g>
</g>
</svg>
