<?xml version="1.0" encoding="iso-8859-1"?>
<!-- Generator: Adobe Illustrator 19.0.0, SVG Export Plug-In . SVG Version: 6.00 Build 0)  -->
<svg xmlns="http://www.w3.org/2000/svg" xmlns:xlink="http://www.w3.org/1999/xlink" version="1.1" id="Layer_1" x="0px" y="0px" viewBox="0 0 512 512" style="enable-background:new 0 0 512 512;" xml:space="preserve">
<g>
	<g>
		<g>
			<path d="M207.495,139.69c28.168,0,56.589-7.364,56.589-23.816s-28.422-23.816-56.589-23.816s-56.589,7.364-56.589,23.816     S179.327,139.69,207.495,139.69z M207.495,108.226c21.722,0,35.228,4.724,39.438,7.648c-4.21,2.923-17.716,7.648-39.438,7.648     s-35.228-4.724-39.438-7.648C172.267,112.95,185.773,108.226,207.495,108.226z"/>
			<path d="M512,192.404c0-11.772-5.499-22.284-14.062-29.103C506.501,156.482,512,145.97,512,134.198     c0-20.505-16.683-37.187-37.187-37.187h-66.051c-9.275-13.422-28.795-25.161-57.768-34.558     c-38.448-12.469-89.41-19.336-143.499-19.336S102.444,49.983,63.997,62.452C22.129,76.031,0,94.504,0,115.874v280.253     c0,21.369,22.129,39.842,63.997,53.422c38.447,12.469,89.409,19.336,143.498,19.336s105.051-6.867,143.498-19.336     c36.491-11.834,57.987-27.388,62.907-45.337h60.913c20.505,0,37.187-16.683,37.187-37.187c0-11.772-5.499-22.284-14.062-29.103     c8.563-6.819,14.062-17.331,14.062-29.103s-5.499-22.284-14.062-29.103c8.563-6.819,14.062-17.331,14.062-29.103     c0-11.772-5.499-22.284-14.062-29.103C506.501,214.689,512,204.176,512,192.404z M68.984,77.833     c36.879-11.961,86.071-18.548,138.511-18.548s101.631,6.587,138.511,18.548c33.072,10.726,52.816,24.948,52.816,38.041     c0,13.093-19.744,27.315-52.816,38.041c-36.879,11.961-86.071,18.548-138.511,18.548s-101.631-6.587-138.511-18.548     c-33.072-10.726-52.816-24.948-52.816-38.041C16.168,102.781,35.912,88.559,68.984,77.833z M474.813,171.385     c11.59,0,21.019,9.429,21.019,21.019c0,11.589-9.429,21.019-21.019,21.019c-4.465,0-8.084,3.618-8.084,8.084     c0,4.466,3.62,8.084,8.084,8.084c11.59,0,21.019,9.429,21.019,21.019c0,11.59-9.429,21.019-21.019,21.019     c-4.465,0-8.084,3.619-8.084,8.084s3.62,8.084,8.084,8.084c11.59,0,21.019,9.429,21.019,21.019s-9.429,21.019-21.019,21.019     c-4.465,0-8.084,3.618-8.084,8.084c0,4.466,3.62,8.084,8.084,8.084c11.59,0,21.019,9.429,21.019,21.019     s-9.429,21.019-21.019,21.019h-59.823V353.01c0-4.466-3.62-8.084-8.084-8.084c-4.465,0-8.084,3.618-8.084,8.084v43.116     c0,13.093-19.744,27.315-52.816,38.041c-36.879,11.961-86.071,18.548-138.511,18.548s-101.631-6.587-138.511-18.548     c-33.072-10.726-52.816-24.948-52.816-38.041v-13.591c10.767,9.031,26.81,17.08,47.828,23.897     c38.447,12.469,89.409,19.336,143.498,19.336c4.465,0,8.084-3.619,8.084-8.084s-3.62-8.084-8.084-8.084     c-52.44,0-101.631-6.587-138.511-18.548c-33.072-10.726-52.816-24.948-52.816-38.041v-13.678     c16.98,14.326,46.859,26.12,87.383,34.002c4.377,0.85,8.626-2.01,9.479-6.393c0.853-4.382-2.01-8.626-6.393-9.479     c-62.495-12.154-90.469-32.648-90.469-47.568V145.398c10.767,9.031,26.81,17.08,47.828,23.897     c38.447,12.469,89.409,19.336,143.498,19.336s105.051-6.867,143.498-19.336c21.018-6.817,37.061-14.866,47.828-23.897v175.275     c0,4.466,3.62,8.084,8.084,8.084c4.465,0,8.084-3.618,8.084-8.084v-204.8c0-0.904-0.04-1.801-0.119-2.695h59.942     c11.59,0,21.019,9.429,21.019,21.019c0,11.59-9.429,21.019-21.019,21.019c-4.465,0-8.084,3.618-8.084,8.084     C466.728,167.767,470.348,171.385,474.813,171.385z"/>
		</g>
	</g>
</g>
<g>
</g>
<g>
</g>
<g>
</g>
<g>
</g>
<g>
</g>
<g>
</g>
<g>
</g>
<g>
</g>
<g>
</g>
<g>
</g>
<g>
</g>
<g>
</g>
<g>
</g>
<g>
</g>
<g>
</g>
</svg>
