<?xml version="1.0" encoding="iso-8859-1"?>
<!-- Generator: Adobe Illustrator 19.0.0, SVG Export Plug-In . SVG Version: 6.00 Build 0)  -->
<svg xmlns="http://www.w3.org/2000/svg" xmlns:xlink="http://www.w3.org/1999/xlink" version="1.1" id="Layer_1" x="0px" y="0px" viewBox="0 0 512 512" style="enable-background:new 0 0 512 512;" xml:space="preserve">
<g>
	<g>
		<g>
			<path d="M309.895,48.505h75.453c7.43,0,13.474,6.044,13.474,13.474v21.558c0,7.43-6.044,13.474-13.474,13.474     c-10.401,0-18.863,8.463-18.863,18.863v21.558c0,4.465,3.619,8.084,8.084,8.084s8.084-3.62,8.084-8.084v-21.558     c0-1.485,1.208-2.695,2.695-2.695c16.344,0,29.642-13.297,29.642-29.642V61.979c0-16.345-13.298-29.642-29.642-29.642h-75.453     c-4.466,0-8.084,3.62-8.084,8.084C301.811,44.886,305.429,48.505,309.895,48.505z"/>
			<path d="M191.326,113.179c4.465,0,8.084-3.62,8.084-8.084V8.084c0-4.465-3.62-8.084-8.084-8.084c-4.465,0-8.084,3.62-8.084,8.084     v97.01C183.242,109.559,186.862,113.179,191.326,113.179z"/>
			<path d="M277.558,113.179c4.466,0,8.084-3.62,8.084-8.084V8.084c0-4.465-3.618-8.084-8.084-8.084     c-4.466,0-8.084,3.62-8.084,8.084v97.01C269.474,109.559,273.092,113.179,277.558,113.179z"/>
			<path d="M234.442,113.179c4.465,0,8.084-3.62,8.084-8.084V8.084c0-4.465-3.62-8.084-8.084-8.084c-4.465,0-8.084,3.62-8.084,8.084     v97.01C226.358,109.559,229.977,113.179,234.442,113.179z"/>
			<path d="M83.537,113.179c1.485,0,2.695,1.209,2.695,2.695v21.558c0,4.465,3.62,8.084,8.084,8.084s8.084-3.62,8.084-8.084v-21.558     c0-10.401-8.463-18.863-18.863-18.863c-7.43,0-13.474-6.044-13.474-13.474V61.979c0-7.43,6.044-13.474,13.474-13.474h75.453     c4.465,0,8.084-3.62,8.084-8.084c0-4.465-3.62-8.084-8.084-8.084H83.537c-16.345,0-29.642,13.297-29.642,29.642v21.558     C53.895,99.882,67.192,113.179,83.537,113.179z"/>
			<path d="M482.358,215.579h-13.474v-2.695c0-28.231-22.969-51.2-51.2-51.2H51.2c-28.231,0-51.2,22.969-51.2,51.2v118.568     c0,4.465,3.62,8.084,8.084,8.084s8.084-3.62,8.084-8.084v-51.2h110.484c4.465,0,8.084-3.62,8.084-8.084     c0-4.465-3.62-8.084-8.084-8.084H16.168v-51.2c0-19.316,15.716-35.032,35.032-35.032h366.484     c19.317,0,35.032,15.716,35.032,35.032v51.2H342.232c-4.466,0-8.084,3.62-8.084,8.084c0,4.465,3.619,8.084,8.084,8.084h110.484     v61.979c0,4.465,3.619,8.084,8.084,8.084c4.466,0,8.084-3.62,8.084-8.084v-24.253h13.474c16.344,0,29.642-13.297,29.642-29.642     v-43.116C512,228.876,498.702,215.579,482.358,215.579z M495.832,288.337c0,7.43-6.044,13.474-13.474,13.474h-13.474v-70.063     h13.474c7.43,0,13.474,6.044,13.474,13.474V288.337z"/>
			<path d="M288.337,301.811c16.344,0,29.642-13.297,29.642-29.642v-10.779c0-16.345-13.298-29.642-29.642-29.642h-107.79     c-16.345,0-29.642,13.297-29.642,29.642v10.779c0,16.345,13.297,29.642,29.642,29.642H288.337z M167.074,272.168v-10.779     c0-7.43,6.044-13.474,13.474-13.474h107.79c7.43,0,13.474,6.044,13.474,13.474v10.779c0,7.43-6.044,13.474-13.474,13.474h-107.79     C173.117,285.642,167.074,279.598,167.074,272.168z"/>
			<path d="M460.8,366.484c-4.466,0-8.084,3.62-8.084,8.084v53.895c0,19.316-15.715,35.032-35.032,35.032H51.2     c-19.316,0-35.032-15.716-35.032-35.032v-64.674c0-4.465-3.62-8.084-8.084-8.084S0,359.325,0,363.789v64.674     c0,28.231,22.969,51.2,51.2,51.2h3.506C58.463,498.09,74.795,512,94.316,512s35.853-13.91,39.609-32.337h201.034     C338.716,498.09,355.049,512,374.568,512s35.853-13.91,39.609-32.337h3.506c28.231,0,51.2-22.969,51.2-51.2v-53.895     C468.884,370.104,465.266,366.484,460.8,366.484z M94.316,495.832c-10.54,0-19.531-6.758-22.868-16.168h45.735     C113.847,489.073,104.855,495.832,94.316,495.832z M374.568,495.832c-10.54,0-19.53-6.758-22.868-16.168h45.735     C394.099,489.073,385.108,495.832,374.568,495.832z"/>
		</g>
	</g>
</g>
<g>
</g>
<g>
</g>
<g>
</g>
<g>
</g>
<g>
</g>
<g>
</g>
<g>
</g>
<g>
</g>
<g>
</g>
<g>
</g>
<g>
</g>
<g>
</g>
<g>
</g>
<g>
</g>
<g>
</g>
</svg>
