<?xml version="1.0" encoding="iso-8859-1"?>
<!-- Generator: Adobe Illustrator 19.0.0, SVG Export Plug-In . SVG Version: 6.00 Build 0)  -->
<svg xmlns="http://www.w3.org/2000/svg" xmlns:xlink="http://www.w3.org/1999/xlink" version="1.1" id="Layer_1" x="0px" y="0px" viewBox="0 0 512.001 512.001" style="enable-background:new 0 0 512.001 512.001;" xml:space="preserve">
<g>
	<g>
		<g>
			<path d="M212.884,228.196h-13.474v-34.8c0-4.436-3.62-8.03-8.084-8.03c-4.465,0-8.084,3.595-8.084,8.03v42.83     c0,4.436,3.62,8.03,8.084,8.03h21.558c4.465,0,8.084-3.595,8.084-8.03S217.349,228.196,212.884,228.196z"/>
			<path d="M495.808,300.473c9.826-7.332,16.193-19.003,16.193-32.122c0-13.119-6.367-24.79-16.193-32.122     c9.825-7.334,16.192-19.005,16.192-32.125c0-13.12-6.367-24.79-16.193-32.122C505.633,164.65,512,152.979,512,139.86     c0-22.141-18.132-40.154-40.421-40.154H309.895c-18.411,0-34.5,12.351-39.124,30.034c-0.321,1.23-1.4,2.088-2.622,2.088h-14.843     v-2.676c0-10.333-8.463-18.738-18.863-18.738H148.21c-10.401,0-18.863,8.406-18.863,18.738v2.676H29.642     C13.297,131.828,0,145.038,0,161.274v42.83c0,4.436,3.62,8.03,8.084,8.03s8.084-3.595,8.084-8.03v-42.83     c0-7.38,6.044-13.384,13.474-13.384h99.705v12.102c-6.579,5.406-10.779,13.574-10.779,22.698v107.076     c0,9.124,4.199,17.293,10.779,22.698v12.102H29.642c-7.43,0-13.474-6.004-13.474-13.384v-42.83c0-4.436-3.62-8.03-8.084-8.03     S0,263.916,0,268.351v42.83c0,16.236,13.297,29.446,29.642,29.446h99.705v2.676c0,10.333,8.463,18.738,18.863,18.738h86.232     c10.401,0,18.863-8.406,18.863-18.738v-2.676h14.843c1.222,0,2.301,0.858,2.622,2.089c4.624,17.683,20.713,30.033,39.124,30.033     h28.918c4.082,7.737,10.561,13.899,18.682,17.661l39.076,18.1c5.435,2.518,11.235,3.784,17.059,3.784     c4.662-0.001,9.338-0.813,13.849-2.444c10.146-3.668,18.247-11.041,22.809-20.761c2.41-5.134,3.683-10.723,3.777-16.341h17.516     c22.289,0,40.421-18.013,40.421-40.154C512.001,319.476,505.634,307.805,495.808,300.473z M145.516,139.858v-10.708     c0-1.477,1.209-2.676,2.695-2.676h86.232c1.485,0,2.695,1.201,2.695,2.676v10.618c0,0.029,0,0.059,0,0.088s0,0.059,0,0.088     v13.415c-0.887-0.08-1.787-0.121-2.695-0.121H148.21c-0.908,0-1.808,0.041-2.695,0.121V139.858z M237.137,332.506     c0,0.029,0,0.059,0,0.088s0,0.059,0,0.088v10.618c0,1.477-1.209,2.676-2.695,2.676H148.21c-1.485,0-2.695-1.201-2.695-2.676     v-10.708v-13.505c0.887,0.08,1.787,0.121,2.695,0.121h86.232c0.908,0,1.808-0.041,2.695-0.121V332.506z M247.916,289.765     c0,7.38-6.044,13.384-13.474,13.384H148.21c-7.43,0-13.474-6.004-13.474-13.384V182.689c0-7.38,6.044-13.384,13.474-13.384     h86.232c7.43,0,13.474,6.004,13.474,13.384V289.765z M471.579,356.686h-26.28c-0.114-0.002-0.229-0.002-0.343,0h-38.051     c-4.465,0-8.084,3.595-8.084,8.03s3.62,8.03,8.084,8.03h31.007c-0.082,3.27-0.846,6.5-2.28,9.552     c-2.738,5.833-7.598,10.257-13.685,12.458c-6.086,2.2-12.673,1.914-18.545-0.804l-39.076-18.1     c-1.819-0.843-3.501-1.886-5.022-3.105h15.264c4.465,0,8.084-3.595,8.084-8.03s-3.62-8.03-8.084-8.03h-30.347     c-0.089-0.002-0.18-0.002-0.269,0h-34.057c-11.048,0-20.703-7.406-23.475-18.011c-2.173-8.308-9.686-14.112-18.272-14.112     h-14.842v-12.102c6.58-5.406,10.779-13.574,10.779-22.698v-8.03h2.695c16.345,0,29.642-13.21,29.642-29.446v-32.122     c0-16.236-13.297-29.446-29.642-29.446h-2.695v-8.03c0-9.124-4.199-17.292-10.779-22.698V147.89h14.843     c8.585,0,16.099-5.802,18.272-14.111c2.772-10.605,12.426-18.012,23.475-18.012H471.58c13.373,0,24.253,10.808,24.253,24.092     s-10.879,24.092-24.253,24.092h-43.116c-4.465,0-8.084,3.595-8.084,8.03c0,4.436,3.62,8.03,8.084,8.03h43.116     c13.373,0,24.253,10.808,24.253,24.092c-0.001,13.284-10.88,24.092-24.254,24.092h-43.116c-4.465,0-8.084,3.595-8.084,8.03     s3.62,8.03,8.084,8.03h43.116c13.373,0,24.253,10.808,24.253,24.092s-10.879,24.092-24.253,24.092h-43.116     c-4.465,0-8.084,3.595-8.084,8.03c0,4.435,3.62,8.03,8.084,8.03h43.116c13.373,0,24.253,10.808,24.253,24.092     C495.832,345.878,484.952,356.686,471.579,356.686z M264.084,265.671v-58.891h2.695c7.43,0,13.474,6.004,13.474,13.384v32.122     c0,7.38-6.044,13.384-13.474,13.384H264.084z"/>
		</g>
	</g>
</g>
<g>
</g>
<g>
</g>
<g>
</g>
<g>
</g>
<g>
</g>
<g>
</g>
<g>
</g>
<g>
</g>
<g>
</g>
<g>
</g>
<g>
</g>
<g>
</g>
<g>
</g>
<g>
</g>
<g>
</g>
</svg>
