<?xml version="1.0" encoding="iso-8859-1"?>
<!-- Generator: Adobe Illustrator 19.0.0, SVG Export Plug-In . SVG Version: 6.00 Build 0)  -->
<svg xmlns="http://www.w3.org/2000/svg" xmlns:xlink="http://www.w3.org/1999/xlink" version="1.1" id="Layer_1" x="0px" y="0px" viewBox="0 0 512 512" style="enable-background:new 0 0 512 512;" xml:space="preserve">
<g>
	<g>
		<path d="M355.611,424.019l-18.678-260.105c-0.67-9.335-4.816-17.696-11.113-23.856c6.261-4.428,10.747-11.246,12.098-19.305    l14.448-86.232c1.439-8.588-0.967-17.33-6.601-23.986C340.098,3.841,331.806,0,323.015,0H200.8    c-8.791,0-17.084,3.841-22.751,10.535c-5.634,6.657-8.039,15.399-6.6,23.986l14.448,86.232    c1.351,8.059,5.837,14.877,12.098,19.306c-6.297,6.159-10.444,14.52-11.113,23.855l-10.678,148.675h-1.047    c-10.401,0-18.863,8.463-18.863,18.863v21.558c0,10.401,8.463,18.863,18.863,18.863h97.7c16.345,0,29.642-13.298,29.642-29.642    s-13.298-29.642-29.642-29.642h-80.443l10.594-147.516c0.788-10.966,10.08-19.557,21.156-19.557h9.669l-12.186,54.836    c-0.969,4.358,1.78,8.677,6.138,9.645c4.359,0.973,8.677-1.779,9.645-6.138l14.373-64.674c0.532-2.394-0.051-4.9-1.586-6.812    c-1.534-1.912-3.853-3.026-6.306-3.026h-28.662c-6.673,0-12.311-4.738-13.405-11.265l-14.448-86.232    c-0.651-3.888,0.44-7.85,2.995-10.87c2.589-3.058,6.382-4.813,10.409-4.813h122.216c4.026,0,7.82,1.754,10.409,4.813    c2.556,3.019,3.648,6.982,2.995,10.87l-14.448,86.232c-1.094,6.528-6.731,11.265-13.405,11.265h-28.726    c-2.452,0-4.772,1.112-6.306,3.026c-1.535,1.912-2.118,4.419-1.586,6.812l14.372,64.674c0.969,4.359,5.284,7.111,9.645,6.138    c4.358-0.968,7.107-5.286,6.138-9.645l-12.187-54.836h9.731c11.075,0,20.369,8.591,21.156,19.557l18.678,260.105    c0.475,6.617-2.267,13.146-7.336,17.468l-56.421,48.104c-3.844,3.277-8.753,5.082-13.819,5.082c-5.066,0-9.975-1.805-13.819-5.082    l-56.421-48.104c-5.069-4.322-7.812-10.851-7.336-17.468l2.045-28.471c0.319-4.453-3.031-8.322-7.485-8.643    c-4.444-0.337-8.322,3.031-8.643,7.484l-2.045,28.471c-0.842,11.723,4.009,23.287,12.975,30.929l56.421,48.104    c6.768,5.77,15.401,8.948,24.309,8.948c8.909,0,17.542-3.178,24.309-8.948l56.421-48.104    C351.604,447.305,356.453,435.743,355.611,424.019z M272.858,328.758c7.43,0,13.474,6.044,13.474,13.474    s-6.044,13.474-13.474,13.474h-97.7c-1.485,0-2.695-1.208-2.695-2.695v-21.558c0-1.486,1.209-2.695,2.695-2.695h8.502    c0.052,0,0.103,0,0.155,0H272.858z"/>
	</g>
</g>
<g>
</g>
<g>
</g>
<g>
</g>
<g>
</g>
<g>
</g>
<g>
</g>
<g>
</g>
<g>
</g>
<g>
</g>
<g>
</g>
<g>
</g>
<g>
</g>
<g>
</g>
<g>
</g>
<g>
</g>
</svg>
