<?xml version="1.0" encoding="iso-8859-1"?>
<!-- Generator: Adobe Illustrator 19.0.0, SVG Export Plug-In . SVG Version: 6.00 Build 0)  -->
<svg xmlns="http://www.w3.org/2000/svg" xmlns:xlink="http://www.w3.org/1999/xlink" version="1.1" id="Layer_1" x="0px" y="0px" viewBox="0 0 512 512" style="enable-background:new 0 0 512 512;" xml:space="preserve">
<g>
	<g>
		<g>
			<path d="M212.884,301.811H51.2c-4.466,0-8.084,3.618-8.084,8.084c0,4.466,3.619,8.084,8.084,8.084h161.684     c4.466,0,8.084-3.618,8.084-8.084C220.968,305.429,217.35,301.811,212.884,301.811z"/>
			<path d="M320.674,280.253c-4.466,0-8.084,3.618-8.084,8.084v10.779c0,4.466,3.618,8.084,8.084,8.084     c4.466,0,8.084-3.618,8.084-8.084v-10.779C328.758,283.871,325.139,280.253,320.674,280.253z"/>
			<path d="M460.8,107.789h-97.01c-18.081,0-34.003,9.422-43.116,23.612c-9.113-14.19-25.035-23.612-43.116-23.612H51.2     c-28.231,0-51.2,22.969-51.2,51.2V353.01c0,28.231,22.969,51.2,51.2,51.2h226.358c18.081,0,34.003-9.422,43.116-23.612     c9.112,14.19,25.035,23.612,43.116,23.612h97.01c28.231,0,51.2-22.969,51.2-51.2V158.99     C512,130.758,489.031,107.789,460.8,107.789z M495.832,353.01c0,19.317-15.715,35.032-35.032,35.032h-97.01     c-19.317,0-35.032-15.715-35.032-35.032v-21.558c0-4.466-3.618-8.084-8.084-8.084c-4.466,0-8.084,3.619-8.084,8.084v21.558     c0,19.317-15.715,35.032-35.032,35.032H51.2c-19.317,0-35.032-15.715-35.032-35.032v-153.6h272.168     c4.466,0,8.084-3.618,8.084-8.084c0-4.466-3.619-8.084-8.084-8.084H16.168V158.99c0-19.317,15.715-35.032,35.032-35.032h226.358     c19.317,0,35.032,15.715,35.032,35.032v53.895c0,4.466,3.618,8.084,8.084,8.084c4.466,0,8.084-3.619,8.084-8.084v-13.474h142.821     c4.466,0,8.084-3.618,8.084-8.084c0-4.466-3.618-8.084-8.084-8.084H328.758V158.99c0-19.317,15.715-35.032,35.032-35.032h97.01     c19.317,0,35.032,15.715,35.032,35.032V353.01z"/>
			<path d="M320.674,237.137c-4.466,0-8.084,3.618-8.084,8.084V256c0,4.466,3.618,8.084,8.084,8.084     c4.466,0,8.084-3.619,8.084-8.084v-10.779C328.758,240.755,325.139,237.137,320.674,237.137z"/>
			<path d="M406.905,150.905h-43.116c-4.466,0-8.084,3.618-8.084,8.084c0,4.466,3.618,8.084,8.084,8.084h43.116     c4.466,0,8.084-3.618,8.084-8.084C414.989,154.524,411.371,150.905,406.905,150.905z"/>
			<path d="M158.989,150.905H51.2c-4.466,0-8.084,3.618-8.084,8.084c0,4.466,3.619,8.084,8.084,8.084h107.789     c4.466,0,8.084-3.618,8.084-8.084C167.074,154.524,163.455,150.905,158.989,150.905z"/>
			<path d="M158.989,334.147H51.2c-4.466,0-8.084,3.619-8.084,8.084c0,4.466,3.619,8.084,8.084,8.084h107.789     c4.466,0,8.084-3.618,8.084-8.084C167.074,337.766,163.455,334.147,158.989,334.147z"/>
			<path d="M441.937,312.589c-4.466,0-8.084,3.618-8.084,8.084v21.558c0,4.466,3.619,8.084,8.084,8.084     c4.466,0,8.084-3.618,8.084-8.084v-21.558C450.021,316.208,446.403,312.589,441.937,312.589z"/>
			<path d="M463.495,312.589c-4.466,0-8.084,3.618-8.084,8.084v21.558c0,4.466,3.618,8.084,8.084,8.084     c4.466,0,8.084-3.618,8.084-8.084v-21.558C471.579,316.208,467.96,312.589,463.495,312.589z"/>
			<path d="M409.6,312.589c-4.466,0-8.084,3.618-8.084,8.084v21.558c0,4.466,3.618,8.084,8.084,8.084     c4.466,0,8.084-3.618,8.084-8.084v-21.558C417.684,316.208,414.066,312.589,409.6,312.589z"/>
			<path d="M361.095,312.589c-4.466,0-8.084,3.618-8.084,8.084v21.558c0,4.466,3.619,8.084,8.084,8.084     c4.466,0,8.084-3.618,8.084-8.084v-21.558C369.179,316.208,365.56,312.589,361.095,312.589z"/>
			<path d="M388.042,312.589c-4.466,0-8.084,3.618-8.084,8.084v21.558c0,4.466,3.618,8.084,8.084,8.084     c4.466,0,8.084-3.618,8.084-8.084v-21.558C396.126,316.208,392.508,312.589,388.042,312.589z"/>
		</g>
	</g>
</g>
<g>
</g>
<g>
</g>
<g>
</g>
<g>
</g>
<g>
</g>
<g>
</g>
<g>
</g>
<g>
</g>
<g>
</g>
<g>
</g>
<g>
</g>
<g>
</g>
<g>
</g>
<g>
</g>
<g>
</g>
</svg>
