<?xml version="1.0" encoding="iso-8859-1"?>
<!-- Generator: Adobe Illustrator 19.0.0, SVG Export Plug-In . SVG Version: 6.00 Build 0)  -->
<svg xmlns="http://www.w3.org/2000/svg" xmlns:xlink="http://www.w3.org/1999/xlink" version="1.1" id="Layer_1" x="0px" y="0px" viewBox="0 0 512 512" style="enable-background:new 0 0 512 512;" xml:space="preserve">
<g>
	<g>
		<g>
			<path d="M512,288.336c0-13.207-6.367-24.955-16.193-32.337C505.633,248.618,512,236.87,512,223.662     c0-22.289-18.132-40.421-40.421-40.421h-91.608l21.189-62.912c9.021-26.751-5.403-55.855-32.156-64.876     c-15.489-5.227-32.338,3.127-37.56,18.617l-37.971,112.65c-10.989,4.885-19.537,14.561-22.705,26.755     c-0.321,1.237-1.4,2.102-2.623,2.102h-36.398v-2.695c0-16.345-13.297-29.642-29.642-29.642H148.21     c-13.544,0-24.994,9.13-28.521,21.558H29.642C13.297,204.798,0,218.095,0,234.44v53.895c0,4.466,3.62,8.084,8.084,8.084     s8.084-3.618,8.084-8.084V234.44c0-7.43,6.044-13.474,13.474-13.474h88.926v56.589c0,4.466,3.62,8.084,8.084,8.084     c4.465,0,8.084-3.619,8.084-8.084v-64.674c0-7.43,6.044-13.474,13.474-13.474h53.895c7.43,0,13.474,6.044,13.474,13.474v215.581     c0,7.43-6.044,13.474-13.474,13.474H148.21c-7.43,0-13.474-6.044-13.474-13.474V309.894c0-4.466-3.62-8.084-8.084-8.084     c-4.465,0-8.084,3.618-8.084,8.084v110.485H29.642c-7.43,0-13.474-6.044-13.474-13.474v-53.895c0-4.466-3.62-8.084-8.084-8.084     S0,348.545,0,353.011v53.895c0,16.344,13.297,29.642,29.642,29.642h90.047c3.527,12.428,14.978,21.558,28.521,21.558h53.895     c16.345,0,29.642-13.298,29.642-29.642v-2.695h36.401c1.222,0,2.301,0.864,2.622,2.102c4.624,17.803,20.713,30.235,39.124,30.235     h161.684c22.289,0,40.421-18.132,40.421-40.421c0-13.207-6.367-24.955-16.193-32.337c9.826-7.381,16.193-19.129,16.193-32.337     c0-13.207-6.367-24.955-16.193-32.337C505.633,313.293,512,301.543,512,288.336z M471.579,312.589h-43.116     c-4.465,0-8.084,3.618-8.084,8.084c0,4.466,3.62,8.084,8.084,8.084h43.116c13.373,0,24.253,10.88,24.253,24.253     s-10.879,24.253-24.253,24.253h-43.116c-4.465,0-8.084,3.618-8.084,8.084c0,4.466,3.62,8.084,8.084,8.084h43.116     c13.373,0,24.253,10.88,24.253,24.253s-10.879,24.254-24.253,24.254H309.895c-11.048,0-20.703-7.456-23.475-18.131     c-2.173-8.365-9.686-14.206-18.272-14.206h-36.399V231.747h36.401c8.585,0,16.099-5.841,18.272-14.206     c2.772-10.675,12.426-18.131,23.475-18.131c4.465,0,8.084-3.618,8.084-8.084c0-3.863-2.71-7.094-6.333-7.893l35.121-104.197     c2.375-7.04,10.032-10.832,17.073-8.463c18.304,6.173,28.173,26.086,22,44.393l-22.928,68.076h-20.682     c-4.465,0-8.084,3.618-8.084,8.084c0,4.466,3.62,8.084,8.084,8.084h26.302c0.123,0.002,0.247,0.002,0.371,0h102.675     c13.373,0,24.253,10.88,24.253,24.253c0,13.372-10.879,24.253-24.253,24.253h-43.116c-4.465,0-8.084,3.618-8.084,8.084     c0,4.466,3.62,8.084,8.084,8.084h43.116c13.373,0,24.253,10.88,24.253,24.253S484.952,312.589,471.579,312.589z"/>
			<path d="M199.411,401.516c0-13.372-10.879-24.253-24.253-24.253s-24.253,10.879-24.253,24.253     c0,13.373,10.879,24.253,24.253,24.253S199.411,414.888,199.411,401.516z M167.074,401.516c0-4.458,3.626-8.084,8.084-8.084     s8.084,3.626,8.084,8.084c0,4.458-3.626,8.084-8.084,8.084S167.074,405.973,167.074,401.516z"/>
		</g>
	</g>
</g>
<g>
</g>
<g>
</g>
<g>
</g>
<g>
</g>
<g>
</g>
<g>
</g>
<g>
</g>
<g>
</g>
<g>
</g>
<g>
</g>
<g>
</g>
<g>
</g>
<g>
</g>
<g>
</g>
<g>
</g>
</svg>
