<?xml version="1.0" encoding="iso-8859-1"?>
<!-- Generator: Adobe Illustrator 19.0.0, SVG Export Plug-In . SVG Version: 6.00 Build 0)  -->
<svg xmlns="http://www.w3.org/2000/svg" xmlns:xlink="http://www.w3.org/1999/xlink" version="1.1" id="Layer_1" x="0px" y="0px" viewBox="0 0 512 512" style="enable-background:new 0 0 512 512;" xml:space="preserve">
<g>
	<g>
		<g>
			<path d="M493.137,107.789h-2.695V94.316c0-16.344-13.298-29.642-29.642-29.642H51.2c-16.344,0-29.642,13.298-29.642,29.642     v56.589h-2.695C8.463,150.905,0,159.368,0,169.768v75.453c0,10.401,8.463,18.863,18.863,18.863h2.695v16.168h-2.695     C8.463,280.253,0,288.715,0,299.116v32.337c0,10.401,8.463,18.863,18.863,18.863h2.695v67.368     c0,16.344,13.298,29.642,29.642,29.642h409.6c16.344,0,29.642-13.298,29.642-29.642V242.526h2.695     c10.401,0,18.863-8.463,18.863-18.863v-97.011C512,116.252,503.537,107.789,493.137,107.789z M18.863,247.916     c-1.486,0-2.695-1.208-2.695-2.695v-75.453c0-1.486,1.208-2.695,2.695-2.695h75.453c1.486,0,2.695,1.208,2.695,2.695v75.453     c0,1.486-1.208,2.695-2.695,2.695H18.863z M18.863,334.147c-1.486,0-2.695-1.208-2.695-2.695v-32.337     c0-1.486,1.208-2.695,2.695-2.695H51.2c1.486,0,2.695,1.208,2.695,2.695v32.337c0,1.486-1.208,2.695-2.695,2.695H18.863z      M474.274,377.263h-78.147c-4.466,0-8.084,3.618-8.084,8.084c0,4.466,3.618,8.084,8.084,8.084h78.147v24.253     c0,7.43-6.044,13.474-13.474,13.474H51.2c-7.43,0-13.474-6.044-13.474-13.474v-24.253h326.063c4.466,0,8.084-3.618,8.084-8.084     c0-4.466-3.618-8.084-8.084-8.084H37.726v-26.947H51.2c10.401,0,18.863-8.463,18.863-18.863v-32.337     c0-10.401-8.463-18.863-18.863-18.863H37.726v-16.168h56.589c10.401,0,18.863-8.463,18.863-18.863v-75.453     c0-10.401-8.463-18.863-18.863-18.863H37.726v-16.168h189.752c3.527,12.428,14.978,21.558,28.522,21.558     c13.544,0,24.994-9.13,28.522-21.558h68.488c4.466,0,8.084-3.619,8.084-8.084c0-4.466-3.618-8.084-8.084-8.084h-68.488     C280.995,106.14,269.544,97.011,256,97.011c-13.544,0-24.994,9.13-28.522,21.558H37.726V94.316     c0-7.43,6.044-13.474,13.474-13.474h409.6c7.43,0,13.474,6.044,13.474,13.474v13.474h-78.147     c-10.401,0-18.863,8.463-18.863,18.863v97.011c0,10.401,8.463,18.863,18.863,18.863h78.147V377.263z M242.526,126.653     c0-7.43,6.044-13.474,13.474-13.474c7.43,0,13.474,6.044,13.474,13.474c0,7.43-6.044,13.474-13.474,13.474     C248.57,140.126,242.526,134.083,242.526,126.653z M495.832,223.663c0,1.486-1.208,2.695-2.695,2.695h-97.01     c-1.486,0-2.695-1.208-2.695-2.695v-97.011c0-1.486,1.208-2.695,2.695-2.695h97.01c1.486,0,2.695,1.208,2.695,2.695V223.663z"/>
			<path d="M417.684,317.979h21.558c10.401,0,18.863-8.463,18.863-18.863v-21.558c0-10.401-8.463-18.863-18.863-18.863h-21.558     c-10.401,0-18.863,8.463-18.863,18.863v21.558C398.821,309.516,407.284,317.979,417.684,317.979z M414.989,277.558     c0-1.486,1.208-2.695,2.695-2.695h21.558c1.486,0,2.695,1.208,2.695,2.695v21.558c0,1.486-1.208,2.695-2.695,2.695h-21.558     c-1.486,0-2.695-1.208-2.695-2.695V277.558z"/>
			<path d="M363.789,269.474h-53.895c-10.401,0-18.863,8.463-18.863,18.863v53.895c0,10.401,8.463,18.863,18.863,18.863h53.895     c10.401,0,18.863-8.463,18.863-18.863v-53.895C382.653,277.936,374.19,269.474,363.789,269.474z M366.484,342.232     c0,1.486-1.208,2.695-2.695,2.695h-53.895c-1.486,0-2.695-1.208-2.695-2.695v-53.895c0-1.486,1.208-2.695,2.695-2.695h53.895     c1.486,0,2.695,1.208,2.695,2.695V342.232z"/>
			<path d="M256,194.021H148.21c-10.401,0-18.863,8.463-18.863,18.863v107.789c0,10.401,8.463,18.863,18.863,18.863H256     c10.401,0,18.863-8.463,18.863-18.863V212.884C274.863,202.484,266.401,194.021,256,194.021z M258.695,320.674     c0,1.486-1.208,2.695-2.695,2.695H148.21c-1.486,0-2.695-1.208-2.695-2.695V212.884c0-1.486,1.208-2.695,2.695-2.695H256     c1.486,0,2.695,1.208,2.695,2.695V320.674z"/>
			<path d="M309.895,242.526h32.337c10.401,0,18.863-8.463,18.863-18.863v-32.337c0-10.401-8.463-18.863-18.863-18.863h-32.337     c-10.401,0-18.863,8.463-18.863,18.863v32.337C291.032,234.064,299.494,242.526,309.895,242.526z M307.2,191.326     c0-1.486,1.208-2.695,2.695-2.695h32.337c1.486,0,2.695,1.208,2.695,2.695v32.337c0,1.486-1.208,2.695-2.695,2.695h-32.337     c-1.486,0-2.695-1.208-2.695-2.695V191.326z"/>
		</g>
	</g>
</g>
<g>
</g>
<g>
</g>
<g>
</g>
<g>
</g>
<g>
</g>
<g>
</g>
<g>
</g>
<g>
</g>
<g>
</g>
<g>
</g>
<g>
</g>
<g>
</g>
<g>
</g>
<g>
</g>
<g>
</g>
</svg>
