<?xml version="1.0" encoding="iso-8859-1"?>
<!-- Generator: Adobe Illustrator 19.0.0, SVG Export Plug-In . SVG Version: 6.00 Build 0)  -->
<svg xmlns="http://www.w3.org/2000/svg" xmlns:xlink="http://www.w3.org/1999/xlink" version="1.1" id="Layer_1" x="0px" y="0px" viewBox="0 0 512 512" style="enable-background:new 0 0 512 512;" xml:space="preserve">
<g>
	<g>
		<g>
			<path d="M137.432,231.747c28.231,0,51.2-22.969,51.2-51.2s-22.969-51.2-51.2-51.2s-51.2,22.969-51.2,51.2     S109.2,231.747,137.432,231.747z M137.432,145.516c19.316,0,35.032,15.716,35.032,35.032s-15.716,35.032-35.032,35.032     S102.4,199.863,102.4,180.547S118.116,145.516,137.432,145.516z"/>
			<path d="M277.558,145.516h226.358c4.465,0,8.084-3.62,8.084-8.084c0-4.465-3.62-8.084-8.084-8.084h-25.663     c8.908-5.235,11.95-16.728,6.776-25.692l-53.895-93.349c-2.519-4.363-6.587-7.485-11.454-8.788     c-4.866-1.304-9.949-0.634-14.313,1.884l-13.55,7.823C388.879,4.619,382.253,0,374.568,0H353.01     c-4.004,0-7.722,1.255-10.779,3.391C339.175,1.255,335.457,0,331.453,0h-21.558c-10.401,0-18.863,8.463-18.863,18.863v107.789     c0,0.915,0.066,1.814,0.192,2.695h-13.666c-4.465,0-8.084,3.62-8.084,8.084C269.474,141.896,273.093,145.516,277.558,145.516z      M394.78,28.183l18.67-10.779c0.482-0.278,0.951-0.361,1.339-0.361c0.29,0,0.534,0.045,0.706,0.092     c0.403,0.108,1.15,0.414,1.636,1.256l53.895,93.348c0.743,1.287,0.301,2.939-0.986,3.682l-18.67,10.779     c-1.286,0.742-2.938,0.3-3.681-0.987l-53.895-93.349C393.051,30.578,393.494,28.926,394.78,28.183z M393.432,126.653V63.573     l37.974,65.774h-38.167C393.366,128.467,393.432,127.568,393.432,126.653z M307.2,18.863c0-1.485,1.209-2.695,2.695-2.695h21.558     c1.485,0,2.695,1.209,2.695,2.695v21.558c0,4.465,3.62,8.084,8.084,8.084c4.465,0,8.084-3.62,8.084-8.084V18.863     c0-1.485,1.209-2.695,2.695-2.695h21.558c1.485,0,2.695,1.209,2.695,2.695v107.789c0,1.485-1.209,2.695-2.695,2.695H353.01     c-1.485,0-2.695-1.209-2.695-2.695V72.758c0-4.465-3.62-8.084-8.084-8.084c-4.465,0-8.084,3.62-8.084,8.084v53.895     c0,1.485-1.209,2.695-2.695,2.695h-21.558c-1.485,0-2.695-1.209-2.695-2.695V18.863z"/>
			<path d="M493.137,377.263H363.789c-10.401,0-18.863,8.463-18.863,18.863v45.81h-35.032c-4.465,0-8.084,3.62-8.084,8.084     c0,4.465,3.62,8.084,8.084,8.084h35.032v35.032c0,10.401,8.463,18.863,18.863,18.863h129.347     c10.401,0,18.863-8.463,18.863-18.863v-97.01C512,385.726,503.537,377.263,493.137,377.263z M495.832,493.137     c0,1.485-1.209,2.695-2.695,2.695H363.789c-1.485,0-2.695-1.209-2.695-2.695v-13.666c0.881,0.127,1.78,0.192,2.695,0.192h129.347     c0.915,0,1.814-0.066,2.695-0.192V493.137z M495.832,460.8c0,1.485-1.209,2.695-2.695,2.695H363.789     c-1.485,0-2.695-1.209-2.695-2.695v-10.779v-2.887c0.881,0.127,1.78,0.192,2.695,0.192h129.347c0.915,0,1.814-0.066,2.695-0.192     V460.8z M495.832,428.463c0,1.485-1.209,2.695-2.695,2.695H363.789c-1.485,0-2.695-1.209-2.695-2.695v-32.337     c0-1.485,1.209-2.695,2.695-2.695h35.032v13.474c0,4.465,3.62,8.084,8.084,8.084c4.465,0,8.084-3.62,8.084-8.084v-13.474h16.168     v13.474c0,4.465,3.62,8.084,8.084,8.084c4.465,0,8.084-3.62,8.084-8.084v-13.474h16.168v13.474c0,4.465,3.62,8.084,8.084,8.084     c4.465,0,8.084-3.62,8.084-8.084v-13.474h13.474c1.485,0,2.695,1.209,2.695,2.695V428.463z"/>
			<path d="M256,312.589h-13.92c-4.035-36.328-34.925-64.674-72.312-64.674h-64.674c-40.119,0-72.758,32.639-72.758,72.758v118.568     c0,0.908,0.041,1.808,0.122,2.695H8.084c-4.465,0-8.084,3.62-8.084,8.084c0,4.465,3.62,8.084,8.084,8.084H39.13     c5.441,6.579,13.664,10.779,22.849,10.779h67.368v13.474c0,16.345,13.297,29.642,29.642,29.642H256     c16.345,0,29.642-13.297,29.642-29.642V342.232C285.642,325.886,272.345,312.589,256,312.589z M137.432,452.716H61.979     c-7.43,0-13.474-6.044-13.474-13.474V320.674c0-31.204,25.385-56.589,56.589-56.589h64.674c28.459,0,52.078,21.117,56.014,48.505     h-66.793c-16.345,0-29.642,13.297-29.642,29.642V409.6H91.621v-67.368c0-4.465-3.62-8.084-8.084-8.084     c-4.465,0-8.084,3.62-8.084,8.084v75.453c0,4.465,3.62,8.084,8.084,8.084h53.805c0.053,0.001,0.106,0.001,0.16,0     c7.398,0.039,13.404,6.067,13.404,13.474C150.905,446.672,144.861,452.716,137.432,452.716z M269.474,482.358     c0,7.43-6.044,13.474-13.474,13.474h-97.01c-7.43,0-13.474-6.044-13.474-13.474v-14.595     c12.428-3.527,21.558-14.978,21.558-28.521s-9.13-24.994-21.558-28.521v-68.489c0-7.43,6.044-13.474,13.474-13.474H256     c7.43,0,13.474,6.044,13.474,13.474V482.358z"/>
			<path d="M503.916,301.811H490.25c0.127-0.881,0.192-1.78,0.192-2.695v-107.79c0-10.401-8.463-18.863-18.863-18.863h-21.558     c-4.004,0-7.722,1.255-10.779,3.391c-3.057-2.136-6.775-3.391-10.779-3.391h-21.558c-10.401,0-18.863,8.463-18.863,18.863v107.79     c0,0.915,0.066,1.814,0.192,2.695h-56.781c-4.465,0-8.084,3.62-8.084,8.084c0,4.465,3.62,8.084,8.084,8.084h172.463     c4.465,0,8.084-3.62,8.084-8.084C512,305.43,508.38,301.811,503.916,301.811z M474.274,299.116c0,1.485-1.209,2.695-2.695,2.695     h-21.558c-1.485,0-2.695-1.209-2.695-2.695v-53.895c0-4.465-3.62-8.084-8.084-8.084c-4.465,0-8.084,3.62-8.084,8.084v53.895     c0,1.485-1.209,2.695-2.695,2.695h-21.558c-1.485,0-2.695-1.209-2.695-2.695v-107.79c0-1.485,1.209-2.695,2.695-2.695h21.558     c1.485,0,2.695,1.209,2.695,2.695v21.558c0,4.465,3.62,8.084,8.084,8.084c4.465,0,8.084-3.62,8.084-8.084v-21.558     c0-1.485,1.209-2.695,2.695-2.695h21.558c1.485,0,2.695,1.209,2.695,2.695V299.116z"/>
			<path d="M245.221,452.716h-64.674c-4.465,0-8.084,3.62-8.084,8.084s3.62,8.084,8.084,8.084h64.674     c4.465,0,8.084-3.62,8.084-8.084S249.686,452.716,245.221,452.716z"/>
			<path d="M245.221,355.705h-64.674c-4.465,0-8.084,3.62-8.084,8.084c0,4.465,3.62,8.084,8.084,8.084h64.674     c4.465,0,8.084-3.62,8.084-8.084C253.305,359.325,249.686,355.705,245.221,355.705z"/>
			<path d="M245.221,420.379h-43.116c-4.465,0-8.084,3.62-8.084,8.084c0,4.465,3.62,8.084,8.084,8.084h43.116     c4.465,0,8.084-3.62,8.084-8.084C253.305,423.999,249.686,420.379,245.221,420.379z"/>
			<path d="M245.221,388.042h-64.674c-4.465,0-8.084,3.62-8.084,8.084c0,4.465,3.62,8.084,8.084,8.084h64.674     c4.465,0,8.084-3.62,8.084-8.084C253.305,391.662,249.686,388.042,245.221,388.042z"/>
		</g>
	</g>
</g>
<g>
</g>
<g>
</g>
<g>
</g>
<g>
</g>
<g>
</g>
<g>
</g>
<g>
</g>
<g>
</g>
<g>
</g>
<g>
</g>
<g>
</g>
<g>
</g>
<g>
</g>
<g>
</g>
<g>
</g>
</svg>
