<?xml version="1.0" encoding="iso-8859-1"?>
<!-- Generator: Adobe Illustrator 19.0.0, SVG Export Plug-In . SVG Version: 6.00 Build 0)  -->
<svg xmlns="http://www.w3.org/2000/svg" xmlns:xlink="http://www.w3.org/1999/xlink" version="1.1" id="Layer_1" x="0px" y="0px" viewBox="0 0 512.001 512.001" style="enable-background:new 0 0 512.001 512.001;" xml:space="preserve">
<g>
	<g>
		<g>
			<path d="M18.864,145.516c4.465,0,8.084-3.618,8.084-8.084c0-7.43,6.044-13.474,13.474-13.474h97.011     c7.43,0,13.474,6.044,13.474,13.474v86.232c0,4.466,3.62,8.084,8.084,8.084c4.465,0,8.084-3.618,8.084-8.084v-2.695h153.6     c4.465,0,8.084-3.619,8.084-8.084s-3.62-8.084-8.084-8.084h-153.6v-67.368c0-16.344-13.297-29.642-29.642-29.642H40.422     c-16.345,0-29.642,13.298-29.642,29.642C10.779,141.898,14.399,145.516,18.864,145.516z"/>
			<path d="M353.011,231.748c4.465,0,8.084-3.618,8.084-8.084v-86.232c0-7.43,6.044-13.474,13.474-13.474h97.01     c7.43,0,13.474,6.044,13.474,13.474c0,4.466,3.62,8.084,8.084,8.084s8.084-3.618,8.084-8.084     c0-16.344-13.297-29.642-29.642-29.642h-97.01c-16.345,0-29.642,13.298-29.642,29.642v86.232     C344.927,228.129,348.546,231.748,353.011,231.748z"/>
			<path d="M242.527,266.779c0-4.466-3.62-8.084-8.084-8.084h-67.368V256c0-4.466-3.62-8.084-8.084-8.084     c-4.465,0-8.084,3.619-8.084,8.084v118.568c0,7.43-6.044,13.474-13.474,13.474H40.422c-7.43,0-13.474-6.044-13.474-13.474     c0-0.245-0.011-0.488-0.033-0.732l-0.178-1.963h78.359c4.465,0,8.084-3.618,8.084-8.084c0-4.466-3.62-8.084-8.084-8.084H25.266     l-8.329-91.621h98.937c4.465,0,8.084-3.619,8.084-8.084s-3.62-8.084-8.084-8.084H16.937l7.038-77.415     c0.404-4.446-2.873-8.377-7.319-8.782c-4.454-0.419-8.378,2.872-8.783,7.319l-7.826,86.073c-0.051,0.47-0.063,0.95-0.029,1.436     v0.004c0.004,0.069,0.011,0.139,0.017,0.208l10.747,118.206c0.212,16.162,13.426,29.245,29.639,29.245h97.011     c16.345,0,29.642-13.298,29.642-29.642v-99.705h67.368C238.907,274.864,242.527,271.245,242.527,266.779z"/>
			<path d="M511.953,255.11l-7.826-86.073c-0.404-4.447-4.342-7.745-8.783-7.319c-4.446,0.404-7.723,4.335-7.319,8.782l7.038,77.417     h-98.937c-4.465,0-8.084,3.619-8.084,8.084s3.62,8.084,8.084,8.084h98.937l-9.977,109.752c-0.023,0.244-0.033,0.487-0.033,0.732     c0,7.43-6.044,13.474-13.474,13.474h-97.011c-7.43,0-13.474-6.044-13.474-13.474v-2.695h78.147c4.465,0,8.084-3.618,8.084-8.084     c0-4.466-3.62-8.084-8.084-8.084h-78.147V256c0-4.466-3.62-8.084-8.084-8.084c-4.465,0-8.084,3.619-8.084,8.084v2.695h-67.368     c-4.465,0-8.084,3.618-8.084,8.084c0,4.466,3.62,8.084,8.084,8.084h67.368v16.168h-153.6c-4.465,0-8.084,3.619-8.084,8.084     c0,4.466,3.62,8.084,8.084,8.084h153.6v67.368c0,16.344,13.297,29.642,29.642,29.642h97.01c16.213,0,29.428-13.083,29.64-29.247     l10.747-118.206c0.006-0.069,0.012-0.139,0.017-0.208v-0.004C512.014,256.06,512.004,255.579,511.953,255.11z"/>
		</g>
	</g>
</g>
<g>
</g>
<g>
</g>
<g>
</g>
<g>
</g>
<g>
</g>
<g>
</g>
<g>
</g>
<g>
</g>
<g>
</g>
<g>
</g>
<g>
</g>
<g>
</g>
<g>
</g>
<g>
</g>
<g>
</g>
</svg>
