<?xml version="1.0" encoding="iso-8859-1"?>
<!-- Generator: Adobe Illustrator 19.0.0, SVG Export Plug-In . SVG Version: 6.00 Build 0)  -->
<svg xmlns="http://www.w3.org/2000/svg" xmlns:xlink="http://www.w3.org/1999/xlink" version="1.1" id="Layer_1" x="0px" y="0px" viewBox="0 0 512 512" style="enable-background:new 0 0 512 512;" xml:space="preserve">
<g>
	<g>
		<g>
			<path d="M105.095,215.579h301.811c4.466,0,8.084-3.619,8.084-8.084c0-4.466-3.618-8.084-8.084-8.084H105.095     c-4.466,0-8.084,3.618-8.084,8.084C97.011,211.96,100.629,215.579,105.095,215.579z"/>
			<path d="M105.095,150.905h301.811c4.466,0,8.084-3.618,8.084-8.084c0-4.466-3.618-8.084-8.084-8.084H105.095     c-4.466,0-8.084,3.618-8.084,8.084C97.011,147.287,100.629,150.905,105.095,150.905z"/>
			<path d="M169.768,264.084c-4.466,0-8.084,3.618-8.084,8.084c0,4.466,3.619,8.084,8.084,8.084h172.463     c4.466,0,8.084-3.618,8.084-8.084c0-4.466-3.618-8.084-8.084-8.084H169.768z"/>
			<path d="M460.8,0H115.874c-4.466,0-8.084,3.619-8.084,8.084s3.618,8.084,8.084,8.084H460.8c19.317,0,35.032,15.715,35.032,35.032     v312.589c0,19.317-15.715,35.032-35.032,35.032H342.232c-2.703,0-5.228,1.351-6.726,3.6l-35.931,53.895     c-2.477,3.714-1.472,8.734,2.242,11.21c1.378,0.919,2.936,1.359,4.477,1.359c2.613,0,5.176-1.264,6.734-3.601l33.531-50.295     H460.8c28.231,0,51.2-22.969,51.2-51.2V51.2C512,22.969,489.031,0,460.8,0z"/>
			<path d="M294,479.253c-3.717-2.477-8.733-1.472-11.21,2.242c-5.986,8.977-15.999,14.337-26.79,14.337     c-10.791,0-20.804-5.36-26.79-14.337l-52.716-79.073c-1.498-2.25-4.023-3.6-6.726-3.6H51.2     c-19.317,0-35.032-15.715-35.032-35.032V51.2c0-19.317,15.715-35.032,35.032-35.032h32.337c4.466,0,8.084-3.619,8.084-8.084     S88.003,0,83.537,0H51.2C22.969,0,0,22.969,0,51.2v312.589c0,28.231,22.969,51.2,51.2,51.2h114.242l50.316,75.474     C224.747,503.948,239.792,512,256,512s31.252-8.052,40.242-21.536C298.719,486.748,297.715,481.728,294,479.253z"/>
		</g>
	</g>
</g>
<g>
</g>
<g>
</g>
<g>
</g>
<g>
</g>
<g>
</g>
<g>
</g>
<g>
</g>
<g>
</g>
<g>
</g>
<g>
</g>
<g>
</g>
<g>
</g>
<g>
</g>
<g>
</g>
<g>
</g>
</svg>
