<?xml version="1.0" encoding="iso-8859-1"?>
<!-- Generator: Adobe Illustrator 19.0.0, SVG Export Plug-In . SVG Version: 6.00 Build 0)  -->
<svg xmlns="http://www.w3.org/2000/svg" xmlns:xlink="http://www.w3.org/1999/xlink" version="1.1" id="Layer_1" x="0px" y="0px" viewBox="0 0 512 512" style="enable-background:new 0 0 512 512;" xml:space="preserve">
<g>
	<g>
		<g>
			<path d="M56.589,285.642c4.465,0,8.084-3.62,8.084-8.084V80.842h110.484c4.465,0,8.084-3.62,8.084-8.084     c0-4.465-3.62-8.084-8.084-8.084H64.674V29.642c0-7.43,6.044-13.474,13.474-13.474h2.695v13.474c0,4.465,3.62,8.084,8.084,8.084     s8.084-3.62,8.084-8.084V16.168h12.575v13.474c0,4.465,3.62,8.084,8.084,8.084c4.465,0,8.084-3.62,8.084-8.084V16.168h12.576     v13.474c0,4.465,3.62,8.084,8.084,8.084s8.084-3.62,8.084-8.084V16.168h12.576v13.474c0,4.465,3.62,8.084,8.084,8.084     s8.084-3.62,8.084-8.084V16.168h2.695c7.43,0,13.474,6.044,13.474,13.474v75.453c0,4.465,3.62,8.084,8.084,8.084     c4.465,0,8.084-3.62,8.084-8.084V29.642C215.579,13.297,202.282,0,185.937,0H78.147C61.802,0,48.505,13.297,48.505,29.642     v247.916C48.505,282.023,52.125,285.642,56.589,285.642z"/>
			<path d="M379.958,344.926H229.053c-7.43,0-13.474-6.044-13.474-13.474V137.432c0-4.465-3.62-8.084-8.084-8.084     c-4.465,0-8.084,3.62-8.084,8.084v194.021c0,16.345,13.297,29.642,29.642,29.642h150.905c37.148,0,67.368,30.222,67.368,67.368     s-30.221,67.368-67.368,67.368h-2.695V385.347c0-4.465-3.619-8.084-8.084-8.084c-4.466,0-8.084,3.62-8.084,8.084v110.484H192.767     c0.833-4.427,1.254-8.931,1.254-13.474v-43.116c0-40.119-32.639-72.758-72.758-72.758H78.147c-4.542,0-9.047,0.42-13.474,1.254     v-57.843c0-4.465-3.62-8.084-8.084-8.084c-4.465,0-8.084,3.62-8.084,8.084v64.674c0,75.78,61.651,137.432,137.432,137.432     h194.021c46.062,0,83.537-37.475,83.537-83.537C463.495,382.401,426.02,344.926,379.958,344.926z M177.853,482.358     c0,4.432-0.514,8.817-1.532,13.096c-59.214-4.668-106.603-52.057-111.27-111.27c4.279-1.018,8.664-1.532,13.096-1.532h43.116     c31.204,0,56.589,25.385,56.589,56.589V482.358z"/>
		</g>
	</g>
</g>
<g>
</g>
<g>
</g>
<g>
</g>
<g>
</g>
<g>
</g>
<g>
</g>
<g>
</g>
<g>
</g>
<g>
</g>
<g>
</g>
<g>
</g>
<g>
</g>
<g>
</g>
<g>
</g>
<g>
</g>
</svg>
