<?xml version="1.0" encoding="iso-8859-1"?>
<!-- Generator: Adobe Illustrator 19.0.0, SVG Export Plug-In . SVG Version: 6.00 Build 0)  -->
<svg xmlns="http://www.w3.org/2000/svg" xmlns:xlink="http://www.w3.org/1999/xlink" version="1.1" id="Layer_1" x="0px" y="0px" viewBox="0 0 512 512" style="enable-background:new 0 0 512 512;" xml:space="preserve">
<g>
	<g>
		<g>
			<path d="M163.951,219.98c-1.874-10.633-7.78-19.9-16.629-26.093c-8.847-6.191-19.578-8.569-30.214-6.693     c-21.959,3.873-36.675,24.88-32.805,46.829c1.874,10.633,7.78,19.9,16.629,26.092c6.874,4.811,14.882,7.318,23.104,7.318     c2.359,0,4.738-0.207,7.111-0.625C153.105,262.937,167.822,241.93,163.951,219.98z M128.337,250.886     c-6.382,1.129-12.825-0.301-18.135-4.016c-5.309-3.716-8.852-9.274-9.977-15.653c-2.322-13.17,6.512-25.775,19.691-28.099     c1.424-0.251,2.852-0.376,4.268-0.376c4.934,0,9.741,1.505,13.866,4.392c5.309,3.716,8.852,9.274,9.977,15.653     C150.351,235.958,141.517,248.563,128.337,250.886z"/>
			<path d="M379.904,75.453c-22.298,0-40.438,18.132-40.438,40.421c0,22.289,18.14,40.421,40.438,40.421     c22.297,0,40.437-18.132,40.437-40.421C420.341,93.585,402.201,75.453,379.904,75.453z M379.904,140.126     c-13.382,0-24.27-10.879-24.27-24.253c0-13.373,10.888-24.253,24.27-24.253c13.382,0,24.269,10.879,24.269,24.253     C404.173,129.247,393.286,140.126,379.904,140.126z"/>
			<path d="M479.658,137.631v-37.92C479.658,44.73,434.929,0,379.855,0c-54.978,0-99.706,44.73-99.706,99.711v37.919     c-6.589,6.431-10.784,16.033-10.784,26.748v64.674c0,19.316,15.714,35.032,35.029,35.032h8.109v72.754     c0,37.15,30.221,67.373,67.431,67.373c37.148,0,67.37-30.223,67.37-67.373v-72.753h8.109c19.316,0,35.029-15.716,35.029-35.032     v-64.674C490.442,153.664,486.247,144.062,479.658,137.631z M474.274,199.555c-5.449-3.497-11.919-5.535-18.861-5.535h-70.066     c-4.466,0-8.084,3.62-8.084,8.084s3.618,8.084,8.084,8.084h70.066c10.401,0,18.861,8.463,18.861,18.863     c0,10.402-8.461,18.864-18.861,18.864h-8.109v-24.255c0-4.465-3.618-8.084-8.084-8.084c-4.466,0-8.084,3.62-8.084,8.084v113.177     c0,28.234-22.969,51.204-51.263,51.204c-28.232,0-51.201-22.97-51.201-51.204V223.661c0-4.465-3.619-8.084-8.084-8.084     s-8.084,3.62-8.084,8.084v24.255h-8.109c-10.401,0-18.861-8.463-18.861-18.863c0-10.401,8.461-18.863,18.861-18.863h48.614     c4.466,0,8.084-3.62,8.084-8.084c0-4.465-3.618-8.084-8.084-8.084h-48.614c-6.942,0-13.412,2.038-18.861,5.535v-35.177     c0-10.225,6.497-18.863,14.188-18.863h20.95c4.466,0,8.084-3.62,8.084-8.084c0-4.465-3.618-8.084-8.084-8.084h-20.95     c-1.151,0-2.286,0.081-3.404,0.226V99.711c0-46.066,37.475-83.542,83.634-83.542c46.063,0,83.538,37.477,83.538,83.542v29.862     c-1.119-0.144-2.253-0.226-3.404-0.226h-20.843c-4.466,0-8.084,3.62-8.084,8.084c0,4.465,3.619,8.084,8.084,8.084h20.843     c7.691,0,14.188,8.638,14.188,18.863V199.555z"/>
			<path d="M241.409,255.575c-1.575-8.936-5.997-16.884-12.452-22.383c-0.919-0.783-1.866-1.5-2.833-2.159     c-0.006-0.044-0.009-0.087-0.016-0.132l-6.548-37.139c-4.624-26.229-19.185-49.087-41.002-64.364     c-21.817-15.276-48.277-21.142-74.487-16.521c-0.005,0.001-0.105,0.018-0.111,0.019c-54.143,9.548-90.425,61.366-80.877,115.512     l6.548,37.139c0.008,0.044,0.02,0.085,0.029,0.129c-0.683,0.951-1.328,1.948-1.923,2.998c-4.185,7.374-5.622,16.356-4.046,25.294     c0.321,1.818,11.231,63.69,11.231,63.69c1.624,9.215,6.74,17.245,14.404,22.613c5.955,4.17,12.896,6.344,20.019,6.344     c2.044,0,4.104-0.18,6.158-0.541l7.985-1.408l12.633,71.648c3.124,17.723,12.964,33.167,27.703,43.489     C135.27,507.82,148.608,512,162.327,512c3.945,0,7.926-0.346,11.898-1.047c36.584-6.451,61.097-41.464,54.646-78.048     l-12.633-71.649l7.986-1.409c19.022-3.354,31.769-21.559,28.414-40.583C252.638,319.266,241.73,257.391,241.409,255.575z      M221.416,343.926l-7.985,1.409l-4.211-23.886c-0.775-4.397-4.971-7.332-9.365-6.558c-4.398,0.775-7.334,4.968-6.558,9.365     l19.652,111.458c4.903,27.805-13.728,54.414-41.593,59.328c-13.466,2.378-27.054-0.637-38.258-8.482     c-11.204-7.845-18.681-19.583-21.056-33.053L92.39,342.048c-0.775-4.397-4.972-7.333-9.366-6.558     c-4.397,0.775-7.333,4.968-6.557,9.365l4.211,23.886l-7.986,1.408c-4.958,0.876-9.966-0.234-14.092-3.124     c-4.127-2.89-6.881-7.214-7.757-12.176c-1.805-10.243,5.057-20.047,15.301-21.852l47.876-8.442     c4.397-0.776,7.333-4.968,6.557-9.366c-0.775-4.397-4.973-7.333-9.366-6.557l-47.876,8.442     c-6.836,1.205-12.854,4.336-17.614,8.727c-2.882-16.348-5.941-33.694-6.108-34.643c-0.924-5.242-0.148-10.393,2.186-14.504     c2.047-3.609,5.07-5.93,8.513-6.536l20.631-3.638c4.397-0.776,7.333-4.969,6.557-9.366c-0.775-4.398-4.968-7.331-9.366-6.557     l-20.631,3.638c-1.13,0.199-2.234,0.473-3.313,0.807l-5.185-29.402c-7.999-45.365,22.4-88.782,67.746-96.778     c0.005-0.001,0.105-0.018,0.111-0.019c21.973-3.874,44.144,1.04,62.421,13.839c18.279,12.799,30.48,31.951,34.354,53.927     l5.185,29.403c-1.13,0.055-2.26,0.175-3.391,0.374l-20.527,3.62c-4.397,0.775-7.333,4.968-6.557,9.365     c0.776,4.398,4.974,7.335,9.366,6.558l20.527-3.62c3.442-0.607,7.074,0.539,10.234,3.23c3.598,3.065,6.089,7.64,7.014,12.884     c0.168,0.95,3.223,18.276,6.104,34.615c-6.118-2.558-12.845-3.329-19.533-2.15l-69.001,12.168     c-4.397,0.776-7.333,4.968-6.557,9.365c0.776,4.398,4.968,7.336,9.366,6.558l69.001-12.168c4.962-0.875,9.966,0.234,14.092,3.125     c4.127,2.89,6.881,7.214,7.757,12.176C238.521,332.317,231.658,342.119,221.416,343.926z"/>
		</g>
	</g>
</g>
<g>
</g>
<g>
</g>
<g>
</g>
<g>
</g>
<g>
</g>
<g>
</g>
<g>
</g>
<g>
</g>
<g>
</g>
<g>
</g>
<g>
</g>
<g>
</g>
<g>
</g>
<g>
</g>
<g>
</g>
</svg>
