<?xml version="1.0" encoding="iso-8859-1"?>
<!-- Generator: Adobe Illustrator 19.0.0, SVG Export Plug-In . SVG Version: 6.00 Build 0)  -->
<svg xmlns="http://www.w3.org/2000/svg" xmlns:xlink="http://www.w3.org/1999/xlink" version="1.1" id="Layer_1" x="0px" y="0px" viewBox="0 0 512 512" style="enable-background:new 0 0 512 512;" xml:space="preserve">
<g>
	<g>
		<g>
			<path d="M272.168,118.568c-19.317,0-35.032,15.716-35.032,35.032c0,19.316,15.715,35.032,35.032,35.032     c19.317,0,35.032-15.716,35.032-35.032C307.2,134.284,291.485,118.568,272.168,118.568z M272.168,172.463     c-10.401,0-18.863-8.463-18.863-18.863c0-10.401,8.463-18.863,18.863-18.863c10.401,0,18.863,8.463,18.863,18.863     C291.032,164.001,282.569,172.463,272.168,172.463z"/>
			<path d="M125.693,35.569c13.489-12.511,31.055-19.401,49.465-19.401h43.116c40.119,0,72.758,32.639,72.758,72.758     c0,4.902-0.489,9.801-1.456,14.561c-0.887,4.375,1.94,8.643,6.315,9.53c0.542,0.11,1.083,0.163,1.616,0.163     c3.765,0,7.137-2.645,7.915-6.478c1.18-5.815,1.779-11.795,1.779-17.776C307.2,39.892,267.307,0,218.274,0h-43.116     c-22.5,0-43.972,8.422-60.46,23.714c-3.272,3.036-3.465,8.152-0.429,11.425C117.304,38.413,122.419,38.606,125.693,35.569z"/>
			<path d="M217.381,55.312c2.242-1.5,3.587-4.021,3.587-6.717s-1.345-5.217-3.587-6.717c-9.323-6.241-20.195-9.54-31.444-9.54     c-31.203,0-56.589,25.385-56.589,56.589s25.387,56.589,56.589,56.589c11.249,0,22.122-3.298,31.444-9.539     c2.242-1.5,3.587-4.021,3.587-6.717c0-2.698-1.345-5.217-3.586-6.719c-11.254-7.533-17.972-20.099-17.972-33.614     S206.128,62.846,217.381,55.312z M198.338,127.408c-3.975,1.281-8.15,1.939-12.401,1.939c-22.289,0-40.421-18.132-40.421-40.421     s18.132-40.421,40.421-40.421c4.251,0,8.426,0.659,12.401,1.939c-9.609,10.351-15.096,24.028-15.096,38.482     S188.729,117.057,198.338,127.408z"/>
			<path d="M512,288.337v-10.779c0-28.231-22.969-51.2-51.2-51.2h-78.785c-3.886-24.405-25.079-43.116-50.562-43.116     c-28.231,0-51.2,22.969-51.2,51.2c0,8.554,2.144,16.874,6.113,24.253H29.642C13.298,258.695,0,271.992,0,288.337v75.453     c0,16.345,13.298,29.642,29.642,29.642h291.032c16.344,0,29.642-13.297,29.642-29.642v-24.253h67.368     c4.466,0,8.084-3.62,8.084-8.084s-3.619-8.084-8.084-8.084h-67.368v-35.032c0-12.045-7.22-22.434-17.561-27.067     c5.94-11.333,17.786-18.744,31.035-18.744h97.01c19.317,0,35.032,15.716,35.032,35.032v10.779     c0,19.316-15.715,35.032-35.032,35.032h-10.779c-4.466,0-8.084,3.62-8.084,8.084s3.618,8.084,8.084,8.084h32.337     c7.43,0,13.474,6.044,13.474,13.474v13.474H385.347c-4.466,0-8.084,3.62-8.084,8.084s3.618,8.084,8.084,8.084h110.484v35.032     c0,7.43-6.044,13.474-13.474,13.474h-64.674c-4.466,0-8.084,3.62-8.084,8.084c0,4.465,3.619,8.084,8.084,8.084h2.695v35.032     c0,7.43-6.044,13.474-13.474,13.474h-21.558c-7.43,0-13.474-6.044-13.474-13.474v-35.032h13.474c4.466,0,8.084-3.62,8.084-8.084     c0-4.465-3.618-8.084-8.084-8.084H158.989c-4.466,0-8.084,3.62-8.084,8.084c0,4.465,3.618,8.084,8.084,8.084h2.695v35.032     c0,7.43-6.044,13.474-13.474,13.474h-21.558c-7.43,0-13.474-6.044-13.474-13.474v-35.032h13.474c4.466,0,8.084-3.62,8.084-8.084     c0-4.465-3.619-8.084-8.084-8.084H51.2c-7.43,0-13.474-6.044-13.474-13.474c0-4.465-3.618-8.084-8.084-8.084     c-4.466,0-8.084,3.62-8.084,8.084c0,16.345,13.298,29.642,29.642,29.642h45.811v35.032c0,4.848,1.171,9.429,3.243,13.474H8.084     c-4.466,0-8.084,3.62-8.084,8.084C0,508.38,3.619,512,8.084,512h291.032c4.466,0,8.084-3.62,8.084-8.084     c0-4.465-3.618-8.084-8.084-8.084H174.609c2.073-4.044,3.243-8.625,3.243-13.474v-35.032h177.853v35.032     c0,4.848,1.171,9.429,3.243,13.474h-27.496c-4.466,0-8.084,3.62-8.084,8.084c0,4.465,3.619,8.084,8.084,8.084h172.463     c4.466,0,8.084-3.62,8.084-8.084c0-4.465-3.618-8.084-8.084-8.084h-70.612c2.073-4.044,3.243-8.625,3.243-13.474v-35.032h45.811     c16.344,0,29.642-13.297,29.642-29.642V353.01c0-11.767-6.892-21.955-16.851-26.737C505.493,316.899,512,303.363,512,288.337z      M334.147,288.337v75.453c0,7.43-6.044,13.474-13.474,13.474h-67.368v-78.147c0-4.465-3.618-8.084-8.084-8.084     c-4.466,0-8.084,3.62-8.084,8.084v78.147H29.642c-7.43,0-13.474-6.044-13.474-13.474v-75.453c0-7.43,6.044-13.474,13.474-13.474     h273.126c0.11,0.002,0.219,0.002,0.329,0h17.577C328.104,274.863,334.147,280.907,334.147,288.337z M363.789,226.358     c-21.223,0-39.984,13.017-47.616,32.337h-9.999c-6.23-6.499-9.754-15.184-9.754-24.253c0-19.316,15.715-35.032,35.032-35.032     c16.535,0,30.431,11.515,34.091,26.947H363.789z"/>
			<path d="M175.158,177.853h43.116c4.466,0,8.084-3.62,8.084-8.084s-3.618-8.084-8.084-8.084h-43.116     c-40.119,0-72.758-32.639-72.758-72.758c0-11.83,2.9-23.569,8.388-33.948c2.087-3.946,0.578-8.838-3.37-10.924     c-3.946-2.09-8.838-0.579-10.926,3.368C89.78,60.121,86.232,74.473,86.232,88.926     C86.232,137.961,126.124,177.853,175.158,177.853z"/>
		</g>
	</g>
</g>
<g>
</g>
<g>
</g>
<g>
</g>
<g>
</g>
<g>
</g>
<g>
</g>
<g>
</g>
<g>
</g>
<g>
</g>
<g>
</g>
<g>
</g>
<g>
</g>
<g>
</g>
<g>
</g>
<g>
</g>
</svg>
