<?xml version="1.0" encoding="iso-8859-1"?>
<!-- Generator: Adobe Illustrator 19.0.0, SVG Export Plug-In . SVG Version: 6.00 Build 0)  -->
<svg xmlns="http://www.w3.org/2000/svg" xmlns:xlink="http://www.w3.org/1999/xlink" version="1.1" id="Layer_1" x="0px" y="0px" viewBox="0 0 511.999 511.999" style="enable-background:new 0 0 511.999 511.999;" xml:space="preserve">
<g>
	<g>
		<g>
			<path d="M180.545,204.8c-4.465,0-8.084,3.619-8.084,8.084v37.008c0,4.466,3.62,8.084,8.084,8.084     c4.465,0,8.084-3.618,8.084-8.084v-37.008C188.629,208.419,185.009,204.8,180.545,204.8z"/>
			<path d="M126.652,102.4c28.23,0,51.199-22.969,51.199-51.2S154.883,0,126.652,0C98.421,0,75.453,22.969,75.453,51.2     S98.422,102.4,126.652,102.4z M126.652,16.168c19.316,0,35.029,15.715,35.029,35.032s-15.715,35.032-35.031,35.032     S91.62,70.517,91.62,51.2S107.336,16.168,126.652,16.168z"/>
			<path d="M379.95,363.788v43.116c0,4.466,3.62,8.084,8.084,8.084c4.465,0,8.084-3.619,8.084-8.084v-43.116     c0-4.465-3.62-8.084-8.084-8.084C383.569,355.704,379.95,359.323,379.95,363.788z"/>
			<path d="M272.163,363.788v43.116c0,4.466,3.62,8.084,8.084,8.084c4.465,0,8.084-3.619,8.084-8.084v-43.116     c0-4.466-3.62-8.084-8.084-8.084C275.783,355.704,272.163,359.324,272.163,363.788z"/>
			<path d="M440.742,229.547l-10.234-3.383c-4.243-1.398-8.812,0.9-10.213,5.138c-1.401,4.24,0.899,8.813,5.138,10.214l10.234,3.383     c0.843,0.278,1.698,0.411,2.538,0.411c3.392,0,6.551-2.153,7.675-5.549C447.28,235.521,444.98,230.948,440.742,229.547z"/>
			<path d="M326.057,363.788v43.116c0,4.466,3.62,8.084,8.084,8.084s8.084-3.619,8.084-8.084v-43.116     c0-4.466-3.62-8.084-8.084-8.084S326.057,359.324,326.057,363.788z"/>
			<path d="M450.891,198.844l-10.234-3.384c-4.242-1.398-8.812,0.901-10.213,5.138c-1.401,4.24,0.899,8.813,5.138,10.214     l10.233,3.383c0.843,0.278,1.698,0.411,2.539,0.411c3.392,0,6.551-2.153,7.675-5.549     C457.431,204.817,455.13,200.245,450.891,198.844z"/>
			<path d="M464.365,269.687l24.013-72.64c3.389-10.252,2.584-21.209-2.269-30.854c-4.852-9.644-13.17-16.823-23.42-20.212     c-21.159-6.993-44.069,4.529-51.064,25.691l-6.686,20.23c-9.669-5.635-20.727-8.66-32.062-8.66     c-22.255,0-43.005,11.861-54.456,30.675c-2.055-0.239-4.119-0.36-6.177-0.36c-29.531,0-53.556,24.026-53.556,53.557     c0,0.786,0.017,1.572,0.052,2.357H231.74v-78.147c0-40.119-32.638-72.758-72.756-72.758H94.313     c-40.117,0-72.756,32.639-72.756,72.758v107.79c0,16.344,13.297,29.642,29.641,29.642h2.695v153.083     c0,16.331,12.549,29.57,28.568,30.14c8.114,0.28,15.816-2.657,21.656-8.292c5.841-5.637,9.059-13.213,9.059-21.33v-97.01     c0-7.43,6.045-13.474,13.474-13.474c7.43,0,13.474,6.044,13.474,13.474v96.493c0,16.331,12.549,29.57,28.569,30.14     c0.364,0.013,0.728,0.021,1.09,0.021c7.72-0.001,14.988-2.93,20.566-8.313c5.841-5.637,9.059-13.213,9.059-21.33v-64.674     c0-4.466-3.62-8.084-8.084-8.084c-4.465,0-8.084,3.618-8.084,8.084v64.674c0,3.69-1.463,7.134-4.119,9.697     c-2.653,2.561-6.144,3.872-9.853,3.768c-7.154-0.255-12.975-6.528-12.975-13.982v-96.493c0-16.344-13.297-29.642-29.641-29.642     S97.01,369.001,97.01,385.345v97.01c0,3.69-1.463,7.134-4.119,9.697c-2.653,2.561-6.141,3.872-9.853,3.768     c-7.154-0.255-12.975-6.528-12.975-13.982V328.756h56.588c16.344,0,29.641-13.298,29.641-29.642     c0-4.848-1.171-9.429-3.243-13.474h231.902c0.125,0.002,0.249,0.002,0.374,0h67.74c0.125,0.002,0.249,0.002,0.374,0h7.35     c7.43,0,13.474,6.044,13.474,13.474s-6.045,13.474-13.474,13.474h-3.935c-0.078-0.001-0.155-0.001-0.233,0h-28.167     c-4.465,0-8.084,3.619-8.084,8.084s3.62,8.084,8.084,8.084h19.141l-14.019,112.156c-0.842,6.728-6.589,11.802-13.37,11.802     h-4.218c-6.379-6.64-15.343-10.779-25.256-10.779s-18.877,4.139-25.256,10.779h-46.497c-6.379-6.64-15.343-10.779-25.256-10.779     s-18.877,4.139-25.256,10.779h-19.088c-5.585,0-10.655-3.513-12.616-8.743l-43.204-115.214h202.563     c4.465,0,8.084-3.619,8.084-8.084c0-4.466-3.62-8.084-8.084-8.084h-214.04c-0.125-0.002-0.25-0.002-0.374,0H169.77     c-4.465,0-8.084,3.618-8.084,8.084c0,4.466,3.62,8.084,8.084,8.084h6.523l45.334,120.892     c4.314,11.504,15.467,19.234,27.754,19.234h10.254c-0.617,2.596-0.942,5.303-0.942,8.084c0,19.317,15.715,35.032,35.03,35.032     s35.031-15.715,35.031-35.032c0-2.781-0.327-5.489-0.942-8.084h28.829c-0.617,2.596-0.942,5.303-0.942,8.084     c0,19.317,15.715,35.032,35.03,35.032s35.031-15.715,35.031-35.032c0-2.906-0.356-5.729-1.026-8.431     c12.879-1.993,23.222-12.342,24.881-25.618l14.29-114.323c14.887-1.562,26.527-14.187,26.527-29.48     C490.432,283.98,479.032,271.459,464.365,269.687z M215.576,269.474H80.842v-56.589c0-4.466-3.62-8.084-8.084-8.084     s-8.084,3.619-8.084,8.084v64.674c0,4.466,3.62,8.084,8.084,8.084h53.894c7.43,0,13.474,6.044,13.474,13.474     s-6.045,13.474-13.474,13.474H51.201c-7.43,0-13.474-6.044-13.474-13.474v-107.79c0-31.204,25.384-56.589,56.587-56.589h64.672     c31.203,0,56.588,25.387,56.588,56.589h0.001V269.474z M379.295,269.474H274.931c-0.05-0.784-0.073-1.572-0.073-2.357     c0-20.616,16.773-37.389,37.389-37.389c2.887,0,5.794,0.342,8.643,1.015c3.697,0.871,7.503-0.943,9.148-4.368     c7.868-16.381,24.683-26.965,42.84-26.965c9.621,0,18.973,2.919,26.834,8.304L379.295,269.474z M447.41,269.473h-51.086     l20.488-61.976c0.031-0.091,0.061-0.181,0.089-0.273l10.075-30.476c4.197-12.698,17.94-19.617,30.639-15.415     c6.15,2.033,11.141,6.34,14.052,12.127c2.911,5.786,3.395,12.361,1.361,18.511L447.41,269.473z M293.72,495.831     c-10.402,0-18.863-8.463-18.863-18.863c0-10.401,8.461-18.863,18.863-18.863c10.402,0,18.863,8.463,18.863,18.863     S304.122,495.831,293.72,495.831z M390.729,495.831c-10.402,0-18.863-8.463-18.863-18.863c0-10.401,8.461-18.863,18.863-18.863     s18.863,8.463,18.863,18.863S401.13,495.831,390.729,495.831z"/>
		</g>
	</g>
</g>
<g>
</g>
<g>
</g>
<g>
</g>
<g>
</g>
<g>
</g>
<g>
</g>
<g>
</g>
<g>
</g>
<g>
</g>
<g>
</g>
<g>
</g>
<g>
</g>
<g>
</g>
<g>
</g>
<g>
</g>
</svg>
