<?xml version="1.0" encoding="iso-8859-1"?>
<!-- Generator: Adobe Illustrator 19.0.0, SVG Export Plug-In . SVG Version: 6.00 Build 0)  -->
<svg xmlns="http://www.w3.org/2000/svg" xmlns:xlink="http://www.w3.org/1999/xlink" version="1.1" id="Layer_1" x="0px" y="0px" viewBox="0 0 512 512" style="enable-background:new 0 0 512 512;" xml:space="preserve">
<g>
	<g>
		<g>
			<path d="M342.231,226.358h-21.558c-28.135,0-52.573,16.063-64.674,39.491c-12.1-23.428-36.538-39.491-64.674-39.491h-21.558     c-4.465,0-8.084,3.618-8.084,8.084V256c0,4.466,3.62,8.084,8.084,8.084s8.084-3.619,8.084-8.084v-13.474h13.474     c31.204,0,56.589,25.387,56.589,56.589v13.474h-13.474c-20.142,0-38.926-10.845-49.024-28.301     c-2.237-3.864-7.182-5.184-11.046-2.949c-3.864,2.236-5.186,7.181-2.95,11.046c12.979,22.435,37.127,36.372,63.02,36.372h13.474     v56.589c0,4.466,3.62,8.084,8.084,8.084s8.084-3.618,8.084-8.084v-56.589h13.474c40.119,0,72.758-32.639,72.758-72.758v-21.558     C350.315,229.976,346.696,226.358,342.231,226.358z M334.147,256c0,31.203-25.385,56.589-56.589,56.589h-13.474v-13.474     c0-31.203,25.385-56.589,56.589-56.589h13.474V256z"/>
			<path d="M428.463,118.568h-67.368V34.107c0-5.038-1.962-9.774-5.524-13.338L337.168,2.367C335.653,0.852,333.596,0,331.452,0     h-21.558H202.105h-21.558c-2.144,0-4.201,0.852-5.716,2.367L156.43,20.768c-3.562,3.564-5.524,8.3-5.524,13.338v84.463h-67.37     c-16.345,0-29.642,13.298-29.642,29.642v282.102c0,7.918,3.083,15.362,8.682,20.961l52.046,52.045     c5.599,5.598,13.042,8.681,20.96,8.681h240.836c7.916,0,15.36-3.083,20.96-8.681l52.045-52.045     c5.599-5.599,8.682-13.044,8.682-20.961V148.21C458.105,131.866,444.808,118.568,428.463,118.568z M210.189,16.168h91.621v26.947     h-67.368c-4.465,0-8.084,3.619-8.084,8.084s3.62,8.084,8.084,8.084h67.368v59.284h-91.621V16.168z M441.937,430.313h-0.001     c0,3.599-1.401,6.984-3.946,9.528l-52.044,52.045c-2.546,2.544-5.93,3.946-9.527,3.946H135.582c-3.599,0-6.983-1.401-9.528-3.946     L74.009,439.84c-2.545-2.544-3.946-5.928-3.946-9.528V148.21c0-7.43,6.044-13.474,13.474-13.474h75.453     c4.465,0,8.084-3.619,8.084-8.084V34.107c0-0.709,0.288-1.403,0.789-1.905l16.033-16.034h10.126v102.4h-2.695     c-4.465,0-8.084,3.619-8.084,8.084s3.62,8.084,8.084,8.084h118.568c4.465,0,8.084-3.619,8.084-8.084V16.168h10.126l16.034,16.034     c0.501,0.501,0.789,1.194,0.789,1.905v84.462h-2.695c-4.465,0-8.084,3.619-8.084,8.084s3.62,8.084,8.084,8.084h86.232     c7.43,0,13.474,6.044,13.474,13.474V430.313z"/>
		</g>
	</g>
</g>
<g>
</g>
<g>
</g>
<g>
</g>
<g>
</g>
<g>
</g>
<g>
</g>
<g>
</g>
<g>
</g>
<g>
</g>
<g>
</g>
<g>
</g>
<g>
</g>
<g>
</g>
<g>
</g>
<g>
</g>
</svg>
