<?xml version="1.0" encoding="iso-8859-1"?>
<!-- Generator: Adobe Illustrator 19.0.0, SVG Export Plug-In . SVG Version: 6.00 Build 0)  -->
<svg xmlns="http://www.w3.org/2000/svg" xmlns:xlink="http://www.w3.org/1999/xlink" version="1.1" id="Layer_1" x="0px" y="0px" viewBox="0 0 512 512" style="enable-background:new 0 0 512 512;" xml:space="preserve">
<g>
	<g>
		<g>
			<path d="M129.347,385.347c0,4.466,3.619,8.084,8.084,8.084h140.126c4.466,0,8.084-3.618,8.084-8.084     c0-4.466-3.618-8.084-8.084-8.084H137.432C132.966,377.263,129.347,380.882,129.347,385.347z"/>
			<path d="M377.263,450.021c0,4.466,3.618,8.084,8.084,8.084c4.466,0,8.084-3.619,8.084-8.084V212.884     c0-16.344-13.298-29.642-29.642-29.642h-35.032v-78.147c0-27.328-21.522-49.723-48.505-51.13V29.642     C280.253,13.298,266.955,0,250.611,0H88.926C72.582,0,59.284,13.298,59.284,29.642v24.323     c-26.983,1.407-48.505,23.802-48.505,51.13v142.821H8.084C3.619,247.916,0,251.534,0,256c0,4.466,3.619,8.084,8.084,8.084h2.695     v113.179H8.084c-4.466,0-8.084,3.618-8.084,8.084c0,4.466,3.619,8.084,8.084,8.084h2.695v13.474     c0,27.328,21.522,49.723,48.505,51.13v24.323c0,16.344,13.298,29.642,29.642,29.642h161.684     c16.344,0,29.642-13.298,29.642-29.642v-24.323c26.983-1.407,48.505-23.802,48.505-51.13v-78.147h2.695     c4.466,0,8.084-3.618,8.084-8.084c0-4.466-3.619-8.084-8.084-8.084h-2.695V199.411h35.032c7.43,0,13.474,6.044,13.474,13.474     V450.021z M312.589,183.242H61.979c-4.466,0-8.084,3.618-8.084,8.084c0,4.466,3.618,8.084,8.084,8.084h250.611v113.179h-35.032     c-4.466,0-8.084,3.618-8.084,8.084c0,4.466,3.618,8.084,8.084,8.084h35.032v78.147c0,19.317-15.715,35.032-35.032,35.032h-43.116     c-4.466,0-8.084,3.618-8.084,8.084c0,4.466,3.618,8.084,8.084,8.084h29.642v24.253c0,7.43-6.044,13.474-13.474,13.474H88.926     c-7.43,0-13.474-6.044-13.474-13.474v-24.253h126.653c4.466,0,8.084-3.619,8.084-8.084c0-4.466-3.618-8.084-8.084-8.084H61.979     c-19.317,0-35.032-15.715-35.032-35.032v-13.474h78.147c4.466,0,8.084-3.618,8.084-8.084c0-4.466-3.618-8.084-8.084-8.084H26.947     V264.084h78.147c4.466,0,8.084-3.619,8.084-8.084c0-4.466-3.618-8.084-8.084-8.084H26.947V105.095     c0-19.317,15.715-35.032,35.032-35.032h43.116c4.466,0,8.084-3.618,8.084-8.084c0-4.466-3.618-8.084-8.084-8.084H75.453V29.642     c0-7.43,6.044-13.474,13.474-13.474h161.684c7.43,0,13.474,6.044,13.474,13.474v24.253H137.432c-4.466,0-8.084,3.618-8.084,8.084     c0,4.466,3.619,8.084,8.084,8.084h140.126c19.317,0,35.032,15.715,35.032,35.032V183.242z"/>
			<path d="M253.305,320.674c0-4.466-3.618-8.084-8.084-8.084H61.979c-4.466,0-8.084,3.618-8.084,8.084     c0,4.466,3.618,8.084,8.084,8.084h183.242C249.687,328.758,253.305,325.139,253.305,320.674z"/>
			<path d="M137.432,264.084h140.126c4.466,0,8.084-3.619,8.084-8.084c0-4.466-3.618-8.084-8.084-8.084H137.432     c-4.466,0-8.084,3.619-8.084,8.084C129.347,260.466,132.966,264.084,137.432,264.084z"/>
			<path d="M503.916,0h-10.779c-28.231,0-51.2,22.969-51.2,51.2v420.379c0,13.372-10.88,24.253-24.253,24.253     s-24.253-10.88-24.253-24.253c0-4.466-3.618-8.084-8.084-8.084c-4.466,0-8.084,3.618-8.084,8.084     c0,22.289,18.132,40.421,40.421,40.421s40.421-18.132,40.421-40.421V51.2c0-19.317,15.715-35.032,35.032-35.032h10.779     c4.466,0,8.084-3.619,8.084-8.084S508.382,0,503.916,0z"/>
		</g>
	</g>
</g>
<g>
</g>
<g>
</g>
<g>
</g>
<g>
</g>
<g>
</g>
<g>
</g>
<g>
</g>
<g>
</g>
<g>
</g>
<g>
</g>
<g>
</g>
<g>
</g>
<g>
</g>
<g>
</g>
<g>
</g>
</svg>
