<?xml version="1.0" encoding="iso-8859-1"?>
<!-- Generator: Adobe Illustrator 19.0.0, SVG Export Plug-In . SVG Version: 6.00 Build 0)  -->
<svg xmlns="http://www.w3.org/2000/svg" xmlns:xlink="http://www.w3.org/1999/xlink" version="1.1" id="Layer_1" x="0px" y="0px" viewBox="0 0 512.001 512.001" style="enable-background:new 0 0 512.001 512.001;" xml:space="preserve">
<g>
	<g>
		<g>
			<path d="M451.338,210.171c2.068,0,4.138-0.789,5.717-2.367c3.157-3.158,3.157-8.276,0-11.434L353.293,92.605     c-3.158-3.156-8.276-3.156-11.434,0c-3.157,3.158-3.157,8.276,0,11.434l103.761,103.765     C447.2,209.381,449.269,210.171,451.338,210.171z"/>
			<path d="M476.968,344.918h-64.676c-19.317,0-35.033,15.716-35.033,35.034c0,18.828,14.928,34.234,33.568,35.004l13.276,79.657     c0.069,0.412,0.15,0.818,0.24,1.22H320.669c-4.465,0-8.084,3.62-8.084,8.084s3.618,8.084,8.084,8.084H444.63     c10.215,0,18.847-7.314,20.526-17.389l13.276-79.659c18.64-0.77,33.568-16.176,33.568-35.004     C512.001,360.633,496.286,344.917,476.968,344.918z M476.969,398.815h-5.39c-3.952,0-7.324,2.858-7.974,6.755l-14.399,86.384     c-0.373,2.246-2.298,3.877-4.576,3.877s-4.202-1.631-4.577-3.878l-12.828-76.969h17.405c4.465,0,8.084-3.618,8.084-8.084     c0-4.465-3.619-8.084-8.084-8.084h-32.338c-10.401,0-18.863-8.463-18.863-18.864s8.461-18.864,18.863-18.864h64.676     c10.401,0,18.863,8.463,18.863,18.864S487.37,398.815,476.969,398.815z"/>
			<path d="M197.146,209.654c1.579,1.578,3.648,2.367,5.717,2.367c2.068,0,4.138-0.789,5.717-2.367     c3.157-3.158,3.157-8.276,0-11.434l-66.527-66.529c-3.158-3.156-8.276-3.156-11.434,0c-3.157,3.158-3.157,8.276,0,11.434     L197.146,209.654z"/>
			<path d="M306.761,130.916c1.08,1.62,2.325,3.14,3.704,4.519l4.478,4.478L75.203,379.623c-3.158,3.157-3.158,8.276-0.001,11.433     c1.579,1.579,3.648,2.368,5.717,2.368c2.068,0,4.138-0.789,5.716-2.367l239.74-239.713l2.561,2.562     c3.157,3.155,8.275,3.157,11.434,0c3.157-3.158,3.157-8.276,0-11.434l-18.472-18.473c-0.627-0.626-1.193-1.317-1.685-2.052     l-44.845-67.269c-6.532-9.797-5.229-22.951,3.098-31.277c8.325-8.326,21.477-9.628,31.275-3.097l67.267,44.846     c0.736,0.49,1.426,1.057,2.052,1.685l112.822,112.825c5.254,5.253,5.254,13.801,0,19.055l-38.109,38.112     c-5.254,5.252-13.801,5.254-19.055,0l-72.792-72.794c-3.158-3.156-8.276-3.156-11.434,0c-3.157,3.158-3.157,8.276,0,11.434     l72.793,72.795c11.556,11.556,30.363,11.556,41.921,0l38.11-38.113c11.557-11.558,11.556-30.365,0-41.923L390.497,55.399     c-1.378-1.378-2.898-2.624-4.517-3.704L318.712,6.849c-16.189-10.793-37.924-8.64-51.677,5.117     c-13.758,13.756-15.911,35.492-5.118,51.68L306.761,130.916z"/>
			<path d="M110.152,122.656c1.578,1.578,3.648,2.367,5.716,2.367s4.138-0.789,5.717-2.367c3.157-3.158,3.157-8.276,0-11.434     L86.626,76.263c-3.156-3.156-8.275-3.156-11.433,0c-3.157,3.158-3.157,8.277,0,11.434L110.152,122.656z"/>
			<path d="M166.658,240.143c1.579,1.578,3.649,2.367,5.717,2.367s4.138-0.789,5.717-2.367c3.157-3.158,3.157-8.276,0-11.434     l-91.466-91.468c-3.159-3.157-8.277-3.156-11.434,0c-3.157,3.158-3.157,8.276,0,11.434L166.658,240.143z"/>
			<path d="M288.331,495.831h-32.338c-4.466,0-8.084,3.62-8.084,8.084c0,4.465,3.62,8.084,8.084,8.084h32.338     c4.466,0,8.084-3.62,8.084-8.084C296.415,499.45,292.797,495.831,288.331,495.831z"/>
			<path d="M355.112,202.64c-3.157-3.157-8.276-3.158-11.433-0.001L54.402,491.885c-5.254,5.254-13.801,5.254-19.055,0     l-15.245-15.244c-5.253-5.254-5.253-13.802-0.001-19.056l44.973-44.968c3.158-3.157,3.158-8.276,0.001-11.433     c-3.157-3.157-8.276-3.158-11.433-0.001L8.668,446.152c-11.556,11.557-11.556,30.364,0,41.923l15.246,15.245     c5.779,5.779,13.369,8.666,20.96,8.666c7.591,0,15.182-2.889,20.961-8.666l289.278-289.245     C358.269,210.916,358.269,205.797,355.112,202.64z"/>
		</g>
	</g>
</g>
<g>
</g>
<g>
</g>
<g>
</g>
<g>
</g>
<g>
</g>
<g>
</g>
<g>
</g>
<g>
</g>
<g>
</g>
<g>
</g>
<g>
</g>
<g>
</g>
<g>
</g>
<g>
</g>
<g>
</g>
</svg>
