<?xml version="1.0" encoding="iso-8859-1"?>
<!-- Generator: Adobe Illustrator 19.0.0, SVG Export Plug-In . SVG Version: 6.00 Build 0)  -->
<svg xmlns="http://www.w3.org/2000/svg" xmlns:xlink="http://www.w3.org/1999/xlink" version="1.1" id="Layer_1" x="0px" y="0px" viewBox="0 0 512 512" style="enable-background:new 0 0 512 512;" xml:space="preserve">
<g>
	<g>
		<g>
			<path d="M344.192,210.431c-4.334-1.08-8.72,1.55-9.805,5.882l-9.072,36.286l-8.192-16.383c-1.997-3.994-6.849-5.612-10.847-3.615     c-3.993,1.997-5.612,6.852-3.615,10.846l8.649,17.298c2.692,5.384,8.104,8.729,14.123,8.729c7.26,0,13.56-4.918,15.319-11.96     l9.319-37.279C351.157,215.903,348.524,211.514,344.192,210.431z"/>
			<path d="M156.295,315.284c0-4.465-3.618-8.084-8.084-8.084H61.979c-4.466,0-8.084,3.62-8.084,8.084     c0,4.465,3.618,8.084,8.084,8.084h86.232C152.676,323.368,156.295,319.749,156.295,315.284z"/>
			<path d="M344.192,59.526c-4.334-1.082-8.72,1.55-9.805,5.882l-9.072,36.286l-8.192-16.383c-1.997-3.994-6.849-5.613-10.847-3.615     c-3.993,1.997-5.612,6.852-3.615,10.846l8.649,17.298c2.692,5.384,8.104,8.729,14.123,8.729c7.26,0,13.56-4.918,15.319-11.96     l9.319-37.279C351.157,64.998,348.524,60.609,344.192,59.526z"/>
			<path d="M396.126,463.495c-4.466,0-8.084,3.62-8.084,8.084v10.779c0,7.43-6.044,13.474-13.474,13.474H29.642     c-7.43,0-13.474-6.044-13.474-13.474V29.642c0-7.43,6.044-13.474,13.474-13.474h344.926c7.43,0,13.474,6.044,13.474,13.474     v291.032c0,4.465,3.618,8.084,8.084,8.084c4.466,0,8.084-3.62,8.084-8.084V29.642C404.211,13.297,390.913,0,374.568,0H29.642     C13.298,0,0,13.297,0,29.642v452.716C0,498.703,13.298,512,29.642,512h344.926c16.344,0,29.642-13.297,29.642-29.642v-10.779     C404.211,467.114,400.592,463.495,396.126,463.495z"/>
			<path d="M102.939,388.042c-4.466,0-8.084,3.62-8.084,8.084c0,4.465,3.619,8.084,8.084,8.084h2.156     c4.466,0,8.084-3.62,8.084-8.084c0-4.465-3.618-8.084-8.084-8.084H102.939z"/>
			<path d="M59.823,388.042c-4.466,0-8.084,3.62-8.084,8.084c0,4.465,3.618,8.084,8.084,8.084h2.156c4.466,0,8.084-3.62,8.084-8.084     c0-4.465-3.618-8.084-8.084-8.084H59.823z"/>
			<path d="M455.411,339.537H223.663c-8.242,0-15.264,5.311-17.826,12.69l-44.845,14.948c-12.481,4.161-20.866,15.796-20.866,28.951     c0,13.156,8.385,24.79,20.866,28.951l44.845,14.948c2.562,7.379,9.585,12.69,17.826,12.69h231.747     c31.203,0,56.589-25.385,56.589-56.589S486.613,339.537,455.411,339.537z M204.8,422.636l-38.693-12.898     c-5.869-1.956-9.812-7.427-9.812-13.612c0-6.185,3.944-11.655,9.812-13.612l38.693-12.898V422.636z M420.379,436.547H223.663     c-1.455,0-2.643-1.158-2.693-2.6c0.001-0.096,0-0.19-0.002-0.285v-29.452h199.411V436.547z M420.379,388.042H220.968V358.59     c0.002-0.095,0.003-0.19,0.002-0.285c0.05-1.442,1.237-2.6,2.693-2.6h196.716V388.042z M455.411,436.547h-18.863v-80.842h18.863     c22.289,0,40.421,18.132,40.421,40.421C495.832,418.415,477.699,436.547,455.411,436.547z"/>
			<path d="M256,80.842H61.979c-4.466,0-8.084,3.62-8.084,8.084s3.618,8.084,8.084,8.084H256c4.466,0,8.084-3.62,8.084-8.084     S260.466,80.842,256,80.842z"/>
			<path d="M264.084,239.832c0-4.465-3.619-8.084-8.084-8.084H61.979c-4.466,0-8.084,3.62-8.084,8.084     c0,4.465,3.618,8.084,8.084,8.084H256C260.466,247.916,264.084,244.296,264.084,239.832z"/>
			<path d="M256,156.295H61.979c-4.466,0-8.084,3.62-8.084,8.084c0,4.465,3.618,8.084,8.084,8.084H256     c4.466,0,8.084-3.62,8.084-8.084C264.084,159.914,260.466,156.295,256,156.295z"/>
		</g>
	</g>
</g>
<g>
</g>
<g>
</g>
<g>
</g>
<g>
</g>
<g>
</g>
<g>
</g>
<g>
</g>
<g>
</g>
<g>
</g>
<g>
</g>
<g>
</g>
<g>
</g>
<g>
</g>
<g>
</g>
<g>
</g>
</svg>
