<?xml version="1.0" encoding="iso-8859-1"?>
<!-- Generator: Adobe Illustrator 19.0.0, SVG Export Plug-In . SVG Version: 6.00 Build 0)  -->
<svg xmlns="http://www.w3.org/2000/svg" xmlns:xlink="http://www.w3.org/1999/xlink" version="1.1" id="Layer_1" x="0px" y="0px" viewBox="0 0 512 512" style="enable-background:new 0 0 512 512;" xml:space="preserve">
<g>
	<g>
		<g>
			<path d="M309.568,272.494c1.578,1.578,3.648,2.368,5.716,2.368s4.138-0.789,5.716-2.368l5.063-5.063l5.063,5.063     c1.578,1.578,3.648,2.368,5.716,2.368s4.138-0.789,5.716-2.368c3.157-3.157,3.157-8.276,0-11.433l-5.063-5.063l5.063-5.063     c3.157-3.157,3.157-8.276,0-11.433c-3.157-3.157-8.276-3.157-11.432,0l-5.063,5.063L321,239.502     c-3.157-3.157-8.276-3.157-11.432,0c-3.157,3.157-3.157,8.276,0,11.433l5.063,5.063l-5.063,5.063     C306.411,264.218,306.411,269.337,309.568,272.494z"/>
			<path d="M412.621,174.828l-5.063-5.063l5.063-5.063c3.157-3.157,3.157-8.276,0-11.433c-3.157-3.157-8.276-3.157-11.432,0     l-5.063,5.063l-5.063-5.063c-3.157-3.157-8.276-3.157-11.432,0c-3.157,3.157-3.157,8.276,0,11.433l5.063,5.063l-5.063,5.063     c-3.157,3.157-3.157,8.276,0,11.433c1.578,1.578,3.648,2.368,5.716,2.368s4.138-0.789,5.716-2.368l5.063-5.063l5.063,5.063     c1.578,1.578,3.648,2.368,5.716,2.368s4.138-0.789,5.716-2.368C415.779,183.104,415.779,177.985,412.621,174.828z"/>
			<path d="M379.631,358.727c1.578,1.578,3.648,2.368,5.716,2.368s4.138-0.789,5.716-2.368l5.063-5.063l5.063,5.063     c1.578,1.578,3.648,2.368,5.716,2.368s4.138-0.789,5.716-2.368c3.157-3.157,3.157-8.276,0-11.433l-5.063-5.063l5.063-5.063     c3.157-3.157,3.157-8.276,0-11.433c-3.157-3.157-8.276-3.157-11.432,0l-5.063,5.063l-5.063-5.063     c-3.157-3.157-8.276-3.157-11.432,0c-3.157,3.157-3.157,8.276,0,11.433l5.063,5.063l-5.063,5.063     C376.474,350.45,376.474,355.569,379.631,358.727z"/>
			<path d="M272.495,153.269c-3.157-3.157-8.276-3.157-11.432,0L256,158.332l-5.063-5.063c-3.157-3.157-8.276-3.157-11.432,0     c-3.157,3.157-3.157,8.276,0,11.433l5.063,5.063l-5.063,5.063c-3.157,3.157-3.157,8.276,0,11.433     c1.578,1.578,3.648,2.368,5.716,2.368s4.138-0.789,5.716-2.368l5.063-5.063l5.063,5.063c1.578,1.578,3.648,2.368,5.716,2.368     s4.138-0.789,5.716-2.368c3.157-3.157,3.157-8.276,0-11.433l-5.063-5.063l5.063-5.063     C275.652,161.545,275.652,156.426,272.495,153.269z"/>
			<path d="M132.369,325.734c-3.157-3.157-8.276-3.157-11.432,0l-5.063,5.063l-5.063-5.063c-3.157-3.157-8.276-3.157-11.432,0     c-3.157,3.157-3.157,8.276,0,11.433l5.063,5.063l-5.063,5.063c-3.157,3.157-3.157,8.276,0,11.433     c1.578,1.578,3.648,2.368,5.716,2.368s4.138-0.789,5.716-2.368l5.063-5.063l5.063,5.063c1.578,1.578,3.648,2.368,5.716,2.368     s4.138-0.789,5.716-2.368c3.157-3.157,3.157-8.276,0-11.433l-5.063-5.063l5.063-5.063     C135.526,334.01,135.526,328.892,132.369,325.734z"/>
			<path d="M191.326,102.395h195.223c14.566,0,29.151-3.442,42.176-9.955l40.576-20.287c2.19-1.095,4.354-1.762,6.431-1.984     c5.231-0.561,10.238,1.044,14.101,4.517c3.813,3.428,6,8.33,6,13.451c0,2.792-0.661,5.587-1.909,8.084l-20.471,40.943     c-6.515,13.027-9.958,27.614-9.958,42.179v108.99c0,4.465,3.62,8.084,8.084,8.084c4.465,0,8.084-3.62,8.084-8.084V179.341     c0-12.069,2.853-24.153,8.25-34.949l20.471-40.943C510.75,98.719,512,93.423,512,88.135c0-9.702-4.14-18.988-11.361-25.476     c-7.214-6.484-16.92-9.608-26.627-8.569c-4.002,0.428-8.019,1.638-11.943,3.6l-40.575,20.288     c-10.792,5.396-22.876,8.248-34.945,8.248H191.326c-4.465,0-8.084,3.62-8.084,8.084     C183.242,98.776,186.862,102.396,191.326,102.395z"/>
			<path d="M272.495,325.734c-3.157-3.157-8.276-3.157-11.432,0L256,330.797l-5.063-5.063c-3.157-3.157-8.276-3.157-11.432,0     c-3.157,3.157-3.157,8.276,0,11.433l5.063,5.063l-5.063,5.063c-3.157,3.157-3.157,8.276,0,11.433     c1.578,1.578,3.648,2.368,5.716,2.368s4.138-0.789,5.716-2.368l5.063-5.063l5.063,5.063c1.578,1.578,3.648,2.368,5.716,2.368     s4.138-0.789,5.716-2.368c3.157-3.157,3.157-8.276,0-11.433l-5.063-5.063l5.063-5.063     C275.652,334.01,275.652,328.892,272.495,325.734z"/>
			<path d="M132.369,153.269c-3.157-3.157-8.276-3.157-11.432,0l-5.063,5.063l-5.063-5.063c-3.157-3.157-8.276-3.157-11.432,0     c-3.157,3.157-3.157,8.276,0,11.433l5.063,5.063l-5.063,5.063c-3.157,3.157-3.157,8.276,0,11.433     c1.578,1.578,3.648,2.368,5.716,2.368s4.138-0.789,5.716-2.368l5.063-5.063l5.063,5.063c1.578,1.578,3.648,2.368,5.716,2.368     s4.138-0.789,5.716-2.368c3.157-3.157,3.157-8.276,0-11.433l-5.063-5.063l5.063-5.063     C135.526,161.545,135.526,156.426,132.369,153.269z"/>
			<path d="M508.209,408.194l-20.297-40.594c-5.397-10.795-8.25-22.879-8.25-34.949v-11.98c0-4.465-3.62-8.084-8.084-8.084     s-8.084,3.62-8.084,8.084v11.98c0,14.566,3.443,29.152,9.958,42.179l20.297,40.594c1.076,2.15,1.735,4.276,1.964,6.315     c0.622,5.559-1.264,10.989-5.176,14.901c-3.911,3.912-9.348,5.8-14.9,5.176c-2.042-0.229-4.166-0.889-6.316-1.964l-40.592-20.297     c-13.027-6.515-27.614-9.958-42.179-9.958H125.451c-14.566,0-29.151,3.443-42.179,9.958l-40.592,20.297     c-2.15,1.075-4.275,1.735-6.315,1.964c-5.558,0.625-10.989-1.264-14.901-5.175c-3.911-3.911-5.798-9.342-5.176-14.901     c0.229-2.04,0.889-4.165,1.964-6.315l20.297-40.594c6.515-13.029,9.958-27.615,9.958-42.18v-153.31     c0-14.566-3.443-29.152-9.958-42.179l-20.47-40.944c-1.249-2.497-1.909-5.292-1.909-8.084c0-5.121,2.187-10.023,6-13.451     c3.863-3.472,8.868-5.074,14.102-4.517c2.077,0.222,4.243,0.89,6.435,1.987l40.568,20.284     c13.027,6.515,27.614,9.958,42.179,9.958h33.538c4.465,0,8.084-3.62,8.084-8.084c0-4.465-3.62-8.084-8.084-8.084h-33.539     c-12.069,0-24.154-2.853-34.949-8.25L49.936,57.692c-3.926-1.963-7.945-3.174-11.947-3.602     c-9.708-1.039-19.414,2.086-26.628,8.569C4.14,69.147,0,78.433,0,88.135c0,5.288,1.25,10.584,3.615,15.315l20.471,40.943     c5.398,10.795,8.25,22.88,8.25,34.95v153.31c0,12.069-2.852,24.153-8.25,34.949L3.79,408.194     c-1.929,3.858-3.13,7.81-3.571,11.749c-1.171,10.472,2.405,20.726,9.812,28.132c7.407,7.406,17.659,10.981,28.13,9.811     c3.938-0.44,7.891-1.642,11.749-3.571l40.592-20.297c10.795-5.397,22.879-8.25,34.949-8.25h261.097     c12.069,0,24.153,2.853,34.949,8.25l40.592,20.297c3.858,1.929,7.81,3.13,11.748,3.572c1.307,0.147,2.612,0.219,3.907,0.219     c9.08,0,17.742-3.548,24.224-10.03c7.406-7.407,10.982-17.66,9.811-28.132C511.34,416.005,510.138,412.052,508.209,408.194z"/>
			<path d="M169.442,272.493c1.578,1.578,3.648,2.368,5.716,2.368s4.138-0.789,5.716-2.368l5.063-5.063l5.063,5.063     c1.578,1.578,3.648,2.368,5.716,2.368c2.068,0,4.138-0.789,5.716-2.368c3.157-3.157,3.157-8.276,0-11.433l-5.063-5.063     l5.063-5.063c3.157-3.157,3.157-8.276,0-11.433c-3.157-3.157-8.276-3.157-11.432,0l-5.063,5.063l-5.063-5.063     c-3.157-3.157-8.276-3.157-11.432,0c-3.157,3.158-3.157,8.277,0,11.433l5.063,5.063l-5.063,5.063     C166.285,264.217,166.285,269.336,169.442,272.493z"/>
		</g>
	</g>
</g>
<g>
</g>
<g>
</g>
<g>
</g>
<g>
</g>
<g>
</g>
<g>
</g>
<g>
</g>
<g>
</g>
<g>
</g>
<g>
</g>
<g>
</g>
<g>
</g>
<g>
</g>
<g>
</g>
<g>
</g>
</svg>
