<?xml version="1.0" encoding="iso-8859-1"?>
<!-- Generator: Adobe Illustrator 19.0.0, SVG Export Plug-In . SVG Version: 6.00 Build 0)  -->
<svg xmlns="http://www.w3.org/2000/svg" xmlns:xlink="http://www.w3.org/1999/xlink" version="1.1" id="Layer_1" x="0px" y="0px" viewBox="0 0 512 512" style="enable-background:new 0 0 512 512;" xml:space="preserve">
<g>
	<g>
		<g>
			<path d="M471.579,495.832h-59.832c2.072-4.044,3.242-8.625,3.242-13.474v-161.69c0-16.345-13.297-29.643-29.642-29.643h-25.503     c0.821-4.369,1.25-8.871,1.25-13.474v-75.455c0-16.345-13.297-29.643-29.642-29.643h-2.695v-17.365L433.254,50.591     c11.558-11.558,11.558-30.365,0-41.924c-11.558-11.556-30.362-11.556-41.92,0L280.562,119.442     c-6.561,6.561-15.285,10.175-24.563,10.175s-18.002-3.614-24.563-10.175L120.665,8.668c-11.558-11.556-30.362-11.556-41.92,0     c-11.558,11.558-11.558,30.365,0,41.924l104.498,104.498v17.365h-2.695c-16.345,0-29.642,13.298-29.642,29.643v75.455     c0,4.604,0.429,9.106,1.25,13.474h-25.503c-16.345,0-29.642,13.298-29.642,29.643v161.688c0,4.848,1.171,9.429,3.242,13.474     H40.421c-4.465,0-8.084,3.62-8.084,8.084S35.956,512,40.421,512h431.158c4.465,0,8.084-3.62,8.084-8.084     S476.043,495.832,471.579,495.832z M90.178,39.157c-5.254-5.254-5.254-13.801,0-19.055c5.255-5.255,13.802-5.253,19.055,0     l110.772,110.775c9.615,9.615,22.398,14.909,35.995,14.909s26.38-5.295,35.995-14.909L402.767,20.102     c5.255-5.255,13.802-5.253,19.055,0c5.254,5.254,5.254,13.801,0,19.055L314.958,146.024c-1.517,1.517-2.368,3.573-2.368,5.717     v20.713H199.41v-20.713c0-2.144-0.852-4.201-2.368-5.717L90.178,39.157z M167.074,202.097c0-7.43,6.044-13.474,13.474-13.474     h150.905c7.43,0,13.474,6.045,13.474,13.474v75.455c0,31.204-25.385,56.591-56.589,56.591h-64.674     c-31.204,0-56.589-25.387-56.589-56.591V202.097z M113.179,320.669c0-7.43,6.044-13.474,13.474-13.474h30.567     c4.722,10.544,11.884,19.768,20.76,26.948h-64.801V320.669z M140.126,482.358c0,7.43-6.044,13.474-13.474,13.474     c-7.43,0-13.474-6.045-13.474-13.474V350.312h26.947V482.358z M153.053,495.831c2.071-4.044,3.242-8.625,3.242-13.473V350.312     h199.411v132.045c0,4.848,1.171,9.429,3.242,13.474H153.053z M398.821,482.358c0,7.43-6.044,13.474-13.474,13.474     s-13.474-6.045-13.474-13.474V350.312h26.947V482.358z M398.821,334.143H334.02c8.876-7.18,16.038-16.404,20.76-26.948h30.567     c7.43,0,13.474,6.045,13.474,13.474V334.143z"/>
			<path d="M256,366.481c-28.231,0-51.2,22.969-51.2,51.201s22.969,51.201,51.2,51.201s51.2-22.968,51.2-51.2     C307.2,389.45,284.231,366.481,256,366.481z M256,452.714c-19.316,0-35.032-15.715-35.032-35.033     c0-19.317,15.716-35.033,35.032-35.033s35.032,15.715,35.032,35.033S275.316,452.714,256,452.714z"/>
		</g>
	</g>
</g>
<g>
</g>
<g>
</g>
<g>
</g>
<g>
</g>
<g>
</g>
<g>
</g>
<g>
</g>
<g>
</g>
<g>
</g>
<g>
</g>
<g>
</g>
<g>
</g>
<g>
</g>
<g>
</g>
<g>
</g>
</svg>
