<?xml version="1.0" encoding="iso-8859-1"?>
<!-- Generator: Adobe Illustrator 19.0.0, SVG Export Plug-In . SVG Version: 6.00 Build 0)  -->
<svg xmlns="http://www.w3.org/2000/svg" xmlns:xlink="http://www.w3.org/1999/xlink" version="1.1" id="Layer_1" x="0px" y="0px" viewBox="0 0 512.001 512.001" style="enable-background:new 0 0 512.001 512.001;" xml:space="preserve">
<g>
	<g>
		<g>
			<path d="M417.685,118.568h-64.674c-40.119,0-72.758,32.639-72.758,72.758v140.126c0,16.344,13.298,29.642,29.642,29.642     c0.908,0,1.808-0.041,2.695-0.121v60.346c-2.596-0.614-5.303-0.941-8.084-0.941h-8.722     c-3.886-24.405-25.081-43.116-50.562-43.116h-99.705v-35.032c0-16.344-13.298-29.642-29.642-29.642H72.758     c-28.231,0-51.2,22.969-51.2,51.2v10.779c0,28.231,22.969,51.2,51.2,51.2h13.474v26.947h-2.695     c-16.344,0-29.642,13.298-29.642,29.642S67.193,512,83.537,512h204.8c4.466,0,8.084-3.618,8.084-8.084v-13.474h8.084     c3.103,0,6.113-0.405,8.979-1.166c3.136,12.746,14.171,22.225,27.674,22.705c8.15,0.271,15.817-2.658,21.657-8.292     c5.842-5.637,9.059-13.214,9.059-21.33v-97.011c0-7.43,6.044-13.474,13.474-13.474s13.474,6.044,13.474,13.474v96.493     c0,16.33,12.549,29.571,28.569,30.14c0.365,0.013,0.728,0.021,1.09,0.021c7.721-0.001,14.989-2.93,20.567-8.313     c5.842-5.637,9.059-13.214,9.059-21.33V360.973c0.887,0.08,1.787,0.121,2.695,0.121c16.344,0,29.642-13.298,29.642-29.642     V191.325C490.443,151.207,457.804,118.568,417.685,118.568z M102.401,328.757h13.474c7.43,0,13.474,6.044,13.474,13.474v21.558     c0,7.43-6.044,13.474-13.474,13.474s-13.474-6.044-13.474-13.474V328.757z M72.758,409.599     c-19.317,0-35.032-15.715-35.032-35.032v-10.779c0-19.317,15.715-35.032,35.032-35.032h13.474v16.168h-2.695     c-4.466,0-8.084,3.618-8.084,8.084c0,4.466,3.619,8.084,8.084,8.084h2.695v2.695c0,16.344,13.298,29.642,29.642,29.642     c4.848,0,9.429-1.171,13.474-3.243v5.938c0,7.43-6.044,13.474-13.474,13.474H72.758z M280.253,495.831h-45.81     c-7.43,0-13.474-6.044-13.474-13.474s6.044-13.474,13.474-13.474h21.558c4.466,0,8.084-3.618,8.084-8.084     c0-4.466-3.619-8.084-8.084-8.084h-13.474v-24.253c0-4.466-3.618-8.084-8.084-8.084c-4.466,0-8.084,3.618-8.084,8.084v25.373     c-12.428,3.527-21.558,14.978-21.558,28.522c0,4.848,1.171,9.429,3.243,13.474h-51.749v-56.589c0-4.466-3.618-8.084-8.084-8.084     c-4.466,0-8.084,3.618-8.084,8.084v56.589H83.537c-7.43,0-13.474-6.044-13.474-13.474s6.044-13.474,13.474-13.474h32.337     c4.466,0,8.084-3.618,8.084-8.084c0-4.466-3.618-8.084-8.084-8.084h-13.474v-26.947h13.474c16.344,0,29.642-13.298,29.642-29.642     v-2.695h99.705c19.317,0,35.032,15.715,35.032,35.032V495.831z M304.506,474.273h-8.084v-37.726h8.084     c10.401,0,18.863,8.463,18.863,18.863C323.369,465.811,314.906,474.273,304.506,474.273z M441.937,482.357     c0,3.69-1.463,7.133-4.119,9.697c-2.654,2.562-6.15,3.891-9.854,3.768c-7.154-0.254-12.975-6.527-12.975-13.981v-96.493     c0-16.344-13.298-29.642-29.642-29.642s-29.642,13.298-29.642,29.642v97.011c0,3.69-1.463,7.133-4.119,9.697     c-2.653,2.562-6.155,3.891-9.854,3.768c-7.154-0.255-12.975-6.528-12.975-13.982c0-0.374-0.025-0.742-0.074-1.103     c6.683-6.383,10.853-15.378,10.853-25.327c0-9.912-4.139-18.878-10.779-25.256v-75.853c6.579-5.442,10.779-13.664,10.779-22.849     V307.2h91.621v24.253c0,9.185,4.199,17.407,10.779,22.849V482.357z M460.801,344.925c-2.421,0-4.695-0.642-6.661-1.766     c-0.047-0.027-0.096-0.055-0.143-0.082c-3.987-2.343-6.67-6.677-6.67-11.626V212.883c0-4.466-3.618-8.084-8.084-8.084     c-4.466,0-8.084,3.618-8.084,8.084v78.147h-91.621v-78.147c0-4.466-3.618-8.084-8.084-8.084c-4.466,0-8.084,3.618-8.084,8.084     v118.568c0,4.95-2.682,9.283-6.67,11.626c-0.047,0.027-0.096,0.055-0.143,0.082c-1.965,1.123-4.24,1.766-6.661,1.766     c-7.43,0-13.474-6.044-13.474-13.474V191.325c0-31.203,25.387-56.589,56.589-56.589h64.674c31.203,0,56.589,25.387,56.589,56.589     v140.126h0.002C474.274,338.881,468.23,344.925,460.801,344.925z"/>
			<path d="M385.348,102.4c28.231,0,51.2-22.969,51.2-51.2S413.579,0,385.348,0s-51.2,22.969-51.2,51.2S357.117,102.4,385.348,102.4     z M385.348,16.168c19.317,0,35.032,15.715,35.032,35.032s-15.715,35.032-35.032,35.032c-19.317,0-35.032-15.715-35.032-35.032     S366.031,16.168,385.348,16.168z"/>
		</g>
	</g>
</g>
<g>
</g>
<g>
</g>
<g>
</g>
<g>
</g>
<g>
</g>
<g>
</g>
<g>
</g>
<g>
</g>
<g>
</g>
<g>
</g>
<g>
</g>
<g>
</g>
<g>
</g>
<g>
</g>
<g>
</g>
</svg>
