<?xml version="1.0" encoding="iso-8859-1"?>
<!-- Generator: Adobe Illustrator 19.0.0, SVG Export Plug-In . SVG Version: 6.00 Build 0)  -->
<svg xmlns="http://www.w3.org/2000/svg" xmlns:xlink="http://www.w3.org/1999/xlink" version="1.1" id="Layer_1" x="0px" y="0px" viewBox="0 0 512 512" style="enable-background:new 0 0 512 512;" xml:space="preserve">
<g>
	<g>
		<g>
			<path d="M291.032,256c0,19.317,15.715,35.032,35.032,35.032s35.032-15.715,35.032-35.032s-15.715-35.032-35.032-35.032     S291.032,236.683,291.032,256z M326.063,237.137c10.401,0,18.863,8.463,18.863,18.863c0,10.401-8.463,18.863-18.863,18.863     c-10.401,0-18.863-8.463-18.863-18.863C307.2,245.599,315.663,237.137,326.063,237.137z"/>
			<path d="M493.137,21.558h-46.93C442.678,9.13,431.227,0,417.684,0H29.642C13.297,0,0,13.298,0,29.642v452.716     C0,498.702,13.297,512,29.642,512h388.042c16.344,0,29.642-13.298,29.642-29.642V353.01c0-4.466-3.618-8.084-8.084-8.084     c-4.466,0-8.084,3.618-8.084,8.084v129.347c0,7.43-6.044,13.474-13.474,13.474H29.642c-7.43,0-13.474-6.044-13.474-13.474V29.642     c0-7.43,6.044-13.474,13.474-13.474h388.042c7.43,0,13.474,6.044,13.474,13.474v153.6H320.674     c-40.119,0-72.758,32.639-72.758,72.758s32.639,72.758,72.758,72.758H460.8c16.344,0,29.642-13.298,29.642-29.642v-86.232     c0-16.344-13.298-29.642-29.642-29.642h-13.474v-16.168h24.253c10.401,0,18.863-8.463,18.863-18.863v-35.032h2.695     c10.401,0,18.863-8.463,18.863-18.863V40.421C512,30.02,503.537,21.558,493.137,21.558z M460.8,199.411     c7.43,0,13.474,6.044,13.474,13.474v86.232c0,7.43-6.044,13.474-13.474,13.474H320.674c-31.203,0-56.589-25.387-56.589-56.589     s25.387-56.589,56.589-56.589H460.8z M474.274,148.21c0,1.486-1.208,2.695-2.695,2.695h-24.253v-37.726h26.947V148.21z      M495.832,94.316c0,1.486-1.208,2.695-2.695,2.695h-45.811V37.726h45.811c1.486,0,2.695,1.208,2.695,2.695V94.316z"/>
			<path d="M64.674,40.421v431.158c0,4.466,3.62,8.084,8.084,8.084c4.465,0,8.084-3.618,8.084-8.084V40.421     c0-4.466-3.62-8.084-8.084-8.084C68.293,32.337,64.674,35.955,64.674,40.421z"/>
		</g>
	</g>
</g>
<g>
</g>
<g>
</g>
<g>
</g>
<g>
</g>
<g>
</g>
<g>
</g>
<g>
</g>
<g>
</g>
<g>
</g>
<g>
</g>
<g>
</g>
<g>
</g>
<g>
</g>
<g>
</g>
<g>
</g>
</svg>
