<?xml version="1.0" encoding="iso-8859-1"?>
<!-- Generator: Adobe Illustrator 19.0.0, SVG Export Plug-In . SVG Version: 6.00 Build 0)  -->
<svg xmlns="http://www.w3.org/2000/svg" xmlns:xlink="http://www.w3.org/1999/xlink" version="1.1" id="Layer_1" x="0px" y="0px" viewBox="0 0 512 512" style="enable-background:new 0 0 512 512;" xml:space="preserve">
<g>
	<g>
		<g>
			<path d="M61.979,344.926c-4.466,0-8.084,3.62-8.084,8.084c0,4.465,3.618,8.084,8.084,8.084h86.232     c4.466,0,8.084-3.62,8.084-8.084c0-4.465-3.618-8.084-8.084-8.084H61.979z"/>
			<path d="M210.189,320.674c0-4.465-3.618-8.084-8.084-8.084H61.979c-4.466,0-8.084,3.62-8.084,8.084     c0,4.465,3.618,8.084,8.084,8.084h140.126C206.571,328.758,210.189,325.138,210.189,320.674z"/>
			<path d="M331.453,323.368c-4.466,0-8.084,3.62-8.084,8.084v150.905c0,7.43-6.044,13.474-13.474,13.474H29.642     c-7.43,0-13.474-6.044-13.474-13.474v-67.368h282.947c4.466,0,8.084-3.62,8.084-8.084c0-4.465-3.618-8.084-8.084-8.084H16.168     V80.842h153.6c4.466,0,8.084-3.62,8.084-8.084c0-4.465-3.619-8.084-8.084-8.084h-153.6V29.642c0-7.43,6.044-13.474,13.474-13.474     h140.126c4.466,0,8.084-3.62,8.084-8.084S174.234,0,169.768,0H29.642C13.298,0,0,13.297,0,29.642v452.716     C0,498.703,13.298,512,29.642,512h280.253c16.344,0,29.642-13.297,29.642-29.642V331.453     C339.537,326.988,335.918,323.368,331.453,323.368z"/>
			<path d="M326.063,91.621c4.466,0,8.084-3.62,8.084-8.084V72.758c0-4.465-3.618-8.084-8.084-8.084     c-4.466,0-8.084,3.62-8.084,8.084v10.779C317.979,88.001,321.597,91.621,326.063,91.621z"/>
			<path d="M145.516,455.411c0,13.373,10.88,24.253,24.253,24.253s24.253-10.879,24.253-24.253s-10.88-24.253-24.253-24.253     S145.516,442.037,145.516,455.411z M177.853,455.411c0,4.458-3.626,8.084-8.084,8.084s-8.084-3.626-8.084-8.084     s3.626-8.084,8.084-8.084S177.853,450.952,177.853,455.411z"/>
			<path d="M423.074,102.4c-4.466,0-8.084,3.62-8.084,8.084c0,34.176-27.803,61.979-61.979,61.979s-61.979-27.803-61.979-61.979     c0-4.465-3.618-8.084-8.084-8.084c-4.466,0-8.084,3.62-8.084,8.084c0,43.091,35.056,78.147,78.147,78.147     c43.091,0,78.147-35.056,78.147-78.147C431.158,106.02,427.539,102.4,423.074,102.4z"/>
			<path d="M482.358,0H223.663c-16.344,0-29.642,13.297-29.642,29.642v183.242c0,16.345,13.298,29.642,29.642,29.642h43.116     c1.486,0,2.695,1.209,2.695,2.695v24.518c0,20.656,16.805,37.461,37.461,37.461c18.116,0,33.616-12.936,36.858-30.761     l5.764-31.701c0.234-1.282,1.348-2.212,2.652-2.212h130.15c16.344,0,29.642-13.297,29.642-29.642V29.642     C512,13.297,498.702,0,482.358,0z M495.832,212.883c0,7.43-6.044,13.474-13.474,13.474H352.209     c-9.122,0-16.927,6.515-18.559,15.489l-5.764,31.701c-1.842,10.131-10.654,17.484-20.951,17.484     c-11.742,0-21.293-9.551-21.293-21.293v-24.518c0-10.401-8.463-18.863-18.863-18.863h-43.116c-7.43,0-13.474-6.044-13.474-13.474     V29.642c0-7.43,6.044-13.474,13.474-13.474h258.695c7.43,0,13.474,6.044,13.474,13.474V212.883z"/>
			<path d="M379.958,91.621c4.466,0,8.084-3.62,8.084-8.084V72.758c0-4.465-3.618-8.084-8.084-8.084     c-4.466,0-8.084,3.62-8.084,8.084v10.779C371.874,88.001,375.492,91.621,379.958,91.621z"/>
		</g>
	</g>
</g>
<g>
</g>
<g>
</g>
<g>
</g>
<g>
</g>
<g>
</g>
<g>
</g>
<g>
</g>
<g>
</g>
<g>
</g>
<g>
</g>
<g>
</g>
<g>
</g>
<g>
</g>
<g>
</g>
<g>
</g>
</svg>
