<?xml version="1.0" encoding="iso-8859-1"?>
<!-- Generator: Adobe Illustrator 19.0.0, SVG Export Plug-In . SVG Version: 6.00 Build 0)  -->
<svg xmlns="http://www.w3.org/2000/svg" xmlns:xlink="http://www.w3.org/1999/xlink" version="1.1" id="Layer_1" x="0px" y="0px" viewBox="0 0 512 512" style="enable-background:new 0 0 512 512;" xml:space="preserve">
<g>
	<g>
		<g>
			<path d="M493.137,339.537c10.401,0,18.863-8.463,18.863-18.863V148.21c0-28.231-22.969-51.2-51.2-51.2H264.084V70.063h40.421     c19.317,0,35.032-15.716,35.032-35.032C339.537,15.716,323.822,0,304.505,0h-70.063c-10.401,0-18.863,8.459-18.863,18.858v78.153     h-13.474c-25.483,0-46.676,18.711-50.562,43.116H29.642C13.298,140.126,0,153.423,0,169.768v75.453     c0,4.465,3.619,8.084,8.084,8.084s8.084-3.62,8.084-8.084v-75.453c0-1.296,0.184-2.55,0.527-3.737l74.695,62.901     c11.064,9.317,27.122,9.318,38.188,0l21.327-17.96v90.839H29.642c-7.43,0-13.474-6.044-13.474-13.474v-10.779     c0-4.465-3.619-8.084-8.084-8.084S0,273.093,0,277.558v10.779c0,16.345,13.298,29.642,29.642,29.642h121.263v2.695     c0,10.401,8.463,18.863,18.863,18.863h142.821v156.295H202.105c-4.466,0-8.084,3.62-8.084,8.084c0,4.465,3.618,8.084,8.084,8.084     h140.126c4.466,0,8.084-3.62,8.084-8.084c0-4.465-3.618-8.084-8.084-8.084h-13.474V339.537h48.505v156.295h-2.695     c-4.466,0-8.084,3.62-8.084,8.084c0,4.465,3.619,8.084,8.084,8.084h129.347c4.466,0,8.084-3.62,8.084-8.084     c0-4.465-3.618-8.084-8.084-8.084H393.432V339.537H493.137z M150.905,189.835l-31.742,26.73c-5.029,4.235-12.329,4.235-17.358,0     l-71.57-60.269h120.67V189.835z M231.747,18.858c0-1.483,1.208-2.689,2.695-2.689h70.063c10.401,0,18.863,8.463,18.863,18.863     c0,10.401-8.463,18.863-18.863,18.863h-59.284c-4.466,0-8.084,3.62-8.084,8.084c0,4.465,3.618,8.084,8.084,8.084h2.695v148.211     c0,4.458-3.626,8.084-8.084,8.084c-4.458,0-8.084-3.626-8.084-8.084V18.858z M169.768,323.368c-1.486,0-2.695-1.209-2.695-2.695     v-10.779V148.21c0-19.316,15.715-35.032,35.032-35.032h13.474v105.095c0,13.373,10.88,24.253,24.253,24.253     s24.253-10.879,24.253-24.253V113.179H460.8c16.535,0,30.431,11.515,34.091,26.947H320.674c-4.466,0-8.084,3.62-8.084,8.084     c0,4.465,3.618,8.084,8.084,8.084h175.158v164.379c0,1.485-1.208,2.695-2.695,2.695H169.768z"/>
			<path d="M450.021,247.916h-32.337c-10.401,0-18.863,8.463-18.863,18.863v10.779c0,10.401,8.463,18.863,18.863,18.863h32.337     c10.401,0,18.863-8.463,18.863-18.863v-10.779C468.884,256.378,460.422,247.916,450.021,247.916z M452.716,277.558     c0,1.485-1.208,2.695-2.695,2.695h-32.337c-1.486,0-2.695-1.209-2.695-2.695v-10.779c0-1.485,1.208-2.695,2.695-2.695h32.337     c1.486,0,2.695,1.209,2.695,2.695V277.558z"/>
		</g>
	</g>
</g>
<g>
</g>
<g>
</g>
<g>
</g>
<g>
</g>
<g>
</g>
<g>
</g>
<g>
</g>
<g>
</g>
<g>
</g>
<g>
</g>
<g>
</g>
<g>
</g>
<g>
</g>
<g>
</g>
<g>
</g>
</svg>
