<?xml version="1.0" encoding="iso-8859-1"?>
<!-- Generator: Adobe Illustrator 19.0.0, SVG Export Plug-In . SVG Version: 6.00 Build 0)  -->
<svg xmlns="http://www.w3.org/2000/svg" xmlns:xlink="http://www.w3.org/1999/xlink" version="1.1" id="Layer_1" x="0px" y="0px" viewBox="0 0 512 512" style="enable-background:new 0 0 512 512;" xml:space="preserve">
<g>
	<g>
		<g>
			<path d="M202.105,253.305c31.204,0,56.589,25.387,56.589,56.589c0,4.466,3.62,8.084,8.084,8.084c4.465,0,8.084-3.618,8.084-8.084     c0-40.119-32.639-72.758-72.758-72.758c-4.465,0-8.084,3.618-8.084,8.084C194.021,249.687,197.641,253.305,202.105,253.305z"/>
			<path d="M40.421,102.4H148.21c4.465,0,8.084-3.619,8.084-8.084s-3.62-8.084-8.084-8.084H40.421c-4.465,0-8.084,3.619-8.084,8.084     S35.956,102.4,40.421,102.4z"/>
			<path d="M361.095,309.895c0-87.667-71.322-158.989-158.989-158.989c-38.498,0-75.643,13.938-104.596,39.247     c-28.673,25.066-47.419,59.529-52.784,97.04c-0.632,4.419,2.438,8.514,6.858,9.147c4.418,0.62,8.515-2.439,9.147-6.859     c9.983-69.783,70.761-122.407,141.376-122.407c78.752,0,142.821,64.069,142.821,142.821s-64.069,142.821-142.821,142.821     c-74.637,0-137.214-58.249-142.462-132.611c-0.314-4.454-4.182-7.801-8.633-7.495c-4.454,0.315-7.809,4.18-7.496,8.634     c2.826,40.042,20.577,77.248,49.982,104.764c29.548,27.649,68.12,42.877,108.609,42.877     C289.773,468.884,361.095,397.562,361.095,309.895z"/>
			<path d="M202.105,382.653c4.465,0,8.084-3.619,8.084-8.084s-3.62-8.084-8.084-8.084c-31.204,0-56.589-25.387-56.589-56.589     c0-4.466-3.62-8.084-8.084-8.084c-4.465,0-8.084,3.618-8.084,8.084C129.347,350.014,161.986,382.653,202.105,382.653z"/>
			<path d="M350.316,83.537c0-16.344-13.297-29.642-29.642-29.642c-16.345,0-29.642,13.298-29.642,29.642     s13.297,29.642,29.642,29.642C337.019,113.179,350.316,99.881,350.316,83.537z M307.2,83.537c0-7.43,6.044-13.474,13.474-13.474     s13.474,6.044,13.474,13.474s-6.044,13.474-13.474,13.474S307.2,90.967,307.2,83.537z"/>
			<path d="M274.863,83.537c0-16.344-13.297-29.642-29.642-29.642c-16.345,0-29.642,13.298-29.642,29.642     s13.297,29.642,29.642,29.642C261.566,113.179,274.863,99.881,274.863,83.537z M231.747,83.537     c0-7.43,6.044-13.474,13.474-13.474s13.474,6.044,13.474,13.474s-6.044,13.474-13.474,13.474S231.747,90.967,231.747,83.537z"/>
			<path d="M202.105,425.768c63.893,0,115.874-51.982,115.874-115.874s-51.98-115.874-115.874-115.874     S86.232,246.003,86.232,309.895S138.212,425.768,202.105,425.768z M202.105,210.189c54.978,0,99.705,44.727,99.705,99.705     S257.083,409.6,202.105,409.6S102.4,364.873,102.4,309.895S147.127,210.189,202.105,210.189z"/>
			<path d="M503.916,495.832h-22.857c1.597-3.14,2.657-6.616,3.054-10.315l27.717-258.695c0.895-8.352-1.812-16.724-7.426-22.971     c-5.613-6.246-13.649-9.829-22.048-9.829h-26.072c-3.032-6.367-9.532-10.779-17.042-10.779h-35.032v-153.6     C404.211,13.298,390.914,0,374.568,0H29.642C13.297,0,0,13.298,0,29.642V460.8c0,13.539,5.282,25.866,13.893,35.032H8.084     C3.62,495.832,0,499.45,0,503.916C0,508.382,3.62,512,8.084,512h64.674c4.465,0,8.084-3.618,8.084-8.084     c0-4.466-3.62-8.084-8.084-8.084H51.2c-19.316,0-35.032-15.715-35.032-35.032V134.737H153.6c25.26,0,45.81-20.55,45.81-45.811     s-20.55-45.811-45.81-45.811H16.168V29.642c0-7.43,6.044-13.474,13.474-13.474h344.926c7.43,0,13.474,6.044,13.474,13.474v56.589     h-13.474c-4.465,0-8.084,3.619-8.084,8.084s3.62,8.084,8.084,8.084h13.474v121.263c0,4.466,3.62,8.084,8.084,8.084     c4.465,0,8.084-3.618,8.084-8.084v-24.253h35.032c1.485,0,2.695,1.208,2.695,2.695v64.674c0,22.502-16.309,41.266-37.726,45.096     V256c0-4.466-3.62-8.084-8.084-8.084c-4.465,0-8.084,3.619-8.084,8.084v204.8c0,19.317-15.716,35.032-35.032,35.032H105.095     c-4.465,0-8.084,3.619-8.084,8.084c0,4.466,3.62,8.084,8.084,8.084h301.811c4.465,0,8.084-3.618,8.084-8.084     c0-4.466-3.62-8.084-8.084-8.084h-16.588c8.611-9.165,13.893-21.492,13.893-35.032V328.232     c30.371-3.973,53.895-30.017,53.895-61.454v-56.589h24.25c3.874,0,7.433,1.587,10.022,4.469c2.589,2.881,3.788,6.59,3.375,10.442     l-27.717,258.695c-0.735,6.862-6.495,12.038-13.397,12.038h-15.397c-4.465,0-8.084,3.619-8.084,8.084     c0,4.466,3.62,8.084,8.084,8.084h64.674c4.465,0,8.084-3.618,8.084-8.084C512,499.45,508.38,495.832,503.916,495.832z      M153.6,59.284c16.345,0,29.642,13.298,29.642,29.642s-13.297,29.642-29.642,29.642H16.168V59.284H153.6z"/>
		</g>
	</g>
</g>
<g>
</g>
<g>
</g>
<g>
</g>
<g>
</g>
<g>
</g>
<g>
</g>
<g>
</g>
<g>
</g>
<g>
</g>
<g>
</g>
<g>
</g>
<g>
</g>
<g>
</g>
<g>
</g>
<g>
</g>
</svg>
