<?xml version="1.0" encoding="iso-8859-1"?>
<!-- Generator: Adobe Illustrator 19.0.0, SVG Export Plug-In . SVG Version: 6.00 Build 0)  -->
<svg xmlns="http://www.w3.org/2000/svg" xmlns:xlink="http://www.w3.org/1999/xlink" version="1.1" id="Layer_1" x="0px" y="0px" viewBox="0 0 512.001 512.001" style="enable-background:new 0 0 512.001 512.001;" xml:space="preserve">
<g>
	<g>
		<g>
			<path d="M61.979,150.905H51.201c-19.316,0-35.032-15.716-35.032-35.032V51.2c0-19.316,15.716-35.032,35.032-35.032h194.021     c4.465,0,8.084-3.62,8.084-8.084S249.686,0,245.222,0H51.201c-28.231,0-51.2,22.969-51.2,51.2v64.674     c0,28.231,22.969,51.2,51.2,51.2h10.779c4.465,0,8.084-3.62,8.084-8.084C70.064,154.525,66.444,150.905,61.979,150.905z"/>
			<path d="M137.432,43.116H51.201c-4.465,0-8.084,3.62-8.084,8.084s3.62,8.084,8.084,8.084h86.232c4.465,0,8.084-3.62,8.084-8.084     S141.897,43.116,137.432,43.116z"/>
			<path d="M137.432,75.453H51.201c-4.465,0-8.084,3.62-8.084,8.084c0,4.465,3.62,8.084,8.084,8.084h86.232     c4.465,0,8.084-3.62,8.084-8.084C145.516,79.072,141.897,75.453,137.432,75.453z"/>
			<path d="M137.432,107.789H51.201c-4.465,0-8.084,3.62-8.084,8.084c0,4.465,3.62,8.084,8.084,8.084h86.232     c4.465,0,8.084-3.62,8.084-8.084C145.516,111.409,141.897,107.789,137.432,107.789z"/>
			<path d="M223.664,150.905H94.316c-4.465,0-8.084,3.62-8.084,8.084c0,4.465,3.62,8.084,8.084,8.084h129.347     c4.465,0,8.084-3.62,8.084-8.084C231.748,154.525,228.128,150.905,223.664,150.905z"/>
			<path d="M476.363,290.18C499.344,266.437,512,235.158,512,202.105c0-26.367-8.026-51.644-23.209-73.095     c-14.845-20.973-35.372-36.766-59.363-45.674c-4.187-1.555-8.839,0.579-10.393,4.764c-1.553,4.185,0.58,8.839,4.765,10.392     c43.085,15.998,72.031,57.636,72.031,103.613c0,59.844-46.816,108.345-106.581,110.416c-4.463,0.155-7.954,3.898-7.8,8.359     c0.152,4.367,3.739,7.804,8.074,7.804c0.095,0,0.19-0.001,0.286-0.004c1.21-0.042,2.417-0.107,3.621-0.182v35.291     c0,4.465,3.62,8.084,8.084,8.084h16.168c7.43,0,13.474,6.044,13.474,13.474s-6.044,13.474-13.474,13.474h-16.168     c-4.465,0-8.084,3.62-8.084,8.084c0,4.465,3.62,8.084,8.084,8.084h16.168c16.345,0,29.642-13.297,29.642-29.642     c0-16.345-13.297-29.642-29.642-29.642H409.6v-29.271C434.901,321.542,458.109,309.04,476.363,290.18z"/>
			<path d="M417.685,420.379h-16.168c-4.465,0-8.084,3.62-8.084,8.084c0,4.465,3.62,8.084,8.084,8.084h16.168     c7.43,0,13.474,6.044,13.474,13.474s-6.044,13.474-13.474,13.474h-16.168c-4.465,0-8.084,3.62-8.084,8.084v5.39     c0,10.401-8.463,18.863-18.863,18.863s-18.863-8.463-18.863-18.863V328.493c2.682,0.172,5.377,0.265,8.084,0.265     c4.465,0,8.084-3.62,8.084-8.084c0-4.465-3.62-8.084-8.084-8.084c-39.392,0-76.098-21.226-95.794-55.395     c-2.231-3.869-7.173-5.194-11.042-2.966c-3.867,2.23-5.197,7.173-2.966,11.042c18.464,32.033,49.978,54.131,85.549,61.118     v150.582c0,19.316,15.716,35.032,35.032,35.032c18.41,0,33.548-14.275,34.929-32.337h8.187c16.345,0,29.642-13.297,29.642-29.642     S434.03,420.379,417.685,420.379z"/>
			<path d="M257.655,232.911c-2.886-9.963-4.349-20.328-4.349-30.806c0-60.922,49.563-110.484,110.484-110.484h21.558     c0.896,0,1.796,0.028,2.695,0.05v48.456h-35.031c-22.289,0-40.421,18.132-40.421,40.421c0,22.289,18.132,40.421,40.421,40.421     h43.116c22.289,0,40.421-18.132,40.421-40.421c0-8.861-2.817-17.276-8.143-24.335c-2.689-3.562-7.757-4.272-11.323-1.582     c-3.564,2.689-4.272,7.759-1.582,11.322c3.193,4.231,4.88,9.276,4.88,14.595c0,13.373-10.879,24.253-24.253,24.253h-43.116     c-13.373,0-24.253-10.879-24.253-24.253c0-10.547,6.77-19.539,16.191-22.87c0.485,15.924,13.58,28.73,29.619,28.73     c16.345,0,29.642-13.297,29.642-29.642V29.642C404.211,13.297,390.914,0,374.569,0c-11.767,0-21.955,6.893-26.737,16.853     C338.456,6.508,324.922,0,309.895,0h-32.337c-4.465,0-8.084,3.62-8.084,8.084s3.62,8.084,8.084,8.084h32.337     c19.316,0,35.032,15.716,35.032,35.032v10.779c0,4.465,3.62,8.084,8.084,8.084c4.465,0,8.084-3.62,8.084-8.084V29.642     c0-7.43,6.044-13.474,13.474-13.474s13.474,6.044,13.474,13.474v45.86c-0.899-0.018-1.799-0.05-2.695-0.05H363.79     c-69.837,0-126.653,56.816-126.653,126.653c0,12.001,1.678,23.88,4.989,35.305c1.024,3.538,4.254,5.837,7.761,5.837     c0.745,0,1.502-0.103,2.253-0.321C256.428,241.683,258.898,237.2,257.655,232.911z M388.043,156.766     c0,7.43-6.044,13.474-13.474,13.474s-13.474-6.044-13.474-13.474v-0.471h26.947V156.766z"/>
		</g>
	</g>
</g>
<g>
</g>
<g>
</g>
<g>
</g>
<g>
</g>
<g>
</g>
<g>
</g>
<g>
</g>
<g>
</g>
<g>
</g>
<g>
</g>
<g>
</g>
<g>
</g>
<g>
</g>
<g>
</g>
<g>
</g>
</svg>
