<?xml version="1.0" encoding="iso-8859-1"?>
<!-- Generator: Adobe Illustrator 19.0.0, SVG Export Plug-In . SVG Version: 6.00 Build 0)  -->
<svg xmlns="http://www.w3.org/2000/svg" xmlns:xlink="http://www.w3.org/1999/xlink" version="1.1" id="Layer_1" x="0px" y="0px" viewBox="0 0 512 512" style="enable-background:new 0 0 512 512;" xml:space="preserve">
<g>
	<g>
		<g>
			<path d="M180.547,145.516c4.466,0,8.084-3.618,8.084-8.084V8.084c0-4.466-3.618-8.084-8.084-8.084     c-4.466,0-8.084,3.619-8.084,8.084v129.347C172.463,141.897,176.082,145.516,180.547,145.516z"/>
			<path d="M223.663,145.516c4.466,0,8.084-3.618,8.084-8.084v-97.01c0-4.466-3.618-8.084-8.084-8.084     c-4.466,0-8.084,3.618-8.084,8.084v97.01C215.579,141.897,219.197,145.516,223.663,145.516z"/>
			<path d="M137.432,145.516c4.466,0,8.084-3.618,8.084-8.084v-97.01c0-4.466-3.618-8.084-8.084-8.084     c-4.466,0-8.084,3.618-8.084,8.084v97.01C129.347,141.897,132.966,145.516,137.432,145.516z"/>
			<path d="M450.021,307.2c34.176,0,61.979-27.803,61.979-61.979s-27.803-61.979-61.979-61.979h-2.695v-24.253     c0-9.185-4.199-17.407-10.779-22.849v-9.488c0-22.289-18.132-40.421-40.421-40.421H353.01c-22.289,0-40.421,18.132-40.421,40.421     v3.141c-26.075,2.896-48.041,19.631-58.359,42.669H105.095c-7.511,0-14.01,4.412-17.043,10.779H61.979     C27.803,183.242,0,211.045,0,245.221S27.803,307.2,61.979,307.2h24.253v13.474c0,16.344,13.298,29.642,29.643,29.642h32.337     c2.293,0,4.527-0.262,6.672-0.757l51.958,51.957l-94.316,94.316H61.979c-4.466,0-8.084,3.619-8.084,8.084     c0,4.466,3.618,8.084,8.084,8.084h280.253c4.466,0,8.084-3.618,8.084-8.084c0-4.466-3.618-8.084-8.084-8.084h-18.21     l-56.59-56.589l26.294-26.294l82.884,82.884h-2.042c-4.466,0-8.084,3.619-8.084,8.084c0,4.466,3.619,8.084,8.084,8.084h75.453     c4.466,0,8.084-3.618,8.084-8.084c0-4.466-3.619-8.084-8.084-8.084h-50.547l-94.316-94.316l94.316-94.316H450.021z      M86.232,291.032H61.979c-25.26,0-45.81-20.55-45.81-45.811c0-25.26,20.55-45.811,45.81-45.811h24.253V291.032z M328.758,126.653     c0-13.372,10.88-24.253,24.253-24.253h43.116c13.372,0,24.253,10.88,24.253,24.253v2.815c-0.887-0.08-1.787-0.121-2.695-0.121     h-88.926V126.653z M264.084,220.968h88.926c4.466,0,8.084-3.619,8.084-8.084s-3.618-8.084-8.084-8.084h-88.926v-2.695     c0-31.203,25.387-56.589,56.589-56.589h97.01c7.43,0,13.474,6.044,13.474,13.474v45.81h-45.811c-4.466,0-8.084,3.619-8.084,8.084     s3.618,8.084,8.084,8.084h45.811v13.474c0,7.43-6.044,13.474-13.474,13.474H277.558c-7.43,0-13.474-6.044-13.474-13.474V220.968z      M417.684,264.084c16.344,0,29.642-13.298,29.642-29.642v-35.032h2.695c25.26,0,45.81,20.55,45.81,45.811     c0,25.26-20.55,45.811-45.81,45.811H177.853v-24.253c0-1.486,1.208-2.695,2.695-2.695H417.684z M301.157,307.2L256,352.357     L210.843,307.2H301.157z M161.684,266.78v53.895c0,5.427-3.226,10.115-7.861,12.248c-0.052,0.023-0.102,0.045-0.153,0.069     c-1.669,0.742-3.517,1.155-5.46,1.155h-32.337c-7.43,0-13.474-6.044-13.474-13.474v-21.558v-107.79     c0-1.486,1.208-2.695,2.695-2.695h144.071c-0.821,4.369-1.25,8.87-1.25,13.474v32.337c0,4.848,1.171,9.429,3.243,13.474h-70.612     C170.147,247.916,161.684,256.378,161.684,266.78z M169.485,341.295c5.177-5.34,8.368-12.615,8.368-20.621V307.2h10.126     l56.589,56.589l-26.294,26.294L169.485,341.295z M301.156,495.832h-90.314L256,450.674L301.156,495.832z M187.978,495.832     h-52.587L324.023,307.2h52.587L187.978,495.832z"/>
		</g>
	</g>
</g>
<g>
</g>
<g>
</g>
<g>
</g>
<g>
</g>
<g>
</g>
<g>
</g>
<g>
</g>
<g>
</g>
<g>
</g>
<g>
</g>
<g>
</g>
<g>
</g>
<g>
</g>
<g>
</g>
<g>
</g>
</svg>
