<?xml version="1.0" encoding="iso-8859-1"?>
<!-- Generator: Adobe Illustrator 19.0.0, SVG Export Plug-In . SVG Version: 6.00 Build 0)  -->
<svg xmlns="http://www.w3.org/2000/svg" xmlns:xlink="http://www.w3.org/1999/xlink" version="1.1" id="Layer_1" x="0px" y="0px" viewBox="0 0 512 512" style="enable-background:new 0 0 512 512;" xml:space="preserve">
<g>
	<g>
		<g>
			<path d="M326.063,409.6h-53.895c-4.465,0-8.084,3.62-8.084,8.084s3.62,8.084,8.084,8.084h53.895c4.465,0,8.084-3.62,8.084-8.084     S330.528,409.6,326.063,409.6z"/>
			<path d="M326.063,355.705h-53.895c-4.465,0-8.084,3.62-8.084,8.084c0,4.465,3.62,8.084,8.084,8.084h53.895     c4.465,0,8.084-3.62,8.084-8.084C334.147,359.324,330.528,355.705,326.063,355.705z"/>
			<path d="M326.063,441.936h-53.895c-4.465,0-8.084,3.62-8.084,8.084c0,4.465,3.62,8.084,8.084,8.084h53.895     c4.465,0,8.084-3.62,8.084-8.084C334.147,445.556,330.528,441.936,326.063,441.936z"/>
			<path d="M185.937,344.926H99.705c-4.465,0-8.084,3.62-8.084,8.084c0,4.465,3.62,8.084,8.084,8.084h86.232     c4.465,0,8.084-3.62,8.084-8.084C194.021,348.545,190.401,344.926,185.937,344.926z"/>
			<path d="M164.379,377.263h-43.116c-4.465,0-8.084,3.62-8.084,8.084c0,4.465,3.62,8.084,8.084,8.084h43.116     c4.465,0,8.084-3.62,8.084-8.084C172.463,380.882,168.843,377.263,164.379,377.263z"/>
			<path d="M326.063,75.453h-86.232c-4.465,0-8.084,3.62-8.084,8.084c0,4.465,3.62,8.084,8.084,8.084h86.232     c4.465,0,8.084-3.62,8.084-8.084C334.147,79.073,330.528,75.453,326.063,75.453z"/>
			<path d="M436.481,215.693c-8.292-0.723-16.551,2.076-22.657,7.675c-0.529,0.485-1.039,0.988-1.528,1.508     c-0.317-0.335-0.642-0.664-0.977-0.986c-5.84-5.636-13.526-8.587-21.656-8.291c-4.44,0.158-8.648,1.346-12.4,3.33V30.159     c0-16.058-12.816-29.58-28.569-30.139c-8.111-0.287-15.816,2.655-21.656,8.291c-0.337,0.326-0.666,0.658-0.985,0.996     c-5.408-5.727-13.068-9.307-21.548-9.307c-8.486,0-16.149,3.584-21.558,9.317c-5.409-5.733-13.072-9.317-21.558-9.317     c-8.48,0-16.14,3.58-21.548,9.307c-0.319-0.338-0.648-0.67-0.985-0.996c-5.84-5.636-13.524-8.585-21.656-8.291     c-15.752,0.559-28.569,14.081-28.569,30.139V97.01h-18.863c-19.316,0-35.032,15.716-35.032,35.032v27.096     c-4.123,1.159-8.043,3.222-11.435,6.19l-64.674,56.589c-6.433,5.629-10.123,13.759-10.123,22.307v205.796     c0,16.345,13.297,29.642,29.642,29.642h110.484v2.695c0,16.345,13.297,29.642,29.642,29.642h158.039     c24.759,0,45.944-17.681,50.373-42.041L459.6,288.927c2.584-14.211,3.894-28.742,3.894-43.189     C463.495,230.208,451.629,217.01,436.481,215.693z M142.821,253.305c4.463,0,8.081-3.616,8.084-8.078     c3.271,2.461,5.389,6.374,5.389,10.772c0,7.43-6.044,13.474-13.474,13.474S129.347,263.43,129.347,256     c0-4.399,2.118-8.312,5.39-10.772C134.74,249.689,138.358,253.305,142.821,253.305z M78.147,463.494     c-7.43,0-13.474-6.044-13.474-13.474V244.224c0-3.886,1.677-7.581,4.602-10.14l64.674-56.589     c0.257-0.224,0.518-0.437,0.788-0.638v50.622c-12.428,3.527-21.558,14.977-21.558,28.521c0,16.345,13.297,29.642,29.642,29.642     c16.345,0,29.642-13.297,29.642-29.642c0-13.544-9.13-24.994-21.558-28.521v-50.622c0.269,0.202,0.532,0.415,0.788,0.639     l64.674,56.589c2.924,2.559,4.602,6.255,4.602,10.14v205.796c0,7.43-6.044,13.474-13.474,13.474H78.147z M443.693,286.035     l-32.915,181.031c-3.031,16.667-17.527,28.765-34.467,28.765H218.273c-7.43,0-13.474-6.044-13.474-13.474v-2.695h2.695     c16.345,0,29.642-13.297,29.642-29.642V244.224c0-8.548-3.69-16.678-10.122-22.307l-64.674-56.589     c-3.393-2.97-7.311-5.033-11.435-6.191v-27.094c0-10.401,8.463-18.863,18.863-18.863h18.863v56.589     c0,4.465,3.62,8.084,8.084,8.084c4.465,0,8.084-3.62,8.084-8.084V30.159c0-7.455,5.821-13.727,12.975-13.981     c3.705-0.12,7.2,1.208,9.854,3.768c2.656,2.563,4.119,6.007,4.119,9.697c0,4.465,3.62,8.084,8.084,8.084     c4.465,0,8.084-3.62,8.084-8.084c0-7.43,6.044-13.474,13.474-13.474s13.474,6.044,13.474,13.474c0,4.465,3.62,8.084,8.084,8.084     c4.465,0,8.084-3.62,8.084-8.084c0-7.43,6.044-13.474,13.474-13.474s13.474,6.044,13.474,13.474c0,4.465,3.62,8.084,8.084,8.084     c4.465,0,8.084-3.62,8.084-8.084c0-3.69,1.463-7.133,4.119-9.697c2.655-2.561,6.163-3.89,9.854-3.768     c7.154,0.254,12.975,6.527,12.975,13.981v441.419c0,4.465,3.62,8.084,8.084,8.084c4.465,0,8.084-3.62,8.084-8.084v-225.84     c0-7.456,5.821-13.727,12.976-13.982c3.71-0.13,7.2,1.207,9.854,3.768c2.656,2.563,4.119,6.007,4.119,9.697     c0,4.465,3.62,8.084,8.084,8.084c4.465,0,8.084-3.62,8.084-8.084c0-3.821,1.552-7.35,4.372-9.935     c2.815-2.582,6.482-3.815,10.331-3.485c6.865,0.597,12.244,6.72,12.244,13.937C447.326,259.218,446.104,272.775,443.693,286.035z     "/>
			<path d="M326.063,129.347h-86.232c-4.465,0-8.084,3.62-8.084,8.084c0,4.465,3.62,8.084,8.084,8.084h86.232     c4.465,0,8.084-3.62,8.084-8.084C334.147,132.967,330.528,129.347,326.063,129.347z"/>
			<path d="M326.063,323.368h-53.895c-4.465,0-8.084,3.62-8.084,8.084s3.62,8.084,8.084,8.084h53.895     c4.465,0,8.084-3.62,8.084-8.084S330.528,323.368,326.063,323.368z"/>
			<path d="M326.063,161.684h-86.232c-4.465,0-8.084,3.62-8.084,8.084s3.62,8.084,8.084,8.084h86.232     c4.465,0,8.084-3.62,8.084-8.084S330.528,161.684,326.063,161.684z"/>
			<path d="M326.063,269.473h-53.895c-4.465,0-8.084,3.62-8.084,8.084c0,4.465,3.62,8.084,8.084,8.084h53.895     c4.465,0,8.084-3.62,8.084-8.084C334.147,273.093,330.528,269.473,326.063,269.473z"/>
			<path d="M326.063,237.136h-53.895c-4.465,0-8.084,3.62-8.084,8.084c0,4.465,3.62,8.084,8.084,8.084h53.895     c4.465,0,8.084-3.62,8.084-8.084C334.147,240.756,330.528,237.136,326.063,237.136z"/>
		</g>
	</g>
</g>
<g>
</g>
<g>
</g>
<g>
</g>
<g>
</g>
<g>
</g>
<g>
</g>
<g>
</g>
<g>
</g>
<g>
</g>
<g>
</g>
<g>
</g>
<g>
</g>
<g>
</g>
<g>
</g>
<g>
</g>
</svg>
