<?xml version="1.0" encoding="iso-8859-1"?>
<!-- Generator: Adobe Illustrator 19.0.0, SVG Export Plug-In . SVG Version: 6.00 Build 0)  -->
<svg xmlns="http://www.w3.org/2000/svg" xmlns:xlink="http://www.w3.org/1999/xlink" version="1.1" id="Layer_1" x="0px" y="0px" viewBox="0 0 512.001 512.001" style="enable-background:new 0 0 512.001 512.001;" xml:space="preserve">
<g>
	<g>
		<g>
			<path d="M99.705,177.85H229.05c4.466,0,8.084-3.618,8.084-8.084c0-4.466-3.618-8.084-8.084-8.084H99.705     c-4.466,0-8.084,3.618-8.084,8.084C91.621,174.231,95.24,177.85,99.705,177.85z"/>
			<path d="M367.842,102.398c28.231,0,51.199-22.968,51.199-51.199S396.073,0,367.842,0c-28.231,0-51.2,22.968-51.2,51.199     S339.611,102.399,367.842,102.398z M367.842,16.168c19.316,0,35.032,15.714,35.032,35.03s-15.715,35.032-35.032,35.032     c-19.317,0-35.032-15.715-35.032-35.032C332.811,31.883,348.525,16.168,367.842,16.168z"/>
			<path d="M473.856,477.448l-19.833-118.369c11.057-4.307,18.912-15.069,18.912-27.632V191.323     c0-40.118-32.639-72.757-72.757-72.757h-64.673c-40.118,0-72.757,32.639-72.757,72.757v132.041h-29.642     c-16.344,0-29.642,13.298-29.642,29.642v32.337c0,9.185,4.201,17.407,10.779,22.849v41.823c0,16.344,13.298,29.642,29.642,29.642     h8.245c-1.194,15.06,8.713,28.701,23.531,31.73c2.011,0.411,4.029,0.613,6.029,0.613c5.924-0.001,11.698-1.781,16.701-5.215     c6.692-4.595,11.116-11.535,12.457-19.54l1.272-7.589h28.774c16.345,0,29.642-13.298,29.642-29.642v-41.823     c6.579-5.442,10.779-13.664,10.779-22.849V365.91c9.452,5.405,16.233,14.87,18.08,25.882l15.91,94.944     c2.654,15.839,17.519,27.049,33.156,25.004c8.062-1.057,15.159-5.233,19.987-11.757     C473.279,493.458,475.199,485.455,473.856,477.448z M278.919,331.448V191.323c0-31.203,25.385-56.588,56.588-56.588h64.673     c31.203,0,56.588,25.385,56.588,56.588v140.125c0,7.052-5.444,12.855-12.351,13.427c-0.114,0.004-0.23,0.013-0.345,0.024     c-0.258,0.015-0.517,0.023-0.778,0.023c-7.43,0-13.474-6.045-13.474-13.474v-32.337v-86.231c0-4.466-3.619-8.084-8.084-8.084     c-4.466,0-8.084,3.619-8.084,8.084v78.146h-91.62v-78.146c0-4.466-3.619-8.084-8.084-8.084s-8.084,3.618-8.084,8.084v118.567     c0,7.43-6.044,13.474-13.474,13.474c-7.43,0-13.474-6.045-13.474-13.474H278.919z M294.904,484.575     c-0.611,3.639-2.622,6.794-5.664,8.882c-3.043,2.087-6.715,2.828-10.342,2.088c-7-1.429-11.698-8.551-10.493-15.888h27.322     L294.904,484.575z M354.37,450.015c0,7.43-6.045,13.474-13.474,13.474h-35.567c-0.04,0-0.078,0-0.117,0h-43.604     c-0.037,0-0.073,0-0.109,0h-17.613c-7.43,0-13.474-6.045-13.474-13.474v-35.152c0.887,0.08,1.787,0.121,2.695,0.121h24.401     c1.345,12.109,11.642,21.558,24.104,21.558h21.558c12.462,0,22.759-9.449,24.104-21.558h24.4c0.908,0,1.808-0.041,2.695-0.121     h0.001V450.015z M273.527,412.288c0-4.458,3.626-8.084,8.084-8.084h21.558c4.458,0,8.084,3.626,8.084,8.084     c0,4.458-3.626,8.084-8.084,8.084h-21.558C277.153,420.372,273.527,416.746,273.527,412.288z M365.145,353.005v32.336     c0,7.43-6.045,13.474-13.474,13.474h-28.348c-4.356-6.495-11.765-10.779-20.157-10.779h-21.558     c-8.391,0-15.801,4.284-20.157,10.779h-28.348c-2.405,0-4.666-0.634-6.623-1.743c-0.072-0.043-0.146-0.086-0.22-0.127     c-3.964-2.347-6.63-6.67-6.63-11.602v-32.337c0-7.43,6.045-13.474,13.474-13.474h30.761c3.528,12.428,14.98,21.558,28.522,21.558     c13.544,0,24.995-9.13,28.522-21.558h30.762c7.43,0,13.474,6.045,13.474,13.474H365.145z M455.452,490.366     c-2.194,2.964-5.424,4.862-9.095,5.343c-7.095,0.929-13.875-4.291-15.107-11.645l-15.91-94.944     c-3.178-18.959-16.519-34.735-34.451-41.135c-2.391-13.963-14.582-24.622-29.216-24.622h-29.642v-16.168h91.62v24.253     c0,14.497,10.462,26.597,24.232,29.147l20.028,119.526C458.522,483.76,457.648,487.398,455.452,490.366z"/>
			<path d="M237.136,223.66c0-4.466-3.618-8.084-8.084-8.084H45.811c-4.466,0-8.084,3.619-8.084,8.084     c0,4.466,3.619,8.084,8.084,8.084h183.24C233.516,231.744,237.136,228.126,237.136,223.66z"/>
			<path d="M237.136,277.554c0-4.466-3.618-8.084-8.084-8.084H99.705c-4.466,0-8.084,3.619-8.084,8.084s3.618,8.084,8.084,8.084     H229.05C233.516,285.638,237.136,282.019,237.136,277.554z"/>
		</g>
	</g>
</g>
<g>
</g>
<g>
</g>
<g>
</g>
<g>
</g>
<g>
</g>
<g>
</g>
<g>
</g>
<g>
</g>
<g>
</g>
<g>
</g>
<g>
</g>
<g>
</g>
<g>
</g>
<g>
</g>
<g>
</g>
</svg>
