<?xml version="1.0" encoding="iso-8859-1"?>
<!-- Generator: Adobe Illustrator 19.0.0, SVG Export Plug-In . SVG Version: 6.00 Build 0)  -->
<svg xmlns="http://www.w3.org/2000/svg" xmlns:xlink="http://www.w3.org/1999/xlink" version="1.1" id="Layer_1" x="0px" y="0px" viewBox="0 0 512 512" style="enable-background:new 0 0 512 512;" xml:space="preserve">
<g>
	<g>
		<g>
			<path d="M503.9,495.832h-45.807V240.242c4.303,1.506,8.846,2.284,13.442,2.284c14.153-0.002,27.028-7.099,34.442-18.986     c5.653-9.061,7.402-19.755,4.926-30.111c-2.495-10.439-8.971-19.274-18.234-24.875L277.104,38.211     c-13.019-7.872-29.192-7.873-42.208,0l-78.595,47.523V18.863C156.301,8.463,147.839,0,137.439,0H94.326     C83.925,0,75.464,8.463,75.464,18.863v115.749L19.33,168.554c-9.263,5.601-15.738,14.434-18.234,24.875     c-2.476,10.357-0.727,21.051,4.925,30.111c10.146,16.266,30.324,22.831,47.885,16.702v255.59H8.1     c-4.465,0-8.084,3.62-8.084,8.084c0,4.465,3.62,8.084,8.084,8.084h97.003c4.465,0,8.084-3.62,8.084-8.084     c0-4.465-3.62-8.084-8.084-8.084H70.075V231.486l185.926-112.422l122.745,74.22c3.821,2.311,8.79,1.084,11.1-2.736     c2.309-3.82,1.085-8.79-2.736-11.1L260.183,102.7c-2.571-1.554-5.793-1.554-8.365,0L53.172,222.813     c-11.43,6.91-26.428,3.4-33.433-7.83c-3.344-5.359-4.379-11.679-2.918-17.794c1.481-6.199,5.343-11.454,10.874-14.798     l90.994-55.019c3.82-2.31,5.044-7.28,2.735-11.1c-2.311-3.821-7.28-5.047-11.1-2.736l-18.692,11.302V18.863     c0-1.485,1.209-2.695,2.695-2.695h43.111c1.485,0,2.695,1.209,2.695,2.695V95.51l-6.753,4.084c-3.82,2.31-5.045,7.28-2.735,11.1     c2.31,3.821,7.28,5.046,11.1,2.736l101.517-61.383c7.858-4.751,17.618-4.751,25.477,0l215.567,130.342     c5.531,3.345,9.393,8.601,10.874,14.798c1.462,6.115,0.425,12.435-2.919,17.795c-4.441,7.122-12.189,11.374-20.725,11.375     c-4.478,0-8.872-1.227-12.708-3.546l-47.006-28.422c-3.819-2.31-8.79-1.085-11.1,2.736c-2.309,3.82-1.085,8.79,2.736,11.1     l38.469,23.261v264.345H135.822c-4.465,0-8.084,3.62-8.084,8.084c0,4.465,3.62,8.084,8.084,8.084h368.08     c4.465,0,8.084-3.62,8.084-8.084C511.985,499.451,508.366,495.832,503.9,495.832z"/>
			<path d="M150.912,309.895v97.011c0,10.401,8.461,18.863,18.862,18.863h172.453c10.401,0,18.862-8.463,18.862-18.863v-97.011     c0-10.401-8.461-18.863-18.862-18.863H169.774C159.374,291.032,150.911,299.494,150.912,309.895z M247.916,409.6h-78.142     c-1.485,0-2.695-1.209-2.695-2.695v-56.589h80.837V409.6z M264.085,350.316h56.586c4.465,0,8.084-3.62,8.084-8.084     c0-4.465-3.62-8.084-8.084-8.084h-56.586V307.2h78.143c1.485,0,2.695,1.209,2.695,2.695v97.011c0,1.485-1.209,2.695-2.695,2.695     h-78.143V350.316z M247.916,334.147h-80.838v-24.253c0-1.485,1.209-2.695,2.695-2.695h78.143V334.147z"/>
			<path d="M272.168,231.747c16.344,0,29.641-13.297,29.641-29.642c0-16.345-13.297-29.642-29.641-29.642h-32.335     c-16.344,0-29.641,13.297-29.641,29.642c0,16.345,13.297,29.642,29.641,29.642H272.168z M226.361,202.105     c0-7.43,6.044-13.474,13.473-13.474h32.335c7.429,0,13.473,6.044,13.473,13.474s-6.044,13.474-13.473,13.474h-32.335     C232.404,215.579,226.361,209.535,226.361,202.105z"/>
		</g>
	</g>
</g>
<g>
</g>
<g>
</g>
<g>
</g>
<g>
</g>
<g>
</g>
<g>
</g>
<g>
</g>
<g>
</g>
<g>
</g>
<g>
</g>
<g>
</g>
<g>
</g>
<g>
</g>
<g>
</g>
<g>
</g>
</svg>
