<?xml version="1.0" encoding="iso-8859-1"?>
<!-- Generator: Adobe Illustrator 19.0.0, SVG Export Plug-In . SVG Version: 6.00 Build 0)  -->
<svg xmlns="http://www.w3.org/2000/svg" xmlns:xlink="http://www.w3.org/1999/xlink" version="1.1" id="Layer_1" x="0px" y="0px" viewBox="0 0 512 512" style="enable-background:new 0 0 512 512;" xml:space="preserve">
<g>
	<g>
		<g>
			<path d="M239.832,150.905h-75.453c-57.95,0-105.095,47.145-105.095,105.095c0,32.787,14.892,63.107,40.861,83.185     c3.533,2.73,8.608,2.081,11.341-1.451c2.73-3.532,2.08-8.609-1.451-11.341C88.056,309.401,75.453,283.743,75.453,256     c0-49.033,39.893-88.926,88.926-88.926h75.453c49.033,0,88.926,39.894,88.926,88.927s-39.893,88.926-88.926,88.926h-75.453     c-11.995,0-23.63-2.346-34.579-6.972c-4.112-1.737-8.855,0.189-10.594,4.301c-1.738,4.113,0.189,8.856,4.301,10.594     c12.953,5.47,26.703,8.245,40.872,8.245h75.453c57.95,0,105.095-47.145,105.095-105.095S297.781,150.905,239.832,150.905z"/>
			<path d="M247.916,191.326c0-4.466-3.618-8.084-8.084-8.084h-75.453c-40.119,0-72.758,32.639-72.758,72.758     s32.639,72.758,72.758,72.758h75.453c40.119,0,72.758-32.639,72.758-72.758c0-28.356-16.658-54.323-42.437-66.157     c-4.058-1.86-8.857-0.084-10.72,3.975c-1.863,4.058-0.083,8.857,3.975,10.72c20.054,9.205,33.013,29.405,33.013,51.462     c0,31.203-25.387,56.589-56.589,56.589h-75.453c-31.203,0-56.589-25.387-56.589-56.589s25.387-56.589,56.589-56.589h75.453     C244.297,199.411,247.916,195.792,247.916,191.326z"/>
			<path d="M123.958,256c0,16.344,13.298,29.642,29.642,29.642c16.344,0,29.642-13.298,29.642-29.642s-13.298-29.642-29.642-29.642     C137.256,226.358,123.958,239.656,123.958,256z M167.074,256c0,7.43-6.044,13.474-13.474,13.474     c-7.43,0-13.474-6.044-13.474-13.474c0-7.43,6.044-13.474,13.474-13.474C161.03,242.526,167.074,248.57,167.074,256z"/>
			<path d="M466.189,210.189h-61.979v-94.316c0-28.231-22.969-51.2-51.2-51.2H51.2c-28.231,0-51.2,22.969-51.2,51.2v280.253     c0,28.231,22.969,51.2,51.2,51.2h301.81c28.231,0,51.2-22.969,51.2-51.2v-94.316h61.979C491.45,301.811,512,281.26,512,256     S491.45,210.189,466.189,210.189z M460.8,264.084h33.912c-3.528,12.428-14.979,21.558-28.522,21.558h-61.979v-18.863     c0-4.466-3.618-8.084-8.084-8.084c-4.466,0-8.084,3.618-8.084,8.084v26.814c-0.001,0.045-0.001,0.089-0.001,0.134     s0,0.088,0.001,0.134v102.266c0,19.317-15.715,35.032-35.032,35.032H51.2c-19.317,0-35.032-15.715-35.032-35.032V115.874     c0-19.317,15.715-35.032,35.032-35.032h301.81c19.317,0,35.032,15.715,35.032,35.032V218.14     c-0.001,0.045-0.001,0.089-0.001,0.134s0,0.088,0.001,0.134v16.035c0,4.466,3.618,8.084,8.084,8.084     c4.466,0,8.084-3.618,8.084-8.084v-8.084h61.979c13.544,0,24.995,9.13,28.522,21.558H460.8c-4.466,0-8.084,3.619-8.084,8.084     C452.716,260.466,456.334,264.084,460.8,264.084z"/>
		</g>
	</g>
</g>
<g>
</g>
<g>
</g>
<g>
</g>
<g>
</g>
<g>
</g>
<g>
</g>
<g>
</g>
<g>
</g>
<g>
</g>
<g>
</g>
<g>
</g>
<g>
</g>
<g>
</g>
<g>
</g>
<g>
</g>
</svg>
