<?xml version="1.0" encoding="iso-8859-1"?>
<!-- Generator: Adobe Illustrator 19.0.0, SVG Export Plug-In . SVG Version: 6.00 Build 0)  -->
<svg xmlns="http://www.w3.org/2000/svg" xmlns:xlink="http://www.w3.org/1999/xlink" version="1.1" id="Layer_1" x="0px" y="0px" viewBox="0 0 512 512" style="enable-background:new 0 0 512 512;" xml:space="preserve">
<g>
	<g>
		<g>
			<path d="M342.232,167.074c4.466,0,8.084-3.62,8.084-8.084V40.421c0-4.465-3.618-8.084-8.084-8.084     c-4.466,0-8.084,3.62-8.084,8.084v118.568C334.147,163.454,337.766,167.074,342.232,167.074z"/>
			<path d="M253.305,264.084c4.466,0,8.084-3.62,8.084-8.084v-43.116c0-4.465-3.618-8.084-8.084-8.084     c-4.466,0-8.084,3.62-8.084,8.084V256C245.221,260.465,248.84,264.084,253.305,264.084z"/>
			<path d="M385.347,199.411c4.466,0,8.084-3.62,8.084-8.084V83.537c0-4.465-3.618-8.084-8.084-8.084     c-4.466,0-8.084,3.62-8.084,8.084v107.789C377.263,195.791,380.882,199.411,385.347,199.411z"/>
			<path d="M199.411,102.4c28.231,0,51.2-22.969,51.2-51.2S227.642,0,199.411,0s-51.2,22.969-51.2,51.2S171.179,102.4,199.411,102.4     z M199.411,16.168c19.317,0,35.032,15.716,35.032,35.032s-15.715,35.032-35.032,35.032S164.379,70.516,164.379,51.2     S180.094,16.168,199.411,16.168z"/>
			<path d="M186.798,495.832h-72.989c1.214-2.367,2.13-4.918,2.671-7.622l16.924-82.555c0.086-0.419,0.127-0.836,0.147-1.251     c0.766-2.629,1.185-5.405,1.185-8.277c0-16.345-13.298-29.642-29.642-29.642H29.641C13.298,366.484,0,379.781,0,396.126     c0,3.242,0.53,6.361,1.497,9.284c0.027,0.248,0.061,0.496,0.112,0.745l16.639,82.017C21.01,501.979,33.235,512,47.315,512     h139.482c4.466,0,8.084-3.62,8.084-8.084C194.881,499.451,191.263,495.832,186.798,495.832z M16.168,396.126     c0-7.43,6.044-13.474,13.474-13.474h75.453c7.43,0,13.474,6.044,13.474,13.474c0,7.43-6.044,13.474-13.474,13.474H29.642     C22.212,409.6,16.168,403.556,16.168,396.126z M100.633,485c-1.256,6.277-6.811,10.832-13.212,10.832H47.315     c-6.401,0-11.957-4.555-13.217-10.853l-12.222-60.249c2.477,0.674,5.079,1.039,7.766,1.039h75.453     c2.737,0,5.385-0.38,7.902-1.078L100.633,485z"/>
			<path d="M503.916,312.589h-39.307c-11.374-13.186-28.185-21.558-46.925-21.558h-17.223l-34.719-57.466     c-6.701-11.095-18.918-17.987-31.881-17.987c-11.59,0-22.329,5.315-29.356,14.347v-38.599c0-40.119-32.639-72.758-72.758-72.758     h-64.674c-40.119,0-72.758,32.639-72.758,72.758v118.568c0,0.909,0.047,1.807,0.128,2.695H8.084c-4.466,0-8.084,3.62-8.084,8.084     c0,4.465,3.619,8.084,8.084,8.084h93.026c5.441,6.579,13.663,10.779,22.848,10.779h60.765c-0.974,4.391-1.481,8.893-1.481,13.474     c0,34.176,27.803,61.979,61.979,61.979h172.463c34.176,0,61.979-27.803,61.979-61.979c0-8.603-1.765-16.799-4.946-24.253h29.199     c4.466,0,8.084-3.62,8.084-8.084C512,316.209,508.382,312.589,503.916,312.589z M123.958,323.368     c-7.43,0-13.474-6.044-13.474-13.474V191.326c0-31.204,25.387-56.589,56.589-56.589h64.674c31.203,0,56.589,25.385,56.589,56.589     v63.334l-23.491,36.371h-19.625c-6.975,0-13.917,1.213-20.47,3.498c-5.205-8.553-14.617-14.277-25.34-14.277H153.6v-67.368     c0-4.465-3.619-8.084-8.084-8.084c-4.466,0-8.084,3.62-8.084,8.084v75.453c0,4.465,3.618,8.084,8.084,8.084h53.895     c7.43,0,13.474,6.044,13.474,13.474s-6.044,13.474-13.474,13.474H123.958z M417.684,398.821H245.221     c-25.26,0-45.811-20.55-45.811-45.811c0-4.652,0.69-9.19,2.042-13.552c15.316-1.048,27.471-13.777,27.595-29.325     c5.137-1.947,10.557-2.934,16.175-2.934h9.184l-16.015,24.798c-3.75,5.807-4.025,13.185-0.719,19.255     c3.306,6.071,9.654,9.841,16.565,9.841h98.774c4.466,0,8.084-3.62,8.084-8.084c0-4.465-3.618-8.084-8.084-8.084h-98.776     c-1.393,0-2.08-0.881-2.366-1.406c-0.286-0.525-0.652-1.581,0.102-2.751l64.183-99.379c3.899-6.038,10.519-9.644,17.709-9.644     c7.336,0,14.25,3.901,18.043,10.18l59.757,98.911c0.708,1.173,0.33,2.206,0.041,2.718s-0.978,1.37-2.347,1.37h-23.741     c-4.466,0-8.084,3.62-8.084,8.084c0,4.465,3.618,8.084,8.084,8.084h23.741c6.896,0,13.039-3.586,16.428-9.593     c3.39-6.008,3.283-13.119-0.285-19.024L410.231,307.2h7.454c25.26,0,45.811,20.55,45.811,45.81     C463.495,378.271,442.945,398.821,417.684,398.821z"/>
		</g>
	</g>
</g>
<g>
</g>
<g>
</g>
<g>
</g>
<g>
</g>
<g>
</g>
<g>
</g>
<g>
</g>
<g>
</g>
<g>
</g>
<g>
</g>
<g>
</g>
<g>
</g>
<g>
</g>
<g>
</g>
<g>
</g>
</svg>
