<?xml version="1.0" encoding="iso-8859-1"?>
<!-- Generator: Adobe Illustrator 19.0.0, SVG Export Plug-In . SVG Version: 6.00 Build 0)  -->
<svg xmlns="http://www.w3.org/2000/svg" xmlns:xlink="http://www.w3.org/1999/xlink" version="1.1" id="Layer_1" x="0px" y="0px" viewBox="0 0 512.002 512.002" style="enable-background:new 0 0 512.002 512.002;" xml:space="preserve">
<g>
	<g>
		<g>
			<path d="M325.722,65.164c5.04,3.528,10.911,5.368,16.939,5.367c1.73,0,3.472-0.151,5.211-0.458     c4.397-0.774,7.333-4.967,6.557-9.365c-0.775-4.397-4.971-7.334-9.365-6.557c-3.544,0.622-7.12-0.168-10.068-2.232     c-2.949-2.063-4.916-5.152-5.541-8.696c-0.624-3.544,0.168-7.121,2.232-10.068c2.063-2.949,5.152-4.916,8.696-5.541l35.59-6.276     c4.397-0.774,7.332-4.968,6.557-9.365c-0.775-4.397-4.971-7.338-9.365-6.557l-35.59,6.276     c-16.096,2.838-26.883,18.242-24.044,34.339C314.907,53.827,319.236,60.623,325.722,65.164z"/>
			<path d="M404.076,16.383c3.543-0.622,7.118,0.168,10.068,2.231c2.948,2.064,4.916,5.152,5.541,8.698     c0.624,3.544-0.168,7.12-2.232,10.068c-2.063,2.948-5.152,4.915-8.696,5.541l-35.59,6.276c-4.397,0.775-7.333,4.968-6.557,9.365     c0.692,3.922,4.102,6.681,7.952,6.681c0.467,0,0.939-0.04,1.414-0.124l35.59-6.276c16.096-2.838,26.882-18.242,24.044-34.338     c-1.374-7.796-5.703-14.593-12.19-19.134c-6.486-4.542-14.352-6.29-22.15-4.91c-4.397,0.776-7.333,4.968-6.557,9.365     C395.488,14.222,399.683,17.163,404.076,16.383z"/>
			<path d="M436.548,169.773c0-8.485-3.583-16.149-9.317-21.558c5.733-5.409,9.317-13.073,9.317-21.558     c0-16.344-13.298-29.642-29.642-29.642c-4.466,0-8.084,3.618-8.084,8.084c0,4.466,3.618,8.084,8.084,8.084     c7.43,0,13.474,6.044,13.474,13.474c0,7.43-6.044,13.474-13.474,13.474c-4.466,0-8.084,3.618-8.084,8.084     c0,4.466,3.618,8.084,8.084,8.084c7.43,0,13.474,6.044,13.474,13.474s-6.044,13.474-13.474,13.474     c-4.466,0-8.084,3.618-8.084,8.084c0,4.466,3.618,8.084,8.084,8.084c7.43,0,13.474,6.044,13.474,13.474     s-6.044,13.474-13.474,13.474h-64.674c-7.43,0-13.474-6.044-13.474-13.474s6.044-13.474,13.474-13.474h32.337     c4.466,0,8.084-3.618,8.084-8.084c0-4.466-3.619-8.084-8.084-8.084h-32.337c-7.43,0-13.474-6.044-13.474-13.474     s6.044-13.474,13.474-13.474h32.337c4.466,0,8.084-3.618,8.084-8.084c0-4.466-3.619-8.084-8.084-8.084h-32.337     c-7.43,0-13.474-6.044-13.474-13.474c0-7.43,6.044-13.474,13.474-13.474h32.337c4.466,0,8.084-3.618,8.084-8.084     c0-4.466-3.619-8.084-8.084-8.084h-32.337c-16.344,0-29.642,13.298-29.642,29.642c0,8.485,3.583,16.149,9.318,21.558     c-5.734,5.409-9.318,13.073-9.318,21.558s3.583,16.149,9.318,21.558c-5.734,5.409-9.318,13.073-9.318,21.558     c0,16.344,13.298,29.642,29.642,29.642h64.674c16.344,0,29.642-13.298,29.642-29.642c0-8.485-3.583-16.149-9.317-21.558     C432.965,185.922,436.548,178.258,436.548,169.773z"/>
			<path d="M180.548,102.405c28.231,0,51.2-22.968,51.2-51.199s-22.969-51.199-51.2-51.199s-51.2,22.968-51.2,51.199     S152.317,102.405,180.548,102.405z M180.548,16.175c19.317,0,35.032,15.715,35.032,35.032c0,19.317-15.715,35.032-35.032,35.032     s-35.032-15.715-35.032-35.032S161.231,16.175,180.548,16.175z"/>
			<path d="M331.454,269.477h-45.811v-78.146c0-40.118-32.639-72.757-72.758-72.757h-64.674c-40.119,0-72.758,32.639-72.758,72.757     v140.124c0,16.344,13.298,29.642,29.642,29.642c0.908,0,1.808-0.041,2.695-0.121v120.865c0,16.33,12.549,29.57,28.569,30.14     c8.148,0.277,15.816-2.657,21.657-8.292c5.842-5.638,9.059-13.214,9.059-21.33v-97.009c0-7.43,6.044-13.474,13.474-13.474     s13.474,6.045,13.474,13.474v96.492c0,16.33,12.549,29.57,28.569,30.14c0.365,0.013,0.728,0.02,1.09,0.02     c7.721-0.001,14.988-2.93,20.567-8.313c5.842-5.638,9.059-13.214,9.059-21.33V328.64c0.887,0.08,1.787,0.121,2.695,0.121h75.453     c16.344,0,29.642-13.298,29.642-29.642C361.096,282.775,347.798,269.477,331.454,269.477z M237.138,482.357     c0,3.69-1.463,7.134-4.119,9.697c-2.654,2.562-6.145,3.887-9.854,3.768c-7.155-0.254-12.975-6.527-12.975-13.981v-96.492     c0-16.344-13.298-29.642-29.642-29.642s-29.642,13.298-29.642,29.642v97.009c0,3.69-1.463,7.133-4.119,9.697     c-2.654,2.562-6.148,3.887-9.854,3.768c-7.155-0.254-12.975-6.527-12.975-13.981V354.305     c6.579-5.442,10.779-13.664,10.779-22.849v-24.253h92.741c1.663,5.857,5.087,10.983,9.659,14.765V482.357z M331.454,312.593     h-75.453c-7.43,0-13.474-6.045-13.474-13.474v-86.231c0-4.466-3.618-8.084-8.084-8.084c-4.466,0-8.084,3.618-8.084,8.084v78.146     h-91.621v-78.146c0-4.466-3.619-8.084-8.084-8.084s-8.084,3.619-8.084,8.084v118.566c0,4.95-2.683,9.284-6.67,11.626     c-0.047,0.027-0.094,0.055-0.141,0.082c-1.967,1.123-4.24,1.766-6.662,1.766c-7.43,0-13.474-6.045-13.474-13.474V191.331     c0-31.203,25.387-56.588,56.589-56.588h64.674c31.203,0,56.589,25.385,56.589,56.588v86.23c0,4.466,3.618,8.084,8.084,8.084     h53.895c7.43,0,13.474,6.045,13.474,13.474C344.927,306.548,338.884,312.592,331.454,312.593z"/>
		</g>
	</g>
</g>
<g>
</g>
<g>
</g>
<g>
</g>
<g>
</g>
<g>
</g>
<g>
</g>
<g>
</g>
<g>
</g>
<g>
</g>
<g>
</g>
<g>
</g>
<g>
</g>
<g>
</g>
<g>
</g>
<g>
</g>
</svg>
