<?xml version="1.0" encoding="iso-8859-1"?>
<!-- Generator: Adobe Illustrator 19.0.0, SVG Export Plug-In . SVG Version: 6.00 Build 0)  -->
<svg xmlns="http://www.w3.org/2000/svg" xmlns:xlink="http://www.w3.org/1999/xlink" version="1.1" id="Layer_1" x="0px" y="0px" viewBox="0 0 512 512" style="enable-background:new 0 0 512 512;" xml:space="preserve">
<g>
	<g>
		<g>
			<path d="M212.558,213.599c-4.465,0-8.084,3.618-8.084,8.084c0,4.466,3.62,8.084,8.084,8.084     c51.303,0,93.043,41.738,93.043,93.042c0,4.466,3.618,8.084,8.084,8.084c4.466,0,8.084-3.618,8.084-8.084     C321.769,262.59,272.776,213.599,212.558,213.599z"/>
			<path d="M363.789,398.819c-7.43,0-13.474-6.044-13.474-13.474c0-4.466-3.618-8.084-8.084-8.084c-4.466,0-8.084,3.618-8.084,8.084     c0,16.344,13.298,29.642,29.642,29.642c4.466,0,8.084-3.618,8.084-8.084C371.874,402.438,368.255,398.819,363.789,398.819z"/>
			<path d="M476.968,291.031c-19.317,0-35.032,15.715-35.032,35.032s15.715,35.032,35.032,35.032     c19.317,0,35.032-15.715,35.032-35.032S496.285,291.031,476.968,291.031z M476.968,344.925c-10.401,0-18.863-8.463-18.863-18.863     s8.463-18.863,18.863-18.863c10.401,0,18.863,8.463,18.863,18.863C495.832,336.463,487.369,344.925,476.968,344.925z"/>
			<path d="M476.968,70.063c19.317,0,35.032-15.715,35.032-35.032C512,15.715,496.285,0,476.968,0     c-19.317,0-35.032,15.715-35.032,35.032S457.651,70.063,476.968,70.063z M476.968,16.168c10.401,0,18.863,8.463,18.863,18.863     c0,10.401-8.463,18.863-18.863,18.863c-10.401,0-18.863-8.463-18.863-18.863C458.105,24.63,466.568,16.168,476.968,16.168z"/>
			<path d="M417.684,199.409c4.466,0,8.084-3.618,8.084-8.084c0-4.466-3.619-8.084-8.084-8.084c-7.43,0-13.474-6.044-13.474-13.474     c0-4.466-3.618-8.084-8.084-8.084c-4.466,0-8.084,3.619-8.084,8.084C388.042,186.111,401.34,199.409,417.684,199.409z"/>
			<path d="M413.631,361.006c0.402,0.06,0.8,0.088,1.194,0.088c3.941,0,7.391-2.887,7.986-6.901     c1.527-10.318,2.302-20.877,2.302-31.384c0-19.788-2.717-39.383-8.08-58.242c-1.22-4.294-5.689-6.789-9.987-5.565     c-4.294,1.221-6.786,5.691-5.565,9.987c4.952,17.42,7.463,35.529,7.463,53.82c0,9.718-0.716,19.48-2.128,29.016     C406.165,356.242,409.215,360.352,413.631,361.006z"/>
			<path d="M439.242,452.714c-7.43,0-13.474-6.044-13.474-13.474c0-4.466-3.619-8.084-8.084-8.084s-8.084,3.619-8.084,8.084     c0,16.344,13.298,29.642,29.642,29.642c4.466,0,8.084-3.618,8.084-8.084C447.326,456.333,443.708,452.714,439.242,452.714z"/>
			<path d="M346.021,330.893c4.466,0,8.084-3.618,8.084-8.084c0-78.049-63.498-141.547-141.548-141.547     c-64.155,0-120.423,43.261-136.836,105.201c-1.144,4.316,1.428,8.742,5.744,9.885c4.317,1.139,8.742-1.428,9.885-5.744     c14.535-54.86,64.377-93.174,121.206-93.174c69.134,0,125.38,56.243,125.38,125.379     C337.937,327.275,341.556,330.893,346.021,330.893z"/>
			<path d="M87.179,322.809c0-4.466-3.62-8.084-8.084-8.084s-8.084,3.618-8.084,8.084c0,32.298,10.594,62.711,30.636,87.953     c19.442,24.485,46.776,42.064,76.969,49.496c0.649,0.16,1.299,0.237,1.938,0.237c3.634,0,6.936-2.467,7.844-6.154     c1.067-4.335-1.582-8.716-5.918-9.782C126.368,430.746,87.179,380.68,87.179,322.809z"/>
			<path d="M503.916,495.828h-13.474v-35.032c0-34.176-27.803-61.979-61.979-61.979c-4.693,0-9.311,0.52-13.815,1.549     c-3.276-31.115-29.669-55.443-61.637-55.443c-33.125,0-60.262,26.117-61.9,58.841c-7.616-3.26-15.842-4.946-24.331-4.946     c-34.176,0-61.979,27.803-61.979,61.979v35.032h-85.206C55.742,461.466,16.168,395.356,16.168,322.809     c0-108.287,88.1-196.387,196.389-196.387c49.268,0,96.159,18.213,132.43,51.365c-0.041,0.914-0.061,1.837-0.061,2.76     c0,34.176,27.803,61.979,61.979,61.979s61.979-27.803,61.979-61.979s-27.803-61.979-61.979-61.979     c-26.786,0-49.656,17.079-58.296,40.92c-38.153-31.841-85.971-49.235-136.052-49.235C95.353,110.254,0,205.605,0,322.809     c0,69.437,33.5,133.428,89.038,173.02H8.084c-4.465,0-8.084,3.618-8.084,8.084c0,4.466,3.62,8.084,8.084,8.084h109.324     c0.054,0.001,0.109,0.002,0.163,0.002s0.109-0.001,0.163-0.002h386.182c4.466,0,8.084-3.618,8.084-8.084     C512,499.449,508.382,495.829,503.916,495.828z M406.905,134.736c25.26,0,45.81,20.55,45.81,45.81     c0,25.26-20.55,45.811-45.81,45.811c-25.26,0-45.811-20.551-45.811-45.811C361.095,155.287,381.645,134.736,406.905,134.736z      M474.275,495.829H220.969v-35.032c0-25.26,20.55-45.811,45.811-45.811c10.003,0,19.507,3.166,27.481,9.157     c2.449,1.841,5.729,2.136,8.468,0.77c2.74-1.37,4.471-4.169,4.471-7.233v-10.778c0-25.26,20.55-45.811,45.811-45.811     s45.811,20.551,45.811,45.811v4.497c0,2.727,1.376,5.271,3.658,6.764c2.282,1.494,5.164,1.739,7.663,0.645     c5.802-2.536,11.966-3.821,18.321-3.821c25.26,0,45.811,20.551,45.811,45.811h0.001V495.829z"/>
		</g>
	</g>
</g>
<g>
</g>
<g>
</g>
<g>
</g>
<g>
</g>
<g>
</g>
<g>
</g>
<g>
</g>
<g>
</g>
<g>
</g>
<g>
</g>
<g>
</g>
<g>
</g>
<g>
</g>
<g>
</g>
<g>
</g>
</svg>
