<?xml version="1.0" encoding="iso-8859-1"?>
<!-- Generator: Adobe Illustrator 19.0.0, SVG Export Plug-In . SVG Version: 6.00 Build 0)  -->
<svg xmlns="http://www.w3.org/2000/svg" xmlns:xlink="http://www.w3.org/1999/xlink" version="1.1" id="Layer_1" x="0px" y="0px" viewBox="0 0 512 512" style="enable-background:new 0 0 512 512;" xml:space="preserve">
<g>
	<g>
		<g>
			<path d="M353.01,91.621c4.466,0,8.084-3.619,8.084-8.084V8.084c0-4.466-3.618-8.084-8.084-8.084     c-4.466,0-8.084,3.619-8.084,8.084v75.453C344.926,88.003,348.545,91.621,353.01,91.621z"/>
			<path d="M487.747,280.253h-42.806c0.751-8.232-1.99-16.451-7.541-22.584c-5.608-6.198-13.619-9.753-21.978-9.753h-34.59     c-3.033-6.367-9.532-10.779-17.043-10.779h-53.895c-10.401,0-18.863,8.463-18.863,18.863v53.404     c0,15.613,11.493,28.507,26.735,29.991c1.88,0.183,3.755,0.19,5.602,0.019v2.3c0,16.33,12.549,29.57,28.569,30.139     c8.14,0.273,15.817-2.656,21.657-8.292c5.842-5.637,9.059-13.214,9.059-21.33v-78.147h32.768c3.856,0,7.404,1.575,9.99,4.432     c2.587,2.86,3.801,6.546,3.417,10.382l-0.854,8.542c-0.006,0.054-0.012,0.108-0.017,0.163l-10.552,105.519     c-4.012,40.118-37.442,70.371-77.76,70.371h-167.29c-40.319,0-73.748-30.253-77.759-70.371L83.173,278.899     c-0.384-3.836,0.83-7.524,3.417-10.382c2.587-2.858,6.135-4.432,9.99-4.432h170.2c4.466,0,8.084-3.619,8.084-8.084     c0-4.466-3.618-8.084-8.084-8.084h-170.2c-8.359,0-16.37,3.555-21.978,9.753c-5.551,6.134-8.292,14.352-7.541,22.584H24.253     C10.88,280.253,0,291.133,0,304.505v10.779c0,13.372,10.88,24.253,24.253,24.253H51.2c4.466,0,8.084-3.619,8.084-8.084     s-3.619-8.084-8.084-8.084H24.253c-4.458,0-8.084-3.626-8.084-8.084v-10.779c0-4.458,3.626-8.084,8.084-8.084h44.423l9.83,98.31     c4.842,48.419,45.188,84.932,93.848,84.932h167.291c48.659,0,89.006-36.513,93.848-84.932l9.83-98.31h44.423     c4.458,0,8.084,3.626,8.084,8.084v10.779c0,4.458-3.626,8.084-8.084,8.084H460.8c-4.466,0-8.084,3.619-8.084,8.084     s3.619,8.084,8.084,8.084h26.947c13.372,0,24.253-10.88,24.253-24.253v-10.779C512,291.133,501.12,280.253,487.747,280.253z      M366.484,342.233c0,3.69-1.463,7.134-4.119,9.697c-2.654,2.562-6.148,3.889-9.854,3.768     c-7.154-0.255-12.975-6.528-12.975-13.982v-13.17c0-2.891-1.544-5.56-4.046-7.004c-1.25-0.72-2.644-1.08-4.038-1.08     c-1.399,0-2.799,0.363-4.052,1.089c-2.455,1.422-5.245,2.026-8.069,1.754c-6.803-0.663-12.132-6.768-12.132-13.899V256     c0-1.486,1.208-2.695,2.695-2.695h53.895c1.486,0,2.695,1.208,2.695,2.695V342.233z"/>
			<path d="M385.347,91.621c4.466,0,8.084-3.619,8.084-8.084V8.084c0-4.466-3.618-8.084-8.084-8.084     c-4.466,0-8.084,3.619-8.084,8.084v75.453C377.263,88.003,380.882,91.621,385.347,91.621z"/>
			<path d="M450.021,495.832H51.2c-4.466,0-8.084,3.619-8.084,8.084c0,4.466,3.619,8.084,8.084,8.084h398.821     c4.466,0,8.084-3.618,8.084-8.084C458.105,499.45,454.487,495.832,450.021,495.832z"/>
			<path d="M91.414,216.608c1.019,0,2.047-0.044,3.08-0.135l332.875-29.121c19.243-1.686,33.529-18.709,31.845-37.953     c-1.685-19.243-18.71-33.532-37.952-31.845l-104.696,9.16l-1.174-13.423c-1.425-16.282-15.86-28.362-32.113-26.945l-64.427,5.636     c-16.283,1.425-28.37,15.831-26.946,32.113l1.175,13.422l-104.695,9.16c-9.322,0.816-17.768,5.213-23.783,12.381     c-6.015,7.168-8.878,16.249-8.063,25.572C58.137,202.839,73.466,216.609,91.414,216.608z M76.989,169.45     c3.239-3.86,7.788-6.228,12.806-6.667l112.691-9.859c0.02-0.001,0.039-0.003,0.058-0.004c0.021-0.002,0.04-0.004,0.059-0.005     l21.763-1.905c4.448-0.389,7.737-4.31,7.349-8.758c-0.389-4.447-4.322-7.726-8.758-7.349l-13.769,1.205l-1.174-13.422     c-0.314-3.586,0.787-7.078,3.1-9.836c2.313-2.757,5.562-4.447,9.147-4.761l64.427-5.636c7.404-0.643,13.948,4.845,14.597,12.247     l1.175,13.423l-45.166,3.952c-4.448,0.389-7.737,4.31-7.349,8.758c0.389,4.448,4.313,7.739,8.758,7.349l165.969-14.521     c10.377-0.897,19.529,6.786,20.436,17.147s-6.786,19.529-17.147,20.436L93.084,200.366c-5.014,0.44-9.908-1.102-13.768-4.34     c-3.86-3.239-6.228-7.788-6.667-12.806C72.21,178.2,73.75,173.31,76.989,169.45z"/>
		</g>
	</g>
</g>
<g>
</g>
<g>
</g>
<g>
</g>
<g>
</g>
<g>
</g>
<g>
</g>
<g>
</g>
<g>
</g>
<g>
</g>
<g>
</g>
<g>
</g>
<g>
</g>
<g>
</g>
<g>
</g>
<g>
</g>
</svg>
