<?xml version="1.0" encoding="iso-8859-1"?>
<!-- Generator: Adobe Illustrator 19.0.0, SVG Export Plug-In . SVG Version: 6.00 Build 0)  -->
<svg xmlns="http://www.w3.org/2000/svg" xmlns:xlink="http://www.w3.org/1999/xlink" version="1.1" id="Layer_1" x="0px" y="0px" viewBox="0 0 512 512" style="enable-background:new 0 0 512 512;" xml:space="preserve">
<g>
	<g>
		<g>
			<path d="M169.768,48.505c4.465,0,8.084-3.618,8.084-8.084V8.084c0-4.466-3.62-8.084-8.084-8.084s-8.084,3.619-8.084,8.084v32.337     C161.684,44.887,165.304,48.505,169.768,48.505z"/>
			<path d="M202.105,48.505c4.465,0,8.084-3.618,8.084-8.084V8.084c0-4.466-3.62-8.084-8.084-8.084     c-4.465,0-8.084,3.619-8.084,8.084v32.337C194.021,44.887,197.641,48.505,202.105,48.505z"/>
			<path d="M396.126,118.568h-2.695v-13.474c0-16.344-13.297-29.642-29.642-29.642H349.12l24.851-24.849     c11.558-11.558,11.558-30.364,0-41.923c-11.558-11.556-30.362-11.556-41.92,0L265.28,75.453H148.21     c-16.345,0-29.642,13.298-29.642,29.642v13.474h-2.695c-16.345,0-29.642,13.298-29.642,29.642v21.558     c0,13.951,9.688,25.683,22.691,28.819l49.794,288.808C161.174,501.651,173.46,512,187.928,512h136.145     c14.468,0,26.753-10.348,29.211-24.605l49.794-288.808c13.003-3.136,22.691-14.867,22.691-28.819V148.21     C425.768,131.866,412.471,118.568,396.126,118.568z M343.483,20.115c5.254-5.254,13.801-5.254,19.055,0s5.254,13.801,0,19.055     l-36.283,36.283h-38.11L343.483,20.115z M337.351,484.647c-1.117,6.481-6.701,11.184-13.277,11.184H187.928     c-6.576,0-12.161-4.703-13.278-11.184l-49.179-285.237h261.057L337.351,484.647z M409.6,169.768     c0,7.393-5.986,13.415-13.366,13.474c-0.088-0.003-0.175-0.002-0.261,0H116.026c-0.086-0.002-0.172-0.003-0.26,0     c-7.38-0.058-13.366-6.08-13.366-13.474v-2.695h78.147c4.465,0,8.084-3.618,8.084-8.084c0-4.466-3.62-8.084-8.084-8.084H102.4     v-2.695c0-7.43,6.044-13.474,13.474-13.474h194.021c4.465,0,8.084-3.619,8.084-8.084s-3.62-8.084-8.084-8.084H134.737v-13.474     c0-7.43,6.044-13.474,13.474-13.474h181.368c0.017,0,0.033,0,0.051,0h34.161c7.43,0,13.474,6.044,13.474,13.474v13.474h-35.032     c-4.465,0-8.084,3.619-8.084,8.084s3.62,8.084,8.084,8.084h53.895c7.43,0,13.474,6.044,13.474,13.474V169.768z"/>
			<path d="M256,382.653c34.176,0,61.979-27.803,61.979-61.979S290.176,258.695,256,258.695s-61.979,27.803-61.979,61.979     S221.824,382.653,256,382.653z M256,274.863c25.26,0,45.811,20.55,45.811,45.811c0,22.502-16.309,41.266-37.726,45.096v-66.654     c0-4.466-3.62-8.084-8.084-8.084s-8.084,3.619-8.084,8.084v66.654c-21.418-3.83-37.726-22.594-37.726-45.096     C210.189,295.413,230.74,274.863,256,274.863z"/>
		</g>
	</g>
</g>
<g>
</g>
<g>
</g>
<g>
</g>
<g>
</g>
<g>
</g>
<g>
</g>
<g>
</g>
<g>
</g>
<g>
</g>
<g>
</g>
<g>
</g>
<g>
</g>
<g>
</g>
<g>
</g>
<g>
</g>
</svg>
