<?xml version="1.0" encoding="iso-8859-1"?>
<!-- Generator: Adobe Illustrator 19.0.0, SVG Export Plug-In . SVG Version: 6.00 Build 0)  -->
<svg xmlns="http://www.w3.org/2000/svg" xmlns:xlink="http://www.w3.org/1999/xlink" version="1.1" id="Layer_1" x="0px" y="0px" viewBox="0 0 512 512" style="enable-background:new 0 0 512 512;" xml:space="preserve">
<g>
	<g>
		<g>
			<path d="M158.989,102.4c28.231,0,51.2-22.969,51.2-51.2S187.221,0,158.989,0s-51.2,22.969-51.2,51.2S130.758,102.4,158.989,102.4     z M158.989,16.168c19.316,0,35.032,15.716,35.032,35.032s-15.716,35.032-35.032,35.032c-19.316,0-35.032-15.716-35.032-35.032     S139.674,16.168,158.989,16.168z"/>
			<path d="M40.421,447.326c-4.465,0-8.084,3.62-8.084,8.084v21.558c0,4.465,3.62,8.084,8.084,8.084c4.465,0,8.084-3.62,8.084-8.084     v-21.558C48.505,450.946,44.886,447.326,40.421,447.326z"/>
			<path d="M503.916,312.589h-28.935l2.579-6.671c2.245-5.805,1.483-12.334-2.035-17.468c-1.827-2.666-4.273-4.773-7.074-6.183     l7.296-23.713c0.234-0.703,0.374-1.45,0.405-2.224c0.005-0.124,0.008-0.247,0.007-0.37v-53.856     c0-63.893-51.98-115.874-115.874-115.874h-13.463c-14.795,0-27.427,11.059-29.382,25.725l-18.127,135.959h-35.229v-56.589     c0-40.119-32.639-72.758-72.758-72.758h-64.674c-40.119,0-72.758,32.639-72.758,72.758v118.568c0,0.908,0.041,1.808,0.122,2.695     H8.084c-4.465,0-8.084,3.62-8.084,8.084c0,4.465,3.62,8.084,8.084,8.084h52.603c5.441,6.579,13.664,10.779,22.849,10.779h67.39     l5.33,18.656c2.079,7.279,8.371,12.575,15.745,13.528c7.648,19.585,26.344,32.491,47.663,32.491h173.448     c21.291,0,39.964-12.868,47.631-32.407c7.088-0.622,13.383-5.283,15.976-11.99l12.009-31.056h35.187     c4.465,0,8.084-3.62,8.084-8.084C512,316.209,508.38,312.589,503.916,312.589z M396.126,264.084c4.465,0,8.084-3.62,8.084-8.084     c0-4.465-3.62-8.084-8.084-8.084h-80.503l17.842-133.823c0.889-6.666,6.631-11.693,13.356-11.693h13.463     c54.978,0,99.705,44.727,99.705,99.705v45.81h-31.527c-4.465,0-8.084,3.62-8.084,8.084c0,4.465,3.62,8.084,8.084,8.084h28.666     l-4.974,16.168H160.691c-0.774-3.741,0.06-7.578,2.366-10.699c2.566-3.476,6.517-5.469,10.838-5.469H396.126z M158.989,323.368     H83.537c-7.43,0-13.474-6.044-13.474-13.474V191.326c0-31.204,25.385-56.589,56.589-56.589h64.674     c31.204,0,56.589,25.385,56.589,56.589v56.589h-26.947v-35.032c0-4.465-3.62-8.084-8.084-8.084s-8.084,3.62-8.084,8.084v35.032     h-30.905c-9.506,0-18.196,4.385-23.844,12.032c-4.41,5.97-6.374,13.129-5.691,20.305h-31.18v-67.368     c0-4.465-3.62-8.084-8.084-8.084c-4.465,0-8.084,3.62-8.084,8.084v75.453c0,4.465,3.62,8.084,8.084,8.084h53.895     c7.43,0,13.474,6.044,13.474,13.474S166.419,323.368,158.989,323.368z M462.479,300.088l-20.839,53.895     c-0.399,1.03-1.409,1.722-2.514,1.722H245.221c-4.465,0-8.084,3.62-8.084,8.084c0,4.465,3.62,8.084,8.084,8.084H422.66     c-6.304,9.937-17.291,16.168-29.545,16.168H219.666c-12.255,0-23.242-6.231-29.545-16.168h22.763c4.465,0,8.084-3.62,8.084-8.084     c0-4.465-3.62-8.084-8.084-8.084h-38.49c-1.196,0-2.262-0.804-2.591-1.954l-4.408-15.428     c12.263-3.633,21.236-15.002,21.236-28.428c0-4.848-1.171-9.429-3.242-13.474h274.578c1.235,0,1.923,0.734,2.223,1.171     C462.488,298.029,462.925,298.936,462.479,300.088z"/>
			<path d="M223.663,495.832h-99.897c0.127-0.881,0.192-1.78,0.192-2.695v-53.895c0-7.666-4.597-14.279-11.179-17.226     c-2.056-16.444-11.898-30.802-26.547-38.649v-8.799c0-13.373-10.879-24.253-24.253-24.253c-13.373,0-24.253,10.879-24.253,24.253     v8.798c-14.65,7.848-24.492,22.205-26.547,38.649C4.597,424.963,0,431.576,0,439.242v53.895C0,503.537,8.463,512,18.863,512     h204.8c4.465,0,8.084-3.62,8.084-8.084C231.747,499.451,228.128,495.832,223.663,495.832z M107.789,493.137     c0,1.485-1.209,2.695-2.695,2.695H18.863c-1.485,0-2.695-1.209-2.695-2.695v-53.895c0-1.485,1.209-2.695,2.695-2.695H51.2     c4.465,0,8.084-3.62,8.084-8.084c0-4.465-3.62-8.084-8.084-8.084H27.88c2.56-10.904,10.23-20.046,20.965-24.392     c3.053-1.235,5.05-4.199,5.05-7.493v-13.925c0-4.458,3.626-8.084,8.084-8.084c4.458,0,8.084,3.626,8.084,8.084v13.925     c0,3.293,1.997,6.257,5.05,7.493c10.735,4.347,18.404,13.488,20.965,24.392H83.537c-4.465,0-8.084,3.62-8.084,8.084     c0,4.465,3.62,8.084,8.084,8.084h21.558c1.485,0,2.695,1.209,2.695,2.695V493.137z"/>
		</g>
	</g>
</g>
<g>
</g>
<g>
</g>
<g>
</g>
<g>
</g>
<g>
</g>
<g>
</g>
<g>
</g>
<g>
</g>
<g>
</g>
<g>
</g>
<g>
</g>
<g>
</g>
<g>
</g>
<g>
</g>
<g>
</g>
</svg>
