<?xml version="1.0" encoding="iso-8859-1"?>
<!-- Generator: Adobe Illustrator 19.0.0, SVG Export Plug-In . SVG Version: 6.00 Build 0)  -->
<svg xmlns="http://www.w3.org/2000/svg" xmlns:xlink="http://www.w3.org/1999/xlink" version="1.1" id="Layer_1" x="0px" y="0px" viewBox="0 0 512 512" style="enable-background:new 0 0 512 512;" xml:space="preserve">
<g>
	<g>
		<g>
			<path d="M18.863,436.547H8.084c-4.466,0-8.084,3.618-8.084,8.084c0,4.466,3.619,8.084,8.084,8.084h10.779     c4.466,0,8.084-3.618,8.084-8.084C26.947,440.166,23.329,436.547,18.863,436.547z"/>
			<path d="M299.116,285.642h-21.558c-4.466,0-8.084,3.619-8.084,8.084s3.618,8.084,8.084,8.084h21.558     c4.466,0,8.084-3.619,8.084-8.084S303.582,285.642,299.116,285.642z"/>
			<path d="M132.042,353.55c-17.534,0-31.798,14.264-31.798,31.798s14.264,31.798,31.798,31.798s31.798-14.264,31.798-31.798     S149.576,353.55,132.042,353.55z M132.042,400.977c-8.618,0-15.629-7.012-15.629-15.63c0-8.618,7.012-15.629,15.629-15.629     s15.629,7.012,15.629,15.629C147.672,393.965,140.66,400.977,132.042,400.977z"/>
			<path d="M464.402,253.431L328.098,109.109c-29.904-31.664-72.035-49.825-115.588-49.825H94.316C42.309,59.284,0,101.594,0,153.6     v172.463c0,37.83,29.017,69.008,65.964,72.443c3.002,15.098,11.065,28.396,22.339,38.041H51.2c-4.466,0-8.084,3.618-8.084,8.084     c0,4.466,3.619,8.084,8.084,8.084h75.453c0.471,0,0.933-0.04,1.382-0.117c1.326,0.078,2.664,0.117,4.008,0.117     c32.533,0,59.754-23.183,66.015-53.895h126.666c3.05,14.968,11.08,28.148,22.276,37.726H202.105     c-4.466,0-8.084,3.618-8.084,8.084c0,4.466,3.618,8.084,8.084,8.084H460.8c4.466,0,8.084-3.618,8.084-8.084     c0-4.466-3.618-8.084-8.084-8.084h-26.324c11.748-10.05,20.008-24.064,22.69-39.948C489.271,388.524,512,359.747,512,326.063     v-21.558C512,277.486,490.959,255.286,464.402,253.431z M156.295,75.453h56.215c39.125,0,76.971,16.314,103.834,44.756     l125.702,133.096H404.09c0.08-0.887,0.121-1.787,0.121-2.695c0-16.344-13.298-29.642-29.642-29.642h-32.337     c-16.344,0-29.642,13.298-29.642,29.642c0,0.908,0.041,1.808,0.121,2.695H156.295V75.453z M132.042,436.547     c-28.231,0-51.2-22.969-51.2-51.2s22.969-51.2,51.2-51.2s51.2,22.969,51.2,51.2S160.273,436.547,132.042,436.547z      M390.737,436.547c-28.231,0-51.2-22.969-51.2-51.2s22.969-51.2,51.2-51.2c28.231,0,51.2,22.969,51.2,51.2     S418.968,436.547,390.737,436.547z M495.832,326.063c0,24.537-15.5,45.728-37.974,53.475c-2.956-34.438-31.93-61.56-67.12-61.56     c-36.244,0-65.896,28.77-67.315,64.674H199.357c-1.419-35.904-31.07-64.674-67.315-64.674c-36.055,0-65.585,28.469-67.291,64.11     c-27.425-3.903-48.583-27.539-48.583-56.026v-56.589h24.253c4.466,0,8.084-3.618,8.084-8.084c0-4.466-3.618-8.084-8.084-8.084     H16.168V153.6c0-43.091,35.056-78.147,78.147-78.147h45.811v177.853H72.758c-4.466,0-8.084,3.619-8.084,8.084     c0,4.466,3.618,8.084,8.084,8.084h67.368v24.253c0,4.466,3.618,8.084,8.084,8.084c4.466,0,8.084-3.619,8.084-8.084v-24.253     h163.089c5.442,6.579,13.664,10.779,22.849,10.779c4.466,0,8.084-3.618,8.084-8.084c0-4.466-3.619-8.084-8.084-8.084     c-7.43,0-13.474-6.044-13.474-13.474c0-7.43,6.044-13.474,13.474-13.474h32.337c7.43,0,13.474,6.044,13.474,13.474     c0,7.43-6.044,13.474-13.474,13.474c-4.466,0-8.084,3.618-8.084,8.084c0,4.466,3.618,8.084,8.084,8.084     c9.185,0,17.407-4.199,22.849-10.779h63.363c0.013,0,0.027,0,0.038,0c19.308,0.01,35.012,15.721,35.012,35.032V326.063z"/>
			<path d="M390.737,353.55c-17.534,0-31.798,14.264-31.798,31.798s14.264,31.798,31.798,31.798     c17.534,0,31.798-14.264,31.798-31.798S408.271,353.55,390.737,353.55z M390.737,400.977c-8.618,0-15.629-7.012-15.629-15.63     c0-8.618,7.012-15.629,15.629-15.629c8.618,0,15.63,7.012,15.63,15.629C406.366,393.965,399.355,400.977,390.737,400.977z"/>
		</g>
	</g>
</g>
<g>
</g>
<g>
</g>
<g>
</g>
<g>
</g>
<g>
</g>
<g>
</g>
<g>
</g>
<g>
</g>
<g>
</g>
<g>
</g>
<g>
</g>
<g>
</g>
<g>
</g>
<g>
</g>
<g>
</g>
</svg>
