<?xml version="1.0" encoding="iso-8859-1"?>
<!-- Generator: Adobe Illustrator 19.0.0, SVG Export Plug-In . SVG Version: 6.00 Build 0)  -->
<svg xmlns="http://www.w3.org/2000/svg" xmlns:xlink="http://www.w3.org/1999/xlink" version="1.1" id="Layer_1" x="0px" y="0px" viewBox="0 0 512 512" style="enable-background:new 0 0 512 512;" xml:space="preserve">
<g>
	<g>
		<g>
			<path d="M358.4,264.084h43.116c13.373,0,24.253-10.879,24.253-24.253c0-13.373-10.879-24.253-24.253-24.253H358.4     c-13.373,0-24.253,10.879-24.253,24.253C334.147,253.205,345.027,264.084,358.4,264.084z M358.4,231.747h43.116     c4.458,0,8.084,3.626,8.084,8.084c0,4.458-3.626,8.084-8.084,8.084H358.4c-4.458,0-8.084-3.626-8.084-8.084     C350.316,235.373,353.942,231.747,358.4,231.747z"/>
			<path d="M467.898,54.398c-3.359-12.684-14.931-22.061-28.656-22.061h-45.811v-8.084C393.432,10.879,382.552,0,369.179,0     s-24.253,10.879-24.253,24.253v8.084h-64.674v-8.084C280.253,10.879,269.373,0,256,0c-13.373,0-24.253,10.879-24.253,24.253     v8.084h-64.674v-8.084C167.074,10.879,156.195,0,142.821,0c-13.373,0-24.253,10.879-24.253,24.253v8.084h-45.81     c-13.725,0-25.297,9.378-28.656,22.061C19.22,57.866,0,79.273,0,105.095V460.8C0,489.031,22.969,512,51.2,512h409.6     c28.231,0,51.2-22.969,51.2-51.2V105.095C512,79.273,492.78,57.866,467.898,54.398z M361.095,24.253     c0-4.458,3.626-8.084,8.084-8.084c4.458,0,8.084,3.626,8.084,8.084v32.337c0,4.458-3.626,8.084-8.084,8.084     c-4.458,0-8.084-3.626-8.084-8.084V24.253z M247.916,24.253c0-4.458,3.626-8.084,8.084-8.084c4.458,0,8.084,3.626,8.084,8.084     v32.337c0,4.458-3.626,8.084-8.084,8.084c-4.458,0-8.084-3.626-8.084-8.084V24.253z M134.737,24.253     c0-4.458,3.626-8.084,8.084-8.084c4.458,0,8.084,3.626,8.084,8.084v32.337c0,4.458-3.626,8.084-8.084,8.084     c-4.458,0-8.084-3.626-8.084-8.084V24.253z M495.832,460.8c0,19.316-15.716,35.032-35.032,35.032H51.2     c-19.316,0-35.032-15.716-35.032-35.032V105.095c0-16.534,11.517-30.419,26.947-34.08v368.227     c0,16.345,13.297,29.642,29.642,29.642h300.733c4.465,0,8.084-3.62,8.084-8.084s-3.62-8.084-8.084-8.084H72.758     c-7.43,0-13.474-6.044-13.474-13.474V123.958h369.179c4.465,0,8.084-3.62,8.084-8.084c0-4.465-3.62-8.084-8.084-8.084H59.284     V61.979c0-7.43,6.044-13.474,13.474-13.474h45.81v8.084c0,13.373,10.879,24.253,24.253,24.253     c13.373,0,24.253-10.879,24.253-24.253v-8.084h64.674v8.084c0,13.373,10.879,24.253,24.253,24.253     c13.373,0,24.253-10.879,24.253-24.253v-8.084h64.674v8.084c0,13.373,10.879,24.253,24.253,24.253s24.253-10.879,24.253-24.253     v-8.084h45.811c7.43,0,13.474,6.044,13.474,13.474v377.263c0,7.43-6.044,13.474-13.474,13.474h-32.337     c-4.465,0-8.084,3.62-8.084,8.084s3.62,8.084,8.084,8.084h32.337c16.345,0,29.642-13.297,29.642-29.642V71.015     c15.43,3.661,26.947,17.546,26.947,34.08V460.8z"/>
			<path d="M425.768,390.737c0-13.373-10.879-24.253-24.253-24.253H358.4c-13.373,0-24.253,10.879-24.253,24.253     c0,13.373,10.879,24.253,24.253,24.253h43.116C414.889,414.989,425.768,404.11,425.768,390.737z M350.316,390.737     c0-4.458,3.626-8.084,8.084-8.084h43.116c4.458,0,8.084,3.626,8.084,8.084c0,4.458-3.626,8.084-8.084,8.084H358.4     C353.942,398.821,350.316,395.195,350.316,390.737z"/>
			<path d="M358.4,339.537h43.116c13.373,0,24.253-10.879,24.253-24.253c0-13.373-10.879-24.253-24.253-24.253H358.4     c-13.373,0-24.253,10.879-24.253,24.253C334.147,328.658,345.027,339.537,358.4,339.537z M358.4,307.2h43.116     c4.458,0,8.084,3.626,8.084,8.084c0,4.458-3.626,8.084-8.084,8.084H358.4c-4.458,0-8.084-3.626-8.084-8.084     C350.316,310.826,353.942,307.2,358.4,307.2z"/>
			<path d="M153.6,366.484h-43.116c-13.373,0-24.253,10.879-24.253,24.253c0,13.373,10.879,24.253,24.253,24.253H153.6     c13.373,0,24.253-10.879,24.253-24.253C177.853,377.363,166.973,366.484,153.6,366.484z M153.6,398.821h-43.116     c-4.458,0-8.084-3.626-8.084-8.084c0-4.458,3.626-8.084,8.084-8.084H153.6c4.458,0,8.084,3.626,8.084,8.084     C161.684,395.195,158.058,398.821,153.6,398.821z"/>
			<path d="M153.6,215.579h-43.116c-13.373,0-24.253,10.879-24.253,24.253c0,13.373,10.879,24.253,24.253,24.253H153.6     c13.373,0,24.253-10.879,24.253-24.253C177.853,226.458,166.973,215.579,153.6,215.579z M153.6,247.916h-43.116     c-4.458,0-8.084-3.626-8.084-8.084c0-4.458,3.626-8.084,8.084-8.084H153.6c4.458,0,8.084,3.626,8.084,8.084     C161.684,244.29,158.058,247.916,153.6,247.916z"/>
			<path d="M277.558,291.032h-43.116c-13.373,0-24.253,10.879-24.253,24.253c0,13.373,10.879,24.253,24.253,24.253h43.116     c13.373,0,24.253-10.879,24.253-24.253C301.811,301.911,290.931,291.032,277.558,291.032z M277.558,323.368h-43.116     c-4.458,0-8.084-3.626-8.084-8.084c0-4.458,3.626-8.084,8.084-8.084h43.116c4.458,0,8.084,3.626,8.084,8.084     C285.642,319.742,282.016,323.368,277.558,323.368z"/>
			<path d="M153.6,291.032h-43.116c-13.373,0-24.253,10.879-24.253,24.253c0,13.373,10.879,24.253,24.253,24.253H153.6     c13.373,0,24.253-10.879,24.253-24.253C177.853,301.911,166.973,291.032,153.6,291.032z M153.6,323.368h-43.116     c-4.458,0-8.084-3.626-8.084-8.084c0-4.458,3.626-8.084,8.084-8.084H153.6c4.458,0,8.084,3.626,8.084,8.084     C161.684,319.742,158.058,323.368,153.6,323.368z"/>
			<path d="M277.558,366.484h-43.116c-13.373,0-24.253,10.879-24.253,24.253c0,13.373,10.879,24.253,24.253,24.253h43.116     c13.373,0,24.253-10.879,24.253-24.253C301.811,377.363,290.931,366.484,277.558,366.484z M277.558,398.821h-43.116     c-4.458,0-8.084-3.626-8.084-8.084c0-4.458,3.626-8.084,8.084-8.084h43.116c4.458,0,8.084,3.626,8.084,8.084     C285.642,395.195,282.016,398.821,277.558,398.821z"/>
			<path d="M320.674,161.684H191.326c-4.465,0-8.084,3.62-8.084,8.084s3.62,8.084,8.084,8.084h129.347     c4.465,0,8.084-3.62,8.084-8.084S325.138,161.684,320.674,161.684z"/>
			<path d="M277.558,215.579h-43.116c-13.373,0-24.253,10.879-24.253,24.253c0,13.373,10.879,24.253,24.253,24.253h43.116     c13.373,0,24.253-10.879,24.253-24.253C301.811,226.458,290.931,215.579,277.558,215.579z M277.558,247.916h-43.116     c-4.458,0-8.084-3.626-8.084-8.084c0-4.458,3.626-8.084,8.084-8.084h43.116c4.458,0,8.084,3.626,8.084,8.084     C285.642,244.29,282.016,247.916,277.558,247.916z"/>
		</g>
	</g>
</g>
<g>
</g>
<g>
</g>
<g>
</g>
<g>
</g>
<g>
</g>
<g>
</g>
<g>
</g>
<g>
</g>
<g>
</g>
<g>
</g>
<g>
</g>
<g>
</g>
<g>
</g>
<g>
</g>
<g>
</g>
</svg>
