<?xml version="1.0" encoding="iso-8859-1"?>
<!-- Generator: Adobe Illustrator 19.0.0, SVG Export Plug-In . SVG Version: 6.00 Build 0)  -->
<svg xmlns="http://www.w3.org/2000/svg" xmlns:xlink="http://www.w3.org/1999/xlink" version="1.1" id="Layer_1" x="0px" y="0px" viewBox="0 0 512 512" style="enable-background:new 0 0 512 512;" xml:space="preserve">
<g>
	<g>
		<g>
			<path d="M470.346,277.558c5.733-5.409,9.317-13.073,9.317-21.558c0-87.667-71.322-158.989-158.989-158.989h-32.337     c-4.465,0-8.084,3.618-8.084,8.084c0,4.466,3.62,8.084,8.084,8.084h32.337c78.752,0,142.821,64.069,142.821,142.821     c0,7.43-6.044,13.474-13.474,13.474H299.116c-4.465,0-8.084,3.618-8.084,8.084c0,4.466,3.62,8.084,8.084,8.084h46.657     l-34.517,28.765c-0.044,0.036-0.087,0.071-0.13,0.109l-22.181,18.484c-9.23,7.691-20.929,11.927-32.944,11.927     c-12.015,0-23.715-4.236-32.944-11.927l-22.237-18.53c-0.006-0.005-0.012-0.011-0.018-0.016l-34.572-28.811h100.55     c4.465,0,8.084-3.618,8.084-8.084c0-4.466-3.62-8.084-8.084-8.084h-122.82c-0.037,0-0.073,0-0.111,0H61.979     c-7.43,0-13.474-6.044-13.474-13.474c0-78.752,64.069-142.821,142.821-142.821h56.589v16.168h-24.253     c-4.465,0-8.084,3.619-8.084,8.084c0,4.466,3.62,8.084,8.084,8.084h53.895c4.465,0,8.084-3.618,8.084-8.084     c0-4.466-3.62-8.084-8.084-8.084h-13.474V80.842h88.926c10.401,0,18.863-8.463,18.863-18.863V29.642     c0-10.401-8.463-18.863-18.863-18.863h-88.926V8.084C264.084,3.619,260.465,0,256,0s-8.084,3.619-8.084,8.084v88.926h-56.589     c-87.667,0-158.989,71.322-158.989,158.989c0,8.485,3.584,16.149,9.317,21.558c-5.733,5.409-9.317,13.073-9.317,21.558     c0,7.479,2.785,14.322,7.373,19.543c-4.838,10.739-7.373,22.491-7.373,34.351c0,9.053,2.363,17.566,6.503,24.953     c-4.271,7.084-6.503,15.122-6.503,23.552c0,13.292,5.69,25.279,14.762,33.655c-8.82,5.141-14.762,14.705-14.762,25.629     c0,28.231,22.969,51.2,51.2,51.2h344.926c28.231,0,51.2-22.969,51.2-51.2c0-10.924-5.941-20.489-14.762-25.629     c9.072-8.376,14.762-20.364,14.762-33.655c0-8.429-2.232-16.468-6.503-23.552c4.14-7.388,6.503-15.9,6.503-24.953     c0-11.859-2.535-23.612-7.373-34.351c4.588-5.221,7.373-12.063,7.373-19.543C479.663,290.631,476.079,282.967,470.346,277.558z      M264.084,26.947h88.926c1.485,0,2.695,1.208,2.695,2.695v32.337c0,1.486-1.209,2.695-2.695,2.695h-88.926V26.947z      M406.905,447.326h43.116c7.43,0,13.474,6.044,13.474,13.474c0,19.317-15.716,35.032-35.032,35.032H83.537     c-19.316,0-35.032-15.715-35.032-35.032c0-7.43,6.044-13.474,13.474-13.474h312.589c4.465,0,8.084-3.618,8.084-8.084     c0-4.466-3.62-8.084-8.084-8.084H78.147c-16.345,0-29.642-13.298-29.642-29.642c0-3.372,0.551-6.645,1.624-9.736     c8.974,7.743,20.652,12.43,33.407,12.43c16.287,0,31.232-7.492,41.004-20.554c0.47-0.628,1.259-1.003,2.112-1.003     s1.642,0.375,2.112,1.002c9.772,13.063,24.717,20.555,41.004,20.555s31.232-7.492,41.004-20.554     c0.47-0.628,1.259-1.003,2.112-1.003s1.642,0.375,2.112,1.002c9.772,13.063,24.717,20.555,41.004,20.555     s31.232-7.492,41.004-20.554c0.47-0.628,1.259-1.003,2.112-1.003c0.853,0,1.642,0.375,2.112,1.002     c9.772,13.063,24.717,20.555,41.004,20.555s31.232-7.492,41.004-20.554c0.47-0.628,1.259-1.003,2.112-1.003     c0.853,0,1.642,0.375,2.112,1.002c9.772,13.063,24.717,20.555,41.004,20.555c12.755,0,24.434-4.688,33.407-12.43     c1.074,3.09,1.624,6.364,1.624,9.736c0,16.344-13.297,29.642-29.642,29.642h-26.947c-4.465,0-8.084,3.618-8.084,8.084     C398.821,443.708,402.441,447.326,406.905,447.326z M417.684,328.758h32.337c2.946,0,5.794-0.431,8.481-1.235     c3.28,8.045,4.993,16.73,4.993,25.488c0,19.317-15.716,35.032-35.032,35.032c-11.141,0-21.368-5.13-28.058-14.073     c-3.506-4.688-9.136-7.485-15.058-7.485s-11.551,2.798-15.058,7.486c-6.689,8.942-16.917,14.072-28.058,14.072     s-21.368-5.13-28.058-14.073c-3.506-4.688-9.136-7.485-15.058-7.485s-11.551,2.798-15.058,7.486     c-6.689,8.942-16.917,14.072-28.058,14.072s-21.368-5.13-28.058-14.073c-3.506-4.688-9.136-7.485-15.058-7.485     s-11.551,2.798-15.058,7.486c-6.689,8.942-16.917,14.072-28.058,14.072s-21.368-5.13-28.058-14.073     c-3.506-4.688-9.136-7.485-15.058-7.485s-11.551,2.798-15.058,7.486c-6.689,8.942-16.916,14.072-28.058,14.072     c-19.316,0-35.032-15.715-35.032-35.032c0-8.76,1.712-17.445,4.993-25.488c2.687,0.804,5.535,1.235,8.481,1.235h32.337     c4.465,0,8.084-3.618,8.084-8.084c0-4.466-3.62-8.084-8.084-8.084H61.979c-7.43,0-13.474-6.044-13.474-13.474     s6.044-13.474,13.474-13.474h78.994l32.337,26.947h-46.657c-4.465,0-8.084,3.618-8.084,8.084c0,4.466,3.62,8.084,8.084,8.084     h66.058l19.994,16.662c12.13,10.109,27.506,15.675,43.296,15.675c15.789,0,31.165-5.566,43.295-15.675l19.994-16.662h66.059     c4.465,0,8.084-3.618,8.084-8.084c0-4.466-3.62-8.084-8.084-8.084h-46.657l32.337-26.947h78.994     c7.43,0,13.474,6.044,13.474,13.474s-6.044,13.474-13.474,13.474h-32.337c-4.465,0-8.084,3.618-8.084,8.084     C409.6,325.139,413.22,328.758,417.684,328.758z"/>
			<path d="M342.232,204.8c-4.465,0-8.084,3.619-8.084,8.084s3.62,8.084,8.084,8.084h10.779c4.465,0,8.084-3.619,8.084-8.084     s-3.62-8.084-8.084-8.084H342.232z"/>
			<path d="M374.568,167.074c4.465,0,8.084-3.618,8.084-8.084c0-4.466-3.62-8.084-8.084-8.084h-10.779     c-4.465,0-8.084,3.618-8.084,8.084c0,4.466,3.62,8.084,8.084,8.084H374.568z"/>
			<path d="M398.821,234.442c0,4.466,3.62,8.084,8.084,8.084h10.779c4.465,0,8.084-3.618,8.084-8.084     c0-4.466-3.62-8.084-8.084-8.084h-10.779C402.441,226.358,398.821,229.976,398.821,234.442z"/>
			<path d="M406.905,183.242h-10.779c-4.465,0-8.084,3.618-8.084,8.084c0,4.466,3.62,8.084,8.084,8.084h10.779     c4.465,0,8.084-3.618,8.084-8.084C414.989,186.861,411.37,183.242,406.905,183.242z"/>
		</g>
	</g>
</g>
<g>
</g>
<g>
</g>
<g>
</g>
<g>
</g>
<g>
</g>
<g>
</g>
<g>
</g>
<g>
</g>
<g>
</g>
<g>
</g>
<g>
</g>
<g>
</g>
<g>
</g>
<g>
</g>
<g>
</g>
</svg>
