<?xml version="1.0" encoding="iso-8859-1"?>
<!-- Generator: Adobe Illustrator 19.0.0, SVG Export Plug-In . SVG Version: 6.00 Build 0)  -->
<svg xmlns="http://www.w3.org/2000/svg" xmlns:xlink="http://www.w3.org/1999/xlink" version="1.1" id="Layer_1" x="0px" y="0px" viewBox="0 0 512 512" style="enable-background:new 0 0 512 512;" xml:space="preserve">
<g>
	<g>
		<g>
			<path d="M309.895,291.032H183.242v-24.253c0-10.401-8.463-18.863-18.863-18.863h-5.389c-4.465,0-8.084,3.619-8.084,8.084     c0,4.466,3.62,8.084,8.084,8.084h5.389c1.485,0,2.695,1.208,2.695,2.695v107.789c0,7.43-6.044,13.474-13.474,13.474h-32.337     c-7.43,0-13.474-6.044-13.474-13.474v-24.253h40.421c4.465,0,8.084-3.618,8.084-8.084c0-4.466-3.62-8.084-8.084-8.084h-40.421     v-67.368c0-1.486,1.209-2.695,2.695-2.695h5.39c4.465,0,8.084-3.619,8.084-8.084c0-4.466-3.62-8.084-8.084-8.084h-5.39     c-10.401,0-18.863,8.463-18.863,18.863v107.789c0,16.344,13.297,29.642,29.642,29.642H153.6     c16.345,0,29.642-13.298,29.642-29.642V307.2h126.653c4.465,0,8.084-3.618,8.084-8.084     C317.979,294.65,314.359,291.032,309.895,291.032z"/>
			<path d="M460.8,107.789h-67.368V51.2c0-28.231-22.969-51.2-51.2-51.2H169.768c-28.231,0-51.2,22.969-51.2,51.2v56.589H51.2     c-28.231,0-51.2,22.969-51.2,51.2v118.568c0,9.185,4.199,17.407,10.779,22.849V460.8c0,28.231,22.969,51.2,51.2,51.2h150.905     c18.081,0,34.003-9.422,43.116-23.612c9.113,14.19,25.035,23.612,43.116,23.612h150.905c28.231,0,51.2-22.969,51.2-51.2V300.407     c6.579-5.442,10.779-13.664,10.779-22.849V158.989C512,130.758,489.031,107.789,460.8,107.789z M169.768,16.168h172.463     c16.535,0,30.431,11.515,34.09,26.947H234.442c-4.465,0-8.084,3.619-8.084,8.084s3.62,8.084,8.084,8.084h99.705v48.505H177.853     V59.284h24.253c4.465,0,8.084-3.619,8.084-8.084s-3.62-8.084-8.084-8.084h-66.426C139.337,27.684,153.234,16.168,169.768,16.168z      M377.263,59.284v48.505h-26.947V59.284H377.263z M134.737,59.284h26.947v48.505h-26.947V59.284z M495.832,277.558     c0,7.43-6.044,13.474-13.474,13.474h-61.979v-24.253c0-10.401-8.463-18.863-18.863-18.863h-5.389     c-4.465,0-8.084,3.619-8.084,8.084c0,4.466,3.62,8.084,8.084,8.084h5.389c1.485,0,2.695,1.208,2.695,2.695v107.789     c0,7.43-6.044,13.474-13.474,13.474H358.4c-7.43,0-13.474-6.044-13.474-13.474v-24.253h40.421c4.465,0,8.084-3.618,8.084-8.084     c0-4.466-3.62-8.084-8.084-8.084h-40.421v-67.368c0-1.486,1.209-2.695,2.695-2.695h5.389c4.465,0,8.084-3.619,8.084-8.084     c0-4.466-3.62-8.084-8.084-8.084h-5.389c-10.401,0-18.863,8.463-18.863,18.863v107.789c0,16.344,13.297,29.642,29.642,29.642     h32.337c16.345,0,29.642-13.298,29.642-29.642V307.2h61.979c0.908,0,1.808-0.041,2.695-0.121V460.8     c0,19.317-15.716,35.032-35.032,35.032H299.116c-19.316,0-35.032-15.715-35.032-35.032v-53.895c0-4.466-3.62-8.084-8.084-8.084     c-4.465,0-8.084,3.618-8.084,8.084V460.8c0,19.317-15.716,35.032-35.032,35.032H61.979c-19.316,0-35.032-15.715-35.032-35.032     V307.079c0.887,0.08,1.787,0.121,2.695,0.121h43.116c4.465,0,8.084-3.618,8.084-8.084c0-4.466-3.62-8.084-8.084-8.084H29.642     c-7.43,0-13.474-6.044-13.474-13.474V158.989c0-19.317,15.716-35.032,35.032-35.032h409.6c19.316,0,35.032,15.715,35.032,35.032     V277.558z"/>
		</g>
	</g>
</g>
<g>
</g>
<g>
</g>
<g>
</g>
<g>
</g>
<g>
</g>
<g>
</g>
<g>
</g>
<g>
</g>
<g>
</g>
<g>
</g>
<g>
</g>
<g>
</g>
<g>
</g>
<g>
</g>
<g>
</g>
</svg>
