<?xml version="1.0" encoding="iso-8859-1"?>
<!-- Generator: Adobe Illustrator 19.0.0, SVG Export Plug-In . SVG Version: 6.00 Build 0)  -->
<svg xmlns="http://www.w3.org/2000/svg" xmlns:xlink="http://www.w3.org/1999/xlink" version="1.1" id="Layer_1" x="0px" y="0px" viewBox="0 0 512 512" style="enable-background:new 0 0 512 512;" xml:space="preserve">
<g>
	<g>
		<g>
			<path d="M176.272,100.053c1.577,1.565,3.637,2.347,5.696,2.347c2.079,0,4.156-0.797,5.737-2.389     c3.146-3.168,3.127-8.287-0.041-11.432L163.97,65.06c-3.169-3.146-8.289-3.127-11.433,0.042     c-3.146,3.168-3.127,8.287,0.041,11.432L176.272,100.053z"/>
			<path d="M451.45,215.579c-4.466,0-8.084,3.62-8.084,8.084v258.695c0,7.43-6.115,13.474-13.632,13.474H82.266     c-7.517,0-13.632-6.044-13.632-13.474v-24.253h154.791c10.445,0,18.942-8.463,18.942-18.863v-32.337     c0-4.465-3.618-8.084-8.084-8.084c-4.466,0-8.084,3.62-8.084,8.084v32.337c0,1.485-1.244,2.695-2.773,2.695H60.56     c-0.003,0-0.006,0-0.011,0c-0.004,0-0.006,0-0.011,0H49.691c-1.53,0-2.773-1.209-2.773-2.695c0-4.465-3.618-8.084-8.084-8.084     c-4.466,0-8.084,3.62-8.084,8.084c0,10.401,8.498,18.863,18.942,18.863h2.774v24.253c0,16.345,13.368,29.642,29.801,29.642     h347.468c16.431,0,29.801-13.297,29.801-29.642V223.663C459.535,219.199,455.915,215.579,451.45,215.579z"/>
			<path d="M256,93.583c4.466,0,8.084-3.62,8.084-8.084V42.383c0-4.465-3.619-8.084-8.084-8.084s-8.084,3.62-8.084,8.084v43.116     C247.916,89.963,251.534,93.583,256,93.583z"/>
			<path d="M330.032,102.4c2.059,0,4.119-0.781,5.696-2.347l23.693-23.52c3.168-3.145,3.187-8.264,0.041-11.432     c-3.144-3.169-8.263-3.188-11.433-0.042l-23.693,23.52c-3.168,3.145-3.187,8.264-0.041,11.432     C325.876,101.603,327.954,102.4,330.032,102.4z"/>
			<path d="M103.982,425.768h43.434c4.466,0,8.084-3.62,8.084-8.084s-3.619-8.084-8.084-8.084h-43.434     c-4.466,0-8.084,3.62-8.084,8.084S99.518,425.768,103.982,425.768z"/>
			<path d="M507.879,13.031C502.823,4.872,494.053,0,484.418,0c-10.557,0-20.022,5.849-24.703,15.264l-56.707,114.083H108.992     L52.285,15.263C47.604,5.849,38.139,0,27.582,0C17.947,0,9.177,4.872,4.121,13.031c-5.015,8.094-5.48,18.015-1.243,26.539     l49.587,99.76v205.597h-2.774c-10.445,0-18.942,8.463-18.942,18.863v43.116c0,4.465,3.618,8.084,8.084,8.084     c4.466,0,8.084-3.62,8.084-8.084v-43.116c0-1.485,1.244-2.695,2.773-2.695h173.734c1.53,0,2.773,1.209,2.773,2.695v10.779     c0,4.465,3.618,8.084,8.084,8.084c4.466,0,8.084-3.62,8.084-8.084v-10.779c0-10.401-8.498-18.863-18.942-18.863H68.634V137.432     c0-1.248-0.29-2.48-0.845-3.598L17.356,32.372c-1.754-3.528-1.568-7.474,0.509-10.824c2.118-3.419,5.66-5.38,9.717-5.38     c4.312,0,8.326,2.471,10.225,6.292l53.129,106.887h-6.287c-4.466,0-8.084,3.62-8.084,8.084c0,4.465,3.619,8.084,8.084,8.084     h339.052c4.466,0,8.084-3.62,8.084-8.084c0-4.465-3.619-8.084-8.084-8.084h-2.639l53.129-106.886     c1.9-3.822,5.913-6.293,10.225-6.293c4.057,0,7.599,1.961,9.718,5.38c2.077,3.351,2.262,7.297,0.509,10.824l-50.434,101.46     c-0.556,1.118-0.845,2.35-0.845,3.598v53.895c0,4.465,3.618,8.084,8.084,8.084c4.466,0,8.084-3.62,8.084-8.084v-51.997     l49.589-99.759C513.359,31.046,512.895,21.125,507.879,13.031z"/>
			<path d="M310.45,183.242h-108.9c-16.344,0-29.642,13.297-29.642,29.642s13.298,29.642,29.642,29.642h108.9     c16.344,0,29.642-13.297,29.642-29.642S326.794,183.242,310.45,183.242z M310.45,226.358h-108.9     c-7.43,0-13.474-6.044-13.474-13.474s6.044-13.474,13.474-13.474h108.9c7.43,0,13.474,6.044,13.474,13.474     S317.88,226.358,310.45,226.358z"/>
			<path d="M103.982,393.432h76.009c4.466,0,8.084-3.62,8.084-8.084c0-4.465-3.618-8.084-8.084-8.084h-76.009     c-4.466,0-8.084,3.62-8.084,8.084C95.898,389.812,99.518,393.432,103.982,393.432z"/>
		</g>
	</g>
</g>
<g>
</g>
<g>
</g>
<g>
</g>
<g>
</g>
<g>
</g>
<g>
</g>
<g>
</g>
<g>
</g>
<g>
</g>
<g>
</g>
<g>
</g>
<g>
</g>
<g>
</g>
<g>
</g>
<g>
</g>
</svg>
