<?xml version="1.0" encoding="iso-8859-1"?>
<!-- Generator: Adobe Illustrator 19.0.0, SVG Export Plug-In . SVG Version: 6.00 Build 0)  -->
<svg xmlns="http://www.w3.org/2000/svg" xmlns:xlink="http://www.w3.org/1999/xlink" version="1.1" id="Layer_1" x="0px" y="0px" viewBox="0 0 512 512" style="enable-background:new 0 0 512 512;" xml:space="preserve">
<g>
	<g>
		<g>
			<path d="M406.905,91.621c4.465,0,8.084-3.619,8.084-8.084V8.084c0-4.466-3.62-8.084-8.084-8.084     c-4.465,0-8.084,3.619-8.084,8.084v75.453C398.821,88.003,402.441,91.621,406.905,91.621z"/>
			<path d="M363.789,70.063c4.465,0,8.084-3.618,8.084-8.084V8.084c0-4.466-3.62-8.084-8.084-8.084     c-4.465,0-8.084,3.619-8.084,8.084v53.895C355.705,66.445,359.325,70.063,363.789,70.063z"/>
			<path d="M180.547,102.4c28.231,0,51.2-22.969,51.2-51.2S208.778,0,180.547,0s-51.2,22.969-51.2,51.2S152.316,102.4,180.547,102.4     z M180.547,16.168c19.316,0,35.032,15.715,35.032,35.032s-15.716,35.032-35.032,35.032S145.516,70.517,145.516,51.2     S161.231,16.168,180.547,16.168z"/>
			<path d="M353.01,258.695c-4.465,0-8.084,3.618-8.084,8.084v10.05c0,22.278,18.487,41.123,40.369,41.15c0.017,0,0.033,0,0.052,0     c4.808,0,9.526-0.853,13.954-2.482c2.961,19.174,19.236,34.266,38.81,34.803c11.012,0.294,21.429-3.758,29.317-11.432     c7.89-7.677,12.235-17.966,12.235-28.973v-24.253h2.695C498.703,285.642,512,272.344,512,256v-21.558     c0-16.344-13.297-29.642-29.642-29.642h-2.695v-13.474c0-28.231-22.969-51.2-51.2-51.2c-9.102,0-17.94,2.431-25.663,6.907     c-5.397-22.484-25.673-39.244-49.79-39.244c-24.117,0-44.393,16.76-49.79,39.244c-7.722-4.477-16.561-6.907-25.663-6.907     c-4.018,0-7.928,0.466-11.682,1.344c-13.724-14.577-32.932-22.902-52.991-22.902H148.21c-40.119,0-72.758,32.639-72.758,72.758     V204.8H29.642C13.297,204.8,0,218.098,0,234.442V256c0,16.344,13.297,29.642,29.642,29.642h4.069L58.217,416.34     c4.538,24.201,25.702,41.765,50.324,41.765h10.028v24.253c0,4.848,1.171,9.429,3.242,13.474H8.084     C3.62,495.832,0,499.45,0,503.916C0,508.382,3.62,512,8.084,512h269.474c4.465,0,8.084-3.618,8.084-8.084     c0-4.466-3.62-8.084-8.084-8.084H174.61c2.072-4.044,3.242-8.625,3.242-13.474v-24.253h156.295v24.253     c0,4.848,1.171,9.429,3.242,13.474h-27.495c-4.465,0-8.084,3.619-8.084,8.084c0,4.466,3.62,8.084,8.084,8.084h194.021     c4.465,0,8.084-3.618,8.084-8.084c0-4.466-3.62-8.084-8.084-8.084H390.189c2.072-4.044,3.242-8.625,3.242-13.474v-24.253h10.028     c24.622,0,45.786-17.565,50.323-41.765l7.553-40.282c0.822-4.388-2.067-8.612-6.456-9.435c-4.388-0.822-8.613,2.067-9.436,6.456     l-7.553,40.282c-3.104,16.559-17.585,28.576-34.431,28.576H108.541c-16.846,0-31.327-12.017-34.431-28.576L50.162,285.642     h270.512c4.465,0,8.084-3.618,8.084-8.084c0-4.466-3.62-8.084-8.084-8.084H40.584c-0.101-0.002-0.204-0.002-0.306,0H29.642     c-7.43,0-13.474-6.044-13.474-13.474v-21.558c0-7.43,6.044-13.474,13.474-13.474h172.463c4.465,0,8.084-3.619,8.084-8.084     s-3.62-8.084-8.084-8.084H91.621v-13.474c0-31.203,25.385-56.589,56.589-56.589h64.674c13.57,0,26.638,4.898,36.837,13.634     c-14.052,9.138-23.363,24.979-23.363,42.955c0,16.344,13.297,29.642,29.642,29.642h75.453c7.43,0,13.474,6.044,13.474,13.474     c0,4.466,3.62,8.084,8.084,8.084c4.465,0,8.084-3.618,8.084-8.084c0-16.344-13.297-29.642-29.642-29.642H256     c-7.43,0-13.474-6.044-13.474-13.474c0-19.317,15.716-35.032,35.032-35.032c10.039,0,19.617,4.329,26.274,11.877     c2.225,2.52,5.776,3.4,8.922,2.214c3.145-1.19,5.226-4.201,5.226-7.563v-3.834c0-19.317,15.717-35.032,35.033-35.032     c19.316,0,35.032,15.715,35.032,35.032v3.834c0,3.363,2.081,6.373,5.226,7.563c3.146,1.188,6.698,0.307,8.922-2.214     c6.657-7.549,16.234-11.877,26.274-11.877c19.316,0,35.032,15.715,35.032,35.032v118.568c0,6.604-2.607,12.778-7.343,17.384     c-4.731,4.604-10.965,7.036-17.598,6.859c-12.993-0.357-23.565-11.533-23.565-24.916v-7.568c0-3.188-1.875-6.08-4.786-7.381     c-2.912-1.3-6.315-0.769-8.691,1.358c-4.452,3.986-10.191,6.18-16.166,6.18c-0.01,0-0.02,0-0.031,0     c-13.129-0.017-24.221-11.456-24.221-24.981v-10.05C361.095,262.313,357.475,258.695,353.01,258.695z M479.663,220.968h2.695     c7.43,0,13.474,6.044,13.474,13.474V256c0,7.43-6.044,13.474-13.474,13.474h-2.695V220.968z M350.316,458.105h26.947v24.253     c0,7.43-6.044,13.474-13.474,13.474s-13.474-6.044-13.474-13.474V458.105z M134.737,458.105h26.947v24.253     c0,7.43-6.044,13.474-13.474,13.474s-13.474-6.044-13.474-13.474V458.105z"/>
			<path d="M320.674,91.621c4.465,0,8.084-3.619,8.084-8.084V8.084c0-4.466-3.62-8.084-8.084-8.084     c-4.465,0-8.084,3.619-8.084,8.084v75.453C312.589,88.003,316.209,91.621,320.674,91.621z"/>
		</g>
	</g>
</g>
<g>
</g>
<g>
</g>
<g>
</g>
<g>
</g>
<g>
</g>
<g>
</g>
<g>
</g>
<g>
</g>
<g>
</g>
<g>
</g>
<g>
</g>
<g>
</g>
<g>
</g>
<g>
</g>
<g>
</g>
</svg>
