<?xml version="1.0" encoding="iso-8859-1"?>
<!-- Generator: Adobe Illustrator 19.0.0, SVG Export Plug-In . SVG Version: 6.00 Build 0)  -->
<svg xmlns="http://www.w3.org/2000/svg" xmlns:xlink="http://www.w3.org/1999/xlink" version="1.1" id="Layer_1" x="0px" y="0px" viewBox="0 0 512 512" style="enable-background:new 0 0 512 512;" xml:space="preserve">
<g>
	<g>
		<g>
			<path d="M256,312.589c-16.345,0-29.642,13.297-29.642,29.642s13.297,29.642,29.642,29.642c16.344,0,29.642-13.297,29.642-29.642     S272.344,312.589,256,312.589z M256,355.705c-7.43,0-13.474-6.044-13.474-13.474s6.044-13.474,13.474-13.474     s13.474,6.044,13.474,13.474S263.43,355.705,256,355.705z"/>
			<path d="M414.935,232.626c-0.941-15.502-13.852-27.826-29.587-27.826h-2.695v-78.147C382.653,56.816,325.837,0,256,0     S129.347,56.816,129.347,126.653V204.8h-2.695c-15.735,0-28.646,12.325-29.587,27.827c-26.042,11.594-43.171,37.63-43.171,66.489     v75.453c0,75.78,61.651,137.432,137.432,137.432h129.347c75.78,0,137.432-61.651,137.432-137.432v-75.453     C458.105,270.257,440.975,244.221,414.935,232.626z M145.516,126.653c0-60.922,49.563-110.484,110.484-110.484     s110.484,49.563,110.484,110.484V204.8h-16.168v-78.147c0-52.006-42.31-94.316-94.316-94.316c-7.981,0-15.912,1-23.574,2.972     c-4.323,1.113-6.927,5.521-5.814,9.844c1.113,4.325,5.524,6.929,9.844,5.814c6.346-1.633,12.921-2.462,19.543-2.462     c43.091,0,78.147,35.056,78.147,78.147V204.8H177.853v-78.147c0-27.814,14.974-53.754,39.079-67.697     c3.864-2.236,5.186-7.181,2.95-11.046c-2.236-3.865-7.181-5.186-11.046-2.95c-29.084,16.825-47.151,48.127-47.151,81.694V204.8     h-16.168V126.653z M441.937,374.568c0,66.865-54.399,121.263-121.263,121.263H191.326c-66.865,0-121.263-54.398-121.263-121.263     v-75.453c0-19.896,10.465-38.067,26.947-48.221V256c0,81.724,66.487,148.211,148.211,148.211h21.558     c34.553,0,68.188-12.148,94.71-34.204c3.433-2.854,3.901-7.952,1.047-11.385c-2.855-3.434-7.952-3.901-11.386-1.047     c-23.624,19.647-53.588,30.467-84.371,30.467h-21.558c-72.809,0-132.042-59.234-132.042-132.042v-17.669     c0.003-0.139,0.003-0.279,0-0.419v-3.471c0-7.43,6.044-13.474,13.474-13.474h258.695c7.43,0,13.474,6.044,13.474,13.474v3.491     c-0.003,0.126-0.003,0.252,0,0.378v17.688c0,29.766-9.665,57.863-27.952,81.253c-2.751,3.517-2.129,8.598,1.389,11.348     c3.517,2.75,8.598,2.129,11.347-1.391c20.533-26.259,31.384-57.799,31.384-91.209v-5.105     c16.481,10.153,26.947,28.325,26.947,48.221V374.568z"/>
		</g>
	</g>
</g>
<g>
</g>
<g>
</g>
<g>
</g>
<g>
</g>
<g>
</g>
<g>
</g>
<g>
</g>
<g>
</g>
<g>
</g>
<g>
</g>
<g>
</g>
<g>
</g>
<g>
</g>
<g>
</g>
<g>
</g>
</svg>
