<?xml version="1.0" encoding="iso-8859-1"?>
<!-- Generator: Adobe Illustrator 19.0.0, SVG Export Plug-In . SVG Version: 6.00 Build 0)  -->
<svg xmlns="http://www.w3.org/2000/svg" xmlns:xlink="http://www.w3.org/1999/xlink" version="1.1" id="Layer_1" x="0px" y="0px" viewBox="0 0 512 512" style="enable-background:new 0 0 512 512;" xml:space="preserve">
<g>
	<g>
		<g>
			<path d="M210.635,177.676c-1.822-4.076-6.605-5.901-10.68-4.08c-49.44,22.107-81.386,71.376-81.386,125.52     c0,75.78,61.651,137.432,137.432,137.432s137.432-61.651,137.432-137.432c0-53.791-31.656-102.93-80.645-125.187     c-4.07-1.845-8.858-0.047-10.705,4.017c-1.846,4.065-0.049,8.858,4.016,10.705c43.231,19.639,71.165,62.999,71.165,110.465     c0,66.865-54.399,121.263-121.263,121.263s-121.263-54.398-121.263-121.263c0-47.777,28.19-91.252,71.818-110.76     C210.63,186.533,212.456,181.751,210.635,177.676z"/>
			<path d="M75.663,377.83c-10.868-24.862-16.379-51.344-16.379-78.714C59.284,190.646,147.53,102.4,256,102.4     c59.697,0,115.486,26.656,153.06,73.134c2.806,3.472,7.897,4.013,11.369,1.204c3.473-2.807,4.012-7.898,1.204-11.37     c-7.275-8.998-15.19-17.296-23.637-24.878c6.652-4.003,11.913-10.167,14.737-17.661c6.81-18.076-2.355-38.322-20.43-45.135     l-20.428-7.697V29.642C371.874,13.297,358.576,0,342.232,0H169.768c-16.344,0-29.642,13.297-29.642,29.642v40.355l-20.428,7.697     c-18.076,6.811-27.241,27.058-20.43,45.134c2.854,7.574,8.117,13.745,14.834,17.738c-43.539,39.008-70.986,95.63-70.986,158.55     c0,29.612,5.966,58.274,17.732,85.191c1.327,3.036,4.295,4.848,7.412,4.848c1.081,0,2.18-0.219,3.234-0.679     C75.585,386.687,77.451,381.921,75.663,377.83z M386.602,92.826c9.732,3.667,14.667,14.569,11,24.302     c-2.264,6.007-7.432,10.432-13.66,11.788c-21.898-16.508-46.721-28.566-73.197-35.574c-0.29-2.869,0.083-5.767,1.121-8.518     c3.667-9.733,14.572-14.669,24.303-11.001L386.602,92.826z M156.295,29.642c0-7.43,6.044-13.474,13.474-13.474h172.463     c7.43,0,13.474,6.044,13.474,13.474v34.264l-13.836-5.213c-18.077-6.813-38.323,2.353-45.135,20.429     c-1.297,3.443-2.037,7.01-2.217,10.603c-12.583-2.296-25.461-3.495-38.518-3.495c-13.152,0-26.026,1.208-38.525,3.502     c-0.18-3.599-0.913-7.171-2.21-10.612c-6.812-18.075-27.058-27.238-45.135-20.429l-13.836,5.213V29.642z M125.399,92.826     l50.433-19.003c9.731-3.664,20.635,1.268,24.303,11.001c1.04,2.762,1.413,5.675,1.117,8.559     c-26.768,7.13-51.481,19.35-73.026,35.568c-6.369-1.327-11.537-5.742-13.827-11.822     C110.731,107.395,115.666,96.493,125.399,92.826z"/>
			<path d="M342.232,307.2c4.466,0,8.084-3.62,8.084-8.084s-3.618-8.084-8.084-8.084h-10.779c-4.466,0-8.084,3.62-8.084,8.084     s3.619,8.084,8.084,8.084H342.232z"/>
			<path d="M414.811,440.721c33.61-37.654,54.074-87.281,54.074-141.605c0-37.951-10.112-75.209-29.242-107.747     c-2.264-3.849-7.22-5.134-11.067-2.872c-3.849,2.263-5.135,7.218-2.872,11.067c17.671,30.056,27.012,64.481,27.012,99.552     c0,108.47-88.246,196.716-196.716,196.716c-68.928,0-131.643-35.113-167.759-93.928c-2.337-3.805-7.318-4.993-11.12-2.658     c-3.804,2.336-4.995,7.315-2.659,11.12c6.64,10.812,14.25,20.98,22.671,30.413l-11.42,11.419     c-13.658,13.659-13.658,35.883,0.001,49.542c6.617,6.617,15.414,10.26,24.77,10.26c9.358,0,18.155-3.643,24.771-10.26     l16.815-16.815C183.671,502.63,219.559,512,256,512c37.699,0,73.133-9.863,103.88-27.125l16.865,16.865     c6.617,6.617,15.414,10.26,24.771,10.26c9.357,0,18.154-3.643,24.771-10.26c13.658-13.659,13.658-35.883,0-49.542     L414.811,440.721z M123.822,490.307c-3.562,3.562-8.299,5.524-13.338,5.524c-5.038,0-9.775-1.962-13.338-5.524     c-7.354-7.354-7.354-19.322-0.001-26.677l11.194-11.194c9.117,8.783,19.014,16.753,29.555,23.799L123.822,490.307z      M414.855,490.307c-3.564,3.562-8.301,5.524-13.339,5.524c-5.039,0-9.775-1.962-13.338-5.524l-14.126-14.126     c10.55-7.057,20.436-15.03,29.546-23.806l11.256,11.256C422.208,470.985,422.208,482.952,414.855,490.307z"/>
			<path d="M169.768,291.032c-4.466,0-8.084,3.62-8.084,8.084s3.619,8.084,8.084,8.084h10.779c4.466,0,8.084-3.62,8.084-8.084     s-3.618-8.084-8.084-8.084H169.768z"/>
			<path d="M89.465,289.42c-4.466,0-8.084,3.62-8.084,8.084c0,96.285,78.334,174.619,174.619,174.619     s174.619-78.334,174.619-174.619c0-4.465-3.619-8.084-8.084-8.084s-8.084,3.62-8.084,8.084     c0,87.37-71.081,158.451-158.45,158.451S97.549,384.874,97.549,297.504C97.549,293.04,93.931,289.42,89.465,289.42z"/>
			<path d="M247.916,374.568v10.779c0,4.465,3.619,8.084,8.084,8.084c4.466,0,8.084-3.62,8.084-8.084v-10.779     c0-4.465-3.619-8.084-8.084-8.084C251.534,366.484,247.916,370.104,247.916,374.568z"/>
			<path d="M291.032,304.505V153.6c0-19.316-15.715-35.032-35.032-35.032s-35.032,15.716-35.032,35.032v150.905     c0,19.316,15.715,35.032,35.032,35.032S291.032,323.821,291.032,304.505z M274.863,304.505c0,10.401-8.463,18.863-18.863,18.863     c-10.401,0-18.863-8.463-18.863-18.863V153.6c0-10.401,8.463-18.863,18.863-18.863c10.401,0,18.863,8.463,18.863,18.863V304.505z     "/>
		</g>
	</g>
</g>
<g>
</g>
<g>
</g>
<g>
</g>
<g>
</g>
<g>
</g>
<g>
</g>
<g>
</g>
<g>
</g>
<g>
</g>
<g>
</g>
<g>
</g>
<g>
</g>
<g>
</g>
<g>
</g>
<g>
</g>
</svg>
