<?xml version="1.0" encoding="iso-8859-1"?>
<!-- Generator: Adobe Illustrator 19.0.0, SVG Export Plug-In . SVG Version: 6.00 Build 0)  -->
<svg version="1.1" id="Capa_1" xmlns="http://www.w3.org/2000/svg" xmlns:xlink="http://www.w3.org/1999/xlink" x="0px" y="0px"
	 viewBox="0 0 512 512" style="enable-background:new 0 0 512 512;" xml:space="preserve">
<polygon style="fill:#0080CE;" points="365.23,59.195 365.23,146.345 335.23,146.345 335.23,89.195 176.77,89.195 176.77,146.345 
	146.77,146.345 146.77,59.195 "/>
<polygon style="fill:#0051C8;" points="365.23,59.195 365.23,146.345 335.23,146.345 335.23,89.195 256,89.195 256,59.195 "/>
<path style="fill:#FFA720;" d="M489.19,189.305v210.12c0,29.43-23.95,53.38-53.39,53.38H76.2c-29.44,0-53.39-23.95-53.39-53.38
	v-210.12c0-29.43,23.95-53.38,53.39-53.38h359.6C465.24,135.925,489.19,159.875,489.19,189.305z"/>
<path style="fill:#FF8600;" d="M489.19,189.305v210.12c0,29.43-23.95,53.38-53.39,53.38H256v-316.88h179.8
	C465.24,135.925,489.19,159.875,489.19,189.305z"/>
<rect y="255.51" style="fill:#FFE370;" width="512" height="30"/>
<rect x="256" y="255.51" style="fill:#FFD100;" width="256" height="30"/>
<polygon style="fill:#D16429;" points="332.96,255.515 309.96,356.265 202.04,356.265 179.04,255.515 "/>
<polygon style="fill:#B9561B;" points="256,255.515 332.96,255.515 309.96,356.265 256,356.265 "/>
<g>
</g>
<g>
</g>
<g>
</g>
<g>
</g>
<g>
</g>
<g>
</g>
<g>
</g>
<g>
</g>
<g>
</g>
<g>
</g>
<g>
</g>
<g>
</g>
<g>
</g>
<g>
</g>
<g>
</g>
</svg>
