<?xml version="1.0" encoding="iso-8859-1"?>
<!-- Generator: Adobe Illustrator 19.0.0, SVG Export Plug-In . SVG Version: 6.00 Build 0)  -->
<svg version="1.1" id="Capa_1" xmlns="http://www.w3.org/2000/svg" xmlns:xlink="http://www.w3.org/1999/xlink" x="0px" y="0px"
	 viewBox="0 0 512.001 512.001" style="enable-background:new 0 0 512.001 512.001;" xml:space="preserve">
<path style="fill:#FF4940;" d="M489.859,329.283L271,217.444v-24.6c29.35-6.82,51.3-33.18,51.3-64.58
	c0-36.55-29.74-66.29-66.29-66.29H256c-36.56,0.01-66.28,29.74-66.28,66.29h30c0-20.01,16.27-36.28,36.28-36.29h0.01
	c20.01,0,36.29,16.28,36.29,36.29s-16.28,36.29-36.29,36.29h-14.99l-0.02,52.89L22.922,328.853l-0.78,0.43
	c-17.65,10.38-25.9,30.63-20.51,50.39c5.38,19.77,22.76,33.05,43.25,33.05h422.238c20.49,0,37.87-13.28,43.25-33.05
	C515.759,359.913,507.509,339.663,489.859,329.283z M481.429,371.793c-0.7,2.56-3.79,10.93-14.31,10.93H44.882
	c-10.52,0-13.61-8.37-14.31-10.93c-0.69-2.53-2.23-11.12,6.45-16.46L256,243.474l94.539,48.29l124.439,63.57
	C483.659,360.673,482.119,369.263,481.429,371.793z"/>
<path style="fill:#FF0C2F;" d="M510.369,379.673c-5.38,19.77-22.76,33.05-43.25,33.05H256v-30h211.119
	c10.52,0,13.61-8.37,14.31-10.93c0.69-2.53,2.23-11.12-6.45-16.46l-124.439-63.57L256,243.474v-78.92h0.01
	c20.01,0,36.29-16.28,36.29-36.29s-16.28-36.29-36.29-36.29H256v-30h0.01c36.55,0,66.29,29.74,66.29,66.29
	c0,31.4-21.95,57.76-51.3,64.58v24.6l218.859,111.839C507.509,339.663,515.759,359.913,510.369,379.673z"/>
<rect x="73.449" y="351.636" style="fill:#C5C3CA;" width="72.67" height="98.389"/>
<rect x="109.779" y="351.636" style="fill:#ABAAB0;" width="36.33" height="98.389"/>
<rect x="365.888" y="351.636" style="fill:#C5C3CA;" width="72.67" height="98.389"/>
<rect x="402.217" y="351.636" style="fill:#ABAAB0;" width="36.33" height="98.389"/>
<g>
</g>
<g>
</g>
<g>
</g>
<g>
</g>
<g>
</g>
<g>
</g>
<g>
</g>
<g>
</g>
<g>
</g>
<g>
</g>
<g>
</g>
<g>
</g>
<g>
</g>
<g>
</g>
<g>
</g>
</svg>
