<?xml version="1.0" encoding="iso-8859-1"?>
<!-- Generator: Adobe Illustrator 19.0.0, SVG Export Plug-In . SVG Version: 6.00 Build 0)  -->
<svg version="1.1" id="Capa_1" xmlns="http://www.w3.org/2000/svg" xmlns:xlink="http://www.w3.org/1999/xlink" x="0px" y="0px"
	 viewBox="0 0 512 512" style="enable-background:new 0 0 512 512;" xml:space="preserve">
<path style="fill:#FFA720;" d="M365.142,62.151v33.911h-30.001V62.151c0-17.73-14.42-32.151-32.151-32.151
	c-17.73,0-32.151,14.42-32.151,32.151v225.354H240.84v-76.051H114.747v86.082H84.747V62.151C84.747,27.881,112.617,0,146.888,0
	s62.151,27.881,62.151,62.151v33.911h-30.001V62.151c0-17.73-14.42-32.151-32.151-32.151c-17.72,0-32.141,14.42-32.141,32.151
	v119.302H240.84V62.151c0-15.52,5.72-29.731,15.16-40.641C267.41,8.34,284.241,0,302.991,0C337.262,0,365.142,27.881,365.142,62.151
	z"/>
<path style="fill:#FF8600;" d="M365.142,62.151v33.911h-30.001V62.151c0-17.73-14.42-32.151-32.151-32.151
	c-17.73,0-32.151,14.42-32.151,32.151v225.354H256V21.51C267.41,8.34,284.241,0,302.991,0C337.262,0,365.142,27.881,365.142,62.151z
	"/>
<g>
	<path style="fill:#49B8EB;" d="M480.764,307.726l-18.96,10.55c-17.29,9.62-38.711,9.51-55.891-0.3l-17.72-10.11
		c-8.14-4.64-18.28-4.69-26.471-0.13l-18.94,10.54c-8.56,4.76-18.12,7.13-27.691,7.14c-9.76,0-19.52-2.48-28.201-7.44l-17.72-10.11
		c-4.06-2.31-8.61-3.49-13.17-3.52c-4.59-0.02-9.2,1.1-13.31,3.39l-18.94,10.54c-17.29,9.62-38.701,9.51-55.881-0.3l-17.72-10.11
		c-8.14-4.64-18.29-4.69-26.481-0.13l-18.94,10.54c-17.29,9.62-38.701,9.51-55.891-0.3l-17.6-10.04l14.87-26.06l17.6,10.05
		c8.12,4.63,18.25,4.68,26.431,0.13l18.95-10.54c17.3-9.63,38.731-9.52,55.921,0.29l17.72,10.12c8.13,4.63,18.26,4.69,26.441,0.13
		l18.94-10.54c8.62-4.8,18.26-7.18,27.891-7.14c9.71,0.03,19.4,2.51,28.031,7.44l17.73,10.11c8.12,4.63,18.25,4.68,26.431,0.13
		l18.94-10.54c17.3-9.63,38.731-9.52,55.931,0.29l17.72,10.12c8.12,4.63,18.25,4.68,26.431,0.13l18.96-10.55L480.764,307.726z"/>
	<path style="fill:#49B8EB;" d="M480.764,402.738l-18.96,10.55c-17.29,9.62-38.711,9.51-55.891-0.29l-17.72-10.11
		c-8.13-4.65-18.28-4.7-26.471-0.14l-18.94,10.54c-8.56,4.76-18.12,7.14-27.691,7.14c-9.76,0-19.52-2.48-28.201-7.43l-17.72-10.11
		c-4.05-2.32-8.6-3.49-13.17-3.52c-4.59-0.04-9.2,1.09-13.31,3.38l-18.94,10.54c-17.29,9.62-38.701,9.51-55.881-0.29l-17.72-10.11
		c-8.14-4.65-18.29-4.7-26.481-0.14l-18.94,10.54c-17.29,9.62-38.701,9.51-55.891-0.29l-17.6-10.05l14.87-26.051l17.6,10.04
		c8.12,4.63,18.25,4.69,26.431,0.13l18.95-10.53c17.3-9.63,38.731-9.52,55.921,0.29l17.72,10.11c8.13,4.63,18.26,4.69,26.441,0.13
		l18.94-10.53c8.62-4.8,18.26-7.18,27.891-7.15c9.71,0.03,19.41,2.51,28.031,7.44l17.73,10.11c8.12,4.63,18.25,4.69,26.431,0.13
		l18.94-10.53c17.3-9.63,38.731-9.52,55.931,0.29l17.72,10.11c8.12,4.64,18.25,4.69,26.431,0.13l18.96-10.55L480.764,402.738z"/>
	<path style="fill:#49B8EB;" d="M480.764,494.31l-18.96,10.55c-17.29,9.62-38.701,9.51-55.891-0.29l-17.72-10.11
		c-8.14-4.65-18.28-4.7-26.471-0.14l-18.94,10.54c-8.56,4.76-18.12,7.14-27.681,7.14c-9.77,0-19.53-2.48-28.211-7.43l-17.72-10.11
		c-4.05-2.32-8.6-3.49-13.17-3.52c-4.59-0.04-9.2,1.09-13.31,3.38l-18.94,10.54c-17.29,9.62-38.701,9.51-55.881-0.29l-17.72-10.11
		c-8.14-4.65-18.29-4.7-26.481-0.14l-18.94,10.54c-17.29,9.62-38.701,9.51-55.891-0.29l-17.6-10.05l14.87-26.051l17.6,10.04
		c8.12,4.64,18.25,4.69,26.431,0.14l18.94-10.54c17.31-9.63,38.741-9.52,55.931,0.29l17.72,10.11c8.13,4.64,18.26,4.69,26.441,0.14
		l18.94-10.54c8.62-4.8,18.26-7.18,27.891-7.15c9.71,0.03,19.41,2.51,28.031,7.44l17.73,10.11c8.12,4.64,18.25,4.69,26.431,0.14
		l18.94-10.54c17.3-9.63,38.731-9.52,55.931,0.29l17.72,10.11c8.12,4.64,18.25,4.69,26.431,0.14l18.96-10.55L480.764,494.31z"/>
</g>
<g>
	<path style="fill:#00A9E7;" d="M466.174,468.099l14.59,26.211l-18.96,10.55c-17.29,9.62-38.701,9.51-55.891-0.29l-17.72-10.11
		c-8.14-4.65-18.28-4.7-26.471-0.14l-18.94,10.54c-8.56,4.76-18.12,7.14-27.681,7.14c-9.77,0-19.53-2.48-28.211-7.43l-17.72-10.11
		c-4.05-2.32-8.6-3.49-13.17-3.52v-29.981c9.71,0.03,19.41,2.51,28.031,7.44l17.73,10.11c8.12,4.64,18.25,4.69,26.431,0.14
		l18.94-10.54c17.3-9.63,38.731-9.52,55.931,0.29l17.72,10.11c8.12,4.64,18.25,4.69,26.431,0.14L466.174,468.099z"/>
	<path style="fill:#00A9E7;" d="M466.174,376.517l14.59,26.221l-18.96,10.55c-17.29,9.62-38.711,9.51-55.891-0.29l-17.72-10.11
		c-8.13-4.65-18.28-4.7-26.471-0.14l-18.94,10.54c-8.56,4.76-18.12,7.14-27.691,7.14c-9.76,0-19.52-2.48-28.201-7.43l-17.72-10.11
		c-4.05-2.32-8.6-3.49-13.17-3.52v-29.981c9.71,0.03,19.41,2.51,28.031,7.44l17.73,10.11c8.12,4.63,18.25,4.69,26.431,0.13
		l18.94-10.53c17.3-9.63,38.731-9.52,55.931,0.29l17.72,10.11c8.12,4.64,18.25,4.69,26.431,0.13L466.174,376.517z"/>
	<path style="fill:#00A9E7;" d="M269.17,307.866c-4.06-2.31-8.61-3.49-13.17-3.52v-29.971c9.71,0.03,19.4,2.51,28.031,7.44
		l17.73,10.11c8.12,4.63,18.25,4.68,26.431,0.13l18.94-10.54c17.3-9.63,38.731-9.52,55.931,0.29l17.72,10.12
		c8.12,4.63,18.25,4.68,26.431,0.13l18.96-10.55l14.59,26.221l-18.96,10.55c-17.29,9.62-38.711,9.51-55.891-0.3l-17.72-10.11
		c-8.14-4.64-18.28-4.69-26.471-0.13l-18.94,10.54c-8.56,4.76-18.12,7.13-27.691,7.14c-9.76,0-19.52-2.48-28.201-7.44
		L269.17,307.866z"/>
</g>
<g>
</g>
<g>
</g>
<g>
</g>
<g>
</g>
<g>
</g>
<g>
</g>
<g>
</g>
<g>
</g>
<g>
</g>
<g>
</g>
<g>
</g>
<g>
</g>
<g>
</g>
<g>
</g>
<g>
</g>
</svg>
