<?xml version="1.0" encoding="iso-8859-1"?>
<!-- Generator: Adobe Illustrator 19.0.0, SVG Export Plug-In . SVG Version: 6.00 Build 0)  -->
<svg version="1.1" id="Capa_1" xmlns="http://www.w3.org/2000/svg" xmlns:xlink="http://www.w3.org/1999/xlink" x="0px" y="0px"
	 viewBox="0 0 511.997 511.997" style="enable-background:new 0 0 511.997 511.997;" xml:space="preserve">
<polygon style="fill:#0080CE;" points="304.32,63.03 304.32,163.2 274.32,163.2 274.32,149 241.82,149 241.82,163.2 211.82,163.2 
	211.82,63.03 "/>
<path style="fill:#49B8EB;" d="M108.57,409.445c-9.788-14.509-19.453-26.196-19.86-26.688L77.163,368.83l-11.547,13.927
	c-0.407,0.491-10.072,12.179-19.86,26.688c-19.305,28.615-21.538,42.017-21.538,49.608c0,29.193,23.751,52.944,52.945,52.944
	s52.945-23.751,52.945-52.944C130.106,451.462,127.875,438.06,108.57,409.445z"/>
<path style="fill:#C7E5F6;" d="M193.999,157.25v30h-1.95L182.32,262v15h-40.73c-4.26,0-7.72,3.47-7.72,7.73v66.84H24.37v-90.41
	c0-57.3,46.61-103.91,103.91-103.91H193.999z"/>
<polygon style="fill:#B5DDF5;" points="412.631,187.248 412.631,157.248 319.491,157.248 319.491,187.248 325.667,187.248 
	325.667,258.867 331.173,258.867 331.173,276.998 412.631,276.998 412.631,246.998 412.631,246.998 "/>
<path style="fill:#49B8EB;" d="M355.19,222.3v3.46c0,53.84-43.45,97.72-97.12,98.42c-0.44,0.02-0.88,0.02-1.32,0.02
	c-54.28,0-98.45-44.16-98.45-98.44v-3.46c0-54.28,44.17-98.44,98.45-98.44c0.44,0,0.88,0,1.32,0.02
	C311.74,124.58,355.19,168.46,355.19,222.3z"/>
<rect x="397.63" y="131.4" style="fill:#FF8600;" width="90.15" height="171.1"/>
<g>
	<rect x="162.27" style="fill:#FFA720;" width="191.61" height="93.03"/>
	<rect x="24.37" y="292.17" style="fill:#FFA720;" width="109.5" height="30"/>
</g>
<polygon style="fill:#0051C8;" points="304.32,63.03 304.32,163.2 274.32,163.2 274.32,149 258.07,149 258.07,63.03 "/>
<rect x="258.07" style="fill:#FF8600;" width="95.81" height="93.03"/>
<path style="fill:#00A9E7;" d="M355.19,222.3v3.46c0,53.84-43.45,97.72-97.12,98.42v-200.3
	C311.74,124.58,355.19,168.46,355.19,222.3z"/>
<g>
</g>
<g>
</g>
<g>
</g>
<g>
</g>
<g>
</g>
<g>
</g>
<g>
</g>
<g>
</g>
<g>
</g>
<g>
</g>
<g>
</g>
<g>
</g>
<g>
</g>
<g>
</g>
<g>
</g>
</svg>
