<?xml version="1.0" encoding="iso-8859-1"?>
<!-- Generator: Adobe Illustrator 19.0.0, SVG Export Plug-In . SVG Version: 6.00 Build 0)  -->
<svg version="1.1" id="Capa_1" xmlns="http://www.w3.org/2000/svg" xmlns:xlink="http://www.w3.org/1999/xlink" x="0px" y="0px"
	 viewBox="0 0 512 512" style="enable-background:new 0 0 512 512;" xml:space="preserve">
<rect y="116.95" style="fill:#C5C3CA;" width="512" height="30"/>
<rect x="255.88" y="116.95" style="fill:#ABAAB0;" width="256.12" height="30"/>
<polygon style="fill:#FF4940;" points="459.6,355.83 389.84,423.05 345.24,375.31 311.64,388.64 295.35,395.11 216.4,395.11 
	200.11,388.62 166.74,375.33 122.16,423.05 52.4,355.83 139.52,253.5 139.52,116.95 372.48,116.95 372.48,253.5 "/>
<polygon style="fill:#FF0C2F;" points="459.6,355.83 389.84,423.05 345.24,375.31 311.64,388.64 295.35,395.11 255.88,395.11 
	255.88,116.95 372.48,116.95 372.48,253.5 "/>
<rect x="191.42" y="88.95" style="fill:#FFE370;" width="30" height="56"/>
<rect x="290.58" y="88.95" style="fill:#FFD100;" width="30" height="56"/>
<path style="fill:#EDE4DC;" d="M311.64,388.64l-16.29,6.47H216.4l-16.29-6.49c0.99-6.47,2.88-15.71,6.43-25
	c9.53-24.94,26.68-38.68,48.28-38.68c0.36,0,0.71,0,1.06,0.02c20.9,0.43,38,13.96,48.24,38.2
	C308.14,372.69,310.42,382.17,311.64,388.64z"/>
<path style="fill:#DCCABA;" d="M304.12,363.16c4.02,9.53,6.3,19.01,7.52,25.48l-16.29,6.47h-39.47v-70.15
	C276.78,325.39,293.88,338.92,304.12,363.16z"/>
<g>
</g>
<g>
</g>
<g>
</g>
<g>
</g>
<g>
</g>
<g>
</g>
<g>
</g>
<g>
</g>
<g>
</g>
<g>
</g>
<g>
</g>
<g>
</g>
<g>
</g>
<g>
</g>
<g>
</g>
</svg>
