<?xml version="1.0" encoding="iso-8859-1"?>
<!-- Generator: Adobe Illustrator 19.0.0, SVG Export Plug-In . SVG Version: 6.00 Build 0)  -->
<svg version="1.1" id="Capa_1" xmlns="http://www.w3.org/2000/svg" xmlns:xlink="http://www.w3.org/1999/xlink" x="0px" y="0px"
	 viewBox="0 0 512 512" style="enable-background:new 0 0 512 512;" xml:space="preserve">
<rect x="280" y="304.35" style="fill:#C5AA8F;" width="111" height="30"/>
<rect x="376" y="277.83" style="fill:#D16429;" width="136" height="83.03"/>
<g>
	<path style="fill:#DCCABA;" d="M89.708,223.067l-25.12-16.4l-0.075,0.117c0.444-0.711,10.766-17.589,0.169-33.426
		c-21.772-32.533-0.945-64.797-0.047-66.154l25.027,16.541l0.078-0.12c-0.441,0.698-10.685,17.27-0.125,33.049
		C111.352,189.159,90.602,221.698,89.708,223.067z"/>
	<path style="fill:#DCCABA;" d="M160.06,223.066l-25.12-16.4c1.01-1.67,10.35-17.98,0.09-33.31c-21.77-32.53-0.94-64.8-0.04-66.15
		l25.02,16.54c-1.01,1.67-10.25,17.67-0.04,32.93C181.7,189.157,160.95,221.697,160.06,223.066z"/>
</g>
<g>
	<path style="fill:#C5AA8F;" d="M230.412,223.067l-25.12-16.4l-0.075,0.116c0.445-0.71,10.767-17.588,0.169-33.425
		c-21.771-32.533-0.945-64.797-0.047-66.154l25.027,16.541l0.079-0.12c-0.441,0.698-10.686,17.27-0.126,33.049
		C252.057,189.159,231.306,221.698,230.412,223.067z"/>
	<path style="fill:#C5AA8F;" d="M160.06,223.066l-12.56-8.2v-99.39l12.51,8.27c-1.01,1.67-10.25,17.67-0.04,32.93
		C181.7,189.157,160.95,221.697,160.06,223.066z"/>
</g>
<path style="fill:#C5C3CA;" d="M295,277.836v75.99c0,28.1-22.86,50.97-50.96,50.97H50.96c-28.1,0-50.96-22.87-50.96-50.97v-75.99
	H295z"/>
<path style="fill:#ABAAB0;" d="M295,277.836v75.99c0,28.1-22.86,50.97-50.96,50.97H147.5v-126.96H295z"/>
<g>
</g>
<g>
</g>
<g>
</g>
<g>
</g>
<g>
</g>
<g>
</g>
<g>
</g>
<g>
</g>
<g>
</g>
<g>
</g>
<g>
</g>
<g>
</g>
<g>
</g>
<g>
</g>
<g>
</g>
</svg>
