<?xml version="1.0" encoding="iso-8859-1"?>
<!-- Generator: Adobe Illustrator 19.0.0, SVG Export Plug-In . SVG Version: 6.00 Build 0)  -->
<svg version="1.1" id="Capa_1" xmlns="http://www.w3.org/2000/svg" xmlns:xlink="http://www.w3.org/1999/xlink" x="0px" y="0px"
	 viewBox="0 0 512 512" style="enable-background:new 0 0 512 512;" xml:space="preserve">
<polygon style="fill:#FFE370;" points="486.69,200.176 464.18,278.096 455.52,308.096 438.93,365.526 430.26,395.526 
	414.26,450.926 97.74,450.926 81.74,395.526 73.07,365.526 56.48,308.096 47.82,278.096 25.31,200.176 "/>
<polygon style="fill:#FFD100;" points="486.69,200.176 464.18,278.096 455.52,308.096 438.93,365.526 430.26,395.526 
	414.26,450.926 256,450.926 256,200.176 "/>
<path style="fill:#FF4940;" d="M412.86,147.766l-3.65,9.74H46.79l-3.65-9.74c-1.19-3.18-11.23-31.73,2.98-54.86
	c5.86-9.53,18.17-21.49,43.56-24.31c26.52-2.95,61.49-1.01,95.31,0.86c25.49,1.41,51.61,2.86,71.01,1.87
	c7.52-0.38,14.03-1.12,19.11-2.38c59.63-14.75,106.84-8.58,129.52,16.9C418.9,101.886,421.82,123.876,412.86,147.766z"/>
<path style="fill:#FFA720;" d="M455.52,308.096l8.66-30h-79.33l16.31-77.92l0.41-1.94l-29.36-6.15l-1.69,8.09l-16.33,77.92H271
	v-65.93h-30v65.93h-84.46l-16.32-77.92l-0.43-2.05l-9.79,2.05l-19.57,4.1l15.46,73.82H47.82l8.66,30h75.69l12.03,57.43H73.07
	l8.67,30h68.75l11.6,55.4h30.65l-11.6-55.4H241v55.4h30v-55.4h58.6l-11.61,55.4h30.65l11.61-55.4h70.01l8.67-30h-72.4l12.03-57.43
	H455.52z M241,365.526h-66.14l-12.03-57.43H241V365.526z M335.88,365.526H271v-57.43h76.91L335.88,365.526z"/>
<path style="fill:#FF0C2F;" d="M409.21,157.506H256v-86.18c7.52-0.38,14.03-1.12,19.11-2.38c59.63-14.75,106.84-8.58,129.52,16.9
	c14.27,16.04,17.19,38.03,8.23,61.92L409.21,157.506z"/>
<path style="fill:#FF8600;" d="M455.52,308.096l8.66-30h-79.33l16.31-77.92l0.41-1.94l-29.36-6.15l-1.69,8.09l-16.33,77.92H271
	v-65.93h-15v238.76h15v-55.4h58.6l-11.61,55.4h30.65l11.61-55.4h70.01l8.67-30h-72.4l12.03-57.43L455.52,308.096L455.52,308.096z
	 M335.88,365.526H271v-57.43h76.91L335.88,365.526z"/>
<rect y="140.18" style="fill:#C7E5F6;" width="512" height="90"/>
<rect x="256" y="140.18" style="fill:#B5DDF5;" width="256" height="90"/>
<g>
</g>
<g>
</g>
<g>
</g>
<g>
</g>
<g>
</g>
<g>
</g>
<g>
</g>
<g>
</g>
<g>
</g>
<g>
</g>
<g>
</g>
<g>
</g>
<g>
</g>
<g>
</g>
<g>
</g>
</svg>
