<?xml version="1.0" encoding="iso-8859-1"?>
<!-- Generator: Adobe Illustrator 19.0.0, SVG Export Plug-In . SVG Version: 6.00 Build 0)  -->
<svg version="1.1" id="Capa_1" xmlns="http://www.w3.org/2000/svg" xmlns:xlink="http://www.w3.org/1999/xlink" x="0px" y="0px"
	 viewBox="0 0 512 512" style="enable-background:new 0 0 512 512;" xml:space="preserve">
<rect y="79.84" style="fill:#0080CE;" width="428.58" height="332.99"/>
<rect x="214.29" y="79.84" style="fill:#0051C8;" width="214.29" height="332.99"/>
<rect y="191.94" style="fill:#C7E5F6;" width="428.58" height="220.89"/>
<rect x="214.29" y="191.94" style="fill:#B5DDF5;" width="214.29" height="220.89"/>
<g>
	<rect x="116.79" y="237.34" style="fill:#49B8EB;" width="30" height="30"/>
	<rect x="171.79" y="237.34" style="fill:#49B8EB;" width="30" height="30"/>
</g>
<g>
	<rect x="226.79" y="237.34" style="fill:#00A9E7;" width="30" height="30"/>
	<rect x="281.79" y="237.34" style="fill:#00A9E7;" width="30" height="30"/>
	<rect x="336.79" y="237.34" style="fill:#00A9E7;" width="30" height="30"/>
</g>
<g>
	<rect x="61.791" y="287.81" style="fill:#49B8EB;" width="30" height="30"/>
	<rect x="116.79" y="287.81" style="fill:#49B8EB;" width="30" height="30"/>
	<rect x="171.79" y="287.81" style="fill:#49B8EB;" width="30" height="30"/>
</g>
<g>
	<rect x="226.79" y="287.81" style="fill:#00A9E7;" width="30" height="30"/>
	<rect x="281.79" y="287.81" style="fill:#00A9E7;" width="30" height="30"/>
</g>
<g>
	<rect x="336.79" y="287.81" style="fill:#49B8EB;" width="30" height="30"/>
	<rect x="61.791" y="338.29" style="fill:#49B8EB;" width="30" height="30"/>
	<rect x="116.79" y="338.29" style="fill:#49B8EB;" width="30" height="30"/>
	<rect x="171.79" y="338.29" style="fill:#49B8EB;" width="30" height="30"/>
</g>
<g>
	<rect x="226.79" y="338.29" style="fill:#00A9E7;" width="30" height="30"/>
	<rect x="281.79" y="338.29" style="fill:#00A9E7;" width="30" height="30"/>
</g>
<rect x="336.79" y="338.29" style="fill:#49B8EB;" width="30" height="30"/>
<polygon style="fill:#FFA720;" points="72,36.347 59,36.347 59,49.347 59,102.813 59,115.813 72,115.813 102,115.813 115,115.813 
	115,102.813 115,49.347 115,36.347 102,36.347 "/>
<polygon style="fill:#FF8600;" points="357.667,36.347 327.667,36.347 314.667,36.347 314.667,49.347 314.667,102.813 
	314.667,115.813 327.667,115.813 357.667,115.813 370.667,115.813 370.667,102.813 370.667,49.347 370.667,36.347 "/>
<path style="fill:#FF4940;" d="M512,368.233c0,59.23-48.19,107.42-107.42,107.42s-107.42-48.19-107.42-107.42
	s48.19-107.42,107.42-107.42C463.81,260.814,512,309.003,512,368.233z"/>
<polygon style="fill:#C7E5F6;" points="449.04,351.853 449.04,381.853 389.58,381.853 389.58,309.713 419.58,309.713 
	419.58,351.853 "/>
<path style="fill:#FF0C2F;" d="M512,368.233c0,59.23-48.19,107.42-107.42,107.42v-214.84C463.81,260.814,512,309.003,512,368.233z"
	/>
<polygon style="fill:#B5DDF5;" points="449.04,351.853 449.04,381.853 404.58,381.853 404.58,309.713 419.58,309.713 
	419.58,351.853 "/>
<g>
</g>
<g>
</g>
<g>
</g>
<g>
</g>
<g>
</g>
<g>
</g>
<g>
</g>
<g>
</g>
<g>
</g>
<g>
</g>
<g>
</g>
<g>
</g>
<g>
</g>
<g>
</g>
<g>
</g>
</svg>
