<?xml version="1.0" encoding="iso-8859-1"?>
<!-- Generator: Adobe Illustrator 19.0.0, SVG Export Plug-In . SVG Version: 6.00 Build 0)  -->
<svg version="1.1" id="Capa_1" xmlns="http://www.w3.org/2000/svg" xmlns:xlink="http://www.w3.org/1999/xlink" x="0px" y="0px"
	 viewBox="0 0 512.003 512.003" style="enable-background:new 0 0 512.003 512.003;" xml:space="preserve">
<path style="fill:#DCCABA;" d="M474.91,34.381c-1.632-10.694-7.33-20.114-16.046-26.522c-17.99-13.229-43.391-9.354-56.588,8.59
	l-67.744,91.396l12.051,8.933l24.218,28.676l-2.135,2.907l24.18,17.76l74.656-101.64C473.91,55.765,476.541,45.075,474.91,34.381z"
	/>
<path style="fill:#FFA720;" d="M446.517,206.471c0,6.89-1.19,13.64-3.55,20.061l-3.61,9.84H74.377l-3.97-8.86
	c-3.27-7.28-4.92-15.02-4.92-23.011c0-29.471,22.771-53.731,51.651-56.092c6.67-27.461,31.471-47.921,60.962-47.921
	c8.07,0,16,1.56,23.371,4.53c10.74-19.921,31.191-33.451,54.531-34.901c1.38-0.09,2.78-0.13,4.18-0.13
	c21.641,0,41.341,10.25,53.691,27.101c6.87-2.7,14.24-4.13,21.681-4.13c31.421,0,57.202,24.631,59.042,55.612
	C423.746,151.729,446.517,176.49,446.517,206.471z"/>
<path style="fill:#FF8600;" d="M439.357,236.372H256.002V70.117c1.38-0.09,2.78-0.13,4.18-0.13c21.641,0,41.341,10.25,53.691,27.101
	c6.87-2.7,14.24-4.13,21.681-4.13c31.421,0,57.202,24.631,59.042,55.612c29.151,3.16,51.921,27.921,51.921,57.902
	c0,6.89-1.19,13.64-3.55,20.061L439.357,236.372z"/>
<rect x="165.626" y="439.501" style="fill:#0080CE;" width="180.745" height="72.502"/>
<rect x="255.999" y="439.501" style="fill:#0051C8;" width="90.372" height="72.502"/>
<path style="fill:#DCCABA;" d="M486.878,206.371v83.902c0,1.04-0.01,2.09-0.03,3.13c-1.67,88.172-73.912,159.374-162.474,159.374
	H187.63c-88.562,0-160.804-71.202-162.474-159.374c-0.02-1.04-0.03-2.09-0.03-3.13v-83.902H486.878z"/>
<path style="fill:#C5AA8F;" d="M486.878,206.371v83.902c0,1.04-0.01,2.09-0.03,3.13c-1.67,88.172-73.912,159.374-162.474,159.374
	h-68.372V206.371H486.878z"/>
<path style="fill:#49B8EB;" d="M486.878,263.402v26.871c0,1.04-0.01,2.09-0.03,3.13H25.155c-0.02-1.04-0.03-2.09-0.03-3.13v-26.871
	H486.878z"/>
<path style="fill:#00A9E7;" d="M486.878,263.402v26.871c0,1.04-0.01,2.09-0.03,3.13H256.002v-30.001H486.878z"/>
<g>
</g>
<g>
</g>
<g>
</g>
<g>
</g>
<g>
</g>
<g>
</g>
<g>
</g>
<g>
</g>
<g>
</g>
<g>
</g>
<g>
</g>
<g>
</g>
<g>
</g>
<g>
</g>
<g>
</g>
</svg>
