<?xml version="1.0" encoding="iso-8859-1"?>
<!-- Generator: Adobe Illustrator 19.0.0, SVG Export Plug-In . SVG Version: 6.00 Build 0)  -->
<svg version="1.1" id="Capa_1" xmlns="http://www.w3.org/2000/svg" xmlns:xlink="http://www.w3.org/1999/xlink" x="0px" y="0px"
	 viewBox="0 0 512 512" style="enable-background:new 0 0 512 512;" xml:space="preserve">
<path style="fill:#EDE4DC;" d="M386.59,131.67v303.975H126.41v-238.75c-29.62-12.95-37.84-46.82-37.83-64.77l0.02-0.455
	L386.59,131.67L386.59,131.67z"/>
<rect x="256.5" y="119.5" style="fill:#DCCABA;" width="130.09" height="318.5"/>
<rect x="126.41" y="253.05" style="fill:#D16429;" width="260.18" height="184.95"/>
<path style="fill:#DCCABA;" d="M386.59,93.18c0-20.36-16.56-36.93-36.93-36.93H271.5V15h-30v41.25h-78.16
	c-20.37,0-36.93,16.57-36.93,36.93v38.49H241.5v121.38h30V131.67h115.09V93.18z"/>
<path style="fill:#C5AA8F;" d="M386.59,93.18c0-20.36-16.56-36.93-36.93-36.93H271.5V15h-15v41.25v10.08v65.22v0.12v121.38h15
	V131.67h115.09V93.18z"/>
<rect x="256.5" y="253.05" style="fill:#B9561B;" width="130.09" height="184.95"/>
<rect x="103.17" y="408" style="fill:#DCCABA;" width="306.66" height="104"/>
<rect x="256.5" y="408" style="fill:#C5AA8F;" width="153.33" height="104"/>
<rect x="85.5" y="482" style="fill:#FFA720;" width="341" height="30"/>
<rect x="256.5" y="482" style="fill:#FF8600;" width="170" height="30"/>
<rect x="219.33" style="fill:#FFA720;" width="74.34" height="30"/>
<rect x="256.5" style="fill:#FF8600;" width="37.17" height="30"/>
<g>
</g>
<g>
</g>
<g>
</g>
<g>
</g>
<g>
</g>
<g>
</g>
<g>
</g>
<g>
</g>
<g>
</g>
<g>
</g>
<g>
</g>
<g>
</g>
<g>
</g>
<g>
</g>
<g>
</g>
</svg>
