<?xml version="1.0" encoding="iso-8859-1"?>
<!-- Generator: Adobe Illustrator 19.0.0, SVG Export Plug-In . SVG Version: 6.00 Build 0)  -->
<svg version="1.1" id="Capa_1" xmlns="http://www.w3.org/2000/svg" xmlns:xlink="http://www.w3.org/1999/xlink" x="0px" y="0px"
	 viewBox="0 0 512 512" style="enable-background:new 0 0 512 512;" xml:space="preserve">
<g>
	<rect x="267.92" y="41.714" style="fill:#DCCABA;" width="66.34" height="30"/>
	<rect x="153" y="41.714" style="fill:#DCCABA;" width="36.413" height="30"/>
</g>
<path style="fill:#FF4940;" d="M477.59,56.71c0,31.81-35.36,56.72-80.5,56.72s-80.5-24.91-80.5-56.72c0-31.8,35.36-56.71,80.5-56.71
	S477.59,24.91,477.59,56.71z"/>
<rect x="176.75" y="23.65" style="fill:#C5C3CA;" width="100" height="93.35"/>
<rect x="226.79" y="23.65" style="fill:#ABAAB0;" width="49.96" height="93.35"/>
<path style="fill:#FF0C2F;" d="M477.59,56.71c0,31.81-35.36,56.72-80.5,56.72s-80.5-24.91-80.5-56.72H477.59z"/>
<rect x="158.38" y="109" style="fill:#FFE370;" width="136.74" height="73.8"/>
<rect x="226.79" y="109" style="fill:#FFD100;" width="68.33" height="73.8"/>
<path style="fill:#FF4940;" d="M419.09,354.39c0,30.56-7.35,60.99-21.27,87.98c-13.45,26.11-33.07,49.17-56.73,66.69l-3.98,2.94
	H116.39l-3.98-2.94c-23.66-17.52-43.28-40.58-56.74-66.69c-13.91-26.99-21.26-57.42-21.26-87.98
	c0-106.06,86.28-192.35,192.34-192.35h0.04C332.83,162.06,419.09,248.34,419.09,354.39z"/>
<path style="fill:#FF0C2F;" d="M419.09,354.39c0,30.56-7.35,60.99-21.27,87.98c-13.45,26.11-33.07,49.17-56.73,66.69l-3.98,2.94
	H226.79V162.04C332.83,162.06,419.09,248.34,419.09,354.39z"/>
<g>
</g>
<g>
</g>
<g>
</g>
<g>
</g>
<g>
</g>
<g>
</g>
<g>
</g>
<g>
</g>
<g>
</g>
<g>
</g>
<g>
</g>
<g>
</g>
<g>
</g>
<g>
</g>
<g>
</g>
</svg>
