<?xml version="1.0" encoding="iso-8859-1"?>
<!-- Generator: Adobe Illustrator 19.0.0, SVG Export Plug-In . SVG Version: 6.00 Build 0)  -->
<svg version="1.1" id="Capa_1" xmlns="http://www.w3.org/2000/svg" xmlns:xlink="http://www.w3.org/1999/xlink" x="0px" y="0px"
	 viewBox="0 0 512 512" style="enable-background:new 0 0 512 512;" xml:space="preserve">
<rect x="218.08" y="275.57" style="fill:#49B8EB;" width="75.84" height="236.43"/>
<rect x="256" y="275.57" style="fill:#00A9E7;" width="37.92" height="236.43"/>
<g>
	<rect x="129.04" y="31.03" style="fill:#C5C3CA;" width="54.1" height="30"/>
	<rect x="129.04" y="84.79" style="fill:#C5C3CA;" width="54.1" height="30"/>
	<rect x="129.04" y="138.55" style="fill:#C5C3CA;" width="54.1" height="30"/>
	<rect x="129.04" y="192.31" style="fill:#C5C3CA;" width="54.1" height="30"/>
	<rect x="129.04" y="246.08" style="fill:#C5C3CA;" width="54.1" height="30"/>
</g>
<g>
	<rect x="328.86" y="31.03" style="fill:#ABAAB0;" width="54.1" height="30"/>
	<rect x="328.86" y="84.79" style="fill:#ABAAB0;" width="54.1" height="30"/>
	<rect x="328.86" y="138.55" style="fill:#ABAAB0;" width="54.1" height="30"/>
	<rect x="328.86" y="192.31" style="fill:#ABAAB0;" width="54.1" height="30"/>
	<rect x="328.86" y="246.08" style="fill:#ABAAB0;" width="54.1" height="30"/>
</g>
<path style="fill:#FFA720;" d="M343.9,48.18v209.21c0,26.56-21.61,48.18-48.18,48.18h-79.44c-26.57,0-48.18-21.62-48.18-48.18V48.18
	C168.1,21.61,189.71,0,216.28,0h79.44C322.29,0,343.9,21.61,343.9,48.18z"/>
<path style="fill:#FF8600;" d="M343.9,48.18v209.21c0,26.56-21.61,48.18-48.18,48.18H256V0h39.72C322.29,0,343.9,21.61,343.9,48.18z
	"/>
<g>
	<rect x="216.95" y="218.58" style="fill:#FFE370;" width="29.915" height="29.915"/>
	<rect x="216.95" y="167.04" style="fill:#FFE370;" width="29.915" height="29.915"/>
	<rect x="216.95" y="115.51" style="fill:#FFE370;" width="29.915" height="29.915"/>
	<rect x="216.95" y="63.97" style="fill:#FFE370;" width="29.915" height="29.915"/>
</g>
<g>
	<rect x="265.14" y="218.58" style="fill:#FFD100;" width="29.915" height="29.915"/>
	<rect x="265.14" y="167.04" style="fill:#FFD100;" width="29.915" height="29.915"/>
	<rect x="265.14" y="115.51" style="fill:#FFD100;" width="29.915" height="29.915"/>
	<rect x="265.14" y="63.97" style="fill:#FFD100;" width="29.915" height="29.915"/>
</g>
<g>
</g>
<g>
</g>
<g>
</g>
<g>
</g>
<g>
</g>
<g>
</g>
<g>
</g>
<g>
</g>
<g>
</g>
<g>
</g>
<g>
</g>
<g>
</g>
<g>
</g>
<g>
</g>
<g>
</g>
</svg>
