<?xml version="1.0" encoding="iso-8859-1"?>
<!-- Generator: Adobe Illustrator 19.0.0, SVG Export Plug-In . SVG Version: 6.00 Build 0)  -->
<svg version="1.1" id="Capa_1" xmlns="http://www.w3.org/2000/svg" xmlns:xlink="http://www.w3.org/1999/xlink" x="0px" y="0px"
	 viewBox="0 0 511.998 511.998" style="enable-background:new 0 0 511.998 511.998;" xml:space="preserve">
<path style="fill:#FF4940;" d="M395.236,30.27v123.882H292.213V69.448c0-8.429,3.56-16.539,9.769-22.239L343.73,8.812l0.85-0.78
	c8.959-8.239,21.449-10.309,32.598-5.42C388.317,7.502,395.236,18.101,395.236,30.27z"/>
<path style="fill:#FF0C2F;" d="M343.73,154.152V8.811l0.85-0.78c8.959-8.239,21.449-10.309,32.598-5.42
	c11.139,4.89,18.059,15.489,18.059,27.658v123.882H343.73z"/>
<rect x="91.079" y="191.018" style="fill:#C5C3CA;" width="153.84" height="320.98"/>
<rect x="280.098" y="139.151" style="fill:#EDE4DC;" width="127.272" height="188.428"/>
<rect x="168.005" y="191.018" style="fill:#ABAAB0;" width="76.915" height="320.98"/>
<rect x="91.079" y="242.515" style="fill:#FF4940;" width="153.84" height="29.998"/>
<rect x="168.005" y="242.515" style="fill:#FF0C2F;" width="76.915" height="29.998"/>
<rect x="343.734" y="139.151" style="fill:#DCCABA;" width="63.636" height="188.428"/>
<rect x="266.538" y="297.581" style="fill:#C5C3CA;" width="154.38" height="214.417"/>
<rect x="343.734" y="297.581" style="fill:#ABAAB0;" width="77.185" height="214.417"/>
<g>
</g>
<g>
</g>
<g>
</g>
<g>
</g>
<g>
</g>
<g>
</g>
<g>
</g>
<g>
</g>
<g>
</g>
<g>
</g>
<g>
</g>
<g>
</g>
<g>
</g>
<g>
</g>
<g>
</g>
</svg>
