<?xml version="1.0" encoding="iso-8859-1"?>
<!-- Generator: Adobe Illustrator 19.0.0, SVG Export Plug-In . SVG Version: 6.00 Build 0)  -->
<svg version="1.1" id="Capa_1" xmlns="http://www.w3.org/2000/svg" xmlns:xlink="http://www.w3.org/1999/xlink" x="0px" y="0px"
	 viewBox="0 0 512 512" style="enable-background:new 0 0 512 512;" xml:space="preserve">
<rect x="313.5" style="fill:#C5C3CA;" width="30" height="318.57"/>
<rect x="272.95" y="294.57" style="fill:#FFA720;" width="111.09" height="217.43"/>
<rect x="328.5" style="fill:#ABAAB0;" width="15" height="318.57"/>
<rect x="328.5" y="294.57" style="fill:#FF8600;" width="55.55" height="217.43"/>
<g>
	<rect x="140" y="90.5" style="fill:#D16429;" width="87" height="60.5"/>
	<rect x="272.95" y="336.5" style="fill:#D16429;" width="111.09" height="30"/>
</g>
<rect x="328.5" y="336.5" style="fill:#B9561B;" width="55.55" height="30"/>
<g>
	<rect x="291.62" y="74.62" style="fill:#D16429;" width="73.75" height="30"/>
	<rect x="297.81" y="121.28" style="fill:#D16429;" width="61.39" height="30"/>
	<rect x="297.81" y="29" style="fill:#D16429;" width="61.39" height="30"/>
</g>
<g>
	<rect x="328.5" y="29" style="fill:#B9561B;" width="30.7" height="30"/>
	<rect x="328.5" y="121.28" style="fill:#B9561B;" width="30.7" height="30"/>
	<rect x="328.5" y="74.62" style="fill:#B9561B;" width="36.88" height="30"/>
	<rect x="183.5" y="90.5" style="fill:#B9561B;" width="43.5" height="60.5"/>
</g>
<rect x="127.95" y="140" style="fill:#FFA720;" width="111.09" height="372"/>
<rect x="183.5" y="140" style="fill:#FF8600;" width="55.55" height="372"/>
<g>
</g>
<g>
</g>
<g>
</g>
<g>
</g>
<g>
</g>
<g>
</g>
<g>
</g>
<g>
</g>
<g>
</g>
<g>
</g>
<g>
</g>
<g>
</g>
<g>
</g>
<g>
</g>
<g>
</g>
</svg>
