<?xml version="1.0" encoding="iso-8859-1"?>
<!-- Generator: Adobe Illustrator 19.0.0, SVG Export Plug-In . SVG Version: 6.00 Build 0)  -->
<svg version="1.1" id="Capa_1" xmlns="http://www.w3.org/2000/svg" xmlns:xlink="http://www.w3.org/1999/xlink" x="0px" y="0px"
	 viewBox="0 0 512 512" style="enable-background:new 0 0 512 512;" xml:space="preserve">
<path style="fill:#FFA720;" d="M238.26,451.952c-8.61,10.85-20.37,18.3-33.48,21.47c-4.7,1.14-9.57,1.73-14.53,1.73
	c-28.1,0-52.53-19.04-59.4-46.29l-38.38-152.08l29.09-7.34l0.34,1.36l32.99-5.13l46.51-7.23l14.61-3.41l33.9,144.88
	C254.2,418.242,249.95,437.202,238.26,451.952z"/>
<path style="fill:#FF8600;" d="M238.26,451.952c-8.61,10.85-20.37,18.3-33.48,21.47l-49.89-207.75l46.51-7.23l14.61-3.41
	l33.9,144.88C254.2,418.242,249.95,437.202,238.26,451.952z"/>
<path style="fill:#C5C3CA;" d="M402.81,98.652v127.6l-247.19,58.43c-9.59,2.26-19.37,3.38-29.13,3.38
	c-24.2,0-48.26-6.86-68.85-20.01c-28.72-18.34-48.26-46.67-55.03-79.76c-1.73-8.45-2.61-17.15-2.61-25.84s0.88-17.38,2.61-25.84
	c6.77-33.09,26.31-61.41,55.03-79.76c28.9-18.45,64.61-24.51,97.98-16.62L402.81,98.652z"/>
<path style="fill:#ABAAB0;" d="M402.81,162.452v63.8l-247.19,58.43c-9.59,2.26-19.37,3.38-29.13,3.38
	c-24.2,0-48.26-6.86-68.85-20.01c-28.72-18.34-48.26-46.67-55.03-79.76c-1.73-8.45-2.61-17.15-2.61-25.84H402.81z"/>
<path style="fill:#FF4940;" d="M512,162.452c0,66.58-22.91,98.39-23.89,99.71l-7.13,9.66L386,230.212V94.682l94.98-41.6l7.13,9.66
	C489.09,64.062,512,95.872,512,162.452z"/>
<path style="fill:#FF0C2F;" d="M512,162.452c0,66.58-22.91,98.39-23.89,99.71l-7.13,9.66L386,230.212v-67.76H512z"/>
<g>
</g>
<g>
</g>
<g>
</g>
<g>
</g>
<g>
</g>
<g>
</g>
<g>
</g>
<g>
</g>
<g>
</g>
<g>
</g>
<g>
</g>
<g>
</g>
<g>
</g>
<g>
</g>
<g>
</g>
</svg>
