<?xml version="1.0" encoding="iso-8859-1"?>
<!-- Generator: Adobe Illustrator 19.0.0, SVG Export Plug-In . SVG Version: 6.00 Build 0)  -->
<svg version="1.1" id="Capa_1" xmlns="http://www.w3.org/2000/svg" xmlns:xlink="http://www.w3.org/1999/xlink" x="0px" y="0px"
	 viewBox="0 0 512 512" style="enable-background:new 0 0 512 512;" xml:space="preserve">
<rect x="241" y="391" style="fill:#FFA720;" width="30" height="106"/>
<rect x="256" y="391" style="fill:#FF8600;" width="15" height="106"/>
<path style="fill:#DCCABA;" d="M484.87,152v15c0,61.13-23.8,118.61-67.03,161.84S317.13,395.87,256,395.87
	s-118.61-23.8-161.84-67.03S27.13,228.13,27.13,167v-15h72v30H57.69c7.69,102.68,93.7,183.87,198.31,183.87
	S446.62,284.68,454.31,182h-41.44v-30H484.87z"/>
<path style="fill:#A0D6F3;" d="M412.87,171.87c0,86.64-70.23,156.88-156.87,156.88S99.13,258.51,99.13,171.87
	C99.13,85.24,169.36,15,256,15S412.87,85.24,412.87,171.87z"/>
<path style="fill:#FF4940;" d="M256,0C161.23,0,84.13,77.1,84.13,171.87c0,94.78,77.1,171.88,171.87,171.88
	s171.87-77.1,171.87-171.88C427.87,77.1,350.77,0,256,0z M256,313.75c-78.23,0-141.87-63.65-141.87-141.88S177.77,30,256,30
	s141.87,63.64,141.87,141.87S334.23,313.75,256,313.75z"/>
<rect x="209" y="482" style="fill:#DCCABA;" width="94" height="30"/>
<g>
	
		<rect x="186.991" y="62.114" transform="matrix(-0.6998 -0.7143 0.7143 -0.6998 264.5302 331.8403)" style="fill:#C7E5F6;" width="29.999" height="96.447"/>
	<polygon style="fill:#C7E5F6;" points="304.5,110.43 256,157.95 192.23,220.42 171.24,198.99 256,115.94 283.5,89 	"/>
</g>
<rect x="256" y="482" style="fill:#C5AA8F;" width="47" height="30"/>
<path style="fill:#7FC5EE;" d="M412.87,171.87c0,86.64-70.23,156.88-156.87,156.88V15C342.64,15,412.87,85.24,412.87,171.87z"/>
<path style="fill:#C5AA8F;" d="M484.87,152v15c0,61.13-23.8,118.61-67.03,161.84S317.13,395.87,256,395.87v-30
	c104.61,0,190.62-81.19,198.31-183.87h-41.44v-30H484.87z"/>
<polygon style="fill:#B5DDF5;" points="304.5,110.43 256,157.95 256,115.94 283.5,89 "/>
<path style="fill:#FF0C2F;" d="M427.87,171.87c0,94.78-77.1,171.88-171.87,171.88v-30c78.23,0,141.87-63.65,141.87-141.88
	S334.23,30,256,30V0C350.77,0,427.87,77.1,427.87,171.87z"/>
<g>
</g>
<g>
</g>
<g>
</g>
<g>
</g>
<g>
</g>
<g>
</g>
<g>
</g>
<g>
</g>
<g>
</g>
<g>
</g>
<g>
</g>
<g>
</g>
<g>
</g>
<g>
</g>
<g>
</g>
</svg>
