<?xml version="1.0" encoding="iso-8859-1"?>
<!-- Generator: Adobe Illustrator 19.0.0, SVG Export Plug-In . SVG Version: 6.00 Build 0)  -->
<svg version="1.1" id="Capa_1" xmlns="http://www.w3.org/2000/svg" xmlns:xlink="http://www.w3.org/1999/xlink" x="0px" y="0px"
	 viewBox="0 0 512 512" style="enable-background:new 0 0 512 512;" xml:space="preserve">
<rect x="42.36" y="80.505" style="fill:#49B8EB;" width="427.28" height="169.49"/>
<rect x="256" y="80.505" style="fill:#00A9E7;" width="213.64" height="169.49"/>
<rect y="363.995" style="fill:#DCCABA;" width="30" height="67.5"/>
<rect x="482" y="363.995" style="fill:#C5AA8F;" width="30" height="67.5"/>
<polygon style="fill:#EDE4DC;" points="98.5,234.997 113.5,234.997 113.5,234.997 228.5,234.997 228.5,234.997 243.5,234.997 
	243.5,150.251 98.5,150.251 "/>
<polygon style="fill:#DCCABA;" points="413.5,150.251 268.5,150.251 268.5,234.997 283.5,234.997 283.5,234.997 398.5,234.997 
	398.5,234.997 413.5,234.997 "/>
<rect y="219.995" style="fill:#A0D6F3;" width="512" height="169.5"/>
<rect x="256" y="219.995" style="fill:#7FC5EE;" width="256" height="169.5"/>
<rect y="321.245" style="fill:#FFA720;" width="512" height="30"/>
<rect x="256" y="321.245" style="fill:#FF8600;" width="256" height="30"/>
<g>
</g>
<g>
</g>
<g>
</g>
<g>
</g>
<g>
</g>
<g>
</g>
<g>
</g>
<g>
</g>
<g>
</g>
<g>
</g>
<g>
</g>
<g>
</g>
<g>
</g>
<g>
</g>
<g>
</g>
</svg>
