<?xml version="1.0" encoding="iso-8859-1"?>
<!-- Generator: Adobe Illustrator 19.0.0, SVG Export Plug-In . SVG Version: 6.00 Build 0)  -->
<svg version="1.1" id="Capa_1" xmlns="http://www.w3.org/2000/svg" xmlns:xlink="http://www.w3.org/1999/xlink" x="0px" y="0px"
	 viewBox="0 0 512 512" style="enable-background:new 0 0 512 512;" xml:space="preserve">
<path style="fill:#C5AA8F;" d="M363.233,52.108v84.393h52.561v63c0,23.267,18.929,42.196,42.196,42.196
	c23.268,0,42.196-18.929,42.196-42.196V52.108H363.233z"/>
<polygon style="fill:#EDE4DC;" points="382.11,32.307 382.11,479.698 69.38,479.698 69.38,164.917 0,82.007 0,32.307 "/>
<rect x="69.38" y="194.693" style="fill:#FFA720;" width="312.73" height="285"/>
<g>
	<rect x="69.38" y="226.693" style="fill:#EDE4DC;" width="60.29" height="30"/>
	<rect x="69.38" y="288.372" style="fill:#EDE4DC;" width="60.29" height="30"/>
	<rect x="69.38" y="350.022" style="fill:#EDE4DC;" width="60.29" height="30"/>
	<rect x="69.38" y="411.693" style="fill:#EDE4DC;" width="60.29" height="30"/>
</g>
<rect x="225.74" y="32.302" style="fill:#DCCABA;" width="156.37" height="447.39"/>
<rect x="225.74" y="194.693" style="fill:#FF8600;" width="156.37" height="285"/>
<path style="fill:#FFA720;" d="M497,363.198c0,56.06-45.44,101.5-101.5,101.5S294,419.258,294,363.198s45.44-101.5,101.5-101.5
	S497,307.138,497,363.198z"/>
<path style="fill:#FF8600;" d="M497,363.198c0,56.06-45.44,101.5-101.5,101.5v-203C451.56,261.698,497,307.138,497,363.198z"/>
<path style="fill:#FFE370;" d="M395.5,246.698c-64.24,0-116.5,52.26-116.5,116.5s52.26,116.5,116.5,116.5s116.5-52.26,116.5-116.5
	S459.74,246.698,395.5,246.698z M324.68,313.587l34.61,34.61h-48.98C312.53,335.497,317.54,323.747,324.68,313.587z M310.31,378.198
	h48.98l-34.61,34.61C317.54,402.647,312.53,390.897,310.31,378.198z M380.5,448.397c-12.7-2.23-24.45-7.24-34.61-14.38l34.61-34.61
	V448.397z M380.5,326.987l-34.61-34.61c10.16-7.14,21.91-12.15,34.61-14.38V326.987z M480.7,348.198h-48.99l34.61-34.61
	C473.46,323.747,478.47,335.497,480.7,348.198z M410.5,277.997c12.7,2.23,24.45,7.24,34.61,14.38l-34.61,34.61V277.997z
	 M410.5,448.397v-48.99l34.61,34.61C434.95,441.158,423.2,446.168,410.5,448.397z M466.32,412.807l-34.61-34.61h48.99
	C478.47,390.897,473.46,402.647,466.32,412.807z"/>
<path style="fill:#FFD100;" d="M395.5,246.698v233c64.24,0,116.5-52.26,116.5-116.5S459.74,246.698,395.5,246.698z M480.7,348.198
	h-48.99l34.61-34.61C473.46,323.747,478.47,335.497,480.7,348.198z M410.5,277.997c12.7,2.23,24.45,7.24,34.61,14.38l-34.61,34.61
	V277.997z M410.5,448.397v-48.99l34.61,34.61C434.95,441.158,423.2,446.168,410.5,448.397z M466.32,412.807l-34.61-34.61h48.99
	C478.47,390.897,473.46,402.647,466.32,412.807z"/>
<g>
</g>
<g>
</g>
<g>
</g>
<g>
</g>
<g>
</g>
<g>
</g>
<g>
</g>
<g>
</g>
<g>
</g>
<g>
</g>
<g>
</g>
<g>
</g>
<g>
</g>
<g>
</g>
<g>
</g>
</svg>
