<?xml version="1.0" encoding="iso-8859-1"?>
<!-- Generator: Adobe Illustrator 19.0.0, SVG Export Plug-In . SVG Version: 6.00 Build 0)  -->
<svg version="1.1" id="Capa_1" xmlns="http://www.w3.org/2000/svg" xmlns:xlink="http://www.w3.org/1999/xlink" x="0px" y="0px"
	 viewBox="0 0 512 512" style="enable-background:new 0 0 512 512;" xml:space="preserve">
<rect x="218.5" y="165" style="fill:#0080CE;" width="75" height="347"/>
<rect x="256" y="165" style="fill:#0051C8;" width="37.5" height="347"/>
<path style="fill:#FFA720;" d="M329.51,89.66l-15.23,57.29c-4.41,16.61-19.5,28.21-36.68,28.21h-43.2
	c-17.18,0-32.27-11.6-36.68-28.21l-15.23-57.29C182.49,89.66,329.51,89.66,329.51,89.66z"/>
<path style="fill:#FF8600;" d="M256,89.66h73.51l-15.23,57.29c-4.41,16.61-19.5,28.21-36.68,28.21H256V89.66z"/>
<rect x="110" style="fill:#0080CE;" width="292" height="127"/>
<rect x="140" y="48.5" style="fill:#C7E5F6;" width="232" height="30"/>
<rect x="256" style="fill:#0051C8;" width="146" height="127"/>
<rect x="256" y="48.5" style="fill:#B5DDF5;" width="116" height="30"/>
<g>
</g>
<g>
</g>
<g>
</g>
<g>
</g>
<g>
</g>
<g>
</g>
<g>
</g>
<g>
</g>
<g>
</g>
<g>
</g>
<g>
</g>
<g>
</g>
<g>
</g>
<g>
</g>
<g>
</g>
</svg>
