<?xml version="1.0" encoding="iso-8859-1"?>
<!-- Generator: Adobe Illustrator 19.0.0, SVG Export Plug-In . SVG Version: 6.00 Build 0)  -->
<svg version="1.1" id="Capa_1" xmlns="http://www.w3.org/2000/svg" xmlns:xlink="http://www.w3.org/1999/xlink" x="0px" y="0px"
	 viewBox="0 0 512 512" style="enable-background:new 0 0 512 512;" xml:space="preserve">
<rect x="240.998" y="43.684" style="fill:#DC854D;" width="30.001" height="107.744"/>
<rect x="256.018" y="43.684" style="fill:#D26836;" width="14.981" height="107.744"/>
<path style="fill:#FF4940;" d="M487.548,320.864c-9.02,44.551-29.521,88.893-57.732,124.854
	C396.365,488.349,357.483,512,322.392,512c-6.24,0-12.34-0.75-18.291-2.26c-4.57-0.79-27.051-5.05-48.082-15.661
	c-0.01,0-0.01-0.01-0.02-0.01c-21.041,10.62-43.531,14.88-48.102,15.671c-5.94,1.51-12.06,2.26-18.291,2.26
	c-35.091,0-73.972-23.651-107.424-66.282c-28.211-35.961-48.712-80.303-57.732-124.854c-10.39-51.332-4.7-98.863,16.431-137.455
	c21.411-39.101,50.712-63.502,87.083-72.542c54.322-13.49,107.904,11.85,128.034,23.101c0.01,0,0.01-0.01,0.02-0.01
	c20.141-11.26,73.712-36.581,128.014-23.091c36.371,9.04,65.672,33.441,87.083,72.542C492.248,222,497.938,269.532,487.548,320.864z
	"/>
<path style="fill:#FFA720;" d="M415.845,49.655l-10.61,10.61c-25.941,25.941-51.672,39.041-76.613,39.041
	c-3.27,0-6.52-0.22-9.76-0.67c-38.071-5.3-57.952-40.191-58.782-41.671l-4.08-7.31l4.08-7.31c0.83-1.48,20.711-36.371,58.782-41.671
	c27.961-3.88,57.022,9.03,86.373,38.371L415.845,49.655z"/>
<path style="fill:#FF0C2F;" d="M487.548,320.864c-9.02,44.551-29.521,88.893-57.732,124.854
	C396.365,488.349,357.483,512,322.392,512c-6.24,0-12.34-0.75-18.291-2.26c-4.57-0.79-27.051-5.05-48.082-15.661V133.957
	c20.141-11.26,73.712-36.581,128.014-23.091c36.371,9.04,65.672,33.441,87.083,72.542C492.248,222,497.938,269.532,487.548,320.864z
	"/>
<path style="fill:#FF8600;" d="M415.845,49.655l-10.61,10.61c-25.941,25.941-51.672,39.041-76.613,39.041
	c-3.27,0-6.52-0.22-9.76-0.67c-38.071-5.3-57.952-40.191-58.782-41.671l-4.08-7.31C256,49.655,415.845,49.655,415.845,49.655z"/>
<g>
</g>
<g>
</g>
<g>
</g>
<g>
</g>
<g>
</g>
<g>
</g>
<g>
</g>
<g>
</g>
<g>
</g>
<g>
</g>
<g>
</g>
<g>
</g>
<g>
</g>
<g>
</g>
<g>
</g>
</svg>
