<?xml version="1.0" encoding="iso-8859-1"?>
<!-- Generator: Adobe Illustrator 19.0.0, SVG Export Plug-In . SVG Version: 6.00 Build 0)  -->
<svg version="1.1" id="Capa_1" xmlns="http://www.w3.org/2000/svg" xmlns:xlink="http://www.w3.org/1999/xlink" x="0px" y="0px"
	 viewBox="0 0 512 512" style="enable-background:new 0 0 512 512;" xml:space="preserve">
<g>
	<path style="fill:#0080CE;" d="M182.56,437.67v25.66c0,26.84-21.84,48.67-48.67,48.67c-26.84,0-48.67-21.83-48.67-48.67v-25.66
		H182.56z"/>
	<path style="fill:#0080CE;" d="M426.63,437.67v25.66c0,26.84-21.83,48.67-48.67,48.67c-26.83,0-48.66-21.83-48.66-48.67v-25.66
		H426.63z"/>
</g>
<g>
	<path style="fill:#0051C8;" d="M426.63,437.67v25.66c0,26.84-21.83,48.67-48.67,48.67v-74.33L426.63,437.67L426.63,437.67z"/>
	<path style="fill:#0051C8;" d="M182.56,437.67v25.66c0,26.84-21.84,48.67-48.67,48.67v-74.33L182.56,437.67L182.56,437.67z"/>
</g>
<polygon style="fill:#0080CE;" points="63.276,239.25 0,239.25 0,175.25 30,175.25 30,209.25 63.276,209.25 "/>
<polygon style="fill:#0051C8;" points="512,239.25 448.724,239.25 448.724,209.25 482,209.25 482,175.25 512,175.25 "/>
<path style="fill:#FFA720;" d="M463.72,64.63V448.5H48.28V64.63C48.28,28.99,77.27,0,112.91,0h286.18
	C434.73,0,463.72,28.99,463.72,64.63z"/>
<path style="fill:#FF8600;" d="M463.72,64.63V448.5H256V0h143.09C434.73,0,463.72,28.99,463.72,64.63z"/>
<rect x="109.81" y="360.67" style="fill:#FFE370;" width="56.942" height="30"/>
<rect x="345.25" y="360.67" style="fill:#FFD100;" width="56.942" height="30"/>
<rect x="196" y="360.67" style="fill:#D16429;" width="120" height="30"/>
<rect x="256" y="360.67" style="fill:#B9561B;" width="60" height="30"/>
<path style="fill:#C7E5F6;" d="M404.49,91.61V271H107.51V91.61c0-19.02,15.47-34.5,34.5-34.5h227.98
	C389.02,57.11,404.49,72.59,404.49,91.61z"/>
<path style="fill:#B5DDF5;" d="M404.49,91.61V271H256V57.11h113.99C389.02,57.11,404.49,72.59,404.49,91.61z"/>
<g>
</g>
<g>
</g>
<g>
</g>
<g>
</g>
<g>
</g>
<g>
</g>
<g>
</g>
<g>
</g>
<g>
</g>
<g>
</g>
<g>
</g>
<g>
</g>
<g>
</g>
<g>
</g>
<g>
</g>
</svg>
