<?xml version="1.0" encoding="iso-8859-1"?>
<!-- Generator: Adobe Illustrator 19.0.0, SVG Export Plug-In . SVG Version: 6.00 Build 0)  -->
<svg version="1.1" id="Capa_1" xmlns="http://www.w3.org/2000/svg" xmlns:xlink="http://www.w3.org/1999/xlink" x="0px" y="0px"
	 viewBox="0 0 512 512" style="enable-background:new 0 0 512 512;" xml:space="preserve">
<path style="fill:#FFA720;" d="M80.5,344H61.093c-25.916,0-47,21.084-47,47v121H80.5V344z"/>
<path style="fill:#FF8600;" d="M450.907,344H431v168h66.907V391C497.907,365.084,476.823,344,450.907,344z"/>
<path style="fill:#FFE370;" d="M434.13,127.37V512H77.87V127.37c0-40.46,32.91-73.37,73.37-73.37h209.52
	C401.22,54,434.13,86.91,434.13,127.37z"/>
<path style="fill:#FFD100;" d="M434.13,127.37V512H256V54h104.76C401.22,54,434.13,86.91,434.13,127.37z"/>
<polygon style="fill:#D16429;" points="322,0 322,62 292,62 292,30 220,30 220,62 190,62 190,0 "/>
<polygon style="fill:#B9561B;" points="292,30 256,30 256,0 322,0 322,62 292,62 "/>
<path style="fill:#FFA720;" d="M434.13,127.37v76.26H77.87v-76.26c0-40.46,32.91-73.37,73.37-73.37h209.52
	C401.22,54,434.13,86.91,434.13,127.37z"/>
<path style="fill:#FF8600;" d="M434.13,127.37v76.26H256V54h104.76C401.22,54,434.13,86.91,434.13,127.37z"/>
<path style="fill:#A0D6F3;" d="M377.13,428.36V512H134.87v-83.64c0-43.69,35.54-79.23,79.23-79.23h83.8
	C341.59,349.13,377.13,384.67,377.13,428.36z"/>
<path style="fill:#7FC5EE;" d="M377.13,428.36V512H256V349.13h41.9C341.59,349.13,377.13,384.67,377.13,428.36z"/>
<rect x="218.65" y="181.7" style="fill:#D16429;" width="74.7" height="67.3"/>
<rect x="194.61" y="426.06" style="fill:#EDE4DC;" width="131.11" height="30"/>
<rect x="278.46" y="441.06" style="fill:#FF8600;" width="30" height="41.558"/>
<rect x="256" y="181.7" style="fill:#B9561B;" width="37.35" height="67.3"/>
<rect x="256" y="426.06" style="fill:#DCCABA;" width="69.72" height="30"/>
<g>
</g>
<g>
</g>
<g>
</g>
<g>
</g>
<g>
</g>
<g>
</g>
<g>
</g>
<g>
</g>
<g>
</g>
<g>
</g>
<g>
</g>
<g>
</g>
<g>
</g>
<g>
</g>
<g>
</g>
</svg>
