<?xml version="1.0" encoding="iso-8859-1"?>
<!-- Generator: Adobe Illustrator 19.0.0, SVG Export Plug-In . SVG Version: 6.00 Build 0)  -->
<svg version="1.1" id="Capa_1" xmlns="http://www.w3.org/2000/svg" xmlns:xlink="http://www.w3.org/1999/xlink" x="0px" y="0px"
	 viewBox="0 0 512 512" style="enable-background:new 0 0 512 512;" xml:space="preserve">
<path style="fill:#FF4940;" d="M512,141.645v231.17H0v-104.43c0-1.54,0.26-15.54,9.1-31.82c8-14.73,24.89-34.45,59.91-44.8
	c10.38-3.07,22.55-5.58,35.9-7.81c5.4-0.9,10.99-1.75,16.74-2.57c5.37-0.77,10.88-1.5,16.49-2.23c8.06-1.04,16.32-2.05,24.69-3.08
	c2.09-0.26,4.19-0.52,6.3-0.78c10.06-1.24,20.34-2.52,30.68-3.92c8.01-1.08,16.06-2.23,24.07-3.48c10.15-1.58,20.25-3.32,30.15-5.28
	c7.8-1.54,15.47-3.23,22.94-5.08c7.68-1.9,15.16-3.99,22.35-6.3c2.21-0.7,4.39-1.42,6.55-2.17c5.65-1.96,11.1-4.06,16.32-6.33
	l8.16-3.55l7.03,5.46c0.35,0.28,38.42,29.29,80.17,29.29c40.08,0,67.58-26.8,68.73-27.94l4.39-4.35L512,141.645L512,141.645z"/>
<path style="fill:#FF0C2F;" d="M512,141.645v231.17H299.32v-221.58c2.21-0.7,4.39-1.42,6.55-2.17c5.65-1.96,11.1-4.06,16.32-6.33
	l8.16-3.55l7.03,5.46c0.35,0.28,38.42,29.29,80.17,29.29c40.08,0,67.58-26.8,68.73-27.94l4.39-4.35L512,141.645L512,141.645z"/>
<path style="fill:#EDE4DC;" d="M512,296.815v30H0v-58.43c0-1.54,0.26-15.54,9.1-31.82c8-14.73,24.89-34.45,59.91-44.8
	c10.38-3.07,22.55-5.58,35.9-7.81c5.4-0.9,10.99-1.75,16.74-2.57c5.37-0.77,10.88-1.5,16.49-2.23c2.57,4.1,5.29,8.81,8.01,14.1
	c2.24,4.36,4.48,9.12,6.64,14.28c9.39,22.3,17.44,52.07,18.11,89.28H512z"/>
<g>
	<path style="fill:#49B8EB;" d="M215.98,212.735l-27.94,10.92l-18.91-48.36c10.06-1.24,20.34-2.52,30.68-3.92L215.98,212.735z"/>
	<path style="fill:#49B8EB;" d="M269.81,203.005l-27.94,10.92l-17.99-46.03c10.15-1.58,20.25-3.32,30.15-5.28L269.81,203.005z"/>
</g>
<rect x="299.32" y="296.81" style="fill:#DCCABA;" width="212.68" height="30"/>
<path style="fill:#49B8EB;" d="M321.68,189.495l-22.36,8.74l-5.59,2.19l-16.76-42.89c7.68-1.9,15.16-3.99,22.35-6.3
	c2.21-0.7,4.39-1.42,6.55-2.17L321.68,189.495z"/>
<path style="fill:#00A9E7;" d="M321.68,189.495l-22.36,8.74v-47c2.21-0.7,4.39-1.42,6.55-2.17L321.68,189.495z"/>
<g>
</g>
<g>
</g>
<g>
</g>
<g>
</g>
<g>
</g>
<g>
</g>
<g>
</g>
<g>
</g>
<g>
</g>
<g>
</g>
<g>
</g>
<g>
</g>
<g>
</g>
<g>
</g>
<g>
</g>
</svg>
