<?xml version="1.0" encoding="iso-8859-1"?>
<!-- Generator: Adobe Illustrator 19.0.0, SVG Export Plug-In . SVG Version: 6.00 Build 0)  -->
<svg version="1.1" id="Capa_1" xmlns="http://www.w3.org/2000/svg" xmlns:xlink="http://www.w3.org/1999/xlink" x="0px" y="0px"
	 viewBox="0 0 512 512" style="enable-background:new 0 0 512 512;" xml:space="preserve">
<path style="fill:#49B8EB;" d="M479.151,188.036V512H279.813l-1.29-13.582c-0.04-0.39-3.791-39.555-10.211-81.711
	c-4.461-29.314-8.671-49.967-12.312-64.499c-3.65,14.552-7.861,35.245-12.332,64.629c-6.421,42.146-10.151,81.191-10.191,81.581
	L232.187,512H32.85V188.036l15.942-90.622l5.281-30.004h403.855l5.281,30.004L479.151,188.036z"/>
<rect x="54.057" style="fill:#A0D6F3;" width="403.875" height="97.483"/>
<rect x="256.005" style="fill:#7FC5EE;" width="201.928" height="97.483"/>
<path style="fill:#00A9E7;" d="M479.151,188.036V512H279.813l-1.29-13.582c-0.04-0.39-3.791-39.555-10.211-81.711
	c-4.461-29.314-8.671-49.967-12.312-64.499V67.409h201.928l5.281,30.004L479.151,188.036z"/>
<path style="fill:#0080CE;" d="M479.151,188.036v33.195c-39.055-12.392-69.49-39.605-88.212-78.981
	c-8.321-17.492-12.642-33.865-14.832-44.836H135.894c-2.19,10.971-6.511,27.344-14.832,44.836
	c-18.723,39.375-49.157,66.589-88.212,78.981v-33.195l15.942-90.622l5.281-30.004h403.855l5.281,30.004L479.151,188.036z"/>
<path style="fill:#0051C8;" d="M479.151,188.036v33.195c-39.055-12.392-69.49-39.605-88.212-78.981
	c-8.321-17.492-12.642-33.865-14.832-44.836H256V67.409h201.928l5.281,30.004L479.151,188.036z"/>
<g>
</g>
<g>
</g>
<g>
</g>
<g>
</g>
<g>
</g>
<g>
</g>
<g>
</g>
<g>
</g>
<g>
</g>
<g>
</g>
<g>
</g>
<g>
</g>
<g>
</g>
<g>
</g>
<g>
</g>
</svg>
