<?xml version="1.0" encoding="iso-8859-1"?>
<!-- Generator: Adobe Illustrator 19.0.0, SVG Export Plug-In . SVG Version: 6.00 Build 0)  -->
<svg version="1.1" id="Capa_1" xmlns="http://www.w3.org/2000/svg" xmlns:xlink="http://www.w3.org/1999/xlink" x="0px" y="0px"
	 viewBox="0 0 512 512" style="enable-background:new 0 0 512 512;" xml:space="preserve">
<polygon style="fill:#FFE370;" points="512,207.29 426.617,289.573 405.611,268.048 405.611,468.469 106.439,468.469 
	106.439,267.998 85.383,289.573 0,207.29 106.739,82.424 106.739,82.424 178.205,54.069 192.162,48.531 204.77,43.531 
	307.61,43.531 320.717,48.75 334.775,54.349 405.271,82.414 405.271,82.414 "/>
<polygon style="fill:#FFD100;" points="512,207.29 426.617,289.573 405.611,268.048 405.611,468.469 256,468.469 256,43.531 
	307.61,43.531 320.717,48.75 334.775,54.349 405.271,82.414 405.271,82.414 "/>
<rect x="241.003" y="113.738" style="fill:#0080CE;" width="29.994" height="56.359"/>
<rect x="106.439" y="392.463" style="fill:#49B8EB;" width="299.172" height="29.994"/>
<rect x="256" y="113.738" style="fill:#0051C8;" width="14.997" height="56.359"/>
<rect x="256" y="392.463" style="fill:#00A9E7;" width="149.611" height="29.994"/>
<path style="fill:#FFA720;" d="M334.775,54.349c-1.14,4.239-2.709,9.088-4.879,14.197c-1.21,2.849-2.609,5.789-4.229,8.738
	c-0.87,1.59-1.78,3.139-2.719,4.639c-11.778,18.796-28.794,30.334-49.93,33.963c-4.789,0.81-9.798,1.23-14.997,1.23
	c-0.68,0-1.35-0.01-2.02-0.02c-4.469-0.09-8.788-0.5-12.977-1.22c-21.536-3.649-39.292-15.427-52.01-34.623
	c-0.75-1.11-1.47-2.25-2.17-3.409c-2-3.299-3.729-6.589-5.209-9.788c-2.36-5.049-4.129-9.838-5.429-13.987l13.957-5.539
	l12.608-4.999h102.84l13.107,5.219L334.775,54.349z"/>
<path style="fill:#FF8600;" d="M334.775,54.349c-1.14,4.239-2.709,9.088-4.879,14.197c-1.21,2.849-2.609,5.789-4.229,8.738
	c-0.87,1.59-1.78,3.139-2.719,4.639c-11.778,18.796-28.794,30.334-49.93,33.963c-4.789,0.81-9.798,1.23-14.997,1.23
	c-0.68,0-1.35-0.01-2.02-0.02V43.531h51.61l13.107,5.219L334.775,54.349z"/>
<g>
</g>
<g>
</g>
<g>
</g>
<g>
</g>
<g>
</g>
<g>
</g>
<g>
</g>
<g>
</g>
<g>
</g>
<g>
</g>
<g>
</g>
<g>
</g>
<g>
</g>
<g>
</g>
<g>
</g>
</svg>
