<?xml version="1.0" encoding="iso-8859-1"?>
<!-- Generator: Adobe Illustrator 19.0.0, SVG Export Plug-In . SVG Version: 6.00 Build 0)  -->
<svg version="1.1" id="Capa_1" xmlns="http://www.w3.org/2000/svg" xmlns:xlink="http://www.w3.org/1999/xlink" x="0px" y="0px"
	 viewBox="0 0 512 512" style="enable-background:new 0 0 512 512;" xml:space="preserve">
<path style="fill:#A0D6F3;" d="M273.409,438.83c-1.6,18.817-9.879,36.685-23.417,50.063c-5.829,5.749-12.298,10.429-19.177,14.038
	C219.276,508.97,206.598,512,193.9,512c-12.168,0-24.347-2.79-35.525-8.369c-4.659-2.32-9.129-5.129-13.358-8.429
	c-1.87-1.45-3.699-3-5.469-4.649l-37.225-34.625l-11.858-11.029l-12.058-11.218l-40.434-37.615V89.498h160.148v240.287
	l48.333,42.284c2.67,2.34,5.169,4.839,7.479,7.489c3.45,3.949,6.499,8.219,9.089,12.738c6.509,11.308,10.239,24.167,10.639,37.415
	C273.749,432.761,273.669,435.81,273.409,438.83z"/>
<path style="fill:#7FC5EE;" d="M273.409,438.83c-1.6,18.817-9.879,36.685-23.417,50.063L118.05,363.95V89.498h80.069v240.287
	l48.333,42.284c2.67,2.34,5.169,4.839,7.479,7.489c3.45,3.949,6.499,8.219,9.089,12.738c6.509,11.308,10.239,24.167,10.639,37.415
	C273.749,432.761,273.669,435.81,273.409,438.83z"/>
<rect x="37.971" y="146.62" style="fill:#0080CE;" width="160.148" height="29.996"/>
<g>
	<path style="fill:#FFA720;" d="M104.722,357.121c-9.119-20.067-23.527-34.305-36.755-43.934
		c-5.339-3.879-10.479-7.019-14.998-9.479c-7.039-3.839-12.568-6.059-14.998-6.959v16.218v29.736v53.363l40.434,37.615
		l12.058,11.218l11.858,11.029c2.08-5.229,3.869-10.399,5.379-15.478c1.7-5.669,3.04-11.248,4.049-16.718
		C116.18,399.485,113.841,377.178,104.722,357.121z"/>
	<path style="fill:#FFA720;" d="M273.409,438.83c-1.6,18.817-9.879,36.685-23.417,50.063c-5.829,5.749-12.298,10.429-19.177,14.038
		C219.276,508.97,206.598,512,193.9,512c-12.168,0-24.347-2.79-35.525-8.369c-4.659-2.32-9.129-5.129-13.358-8.429
		c1.23-4.679,2.82-9.929,4.839-15.538c1.71-4.719,3.729-9.689,6.109-14.798c6.139-13.108,14.718-27.066,26.646-39.775
		c0.27-0.29,0.54-0.58,0.82-0.87c13.078-13.688,27.706-23.887,41.214-31.376c4.989-2.77,9.829-5.169,14.378-7.229
		c5.459-2.47,10.509-4.469,14.908-6.059c3.45,3.949,6.499,8.219,9.089,12.738c6.509,11.308,10.239,24.167,10.639,37.415
		C273.749,432.761,273.669,435.81,273.409,438.83z"/>
</g>
<rect x="118.054" y="146.62" style="fill:#0051C8;" width="80.069" height="29.996"/>
<path style="fill:#FF8600;" d="M273.409,438.83c-1.6,18.817-9.879,36.685-23.417,50.063l-67.381-63.801
	c0.27-0.29,0.54-0.58,0.82-0.87c13.078-13.688,27.706-23.887,41.214-31.376c4.989-2.77,9.829-5.169,14.378-7.229
	c5.459-2.47,10.509-4.469,14.908-6.059c3.45,3.949,6.499,8.219,9.089,12.738c6.509,11.308,10.239,24.167,10.639,37.415
	C273.749,432.761,273.669,435.81,273.409,438.83z"/>
<path style="fill:#A0D6F3;" d="M473.743,349.332c-1.6,18.817-9.879,36.685-23.417,50.063c-5.829,5.749-12.298,10.429-19.177,14.038
	c-11.538,6.039-24.217,9.069-36.915,9.069c-12.168,0-24.347-2.79-35.525-8.369c-4.659-2.32-9.129-5.129-13.358-8.429
	c-1.87-1.45-3.699-3-5.469-4.649l-37.225-34.625l-11.858-11.029l-12.058-11.218l-40.434-37.615V0h160.148v240.287l48.333,42.284
	c2.67,2.34,5.169,4.839,7.479,7.489c3.45,3.949,6.499,8.219,9.089,12.738c6.509,11.308,10.239,24.167,10.639,37.415
	C474.083,343.263,474.003,346.313,473.743,349.332z"/>
<path style="fill:#7FC5EE;" d="M473.743,349.332c-1.6,18.817-9.879,36.685-23.417,50.063L318.385,274.452V0h80.069v240.287
	l48.333,42.284c2.67,2.34,5.169,4.839,7.479,7.489c3.45,3.949,6.499,8.219,9.089,12.738c6.509,11.308,10.239,24.167,10.639,37.415
	C474.083,343.263,474.003,346.313,473.743,349.332z"/>
<rect x="238.308" y="57.122" style="fill:#0080CE;" width="160.148" height="29.996"/>
<g>
	<path style="fill:#FFA720;" d="M305.056,267.623c-9.119-20.067-23.527-34.305-36.755-43.934
		c-5.339-3.879-10.479-7.019-14.998-9.479c-7.039-3.839-12.568-6.059-14.998-6.959v16.218v29.736v53.363l40.434,37.615
		l12.058,11.218l11.858,11.029c2.08-5.229,3.869-10.399,5.379-15.478c1.7-5.669,3.04-11.248,4.049-16.718
		C316.515,309.988,314.175,287.681,305.056,267.623z"/>
	<path style="fill:#FFA720;" d="M473.743,349.332c-1.6,18.817-9.879,36.685-23.417,50.063c-5.829,5.749-12.298,10.429-19.177,14.038
		c-11.538,6.039-24.217,9.069-36.915,9.069c-12.168,0-24.347-2.79-35.525-8.369c-4.659-2.32-9.129-5.129-13.358-8.429
		c1.23-4.679,2.82-9.929,4.839-15.538c1.71-4.719,3.729-9.689,6.109-14.798c6.139-13.108,14.718-27.066,26.646-39.775
		c0.27-0.29,0.54-0.58,0.82-0.87c13.078-13.688,27.706-23.887,41.214-31.376c4.989-2.77,9.829-5.169,14.378-7.229
		c5.459-2.47,10.509-4.469,14.908-6.059c3.45,3.949,6.499,8.219,9.089,12.738c6.509,11.308,10.239,24.167,10.639,37.415
		C474.083,343.263,474.003,346.313,473.743,349.332z"/>
</g>
<rect x="318.387" y="57.122" style="fill:#0051C8;" width="80.069" height="29.996"/>
<path style="fill:#FF8600;" d="M473.743,349.332c-1.6,18.817-9.879,36.685-23.417,50.063l-67.381-63.801
	c0.27-0.29,0.54-0.58,0.82-0.87c13.078-13.688,27.706-23.887,41.214-31.376c4.989-2.77,9.829-5.169,14.378-7.229
	c5.459-2.47,10.509-4.469,14.908-6.059c3.45,3.949,6.499,8.219,9.089,12.738c6.509,11.308,10.239,24.167,10.639,37.415
	C474.083,343.263,474.003,346.313,473.743,349.332z"/>
<g>
</g>
<g>
</g>
<g>
</g>
<g>
</g>
<g>
</g>
<g>
</g>
<g>
</g>
<g>
</g>
<g>
</g>
<g>
</g>
<g>
</g>
<g>
</g>
<g>
</g>
<g>
</g>
<g>
</g>
</svg>
