<?xml version="1.0" encoding="iso-8859-1"?>
<!-- Generator: Adobe Illustrator 19.0.0, SVG Export Plug-In . SVG Version: 6.00 Build 0)  -->
<svg version="1.1" id="Capa_1" xmlns="http://www.w3.org/2000/svg" xmlns:xlink="http://www.w3.org/1999/xlink" x="0px" y="0px"
	 viewBox="0 0 512 512" style="enable-background:new 0 0 512 512;" xml:space="preserve">
<rect x="206.58" style="fill:#0080CE;" width="98.83" height="65.006"/>
<rect x="255.995" style="fill:#0051C8;" width="49.415" height="65.006"/>
<path style="fill:#A0D6F3;" d="M359.92,512H152.08l2.56-55.455l1.39-30.003l14.451-312.35c1.39-30.243,26.203-53.935,56.486-53.935
	h58.066c30.283,0,55.095,23.692,56.486,53.935l14.451,312.35l1.39,30.003L359.92,512z"/>
<path style="fill:#7FC5EE;" d="M359.92,512H256V60.256h29.033c30.283,0,55.095,23.692,56.486,53.935l14.451,312.35l1.39,30.003
	L359.92,512z"/>
<polygon style="fill:#EDE4DC;" points="357.36,456.545 154.64,456.545 156.03,426.542 355.97,426.542 "/>
<rect x="207.14" y="204.52" style="fill:#FFE370;" width="97.71" height="125.512"/>
<rect x="255.995" y="204.52" style="fill:#FFD100;" width="48.855" height="125.512"/>
<polygon style="fill:#DCCABA;" points="357.36,456.545 256,456.545 256,426.542 355.97,426.542 "/>
<g>
</g>
<g>
</g>
<g>
</g>
<g>
</g>
<g>
</g>
<g>
</g>
<g>
</g>
<g>
</g>
<g>
</g>
<g>
</g>
<g>
</g>
<g>
</g>
<g>
</g>
<g>
</g>
<g>
</g>
</svg>
