<?xml version="1.0" encoding="iso-8859-1"?>
<!-- Generator: Adobe Illustrator 19.0.0, SVG Export Plug-In . SVG Version: 6.00 Build 0)  -->
<svg version="1.1" id="Capa_1" xmlns="http://www.w3.org/2000/svg" xmlns:xlink="http://www.w3.org/1999/xlink" x="0px" y="0px"
	 viewBox="0 0 512 512" style="enable-background:new 0 0 512 512;" xml:space="preserve">
<rect x="417.66" y="279.38" style="fill:#B9561B;" width="43.839" height="66.47"/>
<path style="fill:#DCCABA;" d="M363.9,68.25c0,14.99-7.35,29.27-20.86,40.85v84.74H167.8V109.1
	c-13.51-11.58-20.85-25.86-20.85-40.85c0-18.22,10.69-35.17,30.12-47.75l0.61-0.4l16.78-8.68l0.6-0.24
	C212.84,3.86,233.71,0,255.42,0c0.45,0,0.89,0,1.34,0.01c27.04,0.19,52.62,6.41,72.18,17.55C351.48,30.4,363.9,48.4,363.9,68.25z"/>
<path style="fill:#C5AA8F;" d="M343.04,193.84h-86.28V0.01c27.04,0.19,52.62,6.41,72.18,17.55C351.48,30.4,363.9,48.4,363.9,68.25
	c0,14.99-7.35,29.27-20.86,40.85L343.04,193.84L343.04,193.84z"/>
<path style="fill:#FFA720;" d="M432.66,246.16v206.82H79.35V246.16c0-39.63,32.23-71.86,71.86-71.86h209.58
	C400.42,174.3,432.66,206.53,432.66,246.16z"/>
<g>
	<rect x="126.09" y="249.33" style="fill:#FFE370;" width="30" height="30"/>
	<rect x="126.09" y="297" style="fill:#FFE370;" width="30" height="30"/>
	<rect x="126.09" y="344.67" style="fill:#FFE370;" width="30" height="30"/>
</g>
<path style="fill:#FF8600;" d="M432.66,246.16v206.82h-175.9V174.3h104.03C400.42,174.3,432.66,206.53,432.66,246.16z"/>
<rect x="49.91" y="422.98" style="fill:#0080CE;" width="412.18" height="89.02"/>
<rect x="256.76" y="422.98" style="fill:#0051C8;" width="205.33" height="89.02"/>
<g>
</g>
<g>
</g>
<g>
</g>
<g>
</g>
<g>
</g>
<g>
</g>
<g>
</g>
<g>
</g>
<g>
</g>
<g>
</g>
<g>
</g>
<g>
</g>
<g>
</g>
<g>
</g>
<g>
</g>
</svg>
