<?xml version="1.0" encoding="iso-8859-1"?>
<!-- Generator: Adobe Illustrator 19.0.0, SVG Export Plug-In . SVG Version: 6.00 Build 0)  -->
<svg version="1.1" id="Capa_1" xmlns="http://www.w3.org/2000/svg" xmlns:xlink="http://www.w3.org/1999/xlink" x="0px" y="0px"
	 viewBox="0 0 512 512" style="enable-background:new 0 0 512 512;" xml:space="preserve">
<path style="fill:#B5DDF5;" d="M0.599,424.542V0h376.696v235.595h134.106v188.947c0,41.191-28.617,75.797-67.006,85.036
	c-6.559,1.592-13.417,2.422-20.453,2.422H88.071C39.844,512,0.599,472.755,0.599,424.542z"/>
<path style="fill:#7FC5EE;" d="M511.401,424.543V235.596H377.39v188.947c0,10.016,1.687,19.636,4.817,28.604
	c9.675,27.924,33.122,49.451,62.202,56.432c29.039-6.981,52.5-28.509,62.175-56.432
	C509.714,444.179,511.401,434.558,511.401,424.543z"/>
<path style="fill:#C7E5F6;" d="M0.599,424.542V0h188.266v512H88.071C39.844,512,0.599,472.755,0.599,424.542z"/>
<rect x="41.55" y="57.757" style="fill:#FFA720;" width="128.85" height="115.18"/>
<g>
	<rect x="41.36" y="309.46" style="fill:#0080CE;" width="106.87" height="29.964"/>
	<rect x="41.36" y="364.39" style="fill:#0080CE;" width="106.87" height="29.964"/>
	<rect x="41.36" y="419.33" style="fill:#0080CE;" width="106.87" height="29.964"/>
</g>
<g>
	<rect x="229.05" y="309.46" style="fill:#0051C8;" width="106.87" height="29.964"/>
	<rect x="229.05" y="364.39" style="fill:#0051C8;" width="106.87" height="29.964"/>
	<rect x="229.05" y="419.33" style="fill:#0051C8;" width="106.87" height="29.964"/>
</g>
<g>
	<rect x="41.36" y="199.59" style="fill:#49B8EB;" width="294.57" height="29.964"/>
	<rect x="41.36" y="255.19" style="fill:#49B8EB;" width="294.57" height="29.964"/>
	<rect x="173.39" y="309.52" style="fill:#49B8EB;" width="29.964" height="148.41"/>
</g>
<g>
	<rect x="205.35" y="142.97" style="fill:#00A9E7;" width="130.57" height="29.964"/>
	<rect x="188.86" y="309.52" style="fill:#00A9E7;" width="14.493" height="148.41"/>
	<rect x="188.86" y="199.59" style="fill:#00A9E7;" width="147.06" height="29.964"/>
	<rect x="188.86" y="255.19" style="fill:#00A9E7;" width="147.06" height="29.964"/>
</g>
<g>
</g>
<g>
</g>
<g>
</g>
<g>
</g>
<g>
</g>
<g>
</g>
<g>
</g>
<g>
</g>
<g>
</g>
<g>
</g>
<g>
</g>
<g>
</g>
<g>
</g>
<g>
</g>
<g>
</g>
</svg>
