<?xml version="1.0" encoding="iso-8859-1"?>
<!-- Generator: Adobe Illustrator 19.0.0, SVG Export Plug-In . SVG Version: 6.00 Build 0)  -->
<svg version="1.1" id="Capa_1" xmlns="http://www.w3.org/2000/svg" xmlns:xlink="http://www.w3.org/1999/xlink" x="0px" y="0px"
	 viewBox="0 0 512 512" style="enable-background:new 0 0 512 512;" xml:space="preserve">
<polygon style="fill:#EDE4DC;" points="329.88,512 182.12,512 208.88,401.61 223.46,405.15 288.54,405.15 303.12,401.61 "/>
<polygon style="fill:#DCCABA;" points="303.12,401.61 329.88,512 256,512 256,405.15 288.54,405.15 "/>
<rect x="162.23" y="482" style="fill:#A0D6F3;" width="187.54" height="30"/>
<path style="fill:#0080CE;" d="M417.26,0v223.19c0,25.23-20.52,45.75-45.74,45.75H360.5v-15H144.67v15h-4.19
	c-25.22,0-45.74-20.52-45.74-45.75V0H417.26z"/>
<path style="fill:#A0D6F3;" d="M377.48,291.5v15c0,64.77-52.7,117.46-117.47,117.46h-8.02c-64.77,0-117.47-52.69-117.47-117.46v-15
	H377.48z"/>
<path style="fill:#0051C8;" d="M417.26,0v223.19c0,25.23-20.52,45.75-45.74,45.75H360.5v-15H256V0H417.26z"/>
<g>
	<rect x="256" y="482" style="fill:#7FC5EE;" width="93.77" height="30"/>
	<path style="fill:#7FC5EE;" d="M377.48,291.5v15c0,64.77-52.7,117.46-117.47,117.46H256V291.5H377.48z"/>
</g>
<path style="fill:#EDE4DC;" d="M365.24,181.15c0,29.18-7.27,56.98-21.04,80.39l-4.35,7.4h-167.7l-4.35-7.4
	c-13.77-23.41-21.04-51.21-21.04-80.39c0-35.63,10.93-69.28,30.77-94.75c20.7-26.57,48.57-41.21,78.47-41.21
	s57.77,14.64,78.47,41.21C354.31,111.87,365.24,145.52,365.24,181.15z"/>
<path style="fill:#DCCABA;" d="M339.85,268.94H256V45.19c29.9,0,57.77,14.64,78.47,41.21c19.84,25.47,30.77,59.12,30.77,94.75
	c0,29.18-7.27,56.98-21.04,80.39L339.85,268.94z"/>
<rect x="119.4" y="253.94" style="fill:#C7E5F6;" width="273.2" height="67.56"/>
<rect x="256" y="253.94" style="fill:#B5DDF5;" width="136.6" height="67.56"/>
<g>
</g>
<g>
</g>
<g>
</g>
<g>
</g>
<g>
</g>
<g>
</g>
<g>
</g>
<g>
</g>
<g>
</g>
<g>
</g>
<g>
</g>
<g>
</g>
<g>
</g>
<g>
</g>
<g>
</g>
</svg>
