<?xml version="1.0" encoding="iso-8859-1"?>
<!-- Generator: Adobe Illustrator 19.0.0, SVG Export Plug-In . SVG Version: 6.00 Build 0)  -->
<svg version="1.1" id="Capa_1" xmlns="http://www.w3.org/2000/svg" xmlns:xlink="http://www.w3.org/1999/xlink" x="0px" y="0px"
	 viewBox="0 0 512 512" style="enable-background:new 0 0 512 512;" xml:space="preserve">
<g>
	<rect x="115.67" y="150.5" style="fill:#C5C3CA;" width="30" height="135"/>
	<rect x="178.33" y="150.5" style="fill:#C5C3CA;" width="30" height="135"/>
	<rect x="241" y="150.5" style="fill:#C5C3CA;" width="30" height="135"/>
</g>
<g>
	<rect x="303.67" y="150.5" style="fill:#ABAAB0;" width="30" height="135"/>
	<rect x="366.33" y="150.5" style="fill:#ABAAB0;" width="30" height="135"/>
	<rect x="256" y="150.5" style="fill:#ABAAB0;" width="15" height="135"/>
</g>
<path style="fill:#FFA720;" d="M512,150.5v161c0,27.57-22.43,50-50,50H50c-27.57,0-50-22.43-50-50v-161h85v125h342v-125H512z"/>
<path style="fill:#FF8600;" d="M512,150.5v161c0,27.57-22.43,50-50,50H256v-86h171v-125H512z"/>
<g>
</g>
<g>
</g>
<g>
</g>
<g>
</g>
<g>
</g>
<g>
</g>
<g>
</g>
<g>
</g>
<g>
</g>
<g>
</g>
<g>
</g>
<g>
</g>
<g>
</g>
<g>
</g>
<g>
</g>
</svg>
