<?xml version="1.0" encoding="iso-8859-1"?>
<!-- Generator: Adobe Illustrator 19.0.0, SVG Export Plug-In . SVG Version: 6.00 Build 0)  -->
<svg version="1.1" id="Capa_1" xmlns="http://www.w3.org/2000/svg" xmlns:xlink="http://www.w3.org/1999/xlink" x="0px" y="0px"
	 viewBox="0 0 512 512" style="enable-background:new 0 0 512 512;" xml:space="preserve">
<path style="fill:#EDE4DC;" d="M110.946,0v296.027H80.949V257.44H25.773V70.175c0-28.898,17.569-53.776,42.587-64.525
	C76.829,2.02,86.158,0,95.947,0H110.946z"/>
<path style="fill:#DCCABA;" d="M110.946,0v296.027H80.949V257.44H68.36V5.65C76.829,2.02,86.158,0,95.947,0H110.946z"/>
<g>
	<path style="fill:#EDE4DC;" d="M299.812,99.872c0,25.778-7.359,50.196-20.708,68.755c-10.959,15.229-24.938,25.248-40.337,29.198
		v90.373h-29.998v-90.373c-15.409-3.95-29.388-13.969-40.347-29.198c-13.349-18.559-20.698-42.977-20.698-68.755
		s7.349-50.186,20.698-68.745C182.851,11.079,202.499,0.04,223.768,0.04c21.258,0,40.907,11.039,55.336,31.088
		C292.452,49.686,299.812,74.094,299.812,99.872z"/>
	<path style="fill:#EDE4DC;" d="M486.227,0.04v128.13c0,35.887-26.558,65.675-61.045,70.764v89.263h-29.998v-89.263
		c-34.487-5.09-61.045-34.877-61.045-70.764V0.04h31.458v100.992h29.998V0.04h29.328v100.992h29.998V0.04
		C454.919,0.04,486.227,0.04,486.227,0.04z"/>
</g>
<path style="fill:#DCCABA;" d="M486.227,0.04v128.13c0,35.887-26.558,65.675-61.045,70.764v89.263h-14.999V0.04h14.739v100.992
	h29.998V0.04C454.919,0.04,486.227,0.04,486.227,0.04z"/>
<g>
	<path style="fill:#FFA720;" d="M110.946,281.028v188.385c0,23.478-19.099,42.587-42.587,42.587
		c-23.478,0-42.587-19.108-42.587-42.587V281.028H110.946z"/>
	<path style="fill:#FFA720;" d="M452.77,281.028v188.385c0,23.478-19.108,42.587-42.587,42.587s-42.587-19.108-42.587-42.587
		V281.028H452.77z"/>
</g>
<path style="fill:#FF8600;" d="M452.77,281.028v188.385c0,23.478-19.108,42.587-42.587,42.587V281.028H452.77z"/>
<path style="fill:#DCCABA;" d="M299.812,99.872c0,25.778-7.359,50.196-20.708,68.755c-10.959,15.229-24.938,25.248-40.337,29.198
	v90.373h-14.999V0.04c21.258,0,40.907,11.039,55.336,31.088C292.452,49.686,299.812,74.094,299.812,99.872z"/>
<path style="fill:#FFA720;" d="M266.354,281.028v188.385c0,23.478-19.109,42.587-42.587,42.587
	c-23.488,0-42.587-19.108-42.587-42.587V281.028H266.354z"/>
<g>
	<path style="fill:#FF8600;" d="M266.354,281.028v188.385c0,23.478-19.109,42.587-42.587,42.587V281.028H266.354z"/>
	<path style="fill:#FF8600;" d="M110.946,281.028v188.385c0,23.478-19.099,42.587-42.587,42.587V281.028H110.946z"/>
</g>
<g>
</g>
<g>
</g>
<g>
</g>
<g>
</g>
<g>
</g>
<g>
</g>
<g>
</g>
<g>
</g>
<g>
</g>
<g>
</g>
<g>
</g>
<g>
</g>
<g>
</g>
<g>
</g>
<g>
</g>
</svg>
