<?xml version="1.0" encoding="iso-8859-1"?>
<!-- Generator: Adobe Illustrator 19.0.0, SVG Export Plug-In . SVG Version: 6.00 Build 0)  -->
<svg version="1.1" id="Capa_1" xmlns="http://www.w3.org/2000/svg" xmlns:xlink="http://www.w3.org/1999/xlink" x="0px" y="0px"
	 viewBox="0 0 512.001 512.001" style="enable-background:new 0 0 512.001 512.001;" xml:space="preserve">
<rect x="211.5" style="fill:#C5C3CA;" width="89" height="74"/>
<rect x="256" style="fill:#ABAAB0;" width="44.5" height="74"/>
<path style="fill:#C7E5F6;" d="M391,194v20H121v-20c0-74.44,60.56-135,135-135S391,119.56,391,194z"/>
<rect x="98" y="184" style="fill:#0080CE;" width="316" height="87"/>
<g>
	<rect x="130.22" y="293" style="fill:#A0D6F3;" width="30" height="40.731"/>
	<rect x="130.22" y="352.42" style="fill:#A0D6F3;" width="30" height="40.73"/>
	<rect x="130.22" y="411.85" style="fill:#A0D6F3;" width="30" height="40.73"/>
	<rect x="130.22" y="471.27" style="fill:#A0D6F3;" width="30" height="40.731"/>
	<rect x="185.61" y="293" style="fill:#A0D6F3;" width="30" height="40.731"/>
	<rect x="185.61" y="352.42" style="fill:#A0D6F3;" width="30" height="40.73"/>
	<rect x="185.61" y="411.85" style="fill:#A0D6F3;" width="30" height="40.73"/>
	<rect x="185.61" y="471.27" style="fill:#A0D6F3;" width="30" height="40.731"/>
	<rect x="241" y="293" style="fill:#A0D6F3;" width="30" height="40.73"/>
	<rect x="241" y="352.42" style="fill:#A0D6F3;" width="30" height="40.73"/>
	<rect x="241" y="411.85" style="fill:#A0D6F3;" width="30" height="40.73"/>
	<rect x="241" y="471.27" style="fill:#A0D6F3;" width="30" height="40.73"/>
	<rect x="296.391" y="293" style="fill:#A0D6F3;" width="30" height="40.73"/>
	<rect x="296.391" y="352.42" style="fill:#A0D6F3;" width="30" height="40.73"/>
	<rect x="296.391" y="411.85" style="fill:#A0D6F3;" width="30" height="40.73"/>
	<rect x="296.391" y="471.27" style="fill:#A0D6F3;" width="30" height="40.73"/>
	<rect x="351.79" y="293" style="fill:#A0D6F3;" width="30" height="40.73"/>
	<rect x="351.79" y="352.42" style="fill:#A0D6F3;" width="30" height="40.73"/>
	<rect x="351.79" y="411.85" style="fill:#A0D6F3;" width="30" height="40.73"/>
	<rect x="351.79" y="471.27" style="fill:#A0D6F3;" width="30" height="40.73"/>
</g>
<path style="fill:#B5DDF5;" d="M391,194v20H256V59C330.44,59,391,119.56,391,194z"/>
<g>
	<rect x="256" y="293" style="fill:#7FC5EE;" width="15" height="40.73"/>
	<rect x="256" y="352.42" style="fill:#7FC5EE;" width="15" height="40.73"/>
	<rect x="256" y="411.85" style="fill:#7FC5EE;" width="15" height="40.73"/>
	<rect x="256" y="471.27" style="fill:#7FC5EE;" width="15" height="40.73"/>
	<rect x="296.391" y="293" style="fill:#7FC5EE;" width="30" height="40.73"/>
	<rect x="296.391" y="352.42" style="fill:#7FC5EE;" width="30" height="40.73"/>
	<rect x="296.391" y="411.85" style="fill:#7FC5EE;" width="30" height="40.73"/>
	<rect x="296.391" y="471.27" style="fill:#7FC5EE;" width="30" height="40.73"/>
	<rect x="351.79" y="293" style="fill:#7FC5EE;" width="30" height="40.73"/>
	<rect x="351.79" y="352.42" style="fill:#7FC5EE;" width="30" height="40.73"/>
	<rect x="351.79" y="411.85" style="fill:#7FC5EE;" width="30" height="40.73"/>
	<rect x="351.79" y="471.27" style="fill:#7FC5EE;" width="30" height="40.73"/>
</g>
<rect x="256" y="184" style="fill:#0051C8;" width="158" height="87"/>
<g>
</g>
<g>
</g>
<g>
</g>
<g>
</g>
<g>
</g>
<g>
</g>
<g>
</g>
<g>
</g>
<g>
</g>
<g>
</g>
<g>
</g>
<g>
</g>
<g>
</g>
<g>
</g>
<g>
</g>
</svg>
