<?xml version="1.0" encoding="iso-8859-1"?>
<!-- Generator: Adobe Illustrator 19.0.0, SVG Export Plug-In . SVG Version: 6.00 Build 0)  -->
<svg version="1.1" id="Capa_1" xmlns="http://www.w3.org/2000/svg" xmlns:xlink="http://www.w3.org/1999/xlink" x="0px" y="0px"
	 viewBox="0 0 512 512" style="enable-background:new 0 0 512 512;" xml:space="preserve">
<polygon style="fill:#0080CE;" points="188.483,447.8 188.483,447.8 175.786,439.813 174.258,442.242 129.98,424.941 
	117.219,417.058 58.569,512 165.819,512 201.181,455.787 "/>
<polygon style="fill:#0051C8;" points="394.781,417.058 382.02,424.941 337.742,442.242 336.214,439.813 323.517,447.8 
	323.517,447.8 323.517,447.8 310.819,455.787 346.181,512 453.431,512 "/>
<path style="fill:#0080CE;" d="M108.54,0C48.856,0,0.301,48.556,0.301,108.239c0,37.961,20.288,73.619,52.946,93.058l7.672-12.89
	L189.915,62.698l0,0l13.084-7.335C183.852,21.214,147.658,0,108.54,0z"/>
<path style="fill:#0051C8;" d="M403.46,0c-39.118,0-75.313,21.214-94.458,55.363l13.084,7.335l0,0l128.995,125.709l7.672,12.89
	c32.658-19.439,52.946-55.097,52.946-93.058C511.699,48.556,463.144,0,403.46,0z"/>
<path style="fill:#A0D6F3;" d="M476.91,258.2c0,59.01-22.98,114.48-64.7,156.2c-41.73,41.73-97.2,64.71-156.21,64.71
	S141.52,456.13,99.79,414.4c-41.72-41.72-64.7-97.19-64.7-156.2s22.98-114.48,64.7-156.21c41.73-41.72,97.2-64.7,156.21-64.7
	s114.48,22.98,156.21,64.7C453.93,143.72,476.91,199.19,476.91,258.2z"/>
<path style="fill:#7FC5EE;" d="M476.91,258.2c0,59.01-22.98,114.48-64.7,156.2c-41.73,41.73-97.2,64.71-156.21,64.71V37.29
	c59.01,0,114.48,22.98,156.21,64.7C453.93,143.72,476.91,199.19,476.91,258.2z"/>
<path style="fill:#FFE370;" d="M423.61,258.28c0,92.42-75.19,167.61-167.61,167.61S88.39,350.7,88.39,258.28S163.58,90.67,256,90.67
	S423.61,165.86,423.61,258.28z"/>
<path style="fill:#FFD100;" d="M423.61,258.28c0,92.42-75.19,167.61-167.61,167.61V90.67C348.42,90.67,423.61,165.86,423.61,258.28z
	"/>
<polygon style="fill:#FFA720;" points="307.81,243.28 307.81,273.28 241.01,273.28 241.01,135.2 271.01,135.2 271.01,243.28 "/>
<polygon style="fill:#FF8600;" points="307.81,243.28 307.81,273.28 256,273.28 256,135.2 271.01,135.2 271.01,243.28 "/>
<g>
</g>
<g>
</g>
<g>
</g>
<g>
</g>
<g>
</g>
<g>
</g>
<g>
</g>
<g>
</g>
<g>
</g>
<g>
</g>
<g>
</g>
<g>
</g>
<g>
</g>
<g>
</g>
<g>
</g>
</svg>
