<?xml version="1.0" encoding="iso-8859-1"?>
<!-- Generator: Adobe Illustrator 19.0.0, SVG Export Plug-In . SVG Version: 6.00 Build 0)  -->
<svg version="1.1" id="Capa_1" xmlns="http://www.w3.org/2000/svg" xmlns:xlink="http://www.w3.org/1999/xlink" x="0px" y="0px"
	 viewBox="0 0 511.999 511.999" style="enable-background:new 0 0 511.999 511.999;" xml:space="preserve">
<path style="fill:#DCCABA;" d="M268.519,17.87h-0.01c0.01-0.01,0.01-0.02,0.02-0.03L268.519,17.87z"/>
<path style="fill:#FFA720;" d="M268.519,17.87h-0.01c0.01-0.01,0.01-0.02,0.02-0.03L268.519,17.87z"/>
<path style="fill:#FF8600;" d="M404.314,376.494c-7.343,0-14.67-0.981-21.778-2.915l7.897-29.022
	c4.535,1.234,9.205,1.86,13.881,1.86c29.066,0,52.714-23.647,52.714-52.714s-23.648-52.714-52.714-52.714
	c-4.676,0-9.345,0.626-13.879,1.86l-7.901-29.021c7.108-1.935,14.436-2.916,21.78-2.916c45.652,0,82.792,37.14,82.792,82.792
	S449.966,376.494,404.314,376.494z"/>
<path style="fill:#EDE4DC;" d="M407.99,172.535v137.174c0,78.773-64.095,142.858-142.868,142.858H217.68
	c-78.773,0-142.858-64.085-142.858-142.858V172.535H407.99z"/>
<path style="fill:#DCCABA;" d="M407.99,172.535v137.174c0,78.773-64.095,142.858-142.868,142.858h-21.435V172.535H407.99z"/>
<path style="fill:#FFA720;" d="M457.919,422.489v42.389c0,25.987-21.144,47.121-47.121,47.121H72.014
	c-25.987,0-47.121-21.135-47.121-47.121v-42.389H457.919z"/>
<g>
	<path style="fill:#DCCABA;" d="M190.164,134.226l-25.185-16.443l-0.063,0.097c0.567-0.899,13.73-22.267,0.157-42.549
		c-24.787-37.04-1.069-73.783-0.047-75.329l25.092,16.585l0.066-0.1c-0.563,0.884-13.648,21.891-0.114,42.116
		C214.824,95.594,191.183,132.666,190.164,134.226z"/>
	<path style="fill:#DCCABA;" d="M256.279,134.226l-25.185-16.442c1.113-1.815,13.344-22.648,0.1-42.45
		C206.4,38.289,230.121,1.554,231.144,0l12.542,8.291l12.542,8.301c-1.143,1.855-13.234,22.297-0.04,42.008
		C280.943,95.596,257.302,132.662,256.279,134.226z"/>
</g>
<path style="fill:#C5AA8F;" d="M322.398,134.226l-25.186-16.443l-0.063,0.098c0.567-0.9,13.73-22.268,0.158-42.55
	c-24.789-37.04-1.07-73.783-0.048-75.329l25.092,16.585l0.066-0.1c-0.564,0.884-13.648,21.891-0.114,42.116
	C347.057,95.594,323.417,132.666,322.398,134.226z"/>
<rect x="165.719" y="172.53" style="fill:#DCCABA;" width="30.08" height="77.48"/>
<rect x="135.039" y="234.97" style="fill:#FFD100;" width="91.44" height="108.86"/>
<path style="fill:#FF8600;" d="M457.919,422.489v42.389c0,25.987-21.144,47.121-47.121,47.121H243.687v-89.511L457.919,422.489
	L457.919,422.489z"/>
<path style="fill:#C5AA8F;" d="M256.279,134.226l-12.592-8.221V8.291l12.542,8.301c-1.143,1.855-13.234,22.297-0.04,42.008
	C280.943,95.596,257.302,132.662,256.279,134.226z"/>
<g>
</g>
<g>
</g>
<g>
</g>
<g>
</g>
<g>
</g>
<g>
</g>
<g>
</g>
<g>
</g>
<g>
</g>
<g>
</g>
<g>
</g>
<g>
</g>
<g>
</g>
<g>
</g>
<g>
</g>
</svg>
