<?xml version="1.0" encoding="iso-8859-1"?>
<!-- Generator: Adobe Illustrator 19.0.0, SVG Export Plug-In . SVG Version: 6.00 Build 0)  -->
<svg version="1.1" id="Capa_1" xmlns="http://www.w3.org/2000/svg" xmlns:xlink="http://www.w3.org/1999/xlink" x="0px" y="0px"
	 viewBox="0 0 512 512" style="enable-background:new 0 0 512 512;" xml:space="preserve">
<rect x="211.587" y="202.045" style="fill:#C7E5F6;" width="267.478" height="145.715"/>
<rect x="347.212" y="202.045" style="fill:#B5DDF5;" width="131.852" height="145.715"/>
<g>
	<rect x="260.272" y="197.325" style="fill:#A0D6F3;" width="29.942" height="130.425"/>
	<rect x="332.241" y="197.325" style="fill:#A0D6F3;" width="29.942" height="130.415"/>
</g>
<rect x="404.211" y="197.325" style="fill:#81C7FF;" width="29.942" height="130.415"/>
<path style="fill:#0080CE;" d="M511.002,327.74v25.161c0,34.044-27.686,61.729-61.729,61.729H0v-86.89H511.002z"/>
<path style="fill:#0051C8;" d="M511.002,327.74v25.161c0,34.044-27.686,61.729-61.729,61.729H347.212v-86.89H511.002z"/>
<g>
	<rect x="347.212" y="197.325" style="fill:#7FC5EE;" width="14.971" height="130.415"/>
	<rect x="404.211" y="197.325" style="fill:#7FC5EE;" width="29.942" height="130.415"/>
</g>
<path style="fill:#FF4940;" d="M512,97.37v28.824c0,41.828-34.024,75.852-75.852,75.852H187.634v-28.824
	c0-41.828,34.024-75.852,75.852-75.852H512z"/>
<path style="fill:#FF0C2F;" d="M512,97.37v28.824c0,41.828-34.024,75.852-75.852,75.852h-88.936V97.37H512z"/>
<g>
</g>
<g>
</g>
<g>
</g>
<g>
</g>
<g>
</g>
<g>
</g>
<g>
</g>
<g>
</g>
<g>
</g>
<g>
</g>
<g>
</g>
<g>
</g>
<g>
</g>
<g>
</g>
<g>
</g>
</svg>
