<?xml version="1.0" encoding="iso-8859-1"?>
<!-- Generator: Adobe Illustrator 22.1.0, SVG Export Plug-In . SVG Version: 6.00 Build 0)  -->
<svg xmlns="http://www.w3.org/2000/svg" xmlns:xlink="http://www.w3.org/1999/xlink" version="1.1" id="Layer_3" x="0px" y="0px" viewBox="0 0 64 64" style="enable-background:new 0 0 64 64;" xml:space="preserve" width="512" height="512">
<g>
	<g>
		<polygon style="fill:#603813;" points="44,52 35,43 35,50 44.659,59.659   "/>
	</g>
	<g>
		<polygon style="fill:#603813;" points="44,52 35,43 35,50 44.659,59.659   "/>
	</g>
	<g>
		<polygon style="fill:#754C24;" points="42,53 35,46 35,50 42.377,57.377   "/>
	</g>
	<g>
		<path style="fill:#754C24;" d="M43,38H9c-1.105,0-2-0.895-2-2V4c0-1.105,0.895-2,2-2h46c1.105,0,2,0.895,2,2v32    c0,1.105-0.895,2-2,2h-4H43z"/>
	</g>
	<g>
		<path style="fill:#8C6239;" d="M53,36V4c0-1.105-0.895-2-2-2H9C7.895,2,7,2.895,7,4v32c0,1.105,0.895,2,2,2h30h4h4h4    C52.105,38,53,37.105,53,36z"/>
	</g>
	<g>
		<rect x="11" y="6" style="fill:#2C8838;" width="42" height="28"/>
	</g>
	<g>
		<rect x="11" y="6" style="fill:#39B54A;" width="38" height="28"/>
	</g>
	<g>
		<path style="fill:#FABE78;" d="M50,36l1.586-1.586C52.491,33.509,53,32.281,53,31v0c0-1.281-0.509-2.509-1.414-3.414l-2.172-2.172    C48.509,24.509,48,23.281,48,22v-5l-5.021,5.738C41.703,24.196,41,26.068,41,28.006v0.799c0,2.686,1.067,5.262,2.966,7.161L50,36z    "/>
	</g>
	<g>
		<path style="fill:#FCD4A5;" d="M49.586,27.586l-2.172-2.172C46.509,24.509,46,23.281,46,22v-2.714l-3.021,3.452    C41.703,24.196,41,26.068,41,28.006v0.799c0,2.686,1.067,5.262,2.966,7.161l4.045,0.023l1.575-1.575    C50.491,33.509,51,32.281,51,31S50.491,28.491,49.586,27.586z"/>
	</g>
	<g>
		<polygon style="fill:#999999;" points="52,40 50,36 44,36 42,40   "/>
	</g>
	<g>
		<polygon style="fill:#B3B3B3;" points="44,36 42,40 50,40 48,36   "/>
	</g>
	<g>
		<polygon style="fill:#BF9C67;" points="50,63 52,40 42,40 44,63   "/>
	</g>
	<g>
		<polygon style="fill:#FDD089;" points="42,40 44,63 48,63 50,40   "/>
	</g>
	<g>
		<polygon style="fill:#603813;" points="30,49 17,62 10,62 30,42   "/>
	</g>
	<g>
		<polygon style="fill:#754C24;" points="28,44 10,62 15,62 28,49   "/>
	</g>
	<g>
		<rect x="30" y="38" style="fill:#603813;" width="4" height="24"/>
	</g>
	<g>
		<rect x="30" y="38" style="fill:#754C24;" width="2" height="24"/>
	</g>
	<g>
		<path style="fill:#B3B3B3;" d="M35,6v15c0,1.105-0.895,2-2,2h0c-1.105,0-2-0.895-2-2v-2c0-1.105-0.895-2-2-2h0    c-1.105,0-2,0.895-2,2v4c0,1.105-0.895,2-2,2h0c-1.105,0-2-0.895-2-2v-6c0-1.105-0.895-2-2-2h0c-1.105,0-2,0.895-2,2v2    c0,1.105-0.895,2-2,2h0c-1.105,0-2-0.895-2-2V6H35z"/>
	</g>
	<g>
		<path style="fill:#CCCCCC;" d="M15.5,20.31C15.807,19.958,16,19.504,16,19v-2c0-1.105,0.895-2,2-2c0.601,0,1.133,0.27,1.5,0.69    C19.867,15.27,20.399,15,21,15c1.105,0,2,0.895,2,2v6c0,0.504,0.193,0.958,0.5,1.31C23.807,23.958,24,23.504,24,23v-4    c0-1.105,0.895-2,2-2c0.601,0,1.133,0.27,1.5,0.69C27.867,17.27,28.399,17,29,17c1.105,0,2,0.895,2,2v2    c0,0.504,0.193,0.958,0.5,1.31C31.807,21.958,32,21.504,32,21V6H15v13C15,19.504,15.193,19.958,15.5,20.31z"/>
	</g>
	<g>
		<path d="M50.996,63.086l-1.992-0.173l1.976-22.719l-1.874-3.748c-0.192-0.385-0.117-0.85,0.188-1.154l1.586-1.586    C51.602,32.984,52,32.022,52,31s-0.398-1.984-1.121-2.707l-2.172-2.172C47.606,25.021,47,23.557,47,22v-2.338l-3.268,3.735    C42.615,24.673,42,26.31,42,28.006v0.799c0,2.438,0.949,4.729,2.673,6.454c0.305,0.305,0.414,0.803,0.222,1.188l-1.874,3.748    l1.976,22.719l-1.992,0.173l-2-23c-0.017-0.184,0.02-0.369,0.102-0.534l1.688-3.377C40.977,34.114,40,31.534,40,28.805v-0.799    c0-2.181,0.791-4.286,2.227-5.927l5.021-5.738c0.275-0.314,0.718-0.423,1.104-0.277C48.742,16.21,49,16.583,49,17v5    c0,1.022,0.398,1.984,1.121,2.707l2.172,2.172C53.394,27.979,54,29.443,54,31s-0.606,3.021-1.707,4.121l-1.076,1.076l1.678,3.355    c0.082,0.165,0.118,0.35,0.102,0.534L50.996,63.086z"/>
	</g>
	<g>
		<rect x="42" y="39" width="10" height="2"/>
	</g>
	<g>
		<rect x="42.348" y="43" width="9.305" height="2"/>
	</g>
	<g>
		<rect x="44" y="35" width="6" height="2"/>
	</g>
	<g>
		<rect x="46" y="31" width="2" height="5"/>
	</g>
	<g>
		<path d="M55,39h-4v-2h4c0.552,0,1-0.449,1-1V4c0-0.551-0.448-1-1-1H9C8.448,3,8,3.449,8,4v32c0,0.551,0.448,1,1,1h34v2H9    c-1.654,0-3-1.346-3-3V4c0-1.654,1.346-3,3-3h46c1.654,0,3,1.346,3,3v32C58,37.654,56.654,39,55,39z"/>
	</g>
	<g>
		<path d="M42.435,35H11c-0.553,0-1-0.448-1-1V6c0-0.552,0.447-1,1-1h42c0.553,0,1,0.448,1,1v18h-2V7H12v26h30.435V35z"/>
	</g>
	<g>
		<path d="M34,63h-4c-0.553,0-1-0.448-1-1V38h2v23h2V38h2v24C35,62.552,34.553,63,34,63z"/>
	</g>
	<g>
		<path d="M17,63h-7c-0.404,0-0.77-0.244-0.924-0.617c-0.155-0.374-0.069-0.804,0.217-1.09l20-20l1.414,1.414L12.414,61h4.172    l12.707-12.707l1.414,1.414l-13,13C17.52,62.895,17.266,63,17,63z"/>
	</g>
	<g>
		<rect x="37.83" y="47" transform="matrix(0.7071 -0.7071 0.7071 0.7071 -26.6903 43.223)" width="2" height="13.66"/>
	</g>
	<g>
		<rect x="37.5" y="40.136" transform="matrix(0.7071 -0.7071 0.7071 0.7071 -21.6041 40.8431)" width="2" height="12.728"/>
	</g>
	<g>
		<path d="M25,26c-1.654,0-3-1.346-3-3v-6c0-0.551-0.448-1-1-1s-1,0.449-1,1v2c0,1.654-1.346,3-3,3s-3-1.346-3-3V6h2v13    c0,0.551,0.448,1,1,1s1-0.449,1-1v-2c0-1.654,1.346-3,3-3s3,1.346,3,3v6c0,0.551,0.448,1,1,1s1-0.449,1-1v-4c0-1.654,1.346-3,3-3    s3,1.346,3,3v2c0,0.551,0.448,1,1,1s1-0.449,1-1V6h2v15c0,1.654-1.346,3-3,3s-3-1.346-3-3v-2c0-0.551-0.448-1-1-1s-1,0.449-1,1v4    C28,24.654,26.654,26,25,26z"/>
	</g>
</g>
</svg>
