<?xml version="1.0" encoding="iso-8859-1"?>
<!-- Generator: Adobe Illustrator 22.1.0, SVG Export Plug-In . SVG Version: 6.00 Build 0)  -->
<svg xmlns="http://www.w3.org/2000/svg" xmlns:xlink="http://www.w3.org/1999/xlink" version="1.1" id="Layer_3" x="0px" y="0px" viewBox="0 0 64 64" style="enable-background:new 0 0 64 64;" xml:space="preserve" width="512" height="512">
<g>
	<g>
		<path style="fill:#29ABE2;" d="M55,43h7v-3c0-1.657-1.343-3-3-3h-4V43z"/>
	</g>
	<g>
		<path style="fill:#1F80AA;" d="M56,37c1.657,0,3,1.343,3,3v3h-4v-6H56z"/>
	</g>
	<g>
		<path style="fill:#1F80AA;" d="M55,59h4c1.657,0,3-1.343,3-3V43h-7V59z"/>
	</g>
	<g>
		<path style="fill:#176080;" d="M59,43v13c0,1.657-1.343,3-3,3h-1V43H59z"/>
	</g>
	<g>
		<path d="M59,60h-4v-2h4c1.103,0,2-0.897,2-2V40c0-1.103-0.897-2-2-2h-4v-2h4c2.206,0,4,1.794,4,4v16C63,58.206,61.206,60,59,60z"/>
	</g>
	<g>
		<rect x="55" y="42" width="7" height="2"/>
	</g>
	<g>
		<path style="fill:#29ABE2;" d="M9,43H2v-3c0-1.657,1.343-3,3-3h4V43z"/>
	</g>
	<g>
		<path style="fill:#1F80AA;" d="M8,37c-1.657,0-3,1.343-3,3v3h4v-6H8z"/>
	</g>
	<g>
		<path style="fill:#1F80AA;" d="M9,59H5c-1.657,0-3-1.343-3-3V43h7V59z"/>
	</g>
	<g>
		<path style="fill:#176080;" d="M5,43v13c0,1.657,1.343,3,3,3h1V43H5z"/>
	</g>
	<g>
		<path style="fill:#666666;" d="M51,12H35V5c0-1.657,1.343-3,3-3h10c1.657,0,3,1.343,3,3V12z"/>
	</g>
	<g>
		<path style="fill:#808080;" d="M35,5v7h12V2h-9C36.343,2,35,3.343,35,5z"/>
	</g>
	<g>
		<path style="fill:#666666;" d="M29,12H13V5c0-1.657,1.343-3,3-3h10c1.657,0,3,1.343,3,3V12z"/>
	</g>
	<g>
		<path style="fill:#808080;" d="M13,5v7h12V2h-9C14.343,2,13,3.343,13,5z"/>
	</g>
	<g>
		<path style="fill:#1F80AA;" d="M14,8h36c2.761,0,5,2.239,5,5v46c0,1.657-1.343,3-3,3H12c-1.657,0-3-1.343-3-3V13    C9,10.239,11.239,8,14,8z"/>
	</g>
	<g>
		<path style="fill:#29ABE2;" d="M51,59V13c0-2.761-2.239-5-5-5H14c-2.761,0-5,2.239-5,5v46c0,1.657,1.343,3,3,3h36    C49.657,62,51,60.657,51,59z"/>
	</g>
	<g>
		<path style="fill:#BF0000;" d="M15,36h34c1.105,0,2,0.895,2,2v18c0,1.105-0.895,2-2,2H15c-1.105,0-2-0.895-2-2V38    C13,36.895,13.895,36,15,36z"/>
	</g>
	<g>
		<path style="fill:#FF0000;" d="M47,56V38c0-1.105-0.895-2-2-2H15c-1.105,0-2,0.895-2,2v18c0,1.105,0.895,2,2,2h30    C46.105,58,47,57.105,47,56z"/>
	</g>
	<g>
		<path style="fill:#600000;" d="M51,42H13v-4c0-1.105,0.895-2,2-2h34c1.105,0,2,0.895,2,2V42z"/>
	</g>
	<g>
		<path style="fill:#8F0000;" d="M45,36H15c-1.105,0-2,0.895-2,2v4h34v-4C47,36.895,46.105,36,45,36z"/>
	</g>
	<g>
		<rect x="39" y="50" style="fill:#666666;" width="8" height="4"/>
	</g>
	<g>
		<rect x="39" y="50" style="fill:#808080;" width="5" height="4"/>
	</g>
	<g>
		<path style="fill:#999999;" d="M17,42v2c0,1.105,0.895,2,2,2h0c1.105,0,2-0.895,2-2v-2H17z"/>
	</g>
	<g>
		<rect x="17" y="12" style="fill:#B32C2B;" width="30" height="18"/>
	</g>
	<g>
		<rect x="17" y="12" style="fill:#FF3333;" width="26" height="18"/>
	</g>
	<g>
		<rect x="21" y="16" style="fill:#FDF14D;" width="22" height="10"/>
	</g>
	<g>
		<rect x="21" y="16" style="fill:#FDF57A;" width="19" height="10"/>
	</g>
	<g>
		<path d="M52,63H12c-2.206,0-4-1.794-4-4V13c0-3.309,2.691-6,6-6h36c3.309,0,6,2.691,6,6v46C56,61.206,54.206,63,52,63z M14,9    c-2.206,0-4,1.794-4,4v46c0,1.103,0.897,2,2,2h40c1.103,0,2-0.897,2-2V13c0-2.206-1.794-4-4-4H14z"/>
	</g>
	<g>
		<path d="M30,8h-2V5c0-1.103-0.897-2-2-2H16c-1.103,0-2,0.897-2,2v3h-2V5c0-2.206,1.794-4,4-4h10c2.206,0,4,1.794,4,4V8z"/>
	</g>
	<g>
		<path d="M52,8h-2V5c0-1.103-0.897-2-2-2H38c-1.103,0-2,0.897-2,2v3h-2V5c0-2.206,1.794-4,4-4h10c2.206,0,4,1.794,4,4V8z"/>
	</g>
	<g>
		<path d="M47,31H17c-0.553,0-1-0.448-1-1V12c0-0.552,0.447-1,1-1h30c0.553,0,1,0.448,1,1v18C48,30.552,47.553,31,47,31z M18,29h28    V13H18V29z"/>
	</g>
	<g>
		<path d="M43,27H21c-0.553,0-1-0.448-1-1V16c0-0.552,0.447-1,1-1h22c0.553,0,1,0.448,1,1v10C44,26.552,43.553,27,43,27z M22,25h20    v-8H22V25z"/>
	</g>
	<g>
		<path d="M49,59H15c-1.654,0-3-1.346-3-3V38c0-1.654,1.346-3,3-3h34c1.654,0,3,1.346,3,3v18C52,57.654,50.654,59,49,59z M15,37    c-0.552,0-1,0.448-1,1v18c0,0.552,0.448,1,1,1h34c0.552,0,1-0.448,1-1V38c0-0.552-0.448-1-1-1H15z"/>
	</g>
	<g>
		<rect x="13" y="41" width="38" height="2"/>
	</g>
	<g>
		<path d="M47,55h-8c-0.553,0-1-0.447-1-1v-4c0-0.553,0.447-1,1-1h8c0.553,0,1,0.447,1,1v4C48,54.553,47.553,55,47,55z M40,53h6v-2    h-6V53z"/>
	</g>
	<g>
		<path d="M19,47c-1.654,0-3-1.346-3-3v-2h2v2c0,0.552,0.448,1,1,1s1-0.448,1-1v-2h2v2C22,45.654,20.654,47,19,47z"/>
	</g>
	<g>
		<rect x="20" y="5" width="2" height="3"/>
	</g>
	<g>
		<rect x="42" y="5" width="2" height="3"/>
	</g>
	<g>
		<path d="M9,60H5c-2.206,0-4-1.794-4-4V40c0-2.206,1.794-4,4-4h4v2H5c-1.103,0-2,0.897-2,2v16c0,1.103,0.897,2,2,2h4V60z"/>
	</g>
	<g>
		<rect x="2" y="42" width="7" height="2"/>
	</g>
</g>
</svg>
