<?xml version="1.0" encoding="iso-8859-1"?>
<!-- Generator: Adobe Illustrator 22.1.0, SVG Export Plug-In . SVG Version: 6.00 Build 0)  -->
<svg xmlns="http://www.w3.org/2000/svg" xmlns:xlink="http://www.w3.org/1999/xlink" version="1.1" id="Layer_3" x="0px" y="0px" viewBox="0 0 64 64" style="enable-background:new 0 0 64 64;" xml:space="preserve" width="512" height="512">
<g>
	<g>
		<path style="fill:#B3B3B3;" d="M62,62L62,62l-19,0c-2.761,0-5-2.239-5-5v0c0-2.761,2.239-5,5-5h19l-3.293,3.293    C58.254,55.746,58,56.36,58,57l0,0c0,0.64,0.254,1.254,0.707,1.707L62,62z"/>
	</g>
	<g>
		<path style="fill:#CCCCCC;" d="M55,57c0-0.64,0.254-1.254,0.707-1.707L59,52H43c-2.761,0-5,2.239-5,5s2.239,5,5,5h16l-3.293-3.293    C55.254,58.254,55,57.64,55,57z"/>
	</g>
	<g>
		<path style="fill:#B66E8E;" d="M43,62c-2.761,0-5-2.239-5-5v0c0-2.761,2.239-5,5-5V62z"/>
	</g>
	<g>
		<path style="fill:#F592C0;" d="M41,52.422c-1.764,0.772-3,2.529-3,4.578s1.236,3.806,3,4.578V52.422z"/>
	</g>
	<g>
		<polygon style="fill:#694A2B;" points="44,40 48,52 44,52 40,40   "/>
	</g>
	<g>
		<polygon style="fill:#8C6239;" points="46,52 42,40 40,40 44,52   "/>
	</g>
	<g>
		<polygon style="fill:#694A2B;" points="20,40 14,62 18,62 24,40   "/>
	</g>
	<g>
		<polygon style="fill:#8C6239;" points="20,40 14,62 16,62 22,40   "/>
	</g>
	<g>
		<polyline style="fill:#8C6239;" points="30,40 30,62 34,62 34,40   "/>
	</g>
	<g>
		<rect x="30" y="40" style="fill:#694A2B;" width="4" height="22"/>
	</g>
	<g>
		<polyline style="fill:#8C6239;" points="30,40 30,62 34,62 34,40   "/>
	</g>
	<g>
		<rect x="30" y="40" style="fill:#694A2B;" width="4" height="22"/>
	</g>
	<g>
		<line style="fill:#8C6239;" x1="32" y1="62" x2="32" y2="40"/>
	</g>
	<g>
		<rect x="30" y="40" style="fill:#8C6239;" width="2" height="22"/>
	</g>
	<g>
		<rect x="2" y="2" style="fill:#694A2B;" width="60" height="38"/>
	</g>
	<g>
		<rect x="2" y="2" style="fill:#8C6239;" width="56" height="38"/>
	</g>
	<g>
		<rect x="6" y="6" style="fill:#006E35;" width="52" height="30"/>
	</g>
	<g>
		<rect x="6" y="6" style="fill:#009245;" width="48" height="30"/>
	</g>
	<g>
		<rect x="44" y="32" style="fill:#911D22;" width="8" height="4"/>
	</g>
	<g>
		<rect x="44" y="32" style="fill:#C1272D;" width="6" height="4"/>
	</g>
	<g>
		<polygon style="fill:#FDDFB1;" points="43,25 38,27 40,22   "/>
	</g>
	<g>
		
			<rect x="39.222" y="15.879" transform="matrix(0.7071 -0.7071 0.7071 0.7071 1.0381 38.5061)" style="fill:#B9B10E;" width="15.556" height="4.243"/>
	</g>
	<g>
		
			<rect x="38.929" y="16.586" transform="matrix(0.7071 -0.7071 0.7071 0.7071 0.7452 37.799)" style="fill:#F7EC13;" width="14.142" height="2.828"/>
	</g>
	<g>
		<path d="M62,41H2c-0.552,0-1-0.447-1-1V2c0-0.553,0.448-1,1-1h60c0.552,0,1,0.447,1,1v38C63,40.553,62.552,41,62,41z M3,39h58V3H3    V39z"/>
	</g>
	<g>
		<path d="M58,37H6c-0.552,0-1-0.447-1-1V6c0-0.553,0.448-1,1-1h52c0.552,0,1,0.447,1,1v30C59,36.553,58.552,37,58,37z M7,35h50V7H7    V35z"/>
	</g>
	<g>
		<path d="M34,63h-4c-0.552,0-1-0.447-1-1V40h2v21h2V40h2v22C35,62.553,34.552,63,34,63z"/>
	</g>
	<g>
		<path d="M34,63h-4c-0.552,0-1-0.447-1-1V40h2v21h2V40h2v22C35,62.553,34.552,63,34,63z"/>
	</g>
	<g>
		<path d="M18,63h-4c-0.312,0-0.605-0.146-0.795-0.393c-0.189-0.248-0.252-0.57-0.17-0.87l6-22l1.93,0.525L15.309,61h1.927    l5.799-21.263l1.93,0.525l-6,22C18.846,62.698,18.451,63,18,63z"/>
	</g>
	<g>
		<rect x="41" y="39.675" transform="matrix(0.9487 -0.3162 0.3162 0.9487 -12.3912 15.6421)" width="2" height="12.649"/>
	</g>
	<g>
		<rect x="45" y="39.675" transform="matrix(0.9487 -0.3162 0.3162 0.9487 -12.1859 16.907)" width="2" height="12.649"/>
	</g>
	<g>
		<path d="M10.555,32.832l-1.109-1.664l4.642-3.095c0.58-0.388,1.317-0.469,1.968-0.217c0.651,0.252,1.142,0.807,1.311,1.484    c0.006,0.025,0.023,0.094,0.118,0.111c0.094,0.017,0.134-0.038,0.149-0.06l2.365-3.311c0.458-0.641,1.197-0.975,1.981-0.888    c0.782,0.084,1.435,0.566,1.745,1.289l1.359,3.172c0.008,0.02,0.035,0.081,0.124,0.09c0.091-0.002,0.127-0.049,0.139-0.066    c0.403-0.605,0.979-0.95,1.623-1.014c0.64-0.061,1.274,0.163,1.731,0.621l1.302,1.302c0.052,0.051,0.135,0.058,0.196,0.014    L33.4,28.2l1.2,1.6l-3.202,2.401c-0.851,0.637-2.06,0.552-2.81-0.199l-1.303-1.303c-0.033-0.033-0.071-0.049-0.121-0.043    c-0.047,0.004-0.084,0.026-0.111,0.065c-0.481,0.723-1.238,1.082-2.029,1.015c-0.786-0.072-1.468-0.567-1.779-1.293l-1.359-3.172    c-0.008-0.019-0.034-0.079-0.122-0.089c-0.084-0.015-0.126,0.045-0.139,0.062l-2.364,3.31c-0.493,0.691-1.32,1.021-2.15,0.862    c-0.833-0.158-1.479-0.768-1.685-1.591c-0.013-0.051-0.043-0.085-0.092-0.104c-0.049-0.018-0.094-0.013-0.137,0.016L10.555,32.832    z"/>
	</g>
	<g>
		<path d="M53,36h-2v-3h-6v3h-2v-4c0-0.553,0.448-1,1-1h8c0.552,0,1,0.447,1,1V36z"/>
	</g>
	<g>
		<rect x="10" y="21" width="23" height="2"/>
	</g>
	<g>
		<rect x="10" y="17" width="23" height="2"/>
	</g>
	<g>
		<rect x="10" y="13" width="23" height="2"/>
	</g>
	<g>
		<path d="M62,63H43c-3.309,0-6-2.691-6-6s2.691-6,6-6h19c0.404,0,0.769,0.243,0.924,0.617s0.069,0.804-0.217,1.09L59.414,56    C59.147,56.268,59,56.622,59,57s0.147,0.732,0.415,1l3.292,3.293c0.286,0.286,0.372,0.716,0.217,1.09S62.404,63,62,63z M43,53    c-2.206,0-4,1.794-4,4s1.794,4,4,4h16.586L58,59.414c-0.645-0.646-1-1.503-1-2.414s0.355-1.769,1-2.414L59.586,53H43z"/>
	</g>
	<g>
		<rect x="44" y="51" width="4" height="2"/>
	</g>
	<g>
		<rect x="43" y="52" width="2" height="10"/>
	</g>
	<g>
		<path d="M40,46"/>
	</g>
	<g>
		<rect x="10" y="17" width="23" height="2"/>
	</g>
	<g>
		<rect x="44" y="56" width="9" height="2"/>
	</g>
	<g>
		<path d="M38,28c-0.26,0-0.516-0.102-0.707-0.293c-0.283-0.283-0.37-0.707-0.222-1.078l2-5c0.05-0.126,0.126-0.24,0.222-0.336    l11-11c0.391-0.391,1.023-0.391,1.414,0l3,3c0.391,0.391,0.391,1.023,0,1.414l-11,11c-0.096,0.096-0.21,0.171-0.335,0.222l-5,2    C38.251,27.977,38.125,28,38,28z M40.852,22.562l-1.057,2.644l2.643-1.058L52.586,14L51,12.414L40.852,22.562z"/>
	</g>
	<g>
		<rect x="48.5" y="13.379" transform="matrix(0.7071 -0.7071 0.7071 0.7071 3.5381 39.5416)" width="2" height="4.243"/>
	</g>
</g>
</svg>
