<?xml version="1.0" encoding="iso-8859-1"?>
<!-- Generator: Adobe Illustrator 22.1.0, SVG Export Plug-In . SVG Version: 6.00 Build 0)  -->
<svg xmlns="http://www.w3.org/2000/svg" xmlns:xlink="http://www.w3.org/1999/xlink" version="1.1" id="Layer_3" x="0px" y="0px" viewBox="0 0 64 64" style="enable-background:new 0 0 64 64;" xml:space="preserve" width="512" height="512">
<g>
	<g>
		<path style="fill:#911D22;" d="M2,55V12C2,6.477,6.477,2,12,2h34v53H2z"/>
	</g>
	<g>
		<path style="fill:#C1272D;" d="M12,2C6.477,2,2,6.477,2,12v43h40V2H12z"/>
	</g>
	<g>
		<path style="fill:#808080;" d="M44,50H7c-2.761,0-5,2.239-5,5v2c0,2.761,2.239,5,5,5h37V50z"/>
	</g>
	<g>
		<path style="fill:#999999;" d="M7,50c-2.761,0-5,2.239-5,5v2c0,2.761,2.239,5,5,5h33V50H7z"/>
	</g>
	<g>
		<path style="fill:#666666;" d="M8,62H7c-2.761,0-5-2.239-5-5v-2c0-2.761,2.239-5,5-5h1L8,62z"/>
	</g>
	<g>
		<path style="fill:#808080;" d="M6,50.101C3.718,50.564,2,52.581,2,55v2c0,2.419,1.718,4.436,4,4.899V50.101z"/>
	</g>
	<g>
		<rect x="44" y="34" style="fill:#DB7D81;" width="18" height="28"/>
	</g>
	<g>
		<rect x="44" y="34" style="fill:#E2979A;" width="14" height="28"/>
	</g>
	<g>
		<polyline style="fill:#DB7D81;" points="58,27 58,55 40,55 40,27   "/>
	</g>
	<g>
		<polyline style="fill:#E2979A;" points="40,27 40,55 54,55 54,27   "/>
	</g>
	<g>
		<rect x="44" y="31" style="fill:#4D4D4D;" width="10" height="3"/>
	</g>
	<g>
		<rect x="44" y="31" style="fill:#666666;" width="6" height="3"/>
	</g>
	<g>
		<rect x="48" y="38" style="fill:#4D4D4D;" width="10" height="4"/>
	</g>
	<g>
		<rect x="48" y="38" style="fill:#666666;" width="6" height="4"/>
	</g>
	<g>
		<path d="M3,55H1V12C1,5.935,5.935,1,12,1h34c0.553,0,1,0.447,1,1v25h-2V3H12c-4.963,0-9,4.037-9,9V55z"/>
	</g>
	<g>
		<polyline style="fill:#7FCDEE;" points="40,30 40,10 8,10 8,30 39,30   "/>
	</g>
	<g>
		<polygon style="fill:#A9DDF3;" points="8,10 8,30 35,30 36,30 36,10   "/>
	</g>
	<g>
		<path style="fill:#8C6239;" d="M8,19h32v5h-2.882c-0.685,0-1.312,0.387-1.618,1v0c-0.306,0.613-0.933,1-1.618,1h-1.764    c-0.685,0-1.312-0.387-1.618-1v0c-0.306-0.613-0.933-1-1.618-1h-2.764c-0.685,0-1.312,0.387-1.618,1v0    c-0.306,0.613-0.933,1-1.618,1h-2.764c-0.685,0-1.312-0.387-1.618-1v0c-0.306-0.613-0.933-1-1.618-1h-2.764    c-0.685,0-1.312,0.387-1.618,1l0,0c-0.306,0.613-0.933,1-1.618,1H8V19z"/>
	</g>
	<g>
		<path style="fill:#A67C52;" d="M8.5,25c0.306-0.613,0.933-1,1.618-1h2.764c0.216,0,0.422,0.051,0.618,0.123    C13.696,24.051,13.902,24,14.118,24h2.764c0.685,0,1.312,0.387,1.618,1c0.21,0.419,0.574,0.721,1,0.877    c0.426-0.156,0.79-0.458,1-0.877c0.306-0.613,0.933-1,1.618-1h2.764c0.216,0,0.422,0.051,0.618,0.123    C25.696,24.051,25.902,24,26.118,24h2.764c0.685,0,1.312,0.387,1.618,1c0.12,0.239,0.298,0.431,0.5,0.592    c0.202-0.161,0.38-0.352,0.5-0.592c0.306-0.613,0.933-1,1.618-1H36v-5H8c0,0,0,5.868,0,6.592C8.202,25.431,8.38,25.239,8.5,25z"/>
	</g>
	<g>
		<path style="fill:#00406A;" d="M40,30v-6h-2.882c-0.685,0-1.312,0.387-1.618,1v0c-0.306,0.613-0.933,1-1.618,1h-1.764    c-0.685,0-1.312-0.387-1.618-1v0c-0.306-0.613-0.933-1-1.618-1h-2.764c-0.685,0-1.312,0.387-1.618,1v0    c-0.306,0.613-0.933,1-1.618,1h-2.764c-0.685,0-1.312-0.387-1.618-1v0c-0.306-0.613-0.933-1-1.618-1h-2.764    c-0.685,0-1.312,0.387-1.618,1l0,0c-0.306,0.613-0.933,1-1.618,1H8v4"/>
	</g>
	<g>
		<path style="fill:#00558D;" d="M35.5,25c-0.306,0.613-0.933,1-1.618,1h-1.764C31.7,26,31.315,25.843,31,25.592    C30.685,25.843,30.3,26,29.882,26h-1.764c-0.685,0-1.312-0.387-1.618-1c-0.21-0.419-0.574-0.721-1-0.877    c-0.426,0.156-0.79,0.458-1,0.877c-0.306,0.613-0.933,1-1.618,1h-2.764c-0.216,0-0.422-0.051-0.618-0.123    C19.304,25.949,19.098,26,18.882,26h-2.764c-0.685,0-1.312-0.387-1.618-1c-0.21-0.419-0.574-0.721-1-0.877    c-0.426,0.156-0.79,0.458-1,0.877c-0.306,0.613-0.933,1-1.618,1H8v4c0,0,21.875,0,28,0c0,0,0-4.883,0-5.592    C35.798,24.569,35.62,24.761,35.5,25z"/>
	</g>
	<g>
		<path style="fill:#006E34;" d="M26.571,19l-6.333-4.268c-1.35-0.91-3.141-0.93-4.513-0.049L9,19h31l-6.781-4.353    c-1.344-0.863-3.094-0.863-4.438,0L24,17.716"/>
	</g>
	<g>
		<path style="fill:#009247;" d="M29.5,14.291c-0.248,0.097-0.491,0.209-0.719,0.356l-4.44,2.85l-1.463-0.986l-1.537,0.986    l-4.103-2.765c-0.251-0.169-0.52-0.297-0.796-0.404c-0.247,0.097-0.489,0.209-0.717,0.355L9,19h28l-6.781-4.353    C29.991,14.5,29.748,14.388,29.5,14.291z"/>
	</g>
	<g>
		<path d="M44,63H7c-3.309,0-6-2.691-6-6v-2c0-3.309,2.691-6,6-6h33v2H7c-2.206,0-4,1.794-4,4v2c0,2.206,1.794,4,4,4h37V63z"/>
	</g>
	<g>
		<rect x="7" y="50" width="2" height="12"/>
	</g>
	<g>
		<rect x="14" y="33" width="21" height="2"/>
	</g>
	<g>
		<rect x="10" y="37" width="29" height="2"/>
	</g>
	<g>
		<rect x="10" y="41" width="29" height="2"/>
	</g>
	<g>
		<path d="M9.555,20.024L8.445,18.36l6.727-4.484c1.727-1.151,3.941-1.126,5.641,0.064l6.057,4.24l-1.146,1.639l-6.057-4.24    c-1.021-0.715-2.35-0.73-3.385-0.039L9.555,20.024z"/>
	</g>
	<g>
		<path d="M39.445,20.024l-6.781-4.521c-1.01-0.674-2.316-0.674-3.328,0l-4.781,3.188l-1.109-1.664l4.781-3.188    c1.686-1.123,3.861-1.123,5.547,0l6.781,4.521L39.445,20.024z"/>
	</g>
	<g>
		<rect x="8" y="55" width="29" height="2"/>
	</g>
	<g>
		<path d="M62,63H44c-0.553,0-1-0.447-1-1V34c0-0.553,0.447-1,1-1h18c0.553,0,1,0.447,1,1v28C63,62.553,62.553,63,62,63z M45,61h16    V35H45V61z"/>
	</g>
	<g>
		<path d="M58,43H48c-0.553,0-1-0.447-1-1v-4c0-0.553,0.447-1,1-1h10c0.553,0,1,0.447,1,1v4C59,42.553,58.553,43,58,43z M49,41h8v-2    h-8V41z"/>
	</g>
	<g>
		<rect x="48" y="45" width="10" height="2"/>
	</g>
	<g>
		<rect x="48" y="49" width="10" height="2"/>
	</g>
	<g>
		<rect x="48" y="53" width="10" height="2"/>
	</g>
	<g>
		<rect x="48" y="57" width="10" height="2"/>
	</g>
	<g>
		<path d="M55,34h-2v-2h-8v2h-2v-3c0-0.553,0.447-1,1-1h10c0.553,0,1,0.447,1,1V34z"/>
	</g>
	<g>
		<path d="M40,31H8c-0.553,0-1-0.447-1-1V10c0-0.553,0.447-1,1-1h32c0.553,0,1,0.447,1,1v20C41,30.553,40.553,31,40,31z M9,29h30V11    H9V29z"/>
	</g>
	<g>
		<path d="M33.882,27h-1.764c-1.071,0-2.034-0.595-2.513-1.553C29.468,25.171,29.19,25,28.882,25h-2.764    c-0.309,0-0.586,0.171-0.724,0.447C24.916,26.405,23.953,27,22.882,27h-2.764c-1.071,0-2.034-0.595-2.513-1.553    C17.468,25.171,17.19,25,16.882,25h-2.764c-0.309,0-0.586,0.171-0.724,0.447C12.916,26.405,11.953,27,10.882,27H9v-2h1.882    c0.309,0,0.586-0.171,0.724-0.447C12.084,23.595,13.047,23,14.118,23h2.764c1.071,0,2.034,0.595,2.513,1.553    C19.532,24.829,19.81,25,20.118,25h2.764c0.309,0,0.586-0.171,0.724-0.447C24.084,23.595,25.047,23,26.118,23h2.764    c1.071,0,2.034,0.595,2.513,1.553C31.532,24.829,31.81,25,32.118,25h1.764c0.309,0,0.586-0.171,0.724-0.447    C35.084,23.595,36.047,23,37.118,23H40v2h-2.882c-0.309,0-0.586,0.171-0.724,0.447C35.916,26.405,34.953,27,33.882,27z"/>
	</g>
	<g>
		<rect x="9" y="18" width="31" height="2"/>
	</g>
	<g>
		<path d="M44,56h-4c-0.553,0-1-0.447-1-1V27c0-0.553,0.447-1,1-1h18c0.553,0,1,0.447,1,1v7h-2v-6H41v26h3V56z"/>
	</g>
</g>
</svg>
