<?xml version="1.0" encoding="iso-8859-1"?>
<!-- Generator: Adobe Illustrator 22.1.0, SVG Export Plug-In . SVG Version: 6.00 Build 0)  -->
<svg xmlns="http://www.w3.org/2000/svg" xmlns:xlink="http://www.w3.org/1999/xlink" version="1.1" id="Layer_3" x="0px" y="0px" viewBox="0 0 64 64" style="enable-background:new 0 0 64 64;" xml:space="preserve" width="512" height="512">
<g>
	<g>
		<polygon style="fill:#CCCCCC;" points="30,62 9,62 4,10 36,10   "/>
	</g>
	<g>
		<polygon style="fill:#E6E6E6;" points="4,10 9,62 27,62 33,10   "/>
	</g>
	<g>
		<circle style="fill:#8C6239;" cx="20" cy="32" r="8"/>
	</g>
	<g>
		<ellipse style="fill:#A67C52;" cx="18" cy="32" rx="6" ry="7.738"/>
	</g>
	<g>
		<path d="M20,41c-4.962,0-9-4.037-9-9s4.038-9,9-9s9,4.037,9,9S24.962,41,20,41z M20,25c-3.86,0-7,3.141-7,7s3.14,7,7,7    s7-3.141,7-7S23.86,25,20,25z"/>
	</g>
	<g>
		<path style="fill:#8C6239;" d="M30,58H8.615l-0.018-0.187l0.316,3.283C8.962,61.609,9.393,62,9.908,62H30V58z"/>
	</g>
	<g>
		<path style="fill:#A67C52;" d="M8.615,58l0.298,3.096C8.962,61.609,9.393,62,9.908,62H26v-4H8.615z"/>
	</g>
	<g>
		<circle style="fill:#4D4D4D;" cx="47" cy="7" r="5"/>
	</g>
	<g>
		<ellipse style="fill:#666666;" cx="45.5" cy="7" rx="3.5" ry="4.746"/>
	</g>
	<g>
		<circle style="fill:#4D4D4D;" cx="48" cy="23" r="3"/>
	</g>
	<g>
		<ellipse style="fill:#666666;" cx="47" cy="23" rx="2" ry="2.816"/>
	</g>
	<g>
		<circle style="fill:#4D4D4D;" cx="59" cy="16" r="3"/>
	</g>
	<g>
		<ellipse style="fill:#666666;" cx="58" cy="16" rx="2" ry="2.816"/>
	</g>
	<g>
		<rect x="30" y="32" style="fill:#CCCCCC;" width="24" height="30"/>
	</g>
	<g>
		<path style="fill:#E6E6E6;" d="M30,32v30c0,0,16.406,0,21,0V32H30z"/>
	</g>
	<g>
		<circle style="fill:#006E34;" cx="42" cy="48" r="6"/>
	</g>
	<g>
		<ellipse style="fill:#009245;" cx="40.5" cy="48" rx="4.5" ry="5.803"/>
	</g>
	<g>
		<path style="fill:#006E34;" d="M30,36h2.882c0.685,0,1.312,0.387,1.618,1l0,0c0.306,0.613,0.933,1,1.618,1h1.764    c0.685,0,1.312-0.387,1.618-1l0,0c0.306-0.613,0.933-1,1.618-1h1.764c0.685,0,1.312,0.387,1.618,1l0,0    c0.306,0.613,0.933,1,1.618,1h1.764c0.685,0,1.312-0.387,1.618-1l0,0c0.306-0.613,0.933-1,1.618-1H54v-4H30V36z"/>
	</g>
	<g>
		<path style="fill:#009245;" d="M32.882,36c0.685,0,1.312,0.387,1.618,1c0.21,0.419,0.574,0.721,1,0.877    c0.426-0.156,0.79-0.458,1-0.877c0.306-0.613,0.933-1,1.618-1h1.764c0.216,0,0.422,0.051,0.618,0.123    C40.696,36.051,40.902,36,41.118,36h1.764c0.685,0,1.312,0.387,1.618,1c0.21,0.419,0.574,0.721,1,0.877    c0.426-0.156,0.79-0.458,1-0.877c0.306-0.613,0.933-1,1.618-1H51v-4H30v4H32.882z"/>
	</g>
	<g>
		<path style="fill:#006E34;" d="M54,58h4c2.209,0,4-1.791,4-4V44c0-2.209-1.791-4-4-4h-4v4h3c0.552,0,1,0.448,1,1v8    c0,0.552-0.448,1-1,1h-3V58z"/>
	</g>
	<g>
		<path style="fill:#009245;" d="M60,54V44c0-2.209-1.791-4-4-4h-2v4h1h2c0.552,0,1,0.448,1,1v8c0,0.552-0.448,1-1,1h-2h-1v4h2    C58.209,58,60,56.209,60,54z"/>
	</g>
	<g>
		<rect x="30" y="58" style="fill:#006E34;" width="24" height="4"/>
	</g>
	<g>
		<rect x="30" y="58" style="fill:#009245;" width="21" height="4"/>
	</g>
	<g>
		<path style="fill:#808080;" d="M35,6l-6.458-2.444c-5.483-2.075-11.601-2.075-17.084,0L5,6H35z"/>
	</g>
	<g>
		<path style="fill:#999999;" d="M16.548,2.27c-1.73,0.249-3.44,0.662-5.09,1.286L5,6h23l-6.458-2.444    C19.922,2.943,18.246,2.519,16.548,2.27z"/>
	</g>
	<g>
		<path style="fill:#754C24;" d="M5,10H3c-0.552,0-1-0.448-1-1V7c0-0.552,0.448-1,1-1h34c0.552,0,1,0.448,1,1v2c0,0.552-0.448,1-1,1    h-2H5z"/>
	</g>
	<g>
		<path style="fill:#8C6239;" d="M35,9V7c0-0.552-0.448-1-1-1H3C2.448,6,2,6.448,2,7v2c0,0.552,0.448,1,1,1h2h27h2    C34.552,10,35,9.552,35,9z"/>
	</g>
	<g>
		<path d="M30,63H9.909c-1.036,0-1.892-0.777-1.991-1.809L3.004,10.096C2.978,9.815,3.07,9.536,3.26,9.327C3.449,9.119,3.718,9,4,9    h32c0.285,0,0.556,0.121,0.745,0.333c0.19,0.212,0.28,0.495,0.249,0.777l-2.115,19l-1.987-0.221L34.882,11H5.101l4.808,50H30V63z"/>
	</g>
	<g>
		<path d="M37,11h-2V9h2V7H3v2h2v2H3c-1.103,0-2-0.897-2-2V7c0-1.103,0.897-2,2-2h34c1.103,0,2,0.897,2,2v2    C39,10.103,38.103,11,37,11z"/>
	</g>
	<g>
		<path d="M34.646,6.936l-6.458-2.443c-5.28-1.998-11.096-1.998-16.376,0L5.354,6.936L4.646,5.064l6.458-2.443    c5.736-2.17,12.055-2.17,17.792,0l6.458,2.443L34.646,6.936z"/>
	</g>
	<g>
		<path d="M4,16"/>
	</g>
	<g>
		<path d="M57,55h-3v-2h3v-8h-3v-2h3c1.103,0,2,0.897,2,2v8C59,54.103,58.103,55,57,55z"/>
	</g>
	<g>
		<path d="M54,63H30c-0.552,0-1-0.447-1-1V32c0-0.553,0.448-1,1-1h24c0.552,0,1,0.447,1,1v30C55,62.553,54.552,63,54,63z M31,61h22    V33H31V61z"/>
	</g>
	<g>
		<path d="M58,59H30v-2h28c1.654,0,3-1.346,3-3V44c0-1.654-1.346-3-3-3h-4v-2h4c2.757,0,5,2.243,5,5v10C63,56.757,60.757,59,58,59z"/>
	</g>
	<g>
		<path d="M42,55c-3.86,0-7-3.141-7-7s3.14-7,7-7s7,3.141,7,7S45.86,55,42,55z M42,43c-2.757,0-5,2.243-5,5s2.243,5,5,5s5-2.243,5-5    S44.757,43,42,43z"/>
	</g>
	<g>
		<path d="M47,13c-3.309,0-6-2.691-6-6s2.691-6,6-6s6,2.691,6,6S50.309,13,47,13z M47,3c-2.206,0-4,1.794-4,4s1.794,4,4,4    s4-1.794,4-4S49.206,3,47,3z"/>
	</g>
	<g>
		<path d="M59,20c-2.206,0-4-1.794-4-4s1.794-4,4-4s4,1.794,4,4S61.206,20,59,20z M59,14c-1.103,0-2,0.897-2,2s0.897,2,2,2    s2-0.897,2-2S60.103,14,59,14z"/>
	</g>
	<g>
		<path d="M48,27c-2.206,0-4-1.794-4-4s1.794-4,4-4s4,1.794,4,4S50.206,27,48,27z M48,21c-1.103,0-2,0.897-2,2s0.897,2,2,2    s2-0.897,2-2S49.103,21,48,21z"/>
	</g>
	<g>
		<path d="M47.882,39h-1.764c-1.071,0-2.034-0.595-2.513-1.553C43.468,37.171,43.19,37,42.882,37h-1.764    c-0.309,0-0.586,0.171-0.724,0.447C39.916,38.405,38.953,39,37.882,39h-1.764c-1.071,0-2.034-0.595-2.513-1.553    C33.468,37.171,33.19,37,32.882,37H30v-2h2.882c1.071,0,2.034,0.595,2.513,1.553C35.532,36.829,35.81,37,36.118,37h1.764    c0.309,0,0.586-0.171,0.724-0.447C39.084,35.595,40.047,35,41.118,35h1.764c1.071,0,2.034,0.595,2.513,1.553    C45.532,36.829,45.81,37,46.118,37h1.764c0.309,0,0.586-0.171,0.724-0.447C49.084,35.595,50.047,35,51.118,35H54v2h-2.882    c-0.309,0-0.586,0.171-0.724,0.447C49.916,38.405,48.953,39,47.882,39z"/>
	</g>
	<g>
		<rect x="8.615" y="57" width="21.385" height="2"/>
	</g>
</g>
</svg>
