<?xml version="1.0" encoding="iso-8859-1"?>
<!-- Generator: Adobe Illustrator 22.1.0, SVG Export Plug-In . SVG Version: 6.00 Build 0)  -->
<svg xmlns="http://www.w3.org/2000/svg" xmlns:xlink="http://www.w3.org/1999/xlink" version="1.1" id="Layer_3" x="0px" y="0px" viewBox="0 0 64 64" style="enable-background:new 0 0 64 64;" xml:space="preserve" width="512" height="512">
<g>
	<g>
		<circle style="fill:#1F80AA;" cx="10" cy="10" r="8"/>
	</g>
	<g>
		<circle style="fill:#29ABE2;" cx="10" cy="10" r="8"/>
	</g>
	<g>
		<ellipse style="fill:#1F80AA;" cx="8" cy="10" rx="6" ry="7.738"/>
	</g>
	<g>
		<circle style="fill:#1F80AA;" cx="42" cy="10" r="8"/>
	</g>
	<g>
		<circle style="fill:#1F80AA;" cx="42" cy="10" r="8"/>
	</g>
	<g>
		<ellipse style="fill:#29ABE2;" cx="40.5" cy="10" rx="6.5" ry="7.855"/>
	</g>
	<g>
		<circle style="fill:#1F80AA;" cx="26" cy="24" r="21"/>
	</g>
	<g>
		<circle style="fill:#7FCDEE;" cx="26" cy="24" r="17"/>
	</g>
	<g>
		<ellipse style="fill:#A9DDF3;" cx="24" cy="24" rx="15" ry="16.872"/>
	</g>
	<g>
		<path style="fill:#BF0637;" d="M15,28h44c1.657,0,3,1.343,3,3v24c0,1.657-1.343,3-3,3H15c-1.657,0-3-1.343-3-3V31    C12,29.343,13.343,28,15,28z"/>
	</g>
	<g>
		<path style="fill:#F20746;" d="M58,55V31c0-1.657-1.343-3-3-3H15c-1.657,0-3,1.343-3,3v24c0,1.657,1.343,3,3,3h40    C56.657,58,58,56.657,58,55z"/>
	</g>
	<g>
		<path style="fill:#720F29;" d="M16,58v3c0,0.552,0.448,1,1,1h8c0.552,0,1-0.448,1-1v-3H16z"/>
	</g>
	<g>
		<path style="fill:#8F0529;" d="M23,61v-3h-7v3c0,0.552,0.448,1,1,1h5C22.552,62,23,61.552,23,61z"/>
	</g>
	<g>
		<path style="fill:#720F29;" d="M48,58v3c0,0.552,0.448,1,1,1h8c0.552,0,1-0.448,1-1v-3H48z"/>
	</g>
	<g>
		<path style="fill:#8F0529;" d="M55,61v-3h-7v3c0,0.552,0.448,1,1,1h5C54.552,62,55,61.552,55,61z"/>
	</g>
	<g>
		<circle style="fill:#999999;" cx="48" cy="52" r="2"/>
	</g>
	<g>
		<ellipse style="fill:#B3B3B3;" cx="47.5" cy="52" rx="1.5" ry="1.929"/>
	</g>
	<g>
		<rect x="16" y="50" style="fill:#666666;" width="7" height="4"/>
	</g>
	<g>
		<rect x="16" y="50" style="fill:#808080;" width="5" height="4"/>
	</g>
	<g>
		<polyline style="fill:#F89284;" points="16,42 16,46 58,46 58,32 16,32 16,42   "/>
	</g>
	<g>
		<polygon style="fill:#F9B3AA;" points="16,32 16,42 16,46 54,46 54,32   "/>
	</g>
	<g>
		<path d="M59,59H15c-2.206,0-4-1.794-4-4V31c0-2.206,1.794-4,4-4h44c2.206,0,4,1.794,4,4v24C63,57.206,61.206,59,59,59z M15,29    c-1.103,0-2,0.897-2,2v24c0,1.103,0.897,2,2,2h44c1.103,0,2-0.897,2-2V31c0-1.103-0.897-2-2-2H15z"/>
	</g>
	<g>
		<path d="M58,47H16c-0.553,0-1-0.448-1-1V32c0-0.552,0.447-1,1-1h42c0.553,0,1,0.448,1,1v14C59,46.552,58.553,47,58,47z M17,45h40    V33H17V45z"/>
	</g>
	<g>
		<path d="M25,63h-8c-1.103,0-2-0.897-2-2v-3h2v3h8v-3h2v3C27,62.103,26.103,63,25,63z"/>
	</g>
	<g>
		<path d="M57,63h-8c-1.103,0-2-0.897-2-2v-3h2v3h8v-3h2v3C59,62.103,58.103,63,57,63z"/>
	</g>
	<g>
		<path d="M45,43h-4c-0.553,0-1-0.448-1-1v-6c0-0.552,0.447-1,1-1h4c0.553,0,1,0.448,1,1v6C46,42.552,45.553,43,45,43z M42,41h2v-4    h-2V41z"/>
	</g>
	<g>
		<path d="M52,43h-4c-0.553,0-1-0.448-1-1v-6c0-0.552,0.447-1,1-1h4c0.553,0,1,0.448,1,1v6C53,42.552,52.553,43,52,43z M49,41h2v-4    h-2V41z"/>
	</g>
	<g>
		<path d="M26,43h-4c-0.553,0-1-0.448-1-1v-6c0-0.552,0.447-1,1-1h4c0.553,0,1,0.448,1,1v6C27,42.552,26.553,43,26,43z M23,41h2v-4    h-2V41z"/>
	</g>
	<g>
		<path d="M33,43h-4c-0.553,0-1-0.448-1-1v-6c0-0.552,0.447-1,1-1h4c0.553,0,1,0.448,1,1v6C34,42.552,33.553,43,33,43z M30,41h2v-4    h-2V41z"/>
	</g>
	<g>
		<rect x="36" y="35" width="2" height="2"/>
	</g>
	<g>
		<rect x="36" y="38" width="2" height="2"/>
	</g>
	<g>
		<rect x="36" y="41" width="2" height="2"/>
	</g>
	<g>
		<path d="M23,55h-7c-0.553,0-1-0.448-1-1v-4c0-0.552,0.447-1,1-1h7c0.553,0,1,0.448,1,1v4C24,54.552,23.553,55,23,55z M17,53h5v-2    h-5V53z"/>
	</g>
	<g>
		<rect x="27" y="50" style="fill:#666666;" width="7" height="4"/>
	</g>
	<g>
		<rect x="27" y="50" style="fill:#808080;" width="5" height="4"/>
	</g>
	<g>
		<path d="M34,55h-7c-0.553,0-1-0.448-1-1v-4c0-0.552,0.447-1,1-1h7c0.553,0,1,0.448,1,1v4C35,54.552,34.553,55,34,55z M28,53h5v-2    h-5V53z"/>
	</g>
	<g>
		<path d="M48,55c-1.654,0-3-1.346-3-3s1.346-3,3-3s3,1.346,3,3S49.654,55,48,55z M48,51c-0.552,0-1,0.449-1,1s0.448,1,1,1    s1-0.449,1-1S48.552,51,48,51z"/>
	</g>
	<g>
		<circle style="fill:#999999;" cx="56" cy="52" r="2"/>
	</g>
	<g>
		<ellipse style="fill:#B3B3B3;" cx="55.5" cy="52" rx="1.5" ry="1.929"/>
	</g>
	<g>
		<path d="M56,55c-1.654,0-3-1.346-3-3s1.346-3,3-3s3,1.346,3,3S57.654,55,56,55z M56,51c-0.552,0-1,0.449-1,1s0.448,1,1,1    s1-0.449,1-1S56.552,51,56,51z"/>
	</g>
	<g>
		<rect x="25" y="7" width="2" height="5"/>
	</g>
	<g>
		<rect x="38" y="23" width="5" height="2"/>
	</g>
	<g>
		<rect x="9" y="23" width="5" height="2"/>
	</g>
	<g>
		<path d="M31,25h-5c-0.553,0-1-0.448-1-1v-6h2v5h4V25z"/>
	</g>
	<g>
		<path d="M11.333,40.397C6.673,36.226,4,30.25,4,24C4,11.869,13.869,2,26,2s22,9.869,22,22c0,1.409-0.134,2.818-0.399,4.189    l-1.963-0.379C45.878,26.564,46,25.282,46,24c0-11.028-8.972-20-20-20S6,12.972,6,24c0,5.681,2.43,11.115,6.667,14.907    L11.333,40.397z"/>
	</g>
	<g>
		<path d="M11.177,34.214C9.099,31.203,8,27.671,8,24c0-9.925,8.075-18,18-18s18,8.075,18,18c0,1.431-0.169,2.855-0.502,4.234    l-1.943-0.469C41.85,26.54,42,25.273,42,24c0-8.822-7.178-16-16-16s-16,7.178-16,16c0,3.264,0.977,6.402,2.823,9.078    L11.177,34.214z"/>
	</g>
	<g>
		<path d="M5.709,17.913C2.805,16.334,1,13.303,1,10c0-4.962,4.037-9,9-9c2.862,0,5.581,1.381,7.271,3.695l-1.615,1.18    C14.341,4.075,12.227,3,10,3c-3.859,0-7,3.14-7,7c0,2.569,1.404,4.928,3.664,6.156L5.709,17.913z"/>
	</g>
	<g>
		<path d="M46.294,17.911l-0.955-1.757C47.597,14.926,49,12.568,49,10c0-3.86-3.141-7-7-7c-2.227,0-4.341,1.075-5.656,2.875    l-1.615-1.18C36.42,2.381,39.138,1,42,1c4.963,0,9,4.038,9,9C51,13.301,49.197,16.333,46.294,17.911z"/>
	</g>
</g>
</svg>
