<?xml version="1.0" encoding="iso-8859-1"?>
<!-- Generator: Adobe Illustrator 22.1.0, SVG Export Plug-In . SVG Version: 6.00 Build 0)  -->
<svg xmlns="http://www.w3.org/2000/svg" xmlns:xlink="http://www.w3.org/1999/xlink" version="1.1" id="Layer_3" x="0px" y="0px" viewBox="0 0 64 64" style="enable-background:new 0 0 64 64;" xml:space="preserve" width="512" height="512">
<g>
	<g>
		<polygon style="fill:#007E37;" points="14,46 2,46 2,2 62,2 62,46 54,46   "/>
	</g>
	<g>
		<polygon style="fill:#00BD53;" points="2,2 2,46 10,46 14,46 50,46 54,46 58,46 58,2   "/>
	</g>
	<g>
		<path style="fill:#CCCCCC;" d="M30,40h21c2.761,0,5-2.239,5-5l0-22c0-2.761-2.239-5-5-5H13c-2.761,0-5,2.239-5,5v22    c0,2.416,1.714,4.432,3.992,4.898"/>
	</g>
	<g>
		<path style="fill:#E6E6E6;" d="M52,35V13c0-2.761-2.239-5-5-5H13c-2.761,0-5,2.239-5,5v22c0,2.416,1.714,4.432,3.992,4.898L30,40    h17C49.761,40,52,37.761,52,35z"/>
	</g>
	<g>
		<rect x="48" y="38" style="fill:#A67C52;" width="8" height="4"/>
	</g>
	<g>
		<rect x="48" y="38" style="fill:#C69C6D;" width="6" height="4"/>
	</g>
	<g>
		<rect x="50" y="42" style="fill:#8C6239;" width="4" height="12"/>
	</g>
	<g>
		<rect x="50" y="42" style="fill:#A67C52;" width="2" height="12"/>
	</g>
	<g>
		<rect x="46" y="54" style="fill:#613516;" width="12" height="4"/>
	</g>
	<g>
		<rect x="46" y="54" style="fill:#81461E;" width="10" height="4"/>
	</g>
	<g>
		<rect x="44" y="58" style="fill:#482A0E;" width="16" height="4"/>
	</g>
	<g>
		<rect x="44" y="58" style="fill:#562E08;" width="14" height="4"/>
	</g>
	<g>
		<polygon style="fill:#94090D;" points="27,46 28,58 21,54 13,58 15,46   "/>
	</g>
	<g>
		<polygon style="fill:#D40D12;" points="19,54 19.933,54.533 21,54 25.9,56.8 25,46 15,46 13.182,56.909   "/>
	</g>
	<g>
		<path style="fill:#B96E16;" d="M12.512,36c1.236-3.495,4.569-6,8.488-6c4.971,0,9,4.029,9,9s-4.029,9-9,9s-9-4.029-9-9    C12,37.948,12.18,36.938,12.512,36"/>
	</g>
	<g>
		<path style="fill:#F7931E;" d="M19.477,30.131c-3.241,0.553-5.893,2.836-6.965,5.868C12.18,36.938,12,37.948,12,39    c0,4.458,3.245,8.15,7.5,8.865C23.755,47.15,27,43.458,27,39C27,34.534,23.743,30.837,19.477,30.131z"/>
	</g>
	<g>
		<circle style="fill:#BC842C;" cx="21" cy="39" r="5"/>
	</g>
	<g>
		<ellipse style="fill:#FBB03B;" cx="20" cy="39" rx="4" ry="4.899"/>
	</g>
	<g>
		<polygon style="fill:none;" points="14,46 2,46 2,2 62,2 62,46 54,46   "/>
	</g>
	<g>
		<rect x="27.562" y="45" width="22.438" height="2"/>
	</g>
	<g>
		<path d="M62,47h-8v-2h7V3H3v42h11v2H2c-0.553,0-1-0.448-1-1V2c0-0.552,0.447-1,1-1h60c0.553,0,1,0.448,1,1v44    C63,46.552,62.553,47,62,47z"/>
	</g>
	<g>
		<path d="M21,49c-5.514,0-10-4.486-10-10c0-1.142,0.191-2.264,0.568-3.333c0,0,0.001,0,0.001,0C12.979,31.679,16.77,29,21,29    c5.514,0,10,4.486,10,10S26.514,49,21,49z M13.455,36.333C13.153,37.188,13,38.085,13,39c0,4.411,3.589,8,8,8s8-3.589,8-8    s-3.589-8-8-8C17.615,31,14.583,33.143,13.455,36.333L13.455,36.333z"/>
	</g>
	<g>
		<path d="M13,59c-0.21,0-0.419-0.066-0.594-0.196c-0.303-0.223-0.454-0.598-0.393-0.969l2-12l1.973,0.329L14.31,56.228l6.243-3.122    c0.299-0.149,0.654-0.139,0.943,0.026l5.35,3.057l-0.842-10.105l1.992-0.166l1,12c0.031,0.37-0.146,0.727-0.459,0.926    c-0.312,0.2-0.709,0.21-1.033,0.025l-6.535-3.734l-7.521,3.761C13.306,58.965,13.152,59,13,59z"/>
	</g>
	<g>
		<path d="M21,45c-3.309,0-6-2.691-6-6s2.691-6,6-6s6,2.691,6,6S24.309,45,21,45z M21,35c-2.206,0-4,1.794-4,4s1.794,4,4,4    s4-1.794,4-4S23.206,35,21,35z"/>
	</g>
	<g>
		<path d="M11.792,40.878C9.016,40.31,7,37.838,7,35V13c0-3.309,2.691-6,6-6h38c3.309,0,6,2.691,6,6v22    c0,1.311-0.415,2.556-1.2,3.601L54.2,37.4c0.523-0.696,0.8-1.526,0.8-2.4V13c0-2.206-1.794-4-4-4H13c-2.206,0-4,1.794-4,4v22    c0,1.892,1.343,3.54,3.192,3.919L11.792,40.878z"/>
	</g>
	<g>
		<rect x="30" y="39" width="18" height="2"/>
	</g>
	<g>
		<rect x="26" y="13" width="12" height="2"/>
	</g>
	<g>
		<rect x="21" y="17" width="22" height="2"/>
	</g>
	<g>
		<rect x="26" y="21" width="12" height="2"/>
	</g>
	<g>
		<path d="M60,63H44c-0.553,0-1-0.448-1-1v-4c0-0.552,0.447-1,1-1h16c0.553,0,1,0.448,1,1v4C61,62.552,60.553,63,60,63z M45,61h14    v-2H45V61z"/>
	</g>
	<g>
		<path d="M58,59H46c-0.553,0-1-0.448-1-1v-4c0-0.552,0.447-1,1-1h12c0.553,0,1,0.448,1,1v4C59,58.552,58.553,59,58,59z M47,57h10    v-2H47V57z"/>
	</g>
	<g>
		<path d="M54,55h-4c-0.553,0-1-0.448-1-1V42c0-0.552,0.447-1,1-1h4c0.553,0,1,0.448,1,1v12C55,54.552,54.553,55,54,55z M51,53h2V43    h-2V53z"/>
	</g>
	<g>
		<path d="M56,43h-8c-0.553,0-1-0.448-1-1v-4c0-0.552,0.447-1,1-1h8c0.553,0,1,0.448,1,1v4C57,42.552,56.553,43,56,43z M49,41h6v-2    h-6V41z"/>
	</g>
</g>
</svg>
