<?xml version="1.0" encoding="iso-8859-1"?>
<!-- Generator: Adobe Illustrator 22.1.0, SVG Export Plug-In . SVG Version: 6.00 Build 0)  -->
<svg xmlns="http://www.w3.org/2000/svg" xmlns:xlink="http://www.w3.org/1999/xlink" version="1.1" id="Layer_3" x="0px" y="0px" viewBox="0 0 64 64" style="enable-background:new 0 0 64 64;" xml:space="preserve" width="512" height="512">
<g>
	<g>
		<rect x="56" y="33" style="fill:#472B10;" width="4" height="12"/>
	</g>
	<g>
		<rect x="56" y="33" style="fill:#603813;" width="2" height="12"/>
	</g>
	<g>
		<path style="fill:#BF9C67;" d="M58,34L58,34c-2.209,0-4-1.791-4-4v0c0-1.978,0.415-3.934,1.218-5.741L58,18l2.782,6.259    C61.585,26.066,62,28.022,62,30v0C62,32.209,60.209,34,58,34z"/>
	</g>
	<g>
		<path style="fill:#FDD089;" d="M60,30c0-1.978-0.415-3.934-1.218-5.741L57,20.25l-1.782,4.009C54.415,26.066,54,28.022,54,30    c0,1.862,1.278,3.412,3,3.859C58.722,33.412,60,31.862,60,30z"/>
	</g>
	<g>
		<rect x="2" y="22" style="fill:#6E161A;" width="48" height="40"/>
	</g>
	<g>
		<rect x="2" y="22" style="fill:#911D22;" width="44" height="40"/>
	</g>
	<g>
		<rect x="2" y="56" style="fill:#CD5257;" width="43" height="6"/>
	</g>
	<g>
		<rect x="2" y="56" style="fill:#C1272D;" width="47" height="6"/>
	</g>
	<g>
		<polygon style="fill:#2C8838;" points="42,45 62,45 60,62 44,62   "/>
	</g>
	<g>
		<polygon style="fill:#39B54A;" points="42,45 44,62 57,62 59,45   "/>
	</g>
	<g>
		<circle style="fill:#BCB775;" cx="26" cy="40" r="7"/>
	</g>
	<g>
		<ellipse style="fill:#FFFF99;" cx="24.5" cy="40" rx="5.5" ry="6.835"/>
	</g>
	<g>
		<rect x="2" y="22" style="fill:#C1272D;" width="48" height="4"/>
	</g>
	<g>
		<rect x="2" y="22" style="fill:#CD5257;" width="44" height="4"/>
	</g>
	<g>
		<polygon style="fill:#A67C52;" points="8,8 5,2 2,8   "/>
	</g>
	<g>
		<polygon style="fill:#C69C6D;" points="2,8 6,8 4,4   "/>
	</g>
	<g>
		<polygon style="fill:#A67C52;" points="14,8 11,2 8,8   "/>
	</g>
	<g>
		<polygon style="fill:#C69C6D;" points="8,8 12,8 10,4   "/>
	</g>
	<g>
		<rect x="2" y="8" style="fill:#800000;" width="6" height="14"/>
	</g>
	<g>
		<rect x="2" y="8" style="fill:#BF0000;" width="4" height="14"/>
	</g>
	<g>
		<rect x="8" y="8" style="fill:#ED1E79;" width="6" height="14"/>
	</g>
	<g>
		<rect x="8" y="8" style="fill:#F14B94;" width="4" height="14"/>
	</g>
	<g>
		<rect x="14" y="8" style="fill:#BDB319;" width="6" height="14"/>
	</g>
	<g>
		<rect x="14" y="8" style="fill:#FFFF33;" width="4" height="14"/>
	</g>
	<g>
		<rect x="20" y="8" style="fill:#69952F;" width="6" height="14"/>
	</g>
	<g>
		<rect x="20" y="8" style="fill:#8CC63F;" width="4" height="14"/>
	</g>
	<g>
		<rect x="26" y="8" style="fill:#00558D;" width="6" height="14"/>
	</g>
	<g>
		<rect x="26" y="8" style="fill:#0071BC;" width="4" height="14"/>
	</g>
	<g>
		<rect x="32" y="8" style="fill:#29ABE2;" width="6" height="14"/>
	</g>
	<g>
		<rect x="32" y="8" style="fill:#54BCE8;" width="4" height="14"/>
	</g>
	<g>
		<rect x="38" y="8" style="fill:#46311D;" width="6" height="14"/>
	</g>
	<g>
		<rect x="38" y="8" style="fill:#694A2B;" width="4" height="14"/>
	</g>
	<g>
		<rect x="44" y="8" width="6" height="14"/>
	</g>
	<g>
		<rect x="44" y="8" style="fill:#333333;" width="4" height="14"/>
	</g>
	<g>
		<rect x="2" y="55" width="41.294" height="2"/>
	</g>
	<g>
		<path d="M44,63H2c-0.552,0-1-0.448-1-1V22h2v39h41V63z"/>
	</g>
	<g>
		<path d="M9,22H7V8.236l-2-4L2.895,8.447L1.105,7.553l3-6c0.339-0.678,1.45-0.678,1.789,0l3,6C8.964,7.691,9,7.845,9,8V22z"/>
	</g>
	<g>
		<path d="M15,22h-2V8.236l-2-4l-2,4V22H7V8c0-0.155,0.036-0.309,0.105-0.447l3-6c0.339-0.678,1.45-0.678,1.789,0l3,6    C14.964,7.691,15,7.845,15,8V22z"/>
	</g>
	<g>
		<polygon style="fill:#A67C52;" points="20,8 17,2 14,8   "/>
	</g>
	<g>
		<polygon style="fill:#C69C6D;" points="14,8 18,8 16,4   "/>
	</g>
	<g>
		<polygon style="fill:#A67C52;" points="26,8 23,2 20,8   "/>
	</g>
	<g>
		<polygon style="fill:#C69C6D;" points="20,8 24,8 22,4   "/>
	</g>
	<g>
		<polygon style="fill:#A67C52;" points="32,8 29,2 26,8   "/>
	</g>
	<g>
		<polygon style="fill:#C69C6D;" points="26,8 30,8 28,4   "/>
	</g>
	<g>
		<polygon style="fill:#A67C52;" points="38,8 35,2 32,8   "/>
	</g>
	<g>
		<polygon style="fill:#C69C6D;" points="32,8 36,8 34,4   "/>
	</g>
	<g>
		<polygon style="fill:#A67C52;" points="44,8 41,2 38,8   "/>
	</g>
	<g>
		<polygon style="fill:#C69C6D;" points="38,8 42,8 40,4   "/>
	</g>
	<g>
		<polygon style="fill:#A67C52;" points="50,8 47,2 44,8   "/>
	</g>
	<g>
		<polygon style="fill:#C69C6D;" points="44,8 48,8 46,4   "/>
	</g>
	<g>
		<path d="M21,22h-2V8.236l-2-4l-2,4V22h-2V8c0-0.155,0.036-0.309,0.105-0.447l3-6c0.339-0.678,1.45-0.678,1.789,0l3,6    C20.964,7.691,21,7.845,21,8V22z"/>
	</g>
	<g>
		<path d="M27,22h-2V8.236l-2-4l-2,4V22h-2V8c0-0.155,0.036-0.309,0.105-0.447l3-6c0.339-0.678,1.45-0.678,1.789,0l3,6    C26.964,7.691,27,7.845,27,8V22z"/>
	</g>
	<g>
		<path d="M33,22h-2V8.236l-2-4l-2,4V22h-2V8c0-0.155,0.036-0.309,0.105-0.447l3-6c0.339-0.678,1.45-0.678,1.789,0l3,6    C32.964,7.691,33,7.845,33,8V22z"/>
	</g>
	<g>
		<path d="M39,22h-2V8.236l-2-4l-2,4V22h-2V8c0-0.155,0.036-0.309,0.105-0.447l3-6c0.339-0.678,1.45-0.678,1.789,0l3,6    C38.964,7.691,39,7.845,39,8V22z"/>
	</g>
	<g>
		<path d="M45,22h-2V8.236l-2-4l-2,4V22h-2V8c0-0.155,0.036-0.309,0.105-0.447l3-6c0.339-0.678,1.45-0.678,1.789,0l3,6    C44.964,7.691,45,7.845,45,8V22z"/>
	</g>
	<g>
		<path d="M51,31h-2V8.236l-2-4l-2,4V15h-2V8c0-0.155,0.036-0.309,0.105-0.447l3-6c0.339-0.678,1.45-0.678,1.789,0l3,6    C50.964,7.691,51,7.845,51,8V31z"/>
	</g>
	<g>
		<path d="M50,23H2c-0.552,0-1-0.448-1-1V8c0-0.552,0.448-1,1-1h6v2H3v12h47V23z"/>
	</g>
	<g>
		<rect x="8" y="7" width="6" height="2"/>
	</g>
	<g>
		<rect x="14" y="7" width="6" height="2"/>
	</g>
	<g>
		<rect x="20" y="7" width="6" height="2"/>
	</g>
	<g>
		<rect x="26" y="7" width="6" height="2"/>
	</g>
	<g>
		<rect x="32" y="7" width="6" height="2"/>
	</g>
	<g>
		<rect x="38" y="7" width="6" height="2"/>
	</g>
	<g>
		<rect x="44" y="7" width="6" height="2"/>
	</g>
	<g>
		<path d="M60,63H44c-0.507,0-0.934-0.379-0.993-0.883l-2-17c-0.033-0.284,0.056-0.568,0.246-0.781C41.442,44.122,41.714,44,42,44    h20c0.286,0,0.558,0.122,0.747,0.335c0.19,0.213,0.279,0.498,0.246,0.781l-2,17C60.934,62.621,60.507,63,60,63z M44.889,61h14.222    l1.765-15H43.125L44.889,61z"/>
	</g>
	<g>
		<polygon style="fill:#BC9F7D;" points="47,32 50,40 50,45 44,45 44,40   "/>
	</g>
	<g>
		<polygon style="fill:#FCD4A6;" points="46,34.667 44,40 44,45 48,45 48,40   "/>
	</g>
	<g>
		<path d="M58,35c-2.757,0-5-2.243-5-5c0-2.132,0.439-4.2,1.305-6.147l2.782-6.259C57.247,17.233,57.605,17,58,17    s0.753,0.233,0.914,0.594l2.782,6.259C62.561,25.8,63,27.868,63,30C63,32.757,60.757,35,58,35z M58,20.462l-1.868,4.203    C55.381,26.355,55,28.15,55,30c0,1.654,1.346,3,3,3s3-1.346,3-3c0-1.85-0.381-3.645-1.132-5.335L58,20.462z"/>
	</g>
	<g>
		<rect x="55" y="33.465" width="2" height="11.535"/>
	</g>
	<g>
		<rect x="59" y="33.464" width="2" height="11.536"/>
	</g>
	<g>
		<rect x="2" y="25" width="48" height="2"/>
	</g>
	<g>
		<path d="M26,48c-4.411,0-8-3.589-8-8s3.589-8,8-8s8,3.589,8,8S30.411,48,26,48z M26,34c-3.309,0-6,2.691-6,6s2.691,6,6,6    s6-2.691,6-6S29.309,34,26,34z"/>
	</g>
	<g>
		<rect x="44" y="40" style="fill:#B96F18;" width="6" height="5"/>
	</g>
	<g>
		<rect x="44" y="40" style="fill:#F7931E;" width="4" height="5"/>
	</g>
	<g>
		<rect x="44" y="40" width="6" height="2"/>
	</g>
	<g>
		<path d="M50,46h-6c-0.552,0-1-0.448-1-1v-5c0-0.12,0.021-0.239,0.063-0.351l3-8C46.21,31.259,46.583,31,47,31    s0.79,0.259,0.937,0.649l3,8C50.979,39.761,51,39.88,51,40v5C51,45.552,50.552,46,50,46z M45,44h4v-3.819l-2-5.333l-2,5.333V44z"/>
	</g>
</g>
</svg>
