<?xml version="1.0" encoding="iso-8859-1"?>
<!-- Generator: Adobe Illustrator 22.1.0, SVG Export Plug-In . SVG Version: 6.00 Build 0)  -->
<svg xmlns="http://www.w3.org/2000/svg" xmlns:xlink="http://www.w3.org/1999/xlink" version="1.1" id="Layer_3" x="0px" y="0px" viewBox="0 0 64 64" style="enable-background:new 0 0 64 64;" xml:space="preserve" width="512" height="512">
<g>
	<g>
		<circle style="fill:#0B476F;" cx="45" cy="19" r="17"/>
	</g>
	<g>
		<ellipse style="fill:#3C6C8C;" cx="43" cy="19" rx="15" ry="16.872"/>
	</g>
	<g>
		<rect x="44" y="46" style="fill:#4D4D4D;" width="4" height="8"/>
	</g>
	<g>
		<rect x="44" y="46" style="fill:#666666;" width="2" height="8"/>
	</g>
	<g>
		<polyline style="fill:#999999;" points="14,46 18,46 26,54 2,54 10,46 14,46   "/>
	</g>
	<g>
		<polygon style="fill:#B3B3B3;" points="10,46 2,54 22,54 14,46   "/>
	</g>
	<g>
		<rect x="2" y="54" style="fill:#8C6239;" width="60" height="8"/>
	</g>
	<g>
		<rect x="2" y="54" style="fill:#A67C52;" width="56" height="8"/>
	</g>
	<g>
		<polygon style="fill:#4D4D4D;" points="44,46 38,46 38,42 54,42 54,46 48,46   "/>
	</g>
	<g>
		<polygon style="fill:#666666;" points="38,42 38,46 40,46 44,46 48,46 50,46 50,42   "/>
	</g>
	<g>
		
			<rect x="14.757" y="4.172" transform="matrix(0.7071 -0.7071 0.7071 0.7071 0.6152 15.4853)" style="fill:#4D4D4D;" width="8.485" height="5.657"/>
	</g>
	<g>
		
			<rect x="14.318" y="5.232" transform="matrix(0.7071 -0.7071 0.7071 0.7071 0.1759 14.4246)" style="fill:#666666;" width="6.364" height="3.536"/>
	</g>
	<g>
		
			<rect x="38.757" y="28.172" transform="matrix(0.7071 -0.7071 0.7071 0.7071 -9.3259 39.4853)" style="fill:#4D4D4D;" width="8.485" height="5.657"/>
	</g>
	<g>
		
			<rect x="38.464" y="28.879" transform="matrix(0.7071 -0.7071 0.7071 0.7071 -9.6188 38.7782)" style="fill:#666666;" width="7.071" height="4.243"/>
	</g>
	<g>
		<path style="fill:#ED1C24;" d="M39.403,12.481l-1.922,1.922c-0.796,0.796-2.087,0.796-2.883,0v0c-0.796-0.796-0.796-2.087,0-2.883    l1.922-1.922c0.796-0.796,2.087-0.796,2.883,0v0C40.199,10.393,40.199,11.684,39.403,12.481z"/>
	</g>
	<g>
		<polygon style="fill:#BBB451;" points="25,23 36,34 46,24 26,4 16,14 21,19   "/>
	</g>
	<g>
		<polygon style="fill:#FFFF66;" points="42,24 24,6 16,14 21,19 25,23 34,32   "/>
	</g>
	<g>
		<path style="fill:#666666;" d="M18,46L18,46l-8,0v0c0-10.245,4.07-20.07,11.314-27.314L26,14l4,4l-0.686,0.686    C22.07,25.93,18,35.755,18,46z"/>
	</g>
	<g>
		<path style="fill:#808080;" d="M26.314,18.686L27,18l-2.5-2.5l-3.186,3.186C14.07,25.93,10,35.755,10,46v0h5v0    C15,35.755,19.07,25.93,26.314,18.686z"/>
	</g>
	<g>
		<circle style="fill:#B2151B;" cx="45" cy="19" r="3"/>
	</g>
	<g>
		<ellipse style="fill:#ED1C24;" cx="44" cy="19" rx="2" ry="2.816"/>
	</g>
	<g>
		<path style="fill:#ED1C24;" d="M48.519,11.403l-1.922-1.922c-0.796-0.796-0.796-2.087,0-2.883v0c0.796-0.796,2.087-0.796,2.883,0    l1.922,1.922c0.796,0.796,0.796,2.087,0,2.883v0C50.607,12.199,49.316,12.199,48.519,11.403z"/>
	</g>
	<g>
		<path style="fill:#ED1C24;" d="M57.403,21.481l-1.922,1.922c-0.796,0.796-2.087,0.796-2.883,0v0c-0.796-0.796-0.796-2.087,0-2.883    l1.922-1.922c0.796-0.796,2.087-0.796,2.883,0v0C58.199,19.393,58.199,20.684,57.403,21.481z"/>
	</g>
	<g>
		<path d="M62,63H2c-0.552,0-1-0.447-1-1v-8c0-0.553,0.448-1,1-1h60c0.552,0,1,0.447,1,1v8C63,62.553,62.552,63,62,63z M3,61h58v-6    H3V61z"/>
	</g>
	<g>
		<path d="M25.293,54.707L17.586,47h-7.172l-7.707,7.707l-1.414-1.414l8-8C9.48,45.105,9.735,45,10,45h8    c0.265,0,0.52,0.105,0.707,0.293l8,8L25.293,54.707z"/>
	</g>
	<g>
		<path d="M49,54h-2v-7h-2v7h-2v-8c0-0.553,0.448-1,1-1h4c0.552,0,1,0.447,1,1V54z"/>
	</g>
	<g>
		<path d="M54,47h-6v-2h5v-2H39v2h5v2h-6c-0.552,0-1-0.447-1-1v-4c0-0.553,0.448-1,1-1h16c0.552,0,1,0.447,1,1v4    C55,46.553,54.552,47,54,47z"/>
	</g>
	<g>
		<path d="M18,47h-8c-0.552,0-1-0.447-1-1c0-10.585,4.122-20.536,11.606-28.021l4.687-4.687c0.391-0.391,1.023-0.391,1.414,0l4,4    c0.391,0.391,0.391,1.023,0,1.414l-0.687,0.687C22.914,26.5,19,35.949,19,46C19,46.553,18.552,47,18,47z M11.013,45h5.999    c0.251-10.201,4.338-19.754,11.574-27L26,15.414l-3.979,3.979C15.15,26.264,11.264,35.323,11.013,45z"/>
	</g>
	<g>
		<path d="M36,35c-0.256,0-0.512-0.098-0.707-0.293l-11-11l1.414-1.414L36,32.586L44.586,24L26,5.414L17.414,14l4.293,4.293    l-1.414,1.414l-5-5c-0.391-0.391-0.391-1.023,0-1.414l10-10c0.391-0.391,1.023-0.391,1.414,0l20,20    c0.391,0.391,0.391,1.023,0,1.414l-10,10C36.512,34.902,36.256,35,36,35z"/>
	</g>
	<g>
		<path d="M17.293,12.707l-4-4c-0.391-0.391-0.391-1.023,0-1.414l6-6c0.391-0.391,1.023-0.391,1.414,0l4,4l-1.414,1.414L20,3.414    L15.414,8l3.293,3.293L17.293,12.707z"/>
	</g>
	<g>
		<path d="M42,37c-0.256,0-0.512-0.098-0.707-0.293l-4-4l1.414-1.414L42,34.586L46.586,30l-3.293-3.293l1.414-1.414l4,4    c0.391,0.391,0.391,1.023,0,1.414l-6,6C42.512,36.902,42.256,37,42,37z"/>
	</g>
	<g>
		<rect x="30.929" y="25" transform="matrix(0.7071 -0.7071 0.7071 0.7071 -7.2548 34.4853)" width="14.142" height="2"/>
	</g>
	<g>
		<rect x="16.929" y="10" transform="matrix(0.7071 -0.7071 0.7071 0.7071 -0.7487 20.1924)" width="14.142" height="2"/>
	</g>
	<g>
		<path d="M47.116,36.877l-0.232-1.986C54.931,33.947,61,27.116,61,19c0-8.822-7.178-16-16-16c-3.791,0-7.468,1.35-10.353,3.8    l-1.295-1.524C36.599,2.519,40.735,1,45,1c9.925,0,18,8.075,18,18C63,28.13,56.171,35.815,47.116,36.877z"/>
	</g>
	<g>
		<path d="M49.961,13c-0.812,0-1.575-0.316-2.148-0.89l-1.922-1.922C45.316,9.614,45,8.851,45,8.039s0.316-1.575,0.89-2.149    c1.147-1.148,3.149-1.148,4.298,0l1.922,1.922C52.684,8.386,53,9.149,53,9.961s-0.316,1.575-0.89,2.149    C51.536,12.684,50.773,13,49.961,13z M48.039,7c-0.277,0-0.539,0.108-0.735,0.304S47,7.762,47,8.039s0.108,0.538,0.304,0.734    l1.922,1.923c0,0,0,0,0,0c0.392,0.393,1.076,0.393,1.469,0C50.892,10.5,51,10.238,51,9.961s-0.108-0.538-0.304-0.734l-1.922-1.923    C48.577,7.108,48.316,7,48.039,7z"/>
	</g>
	<g>
		<path d="M54.039,25c-0.812,0-1.575-0.316-2.149-0.89C51.316,23.536,51,22.773,51,21.961s0.316-1.575,0.89-2.149l1.922-1.922    c1.147-1.148,3.15-1.148,4.297,0c0.574,0.574,0.89,1.337,0.89,2.149c0,0.812-0.316,1.575-0.89,2.148l-1.922,1.922    C55.614,24.684,54.851,25,54.039,25z M55.961,19c-0.277,0-0.538,0.108-0.734,0.304l-1.923,1.922    C53.108,21.423,53,21.684,53,21.961s0.108,0.539,0.304,0.735c0.393,0.393,1.077,0.393,1.469,0l1.923-1.922c0,0,0,0,0,0    C56.892,20.577,57,20.316,57,20.039s-0.108-0.539-0.304-0.735S56.238,19,55.961,19z"/>
	</g>
	<g>
		<path d="M39.707,13.59l-1.414-1.414l0.403-0.403C38.892,11.577,39,11.316,39,11.039s-0.108-0.539-0.304-0.735    c-0.393-0.393-1.077-0.393-1.469,0l-0.403,0.403L35.41,9.293l0.403-0.403c1.147-1.148,3.15-1.148,4.297,0    C40.684,9.464,41,10.227,41,11.039s-0.316,1.575-0.89,2.149L39.707,13.59z"/>
	</g>
	<g>
		<path d="M47.667,21.981l-1.334-1.49C46.757,20.111,47,19.568,47,19c0-1.103-0.897-2-2-2c-0.568,0-1.111,0.243-1.491,0.667    l-1.49-1.334C42.777,15.486,43.864,15,45,15c2.206,0,4,1.794,4,4C49,20.136,48.514,21.223,47.667,21.981z"/>
	</g>
</g>
</svg>
