<?xml version="1.0" encoding="iso-8859-1"?>
<!-- Generator: Adobe Illustrator 22.1.0, SVG Export Plug-In . SVG Version: 6.00 Build 0)  -->
<svg xmlns="http://www.w3.org/2000/svg" xmlns:xlink="http://www.w3.org/1999/xlink" version="1.1" id="Layer_3" x="0px" y="0px" viewBox="0 0 64 64" style="enable-background:new 0 0 64 64;" xml:space="preserve" width="512" height="512">
<g>
	<g>
		<rect x="2" y="56" style="fill:#694A2B;" width="60" height="6"/>
	</g>
	<g>
		<rect x="2" y="56" style="fill:#8C6239;" width="56" height="6"/>
	</g>
	<g>
		<path style="fill:#333333;" d="M42,10c1.105,0,2-0.895,2-2V6c0-1.105-0.895-2-2-2h-5v6H42z"/>
	</g>
	<g>
		<path style="fill:#4D4D4D;" d="M42,8V6c0-1.105-0.895-2-2-2h-3v6h3C41.105,10,42,9.105,42,8z"/>
	</g>
	<g>
		<polygon style="fill:#F2D194;" points="10,10 3,7 10,4   "/>
	</g>
	<g>
		<rect x="10" y="4" style="fill:#BCB33E;" width="27" height="6"/>
	</g>
	<g>
		<rect x="10" y="4" style="fill:#FDF14D;" width="24" height="6"/>
	</g>
	<g>
		<rect x="2" y="28" style="fill:#2B8838;" width="46" height="14"/>
	</g>
	<g>
		<rect x="2" y="28" style="fill:#39B54A;" width="43" height="14"/>
	</g>
	<g>
		<circle style="fill:#694A2B;" cx="41" cy="35" r="3"/>
	</g>
	<g>
		<ellipse style="fill:#8C6239;" cx="40" cy="35" rx="2" ry="2.816"/>
	</g>
	<g>
		<rect x="2" y="42" style="fill:#155671;" width="46" height="14"/>
	</g>
	<g>
		<rect x="2" y="42" style="fill:#0C6D95;" width="43" height="14"/>
	</g>
	<g>
		<circle style="fill:#694A2B;" cx="9" cy="49" r="3"/>
	</g>
	<g>
		<ellipse style="fill:#8C6239;" cx="8" cy="49" rx="2" ry="2.816"/>
	</g>
	<g>
		<rect x="20" y="32" style="fill:#B3B3B3;" width="14" height="6"/>
	</g>
	<g>
		<rect x="20" y="32" style="fill:#CCCCCC;" width="11" height="6"/>
	</g>
	<g>
		<rect x="2" y="14" style="fill:#B2151B;" width="46" height="14"/>
	</g>
	<g>
		<rect x="2" y="14" style="fill:#ED1C24;" width="43" height="14"/>
	</g>
	<g>
		<rect x="34" y="18" style="fill:#B3B3B3;" width="10" height="6"/>
	</g>
	<g>
		<rect x="34" y="18" style="fill:#CCCCCC;" width="7" height="6"/>
	</g>
	<g>
		<rect x="18" y="46" style="fill:#B3B3B3;" width="10" height="6"/>
	</g>
	<g>
		<rect x="18" y="46" style="fill:#CCCCCC;" width="7" height="6"/>
	</g>
	<g>
		<path style="fill:#BF7E04;" d="M48,56V4c0-1.105,0.895-2,2-2h10c1.105,0,2,0.895,2,2v52H48z"/>
	</g>
	<g>
		<path style="fill:#D9A404;" d="M57,2h-7c-1.105,0-2,0.895-2,2v52h11V4C59,2.895,58.105,2,57,2z"/>
	</g>
	<g>
		<rect x="52" y="36" style="fill:#B3B3B3;" width="6" height="16"/>
	</g>
	<g>
		<rect x="52" y="36" style="fill:#CCCCCC;" width="4" height="16"/>
	</g>
	<g>
		<path d="M48,57H2c-0.552,0-1-0.448-1-1V42c0-0.552,0.448-1,1-1h46c0.552,0,1,0.448,1,1v14C49,56.552,48.552,57,48,57z M3,55h44V43    H3V55z"/>
	</g>
	<g>
		<path d="M48,43H2c-0.552,0-1-0.448-1-1V28c0-0.552,0.448-1,1-1h46c0.552,0,1,0.448,1,1v14C49,42.552,48.552,43,48,43z M3,41h44V29    H3V41z"/>
	</g>
	<g>
		<path d="M48,29H2c-0.552,0-1-0.448-1-1V14c0-0.552,0.448-1,1-1h46c0.552,0,1,0.448,1,1v14C49,28.552,48.552,29,48,29z M3,27h44V15    H3V27z"/>
	</g>
	<g>
		<path d="M62,63H2c-0.552,0-1-0.448-1-1v-6c0-0.552,0.448-1,1-1h60c0.552,0,1,0.448,1,1v6C63,62.552,62.552,63,62,63z M3,61h58v-4    H3V61z"/>
	</g>
	<g>
		<path d="M63,56h-2V4c0-0.551-0.449-1-1-1H50c-0.551,0-1,0.449-1,1v11h-2V4c0-1.654,1.346-3,3-3h10c1.654,0,3,1.346,3,3V56z"/>
	</g>
	<g>
		<path d="M58,53h-6c-0.552,0-1-0.448-1-1V36c0-0.552,0.448-1,1-1h6c0.552,0,1,0.448,1,1v16C59,52.552,58.552,53,58,53z M53,51h4V37    h-4V51z"/>
	</g>
	<g>
		<rect x="7" y="17" width="2" height="8"/>
	</g>
	<g>
		<rect x="11" y="17" width="2" height="8"/>
	</g>
	<g>
		<rect x="15" y="17" width="2" height="8"/>
	</g>
	<g>
		<rect x="19" y="17" width="2" height="8"/>
	</g>
	<g>
		<path d="M44,25H34c-0.552,0-1-0.448-1-1v-6c0-0.552,0.448-1,1-1h10c0.552,0,1,0.448,1,1v6C45,24.552,44.552,25,44,25z M35,23h8v-4    h-8V23z"/>
	</g>
	<g>
		<rect x="43" y="45" width="2" height="8"/>
	</g>
	<g>
		<rect x="39" y="45" width="2" height="8"/>
	</g>
	<g>
		<rect x="35" y="45" width="2" height="8"/>
	</g>
	<g>
		<rect x="31" y="45" width="2" height="8"/>
	</g>
	<g>
		<path d="M28,53H18c-0.552,0-1-0.448-1-1v-6c0-0.552,0.448-1,1-1h10c0.552,0,1,0.448,1,1v6C29,52.552,28.552,53,28,53z M19,51h8v-4    h-8V51z"/>
	</g>
	<g>
		<rect x="5" y="31" width="2" height="8"/>
	</g>
	<g>
		<rect x="9" y="31" width="2" height="8"/>
	</g>
	<g>
		<rect x="13" y="31" width="2" height="8"/>
	</g>
	<g>
		<path d="M34,39H20c-0.552,0-1-0.448-1-1v-6c0-0.552,0.448-1,1-1h14c0.552,0,1,0.448,1,1v6C35,38.552,34.552,39,34,39z M21,37h12    v-4H21V37z"/>
	</g>
	<g>
		<path d="M42,11H10c-0.12,0-0.239-0.021-0.351-0.063l-8-3C1.259,7.79,1,7.417,1,7s0.259-0.79,0.649-0.937l8-3    C9.761,3.021,9.88,3,10,3h32c1.654,0,3,1.346,3,3v2C45,9.654,43.654,11,42,11z M10.181,9H42c0.551,0,1-0.449,1-1V6    c0-0.551-0.449-1-1-1H10.181L4.848,7L10.181,9z"/>
	</g>
	<g>
		<rect x="9" y="4" width="2" height="6"/>
	</g>
	<g>
		<rect x="36" y="4" width="2" height="6"/>
	</g>
	<g>
		<path d="M41,39c-2.206,0-4-1.794-4-4s1.794-4,4-4s4,1.794,4,4S43.206,39,41,39z M41,33c-1.103,0-2,0.897-2,2s0.897,2,2,2    s2-0.897,2-2S42.103,33,41,33z"/>
	</g>
	<g>
		<path d="M9,53c-2.206,0-4-1.794-4-4s1.794-4,4-4s4,1.794,4,4S11.206,53,9,53z M9,47c-1.103,0-2,0.897-2,2s0.897,2,2,2s2-0.897,2-2    S10.103,47,9,47z"/>
	</g>
	<g>
		<path d="M37,11H10c-0.552,0-1-0.448-1-1V4c0-0.552,0.448-1,1-1h27c0.552,0,1,0.448,1,1v6C38,10.552,37.552,11,37,11z M11,9h25V5    H11V9z"/>
	</g>
</g>
</svg>
