<?xml version="1.0" encoding="iso-8859-1"?>
<!-- Generator: Adobe Illustrator 22.1.0, SVG Export Plug-In . SVG Version: 6.00 Build 0)  -->
<svg xmlns="http://www.w3.org/2000/svg" xmlns:xlink="http://www.w3.org/1999/xlink" version="1.1" id="Layer_3" x="0px" y="0px" viewBox="0 0 64 64" style="enable-background:new 0 0 64 64;" xml:space="preserve" width="512" height="512">
<g>
	<g>
		<path style="fill:#F7931E;" d="M37,14l-1.464,1.464c-1.953,1.953-5.118,1.953-7.071,0L27,14h11"/>
	</g>
	<g>
		<path style="fill:#FBB03B;" d="M31,16.824c0.929-0.189,1.815-0.639,2.536-1.36L35,14h-8l1.464,1.464    C29.185,16.185,30.071,16.635,31,16.824z"/>
	</g>
	<g>
		<path style="fill:#9F060B;" d="M26,50v-1c0-1.657-1.343-3-3-3h0c-1.657,0-3,1.343-3,3v1H26z"/>
	</g>
	<g>
		<path style="fill:#B3383C;" d="M22,46.184c-1.163,0.413-2,1.512-2,2.816v1h4v-1C24,47.696,23.163,46.597,22,46.184z"/>
	</g>
	<g>
		<rect x="4" y="58" style="fill:#666666;" width="6" height="4"/>
	</g>
	<g>
		<rect x="4" y="58" style="fill:#808080;" width="4" height="4"/>
	</g>
	<g>
		<rect x="20" y="58" style="fill:#666666;" width="6" height="4"/>
	</g>
	<g>
		<rect x="20" y="58" style="fill:#808080;" width="4" height="4"/>
	</g>
	<g>
		<path style="fill:#666666;" d="M12,50v-4c0-1.105-0.895-2-2-2H6c-1.105,0-2,0.895-2,2v4H12z"/>
	</g>
	<g>
		<path style="fill:#808080;" d="M8,44H6c-1.105,0-2,0.895-2,2v4h6v-4C10,44.895,9.105,44,8,44z"/>
	</g>
	<g>
		<path style="fill:#555656;" d="M10,44V12c0-1.105,0.895-2,2-2h9V6h-9c-3.314,0-6,2.686-6,6v32H10z"/>
	</g>
	<g>
		<path style="fill:#717171;" d="M12,6c-3.314,0-6,2.686-6,6v32h2V12c0-1.105,0.895-2,2-2h2h7V6H12z"/>
	</g>
	<g>
		<path style="fill:#1A8856;" d="M4,50h22c1.105,0,2,0.895,2,2v4c0,1.105-0.895,2-2,2H4c-1.105,0-2-0.895-2-2v-4    C2,50.895,2.895,50,4,50z"/>
	</g>
	<g>
		<path style="fill:#22B573;" d="M25,56v-4c0-1.105-0.895-2-2-2H4c-1.105,0-2,0.895-2,2v4c0,1.105,0.895,2,2,2h19    C24.105,58,25,57.105,25,56z"/>
	</g>
	<g>
		<path style="fill:#1A8856;" d="M21,14V6c0-2.209,1.791-4,4-4h14c2.209,0,4,1.791,4,4v8H21z"/>
	</g>
	<g>
		<path style="fill:#22B573;" d="M36,2H25c-2.209,0-4,1.791-4,4v8h19V6C40,3.791,38.209,2,36,2z"/>
	</g>
	<g>
		<path style="fill:#105B3A;" d="M21,6h22c0-2.209-1.791-4-4-4H25C22.791,2,21,3.791,21,6z"/>
	</g>
	<g>
		<path style="fill:#188856;" d="M37,2H25c-2.209,0-4,1.791-4,4h20C41,3.791,39.209,2,37,2z"/>
	</g>
	<g>
		<polygon style="fill:#B3B3B3;" points="54,53 58,53 58,47 54,47 54,43 62,43 62,57 54,57   "/>
	</g>
	<g>
		<polygon style="fill:#CCCCCC;" points="54,43 54,47 56,47 58,47 58,53 56,53 54,53 54,57 60,57 60,43   "/>
	</g>
	<g>
		<rect x="34" y="38" style="fill:#E6E6E6;" width="20" height="24"/>
	</g>
	<g>
		<rect x="34" y="38" style="fill:#F2F2F2;" width="16" height="24"/>
	</g>
	<g>
		<circle style="fill:#754C24;" cx="44" cy="50" r="4"/>
	</g>
	<g>
		<ellipse style="fill:#8C6239;" cx="43" cy="50" rx="3" ry="3.859"/>
	</g>
	<g>
		<rect x="34" y="38" style="fill:#A67C52;" width="20" height="4"/>
	</g>
	<g>
		<rect x="34" y="38" style="fill:#C69C6D;" width="16" height="4"/>
	</g>
	<g>
		<rect x="34" y="58" style="fill:#A67C52;" width="20" height="4"/>
	</g>
	<g>
		<rect x="34" y="58" style="fill:#C69C6D;" width="16" height="4"/>
	</g>
	<g>
		<path d="M26,59H4c-1.654,0-3-1.346-3-3v-4c0-1.654,1.346-3,3-3h22c1.654,0,3,1.346,3,3v4C29,57.654,27.654,59,26,59z M4,51    c-0.551,0-1,0.449-1,1v4c0,0.551,0.449,1,1,1h22c0.551,0,1-0.449,1-1v-4c0-0.551-0.449-1-1-1H4z"/>
	</g>
	<g>
		<path d="M10,63H4c-0.552,0-1-0.448-1-1v-4h2v3h4v-3h2v4C11,62.552,10.552,63,10,63z"/>
	</g>
	<g>
		<path d="M26,63h-6c-0.552,0-1-0.448-1-1v-4h2v3h4v-3h2v4C27,62.552,26.552,63,26,63z"/>
	</g>
	<g>
		<path d="M13,50h-2v-4c0-0.551-0.449-1-1-1H6c-0.551,0-1,0.449-1,1v4H3v-4c0-1.654,1.346-3,3-3h4c1.654,0,3,1.346,3,3V50z"/>
	</g>
	<g>
		<path d="M11,44H9V12c0-1.654,1.346-3,3-3h8V7h-8c-2.757,0-5,2.243-5,5v32H5V12c0-3.86,3.14-7,7-7h9c0.552,0,1,0.448,1,1v4    c0,0.552-0.448,1-1,1h-9c-0.551,0-1,0.449-1,1V44z"/>
	</g>
	<g>
		<path d="M43,15H21c-0.552,0-1-0.448-1-1V6c0-2.757,2.243-5,5-5h14c2.757,0,5,2.243,5,5v8C44,14.552,43.552,15,43,15z M22,13h20V6    c0-1.654-1.346-3-3-3H25c-1.654,0-3,1.346-3,3V13z"/>
	</g>
	<g>
		<path d="M32,17.929c-1.603,0-3.109-0.624-4.243-1.757l-1.464-1.464l1.414-1.414l1.464,1.464c1.56,1.56,4.098,1.56,5.657,0    l1.464-1.464l1.414,1.414l-1.464,1.464C35.109,17.305,33.603,17.929,32,17.929z"/>
	</g>
	<g>
		<path d="M27,50h-2v-1c0-1.103-0.897-2-2-2s-2,0.897-2,2v1h-2v-1c0-2.206,1.794-4,4-4s4,1.794,4,4V50z"/>
	</g>
	<g>
		<rect x="21" y="5" width="22" height="2"/>
	</g>
	<g>
		<path d="M54,63H34c-0.552,0-1-0.448-1-1V38c0-0.552,0.448-1,1-1h20c0.552,0,1,0.448,1,1v24C55,62.552,54.552,63,54,63z M35,61h18    V39H35V61z"/>
	</g>
	<g>
		<rect x="34" y="41" width="20" height="2"/>
	</g>
	<g>
		<path d="M49.293,34.707L48,33.414c-0.645-0.645-1-1.502-1-2.414s0.355-1.77,1-2.414L48.586,28C48.849,27.737,49,27.372,49,27    s-0.151-0.737-0.414-1l-1.293-1.293l1.414-1.414L50,24.586c0.645,0.645,1,1.502,1,2.414s-0.355,1.77-1,2.414L49.414,30    C49.151,30.263,49,30.628,49,31s0.151,0.737,0.414,1l1.293,1.293L49.293,34.707z"/>
	</g>
	<g>
		<path d="M44.293,34.707L43,33.414c-0.645-0.645-1-1.502-1-2.414s0.355-1.77,1-2.414L43.586,28C43.849,27.737,44,27.372,44,27    s-0.151-0.737-0.414-1l-1.293-1.293l1.414-1.414L45,24.586c0.645,0.645,1,1.502,1,2.414s-0.355,1.77-1,2.414L44.414,30    C44.151,30.263,44,30.628,44,31s0.151,0.737,0.414,1l1.293,1.293L44.293,34.707z"/>
	</g>
	<g>
		<path d="M39.293,34.707L38,33.414c-0.645-0.645-1-1.502-1-2.414s0.355-1.77,1-2.414L38.586,28C38.849,27.737,39,27.372,39,27    s-0.151-0.737-0.414-1l-1.293-1.293l1.414-1.414L40,24.586c0.645,0.645,1,1.502,1,2.414s-0.355,1.77-1,2.414L39.414,30    C39.151,30.263,39,30.628,39,31s0.151,0.737,0.414,1l1.293,1.293L39.293,34.707z"/>
	</g>
	<g>
		<rect x="34" y="57" width="20" height="2"/>
	</g>
	<g>
		<path d="M62,58h-8v-2h7V44h-7v-2h8c0.552,0,1,0.448,1,1v14C63,57.552,62.552,58,62,58z"/>
	</g>
	<g>
		<path d="M58,54h-4v-2h3v-4h-3v-2h4c0.552,0,1,0.448,1,1v6C59,53.552,58.552,54,58,54z"/>
	</g>
	<g>
		<path d="M44,55c-2.757,0-5-2.243-5-5s2.243-5,5-5s5,2.243,5,5S46.757,55,44,55z M44,47c-1.654,0-3,1.346-3,3s1.346,3,3,3    s3-1.346,3-3S45.654,47,44,47z"/>
	</g>
</g>
</svg>
