<?xml version="1.0" encoding="iso-8859-1"?>
<!-- Generator: Adobe Illustrator 22.1.0, SVG Export Plug-In . SVG Version: 6.00 Build 0)  -->
<svg xmlns="http://www.w3.org/2000/svg" xmlns:xlink="http://www.w3.org/1999/xlink" version="1.1" id="Layer_3" x="0px" y="0px" viewBox="0 0 64 64" style="enable-background:new 0 0 64 64;" xml:space="preserve" width="512" height="512">
<g>
	<g>
		<rect x="4" y="2" style="fill:#0E3E60;" width="56" height="40"/>
	</g>
	<g>
		<rect x="4" y="2" style="fill:#155D90;" width="53" height="40"/>
	</g>
	<g>
		<polygon style="fill:#E6E6E6;" points="56,38 8,38 8,6 56,6 56,38   "/>
	</g>
	<g>
		<rect x="8" y="6" style="fill:#F2F2F2;" width="45" height="32"/>
	</g>
	<g>
		<rect x="12" y="10" style="fill:#4D4D4D;" width="22" height="16"/>
	</g>
	<g>
		<rect x="12" y="10" style="fill:#666666;" width="19" height="16"/>
	</g>
	<g>
		<rect x="40" y="10" style="fill:#FF0000;" width="4" height="4"/>
	</g>
	<g>
		<polygon style="fill:#FF0000;" points="20,15 20,21 25,18   "/>
	</g>
	<g>
		<polygon style="fill:#FF0000;" points="20,15 20,21 25,18   "/>
	</g>
	<g>
		<path style="fill:#0E3E60;" d="M36,42H4c-1.105,0-2,0.895-2,2v4c0,1.105,0.895,2,2,2h32V42z"/>
	</g>
	<g>
		<path style="fill:#155D90;" d="M4,42c-1.105,0-2,0.895-2,2v4c0,1.105,0.895,2,2,2h29v-8H4z"/>
	</g>
	<g>
		<path d="M36,51H4c-1.654,0-3-1.346-3-3v-4c0-1.654,1.346-3,3-3h32v2H4c-0.551,0-1,0.448-1,1v4c0,0.552,0.449,1,1,1h32V51z"/>
	</g>
	<g>
		<path d="M5,42H3V2c0-0.553,0.448-1,1-1h56c0.552,0,1,0.447,1,1v32h-2V3H5V42z"/>
	</g>
	<g>
		<path d="M36,39H8c-0.552,0-1-0.447-1-1V6c0-0.553,0.448-1,1-1h48c0.552,0,1,0.447,1,1v28h-2V7H9v30h27V39z"/>
	</g>
	<g>
		<path d="M34,27H12c-0.552,0-1-0.447-1-1V10c0-0.553,0.448-1,1-1h22c0.552,0,1,0.447,1,1v16C35,26.553,34.552,27,34,27z M13,25h20    V11H13V25z"/>
	</g>
	<g>
		<rect x="13" y="29" width="20" height="2"/>
	</g>
	<g>
		<rect x="13" y="33" width="20" height="2"/>
	</g>
	<g>
		<path d="M44,15h-4c-0.552,0-1-0.447-1-1v-4c0-0.553,0.448-1,1-1h4c0.552,0,1,0.447,1,1v4C45,14.553,44.552,15,44,15z M41,13h2v-2    h-2V13z"/>
	</g>
	<g>
		<rect x="40" y="26" style="fill:#FF0000;" width="4" height="4"/>
	</g>
	<g>
		<rect x="40" y="18" style="fill:#FF0000;" width="4" height="4"/>
	</g>
	<g>
		<path d="M44,23h-4c-0.552,0-1-0.447-1-1v-4c0-0.553,0.448-1,1-1h4c0.552,0,1,0.447,1,1v4C45,22.553,44.552,23,44,23z M41,21h2v-2    h-2V21z"/>
	</g>
	<g>
		<path d="M44,31h-4c-0.552,0-1-0.447-1-1v-4c0-0.553,0.448-1,1-1h4c0.552,0,1,0.447,1,1v4C45,30.553,44.552,31,44,31z M41,29h2v-2    h-2V29z"/>
	</g>
	<g>
		<rect x="47" y="11" width="6" height="2"/>
	</g>
	<g>
		<rect x="47" y="19" width="6" height="2"/>
	</g>
	<g>
		<rect x="47" y="27" width="6" height="2"/>
	</g>
	<g>
		<path d="M20,22c-0.17,0-0.34-0.043-0.493-0.13C19.194,21.692,19,21.36,19,21v-6c0-0.36,0.194-0.692,0.507-0.87    c0.313-0.178,0.698-0.173,1.007,0.013l5,3C25.816,17.323,26,17.648,26,18s-0.184,0.677-0.485,0.857l-5,3    C20.356,21.952,20.178,22,20,22z M21,16.767v2.467L23.056,18L21,16.767z"/>
	</g>
	<g>
		<rect x="42" y="34" style="fill:#754C24;" width="20" height="28"/>
	</g>
	<g>
		<rect x="42" y="34" style="fill:#8C6239;" width="17" height="28"/>
	</g>
	<g>
		<rect x="48" y="54" style="fill:#006E35;" width="8" height="4"/>
	</g>
	<g>
		<rect x="48" y="54" style="fill:#009245;" width="5" height="4"/>
	</g>
	<g>
		<rect x="46" y="38" style="fill:#006E35;" width="12" height="4"/>
	</g>
	<g>
		<rect x="46" y="38" style="fill:#009245;" width="9" height="4"/>
	</g>
	<g>
		<rect x="36" y="34" style="fill:#603813;" width="6" height="28"/>
	</g>
	<g>
		<rect x="36" y="34" style="fill:#754C24;" width="4" height="28"/>
	</g>
	<g>
		<rect x="5" y="45" width="2" height="2"/>
	</g>
	<g>
		<rect x="9" y="45" width="2" height="2"/>
	</g>
	<g>
		<rect x="13" y="45" width="2" height="2"/>
	</g>
	<g>
		<rect x="17" y="45" width="2" height="2"/>
	</g>
	<g>
		<rect x="21" y="45" width="2" height="2"/>
	</g>
	<g>
		<path d="M42,63h-6c-0.552,0-1-0.447-1-1V34c0-0.553,0.448-1,1-1h6c0.552,0,1,0.447,1,1v28C43,62.553,42.552,63,42,63z M37,61h4V35    h-4V61z"/>
	</g>
	<g>
		<path d="M62,63H42c-0.552,0-1-0.447-1-1V34c0-0.553,0.448-1,1-1h20c0.552,0,1,0.447,1,1v28C63,62.553,62.552,63,62,63z M43,61h18    V35H43V61z"/>
	</g>
	<g>
		<path d="M56,59h-8c-0.552,0-1-0.447-1-1v-4c0-0.553,0.448-1,1-1h8c0.552,0,1,0.447,1,1v4C57,58.553,56.552,59,56,59z M49,57h6v-2    h-6V57z"/>
	</g>
	<g>
		<path d="M58,43H46c-0.552,0-1-0.447-1-1v-4c0-0.553,0.448-1,1-1h12c0.552,0,1,0.447,1,1v4C59,42.553,58.552,43,58,43z M47,41h10    v-2H47V41z"/>
	</g>
</g>
</svg>
