<?xml version="1.0" encoding="iso-8859-1"?>
<!-- Generator: Adobe Illustrator 22.1.0, SVG Export Plug-In . SVG Version: 6.00 Build 0)  -->
<svg xmlns="http://www.w3.org/2000/svg" xmlns:xlink="http://www.w3.org/1999/xlink" version="1.1" id="Layer_3" x="0px" y="0px" viewBox="0 0 64 64" style="enable-background:new 0 0 64 64;" xml:space="preserve" width="512" height="512">
<g>
	<g>
		<polygon style="fill:#B96F18;" points="2,4 2,62 60,62 12,14   "/>
	</g>
	<g>
		<polygon style="fill:#F7931E;" points="2,8 2,62 56,62 8,14   "/>
	</g>
	<g>
		<polygon style="fill:#754C24;" points="60,62 62,62 62,14 46,14 46,48   "/>
	</g>
	<g>
		<polygon style="fill:#8C6239;" points="58,59.923 58,14 46,14 46,48   "/>
	</g>
	<g>
		<polygon style="fill:#754C24;" points="62,2 2,2 2,14 46,14 62,14   "/>
	</g>
	<g>
		<polyline style="fill:#8C6239;" points="46,14 58,14 58,2 2,2 2,14   "/>
	</g>
	<g>
		<rect x="21" y="6" style="fill:#E6E6E6;" width="22" height="4"/>
	</g>
	<g>
		<rect x="21" y="6" style="fill:#F2F2F2;" width="13" height="4"/>
	</g>
	<g>
		<polygon style="fill:#E6E6E6;" points="12,52 32,52 12,32   "/>
	</g>
	<g>
		<polygon style="fill:#F2F2F2;" points="12,38 12,52 26,52   "/>
	</g>
	<g>
		<path d="M60,63H2c-0.553,0-1-0.447-1-1V14h2v47h54.586L11.293,14.707l1.414-1.414l48,48c0.286,0.286,0.372,0.716,0.217,1.09    C60.77,62.757,60.404,63,60,63z"/>
	</g>
	<g>
		<path d="M32,53H12c-0.553,0-1-0.447-1-1V32c0-0.404,0.243-0.77,0.617-0.924s0.804-0.069,1.09,0.217l20,20    c0.286,0.286,0.372,0.716,0.217,1.09C32.77,52.757,32.404,53,32,53z M13,51h16.586L13,34.414V51z"/>
	</g>
	<g>
		<rect x="2" y="21" width="5" height="2"/>
	</g>
	<g>
		<rect x="2" y="25" width="5" height="2"/>
	</g>
	<g>
		<rect x="2" y="29" width="5" height="2"/>
	</g>
	<g>
		<rect x="2" y="33" width="5" height="2"/>
	</g>
	<g>
		<rect x="2" y="37" width="7" height="2"/>
	</g>
	<g>
		<rect x="2" y="41" width="5" height="2"/>
	</g>
	<g>
		<rect x="2" y="45" width="5" height="2"/>
	</g>
	<g>
		<rect x="2" y="49" width="5" height="2"/>
	</g>
	<g>
		<rect x="2" y="53" width="5" height="2"/>
	</g>
	<g>
		<rect x="2" y="21" width="5" height="2"/>
	</g>
	<g>
		<rect x="2" y="25" width="5" height="2"/>
	</g>
	<g>
		<rect x="2" y="29" width="5" height="2"/>
	</g>
	<g>
		<rect x="2" y="33" width="5" height="2"/>
	</g>
	<g>
		<rect x="2" y="37" width="7" height="2"/>
	</g>
	<g>
		<rect x="2" y="17" width="7" height="2"/>
	</g>
	<g>
		<rect x="2" y="17" width="7" height="2"/>
	</g>
	<g>
		<rect x="2" y="41" width="5" height="2"/>
	</g>
	<g>
		<rect x="2" y="45" width="5" height="2"/>
	</g>
	<g>
		<rect x="2" y="49" width="5" height="2"/>
	</g>
	<g>
		<rect x="2" y="53" width="5" height="2"/>
	</g>
	<g>
		<rect x="10" y="55" width="2" height="7"/>
	</g>
	<g>
		<rect x="14" y="57" width="2" height="5"/>
	</g>
	<g>
		<rect x="18" y="57" width="2" height="5"/>
	</g>
	<g>
		<rect x="22" y="57" width="2" height="5"/>
	</g>
	<g>
		<rect x="26" y="57" width="2" height="5"/>
	</g>
	<g>
		<rect x="30" y="55" width="2" height="7"/>
	</g>
	<g>
		<rect x="34" y="57" width="2" height="5"/>
	</g>
	<g>
		<rect x="38" y="57" width="2" height="5"/>
	</g>
	<g>
		<rect x="42" y="57" width="2" height="5"/>
	</g>
	<g>
		<rect x="46" y="57" width="2" height="5"/>
	</g>
	<g>
		<rect x="10" y="55" width="2" height="7"/>
	</g>
	<g>
		<rect x="14" y="57" width="2" height="5"/>
	</g>
	<g>
		<rect x="18" y="57" width="2" height="5"/>
	</g>
	<g>
		<rect x="22" y="57" width="2" height="5"/>
	</g>
	<g>
		<rect x="26" y="57" width="2" height="5"/>
	</g>
	<g>
		<rect x="30" y="55" width="2" height="7"/>
	</g>
	<g>
		<rect x="34" y="57" width="2" height="5"/>
	</g>
	<g>
		<rect x="38" y="57" width="2" height="5"/>
	</g>
	<g>
		<rect x="42" y="57" width="2" height="5"/>
	</g>
	<g>
		<rect x="46" y="57" width="2" height="5"/>
	</g>
	<g>
		<rect x="45" y="14" width="2" height="34"/>
	</g>
	<g>
		<path d="M43,11H21c-0.553,0-1-0.447-1-1V6c0-0.553,0.447-1,1-1h22c0.553,0,1,0.447,1,1v4C44,10.553,43.553,11,43,11z M22,9h20V7    H22V9z"/>
	</g>
	<g>
		<rect x="55" y="17" width="7" height="2"/>
	</g>
	<g>
		<rect x="57" y="21" width="5" height="2"/>
	</g>
	<g>
		<rect x="57" y="25" width="5" height="2"/>
	</g>
	<g>
		<rect x="57" y="29" width="5" height="2"/>
	</g>
	<g>
		<rect x="57" y="33" width="5" height="2"/>
	</g>
	<g>
		<rect x="55" y="37" width="7" height="2"/>
	</g>
	<g>
		<rect x="57" y="41" width="5" height="2"/>
	</g>
	<g>
		<rect x="57" y="45" width="5" height="2"/>
	</g>
	<g>
		<rect x="57" y="49" width="5" height="2"/>
	</g>
	<g>
		<rect x="57" y="53" width="5" height="2"/>
	</g>
	<g>
		<path d="M62,63h-2v-2h1V15H2c-0.553,0-1-0.447-1-1V2c0-0.553,0.447-1,1-1h60c0.553,0,1,0.447,1,1v60C63,62.553,62.553,63,62,63z     M3,13h58V3H3V13z"/>
	</g>
</g>
</svg>
