<?xml version="1.0" encoding="iso-8859-1"?>
<!-- Generator: Adobe Illustrator 22.1.0, SVG Export Plug-In . SVG Version: 6.00 Build 0)  -->
<svg xmlns="http://www.w3.org/2000/svg" xmlns:xlink="http://www.w3.org/1999/xlink" version="1.1" id="Layer_3" x="0px" y="0px" viewBox="0 0 64 64" style="enable-background:new 0 0 64 64;" xml:space="preserve" width="512" height="512">
<g>
	<g>
		<rect x="10" y="12" style="fill:#2C8838;" width="36" height="50"/>
	</g>
	<g>
		<rect x="10" y="12" style="fill:#39B54A;" width="32" height="50"/>
	</g>
	<g>
		<path style="fill:#CCCCCC;" d="M62,62H26c-3.314,0-6-2.686-6-6v0c0-3.314,2.686-6,6-6h36l-2.586,2.586    C58.509,53.491,58,54.719,58,56v0c0,1.281,0.509,2.509,1.414,3.414L62,62z"/>
	</g>
	<g>
		<path style="fill:#B3B3B3;" d="M20,50h36c3.314,0,6-2.686,6-6v0c0-3.314-2.686-6-6-6H20l2.586,2.586    C23.491,41.491,24,42.719,24,44v0c0,1.281-0.509,2.509-1.414,3.414L20,50z"/>
	</g>
	<g>
		<polygon style="fill:#957552;" points="52,9 55,2 58,9   "/>
	</g>
	<g>
		<polygon style="fill:#FDD089;" points="52,9 56,9 54,4.333   "/>
	</g>
	<g>
		<rect x="52" y="32" style="fill:#1A1A1A;" width="6" height="6"/>
	</g>
	<g>
		<rect x="52" y="32" style="fill:#333333;" width="4" height="6"/>
	</g>
	<g>
		<rect x="52" y="9" style="fill:#B96F18;" width="6" height="23"/>
	</g>
	<g>
		<rect x="52" y="9" style="fill:#F7931E;" width="4" height="23"/>
	</g>
	<g>
		<path style="fill:#A3A81C;" d="M56,50c3.314,0,6-2.686,6-6v0c0-3.314-2.686-6-6-6h0V50z"/>
	</g>
	<g>
		<path style="fill:#D9E021;" d="M56,38.349v11.302c2.329-0.825,4-3.04,4-5.651S58.329,39.173,56,38.349z"/>
	</g>
	<g>
		<path style="fill:#930308;" d="M26,50c-3.314,0-6,2.686-6,6v0c0,3.314,2.686,6,6,6h0V50z"/>
	</g>
	<g>
		<path style="fill:#C4030B;" d="M26,61.651V50.349c-2.329,0.825-4,3.04-4,5.651S23.671,60.827,26,61.651z"/>
	</g>
	<g>
		<path style="fill:#1F80AA;" d="M30,12v18c0,1.105,0.895,2,2,2h0c1.105,0,2-0.895,2-2V12H30z"/>
	</g>
	<g>
		<path style="fill:#29ABE2;" d="M31,31.723c0.595-0.346,1-0.984,1-1.723V12h-2v18C30,30.738,30.405,31.376,31,31.723z"/>
	</g>
	<g>
		<path style="fill:#1F80AA;" d="M38,12v15c0,1.105,0.895,2,2,2h0c1.105,0,2-0.895,2-2V12H38z"/>
	</g>
	<g>
		<path style="fill:#29ABE2;" d="M39,28.723c0.595-0.346,1-0.984,1-1.723V12h-2v15C38,27.738,38.405,28.376,39,28.723z"/>
	</g>
	<g>
		<path style="fill:#21662A;" d="M10,62H6c-2.209,0-4-1.791-4-4V7h8V62z"/>
	</g>
	<g>
		<path style="fill:#2C8838;" d="M2,7v51c0,2.209,1.791,4,4,4h1V7H2z"/>
	</g>
	<g>
		<path style="fill:#CCCCCC;" d="M26,12h20V2H7C4.239,2,2,4.239,2,7v0c0,2.761,2.239,5,5,5h9H26z"/>
	</g>
	<g>
		<path style="fill:#E6E6E6;" d="M7,2C4.239,2,2,4.239,2,7s2.239,5,5,5h5h4h6h4h16V2H7z"/>
	</g>
	<g>
		<polygon style="fill:#BF0000;" points="18,8 28,8 26,12 26,30 21,25 16,30 16,12   "/>
	</g>
	<g>
		<polygon style="fill:#FF0000;" points="16,27 18,25 19.5,26.5 21,25 23,27 23,12 25,8 18,8 16,12   "/>
	</g>
	<g>
		<path d="M46,13H26v-2h19V3H7C4.794,3,3,4.794,3,7s1.794,4,4,4h9v2H7c-3.309,0-6-2.691-6-6s2.691-6,6-6h39c0.553,0,1,0.448,1,1v10    C47,12.552,46.553,13,46,13z"/>
	</g>
	<g>
		<rect x="45" y="12" width="2" height="26"/>
	</g>
	<g>
		<path d="M25,63H10c-0.553,0-1-0.447-1-1V12h2v49h14V63z"/>
	</g>
	<g>
		<path d="M10,63H6c-2.757,0-5-2.243-5-5V7h2v51c0,1.654,1.346,3,3,3h4V63z"/>
	</g>
	<g>
		<path d="M26,31c-0.26,0-0.516-0.102-0.707-0.293L21,26.414l-4.293,4.293c-0.286,0.286-0.716,0.372-1.09,0.217S15,30.404,15,30V12    c0-0.155,0.036-0.309,0.105-0.447l2-4C17.275,7.214,17.621,7,18,7h10c0.347,0,0.668,0.18,0.851,0.474    c0.183,0.295,0.199,0.663,0.044,0.973L27,12.236V30c0,0.404-0.243,0.769-0.617,0.924C26.259,30.975,26.129,31,26,31z M21,24    c0.256,0,0.512,0.098,0.707,0.293L25,27.586V12c0-0.155,0.036-0.309,0.105-0.447L26.382,9h-7.764L17,12.236v15.35l3.293-3.293    C20.488,24.098,20.744,24,21,24z"/>
	</g>
	<g>
		<path d="M40,30c-1.654,0-3-1.346-3-3V12h2v15c0,0.551,0.448,1,1,1s1-0.449,1-1V12h2v15C43,28.654,41.654,30,40,30z"/>
	</g>
	<g>
		<path d="M32,33c-1.654,0-3-1.346-3-3V12h2v18c0,0.551,0.448,1,1,1s1-0.449,1-1V12h2v18C35,31.654,33.654,33,32,33z"/>
	</g>
	<g>
		<path d="M62,63H26c-3.859,0-7-3.141-7-7s3.141-7,7-7h36c0.404,0,0.77,0.243,0.924,0.617c0.155,0.374,0.069,0.804-0.217,1.09    l-2.586,2.586C59.408,54.006,59,54.992,59,56s0.408,1.994,1.121,2.707l2.586,2.586c0.286,0.286,0.372,0.716,0.217,1.09    C62.77,62.757,62.404,63,62,63z M26,51c-2.757,0-5,2.243-5,5s2.243,5,5,5h33.586l-0.879-0.879C57.622,59.036,57,57.534,57,56    s0.622-3.036,1.707-4.121L59.586,51H26z"/>
	</g>
	<g>
		<rect x="25" y="50" width="2" height="12"/>
	</g>
	<g>
		<path d="M59,38h-2V9.205l-2-4.667l-2,4.667V38h-2V9c0-0.135,0.027-0.27,0.081-0.394l3-7C54.238,1.238,54.6,1,55,1    s0.762,0.238,0.919,0.606l3,7C58.973,8.73,59,8.865,59,9V38z"/>
	</g>
	<g>
		<rect x="52" y="31" width="6" height="2"/>
	</g>
	<g>
		<rect x="52" y="8" width="6" height="2"/>
	</g>
	<g>
		<rect x="26" y="55" width="32" height="2"/>
	</g>
	<g>
		<path d="M56,51H20c-0.404,0-0.77-0.243-0.924-0.617c-0.155-0.374-0.069-0.804,0.217-1.09l2.586-2.586    C22.592,45.994,23,45.008,23,44s-0.408-1.994-1.121-2.707l-2.586-2.586c-0.286-0.286-0.372-0.716-0.217-1.09    C19.23,37.243,19.596,37,20,37h36c3.859,0,7,3.141,7,7S59.859,51,56,51z M22.414,49H56c2.757,0,5-2.243,5-5s-2.243-5-5-5H22.414    l0.879,0.879C24.378,40.964,25,42.466,25,44s-0.622,3.036-1.707,4.121L22.414,49z"/>
	</g>
	<g>
		<rect x="55" y="38" width="2" height="12"/>
	</g>
	<g>
		<rect x="24" y="43" width="32" height="2"/>
	</g>
</g>
</svg>
