<?xml version="1.0" encoding="iso-8859-1"?>
<!-- Generator: Adobe Illustrator 22.1.0, SVG Export Plug-In . SVG Version: 6.00 Build 0)  -->
<svg xmlns="http://www.w3.org/2000/svg" xmlns:xlink="http://www.w3.org/1999/xlink" version="1.1" id="Layer_3" x="0px" y="0px" viewBox="0 0 64 64" style="enable-background:new 0 0 64 64;" xml:space="preserve" width="512" height="512">
<g>
	<g>
		<path style="fill:#666666;" d="M42,25H32l-2.42,1.613C29.202,26.865,28.757,27,28.303,27h0C27.031,27,26,25.969,26,24.697v-3.394    C26,20.031,27.031,19,28.303,19h0c0.455,0,0.899,0.135,1.277,0.387L32,21h10L42,25z"/>
	</g>
	<g>
		<polygon style="fill:#606060;" points="47,8 53,2 62,11 59,14 53,8 50,11   "/>
	</g>
	<g>
		<polygon style="fill:#999999;" points="34,17 46,29 51,29 58,22 58,17 46,5   "/>
	</g>
	<g>
		<polygon style="fill:#666666;" points="43,8 34,17 46,29 51,29 55,25 55,20   "/>
	</g>
	<g>
		<path style="fill:#29ABE2;" d="M41,24l3-3c0.552-0.552,1.448-0.552,2,0v0c0.552,0.552,1.448,0.552,2,0l2-2    c0.552-0.552,1.448-0.552,2,0v0c0.552,0.552,1.448,0.552,2,0l3-3l-0.009-0.009L58,17v5l-7,7h-5l-5.038-5.038L41,24z"/>
	</g>
	<g>
		<path style="fill:#1F80AA;" d="M48.243,49h1.515c0.796,0,1.559-0.316,2.121-0.879l0.243-0.243C52.684,47.316,53,46.553,53,45.757    v-0.335c0-1.579-0.468-3.123-1.344-4.438L49,37l-2.656,3.985C45.468,42.299,45,43.843,45,45.422v0.335    c0,0.796,0.316,1.559,0.879,2.121l0.243,0.243C46.684,48.684,47.447,49,48.243,49z"/>
	</g>
	<g>
		<path style="fill:#29ABE2;" d="M49.879,48.121l0.243-0.243C50.684,47.316,51,46.553,51,45.757v-0.335    c0-1.579-0.468-3.123-1.344-4.438L48,38.5l-1.656,2.485C45.468,42.299,45,43.843,45,45.422v0.335c0,0.796,0.316,1.559,0.879,2.121    l0.243,0.243c0.505,0.505,1.173,0.797,1.879,0.855C48.706,48.918,49.374,48.626,49.879,48.121z"/>
	</g>
	<g>
		<path style="fill:#1F80AA;" d="M57.243,62h1.515c0.796,0,1.559-0.316,2.121-0.879l0.243-0.243C61.684,60.316,62,59.553,62,58.757    v-0.335c0-1.579-0.468-3.123-1.344-4.438L58,50l-2.656,3.985C54.468,55.299,54,56.843,54,58.422v0.335    c0,0.796,0.316,1.559,0.879,2.121l0.243,0.243C55.684,61.684,56.447,62,57.243,62z"/>
	</g>
	<g>
		<path style="fill:#29ABE2;" d="M58.879,61.121l0.243-0.243C59.684,60.316,60,59.553,60,58.757v-0.335    c0-1.579-0.468-3.123-1.344-4.438L57,51.5l-1.656,2.485C54.468,55.299,54,56.843,54,58.422v0.335c0,0.796,0.316,1.559,0.879,2.121    l0.243,0.243c0.505,0.505,1.173,0.797,1.879,0.855C57.706,61.918,58.374,61.626,58.879,61.121z"/>
	</g>
	<g>
		<path style="fill:#1F80AA;" d="M39.243,62h1.515c0.796,0,1.559-0.316,2.121-0.879l0.243-0.243C43.684,60.316,44,59.553,44,58.757    v-0.335c0-1.579-0.468-3.123-1.344-4.438L40,50l-2.656,3.985C36.468,55.299,36,56.843,36,58.422v0.335    c0,0.796,0.316,1.559,0.879,2.121l0.243,0.243C37.684,61.684,38.447,62,39.243,62z"/>
	</g>
	<g>
		<path style="fill:#29ABE2;" d="M40.879,61.121l0.243-0.243C41.684,60.316,42,59.553,42,58.757v-0.335    c0-1.579-0.468-3.123-1.344-4.438L39,51.5l-1.656,2.485C36.468,55.299,36,56.843,36,58.422v0.335c0,0.796,0.316,1.559,0.879,2.121    l0.243,0.243c0.505,0.505,1.173,0.797,1.879,0.855C39.706,61.918,40.374,61.626,40.879,61.121z"/>
	</g>
	<g>
		<polygon style="fill:#8C6239;" points="4,40 2,40 2,36 34,36 34,40 32,40   "/>
	</g>
	<g>
		<polygon style="fill:#A67C52;" points="2,36 2,40 4,40 29,40 31,40 31,36   "/>
	</g>
	<g>
		<polygon style="fill:#754C24;" points="4,40 11,62 25,62 32,40   "/>
	</g>
	<g>
		<polygon style="fill:#8C6239;" points="4,40 11,62 21,62 28,40   "/>
	</g>
	<g>
		<polygon style="fill:#603813;" points="25,62 11,62 9,56 27,56   "/>
	</g>
	<g>
		<polygon style="fill:#754C24;" points="9,56 11,62 21,62 23,56   "/>
	</g>
	<g>
		<path style="fill:#158F17;" d="M9.733,30L9.733,30c-1.11,0-2.174-0.441-2.959-1.226L4,26l2.774-2.774    C7.559,22.441,8.623,22,9.733,22h0c0.826,0,1.634,0.245,2.321,0.703l0.282,0.188C13.376,23.584,14,24.751,14,26v0    c0,1.249-0.624,2.416-1.664,3.109l-0.282,0.188C11.367,29.755,10.559,30,9.733,30z"/>
	</g>
	<g>
		<path style="fill:#1CBF1F;" d="M10.336,22.891l-0.282-0.188c-0.403-0.268-0.849-0.454-1.313-0.569    c-0.737,0.181-1.421,0.547-1.966,1.092L4,26l2.774,2.774c0.545,0.545,1.229,0.911,1.966,1.092    c0.465-0.116,0.911-0.301,1.314-0.569l0.282-0.188C11.376,28.416,12,27.249,12,26C12,24.75,11.376,23.584,10.336,22.891z"/>
	</g>
	<g>
		<path style="fill:#B1181D;" d="M25,4l-1.178,7.068C23.348,13.914,20.885,16,18,16h0c-2.885,0-5.348-2.086-5.822-4.932L11,4l5,3    l2-5l2,5L25,4z"/>
	</g>
	<g>
		<path style="fill:#EC2027;" d="M12.178,11.068c0.418,2.51,2.385,4.424,4.822,4.842c2.437-0.418,4.404-2.332,4.822-4.842    l0.956-5.735L20,7l-0.387-0.968L18,7l-1-2.5L16,7l-1.613-0.968L14,7l-2.778-1.667L12.178,11.068z"/>
	</g>
	<g>
		<path d="M25,63H11c-0.436,0-0.821-0.282-0.953-0.697l-7-22c-0.097-0.304-0.042-0.636,0.146-0.893C3.381,39.152,3.681,39,4,39h28    c0.319,0,0.619,0.152,0.807,0.41c0.188,0.257,0.243,0.589,0.146,0.893l-7,22C25.821,62.718,25.436,63,25,63z M11.731,61h12.537    l6.364-20H5.368L11.731,61z"/>
	</g>
	<g>
		<path d="M34,41h-2v-2h1v-2H3v2h1v2H2c-0.552,0-1-0.447-1-1v-4c0-0.553,0.448-1,1-1h32c0.552,0,1,0.447,1,1v4    C35,40.553,34.552,41,34,41z"/>
	</g>
	<g>
		<rect x="9" y="55" width="18" height="2"/>
	</g>
	<g>
		<path d="M9.733,31c-1.385,0-2.687-0.539-3.666-1.519l-2.774-2.774c-0.391-0.391-0.391-1.023,0-1.414l2.774-2.774    C7.046,21.539,8.348,21,9.733,21c1.028,0,2.022,0.302,2.876,0.871l0.281,0.188C14.211,22.939,15,24.413,15,26    s-0.789,3.061-2.109,3.941l-0.282,0.188C11.755,30.698,10.761,31,9.733,31z M5.414,26l2.067,2.067    c1.047,1.048,2.787,1.22,4.018,0.397l0.283-0.188C12.544,27.769,13,26.917,13,26s-0.456-1.769-1.219-2.277L11.5,23.535    c-1.231-0.822-2.971-0.65-4.018,0.397L5.414,26z"/>
	</g>
	<g>
		<rect x="14" y="25" width="4" height="2"/>
	</g>
	<g>
		<rect x="17" y="16" width="2" height="20"/>
	</g>
	<g>
		<path d="M49.757,50h-1.515c-1.068,0-2.072-0.416-2.829-1.172l-0.242-0.242C44.427,47.842,44,46.812,44,45.758v-0.336    c0-1.783,0.523-3.509,1.512-4.992l2.656-3.984c0.371-0.557,1.293-0.557,1.664,0l2.656,3.984C53.477,41.913,54,43.639,54,45.422    v0.336c0,1.054-0.427,2.084-1.172,2.828l-0.242,0.242C51.83,49.584,50.825,50,49.757,50z M49,38.803l-1.824,2.736    C46.407,42.692,46,44.035,46,45.422v0.336c0,0.526,0.213,1.042,0.586,1.414l0.242,0.242C47.207,47.792,47.709,48,48.243,48h1.515    c0.534,0,1.036-0.208,1.415-0.586l0.242-0.242C51.787,46.8,52,46.284,52,45.758v-0.336c0-1.387-0.407-2.729-1.176-3.883L49,38.803    z"/>
	</g>
	<g>
		<path d="M40.757,63h-1.515c-1.068,0-2.072-0.416-2.829-1.172l-0.242-0.242C35.427,60.842,35,59.812,35,58.758v-0.336    c0-1.783,0.523-3.509,1.512-4.992l2.656-3.984c0.371-0.557,1.293-0.557,1.664,0l2.656,3.984C44.477,54.913,45,56.639,45,58.422    v0.336c0,1.054-0.427,2.084-1.172,2.828l-0.242,0.242C42.83,62.584,41.825,63,40.757,63z M40,51.803l-1.824,2.736    C37.407,55.692,37,57.035,37,58.422v0.336c0,0.526,0.213,1.042,0.586,1.414l0.242,0.242C38.207,60.792,38.709,61,39.243,61h1.515    c0.534,0,1.036-0.208,1.415-0.586l0.242-0.242C42.787,59.8,43,59.284,43,58.758v-0.336c0-1.387-0.407-2.729-1.176-3.883L40,51.803    z"/>
	</g>
	<g>
		<path d="M58.757,63h-1.515c-1.068,0-2.072-0.416-2.829-1.172l-0.242-0.242C53.427,60.842,53,59.812,53,58.758v-0.336    c0-1.783,0.523-3.509,1.512-4.992l2.656-3.984c0.371-0.557,1.293-0.557,1.664,0l2.656,3.984C62.477,54.913,63,56.639,63,58.422    v0.336c0,1.054-0.427,2.084-1.172,2.828l-0.242,0.242C60.83,62.584,59.825,63,58.757,63z M58,51.803l-1.824,2.736    C55.407,55.692,55,57.035,55,58.422v0.336c0,0.526,0.213,1.042,0.586,1.414l0.242,0.242C56.207,60.792,56.709,61,57.243,61h1.515    c0.534,0,1.036-0.208,1.415-0.586l0.242-0.242C60.787,59.8,61,59.284,61,58.758v-0.336c0-1.387-0.407-2.729-1.176-3.883L58,51.803    z"/>
	</g>
	<g>
		<path d="M18,17c-3.388,0-6.251-2.426-6.808-5.768l-1.178-7.068c-0.064-0.385,0.101-0.771,0.423-0.99    c0.323-0.221,0.743-0.232,1.078-0.031l3.993,2.396l1.563-3.909C17.224,1.249,17.591,1,18,1s0.776,0.249,0.929,0.629l1.563,3.909    l3.993-2.396c0.335-0.201,0.756-0.189,1.078,0.031c0.322,0.219,0.487,0.605,0.423,0.99l-1.178,7.068    C24.251,14.574,21.388,17,18,17z M12.342,5.972l0.822,4.933C13.56,13.277,15.594,15,18,15s4.44-1.723,4.835-4.096l0.822-4.933    l-3.143,1.886c-0.252,0.151-0.558,0.184-0.834,0.09c-0.278-0.093-0.5-0.304-0.609-0.576L18,4.692l-1.071,2.679    c-0.109,0.272-0.332,0.483-0.609,0.576c-0.279,0.094-0.583,0.062-0.834-0.09L12.342,5.972z"/>
	</g>
	<g>
		<path d="M28.303,28C26.481,28,25,26.519,25,24.697v-3.395C25,19.481,26.481,18,28.303,18c0.653,0,1.287,0.191,1.832,0.555    L32.303,20H38v2h-6c-0.197,0-0.391-0.059-0.555-0.168l-2.42-1.613C28.811,20.076,28.561,20,28.303,20    C27.584,20,27,20.584,27,21.303v3.395C27,25.416,27.584,26,28.303,26c0.258,0,0.508-0.076,0.723-0.219l2.419-1.613    C31.609,24.059,31.803,24,32,24h10v2h-9.697l-2.168,1.445C29.59,27.809,28.956,28,28.303,28z"/>
	</g>
	<g>
		<path d="M51,30h-5c-0.265,0-0.52-0.105-0.707-0.293l-12-12c-0.391-0.391-0.391-1.023,0-1.414l12-12    c0.391-0.391,1.023-0.391,1.414,0l12,12C58.895,16.48,59,16.734,59,17v5c0,0.266-0.105,0.52-0.293,0.707l-7,7    C51.52,29.895,51.265,30,51,30z M46.414,28h4.172L57,21.586v-4.172l-11-11L35.414,17L46.414,28z"/>
	</g>
	<g>
		<path d="M59,15c-0.256,0-0.512-0.098-0.707-0.293L53,9.414l-1.293,1.293l-1.414-1.414l2-2c0.391-0.391,1.023-0.391,1.414,0    L59,12.586L60.586,11L53,3.414l-4.293,4.293l-1.414-1.414l5-5c0.391-0.391,1.023-0.391,1.414,0l9,9    c0.391,0.391,0.391,1.023,0,1.414l-3,3C59.512,14.902,59.256,15,59,15z"/>
	</g>
	<g>
		<path d="M41.707,24.707l-1.414-1.414l3-3c0.911-0.912,2.502-0.912,3.415,0c0.211,0.211,0.374,0.211,0.585,0l2-2    c0.911-0.912,2.502-0.912,3.415,0c0.211,0.211,0.374,0.211,0.585,0l3-3l1.414,1.414l-3,3c-0.911,0.912-2.502,0.912-3.415,0    c-0.211-0.211-0.374-0.211-0.585,0l-2,2c-0.911,0.912-2.502,0.912-3.415,0c-0.211-0.211-0.374-0.211-0.585,0L41.707,24.707z"/>
	</g>
</g>
</svg>
