<?xml version="1.0" encoding="iso-8859-1"?>
<!-- Generator: Adobe Illustrator 22.1.0, SVG Export Plug-In . SVG Version: 6.00 Build 0)  -->
<svg xmlns="http://www.w3.org/2000/svg" xmlns:xlink="http://www.w3.org/1999/xlink" version="1.1" id="Layer_3" x="0px" y="0px" viewBox="0 0 64 64" style="enable-background:new 0 0 64 64;" xml:space="preserve" width="512" height="512">
<g>
	<g>
		<circle style="fill:#666666;" cx="30" cy="30" r="28"/>
	</g>
	<g>
		<ellipse style="fill:#808080;" cx="28" cy="30" rx="26" ry="27.921"/>
	</g>
	<g>
		<path style="fill:#804D80;" d="M46,20h6c3.314,0,6,2.686,6,6v18c0,3.314-2.686,6-6,6h-6c-3.314,0-6-2.686-6-6V26    C40,22.686,42.686,20,46,20z"/>
	</g>
	<g>
		<path style="fill:#BF73BF;" d="M54,44V26c0-3.314-2.686-6-6-6h-2c-3.314,0-6,2.686-6,6v18c0,3.314,2.686,6,6,6h2    C51.314,50,54,47.314,54,44z"/>
	</g>
	<g>
		<path style="fill:#A2559F;" d="M58,26H40c0-3.314,2.686-6,6-6h6C55.314,20,58,22.686,58,26z"/>
	</g>
	<g>
		<path style="fill:#B37AB3;" d="M49,20h-3c-3.314,0-6,2.686-6,6h15C55,22.686,52.314,20,49,20z"/>
	</g>
	<g>
		<circle style="fill:#006E34;" cx="30" cy="30" r="8"/>
	</g>
	<g>
		<ellipse style="fill:#009245;" cx="28.5" cy="30" rx="6.5" ry="7.855"/>
	</g>
	<g>
		<circle style="fill:#3BB54A;" cx="30" cy="30" r="2"/>
	</g>
	<g>
		<ellipse style="fill:#6EC067;" cx="29.5" cy="30" rx="1.5" ry="1.929"/>
	</g>
	<g>
		<path d="M15,30h-2c0-9.374,7.626-17,17-17v2C21.729,15,15,21.729,15,30z"/>
	</g>
	<g>
		<path d="M11,30H9C9,18.42,18.421,9,30,9v2C19.523,11,11,19.523,11,30z"/>
	</g>
	<g>
		<path d="M19,30h-2c0-7.168,5.832-13,13-13v2C23.935,19,19,23.935,19,30z"/>
	</g>
	<g>
		<path d="M30,33c-1.654,0-3-1.346-3-3s1.346-3,3-3s3,1.346,3,3S31.654,33,30,33z M30,29c-0.552,0-1,0.449-1,1s0.448,1,1,1    s1-0.449,1-1S30.552,29,30,29z"/>
	</g>
	<g>
		<path d="M52,51h-6c-3.859,0-7-3.14-7-7V26c0-3.86,3.141-7,7-7h6c3.859,0,7,3.14,7,7v18C59,47.86,55.859,51,52,51z M46,21    c-2.757,0-5,2.243-5,5v18c0,2.757,2.243,5,5,5h6c2.757,0,5-2.243,5-5V26c0-2.757-2.243-5-5-5H46z"/>
	</g>
	<g>
		<path d="M56,55H42c-3.859,0-7-3.14-7-7V33c0-1.654,1.346-3,3-3h2v2h-2c-0.552,0-1,0.449-1,1v15c0,2.757,2.243,5,5,5h14    c2.757,0,5-2.243,5-5V33c0-0.551-0.448-1-1-1h-2v-2h2c1.654,0,3,1.346,3,3v15C63,51.86,59.859,55,56,55z"/>
	</g>
	<g>
		<rect x="49" y="54" width="2" height="8"/>
	</g>
	<g>
		<rect x="45" y="61" width="10" height="2"/>
	</g>
	<g>
		<rect x="40" y="29" width="5" height="2"/>
	</g>
	<g>
		<rect x="40" y="33" width="5" height="2"/>
	</g>
	<g>
		<rect x="40" y="37" width="5" height="2"/>
	</g>
	<g>
		<rect x="40" y="41" width="5" height="2"/>
	</g>
	<g>
		<rect x="40" y="45" width="5" height="2"/>
	</g>
	<g>
		<rect x="53" y="29" width="5" height="2"/>
	</g>
	<g>
		<rect x="53" y="33" width="5" height="2"/>
	</g>
	<g>
		<rect x="53" y="37" width="5" height="2"/>
	</g>
	<g>
		<rect x="53" y="41" width="5" height="2"/>
	</g>
	<g>
		<rect x="53" y="45" width="5" height="2"/>
	</g>
	<g>
		<rect x="40" y="25" width="18" height="2"/>
	</g>
	<g>
		<rect x="48" y="20" width="2" height="6"/>
	</g>
	<g>
		<rect x="44" y="20" width="2" height="6"/>
	</g>
	<g>
		<rect x="52" y="20" width="2" height="6"/>
	</g>
	<g>
		<path d="M16,49c-1.654,0-3-1.346-3-3s1.346-3,3-3s3,1.346,3,3S17.654,49,16,49z M16,45c-0.552,0-1,0.449-1,1s0.448,1,1,1    s1-0.449,1-1S16.552,45,16,45z"/>
	</g>
	<g>
		<path d="M19,46h-2V36c0-0.404,0.243-0.769,0.617-0.924c0.375-0.154,0.804-0.069,1.09,0.217l5,5l-1.414,1.414L19,38.414V46z"/>
	</g>
	<g>
		<path d="M47,16c-1.654,0-3-1.346-3-3s1.346-3,3-3s3,1.346,3,3S48.654,16,47,16z M47,12c-0.552,0-1,0.449-1,1s0.448,1,1,1    s1-0.449,1-1S47.552,12,47,12z"/>
	</g>
	<g>
		<path d="M50,13h-2V3c0-0.404,0.243-0.769,0.617-0.924c0.375-0.154,0.804-0.069,1.09,0.217l5,5l-1.414,1.414L50,5.414V13z"/>
	</g>
	<g>
		<path d="M30,39c-4.963,0-9-4.038-9-9s4.037-9,9-9c3.203,0,6.19,1.724,7.795,4.5l-1.73,1.001C34.815,24.341,32.491,23,30,23    c-3.859,0-7,3.14-7,7s3.141,7,7,7V39z"/>
	</g>
	<g>
		<path d="M30,59C14.01,59,1,45.991,1,30S14.01,1,30,1c13.125,0,24.649,8.847,28.024,21.515l-1.932,0.515    C52.949,11.237,42.22,3,30,3C15.112,3,3,15.112,3,30s12.112,27,27,27c7.109,0,13.819-2.74,18.896-7.714l1.4,1.429    C44.844,56.058,37.636,59,30,59z"/>
	</g>
</g>
</svg>
