<?xml version="1.0" encoding="iso-8859-1"?>
<!-- Generator: Adobe Illustrator 22.1.0, SVG Export Plug-In . SVG Version: 6.00 Build 0)  -->
<svg xmlns="http://www.w3.org/2000/svg" xmlns:xlink="http://www.w3.org/1999/xlink" version="1.1" id="Layer_3" x="0px" y="0px" viewBox="0 0 64 64" style="enable-background:new 0 0 64 64;" xml:space="preserve" width="512" height="512">
<g>
	<g>
		<rect x="50" y="44" style="fill:#694A2B;" width="4" height="12"/>
	</g>
	<g>
		<rect x="50" y="44" style="fill:#8C6239;" width="2" height="12"/>
	</g>
	<g>
		<path style="fill:#3CBF39;" d="M60,62l1.265-1.265C61.736,60.264,62,59.626,62,58.96v0c0-1.152-0.784-2.156-1.902-2.436L58,56v-1    c0-1.657-1.343-3-3-3h0c-1.657,0-3,1.343-3,3v1l-2.098,0.525C48.784,56.804,48,57.808,48,58.96v0c0,0.666,0.264,1.304,0.735,1.775    L50,62H60z"/>
	</g>
	<g>
		<path style="fill:#4CFF4C;" d="M60,58.96c0-1.152-0.784-2.156-1.902-2.435L56,56v-1c0-1.304-0.837-2.403-2-2.816    c-1.163,0.413-2,1.512-2,2.816v1l-2.098,0.525C48.784,56.804,48,57.808,48,58.96c0,0.666,0.265,1.304,0.735,1.775L50,62h8    l1.265-1.265C59.735,60.264,60,59.626,60,58.96z"/>
	</g>
	<g>
		<path style="fill:#368B37;" d="M52,30h0.879c1.358,0,2.661,0.54,3.621,1.5v0c0.96,0.96,2.263,1.5,3.621,1.5H62v-7h-2.197    c-1.126,0-2.178-0.563-2.803-1.5v0c-0.625-0.937-1.677-1.5-2.803-1.5H52V30z"/>
	</g>
	<g>
		<path style="fill:#46B649;" d="M55,25.5c-0.625-0.937-1.677-1.5-2.803-1.5H52v6h0.879c1.358,0,2.661,0.54,3.621,1.5    c0.931,0.931,2.186,1.456,3.5,1.488V27h-2.197C56.677,27,55.625,26.437,55,25.5z"/>
	</g>
	<g>
		<path style="fill:#408DAE;" d="M42,13.197C42.882,13.708,43.907,14,45,14c1.539,0,2.938-0.584,4-1.537    C50.062,13.416,51.461,14,53,14c1.476,0,2.826-0.535,3.871-1.42C57.36,12.839,57.908,13,58.5,13c1.933,0,3.5-1.567,3.5-3.5    c0-1.879-1.484-3.4-3.343-3.484C57.837,3.679,55.617,2,53,2c-1.539,0-2.938,0.584-4,1.537C47.938,2.584,46.539,2,45,2    c-3.314,0-6,2.686-6,6c0,0.341,0.028,0.675,0.083,1L38,12L42,13.197z"/>
	</g>
	<g>
		<path style="fill:#66A4BE;" d="M45,14c1.539,0,2.938-0.584,4-1.537C50.062,13.416,51.461,14,53,14c1.476,0,2.826-0.535,3.871-1.42    C57.36,12.839,57.908,13,58.5,13c1.185,0,2.229-0.593,2.862-1.494c-0.605-0.86-1.583-1.439-2.705-1.49C57.837,7.679,55.617,6,53,6    c-1.539,0-2.938,0.584-4,1.537C47.938,6.584,46.539,6,45,6c-3.314,0-6,2.686-6,6c0,0.105,0.02,0.204,0.025,0.307L42,13.197    C42.882,13.708,43.907,14,45,14z"/>
	</g>
	<g>
		<rect x="4" y="32" style="fill:#FEDAA0;" width="40" height="30"/>
	</g>
	<g>
		<path style="fill:#F14950;" d="M16,62V50c0-4.418,3.582-8,8-8h0c4.418,0,8,3.582,8,8v12H16z"/>
	</g>
	<g>
		<path style="fill:#F4777C;" d="M22,42.262c-3.449,0.889-6,4.011-6,7.738v12h12V50C28,46.274,25.449,43.152,22,42.262z"/>
	</g>
	<g>
		<rect x="4" y="32" style="fill:#B2151B;" width="6" height="30"/>
	</g>
	<g>
		<rect x="4" y="32" style="fill:#ED1C24;" width="3" height="30"/>
	</g>
	<g>
		<rect x="38" y="32" style="fill:#B2151B;" width="6" height="30"/>
	</g>
	<g>
		<rect x="38" y="32" style="fill:#ED1C24;" width="3" height="30"/>
	</g>
	<g>
		<rect x="2" y="20" style="fill:#C69C6D;" width="44" height="12"/>
	</g>
	<g>
		<rect x="2" y="20" style="fill:#D1B08A;" width="40" height="12"/>
	</g>
	<g>
		<rect x="6" y="24" style="fill:#AEA194;" width="6" height="4"/>
	</g>
	<g>
		<rect x="6" y="24" style="fill:#E8D7C5;" width="4" height="4"/>
	</g>
	<g>
		<rect x="20" y="8" style="fill:#8A531F;" width="4" height="6"/>
	</g>
	<g>
		<rect x="20" y="8" style="fill:#B96E16;" width="2" height="6"/>
	</g>
	<g>
		<rect x="24" y="8" style="fill:#8A531F;" width="4" height="6"/>
	</g>
	<g>
		<rect x="24" y="8" style="fill:#B96E16;" width="2" height="6"/>
	</g>
	<g>
		<path style="fill:#B2151B;" d="M4.198,20C5.201,9.893,13.728,2,24.099,2h0C34.469,2,42.997,9.893,44,20H4.198z"/>
	</g>
	<g>
		<path style="fill:#ED1C24;" d="M21.099,2.246C12.127,3.598,5.102,10.889,4.198,20H38C37.095,10.889,30.07,3.598,21.099,2.246z"/>
	</g>
	<g>
		<path d="M44,63H4c-0.553,0-1-0.447-1-1V32h2v29h38V32h2v30C45,62.553,44.553,63,44,63z"/>
	</g>
	<g>
		<path d="M42.906,20.099C41.938,10.351,33.81,3,24,3S6.062,10.351,5.094,20.099l-1.99-0.197C4.174,9.126,13.157,1,24,1    s19.826,8.126,20.896,18.901L42.906,20.099z"/>
	</g>
	<g>
		<path d="M46,33H2c-0.553,0-1-0.447-1-1V20c0-0.553,0.447-1,1-1h44c0.553,0,1,0.447,1,1v12C47,32.553,46.553,33,46,33z M3,31h42V21    H3V31z"/>
	</g>
	<g>
		<rect x="9" y="32" width="2" height="30"/>
	</g>
	<g>
		<rect x="37" y="32" width="2" height="30"/>
	</g>
	<g>
		<path d="M33,62h-2V50c0-3.859-3.141-7-7-7s-7,3.141-7,7v12h-2V50c0-4.963,4.037-9,9-9s9,4.037,9,9V62z"/>
	</g>
	<g>
		<path d="M12,29H6c-0.553,0-1-0.447-1-1v-4c0-0.553,0.447-1,1-1h6c0.553,0,1,0.447,1,1v4C13,28.553,12.553,29,12,29z M7,27h4v-2H7    V27z"/>
	</g>
	<g>
		<rect x="16" y="24" style="fill:#AEA194;" width="6" height="4"/>
	</g>
	<g>
		<rect x="16" y="24" style="fill:#E8D7C5;" width="4" height="4"/>
	</g>
	<g>
		<rect x="26" y="24" style="fill:#AEA194;" width="6" height="4"/>
	</g>
	<g>
		<rect x="26" y="24" style="fill:#E8D7C5;" width="4" height="4"/>
	</g>
	<g>
		<rect x="36" y="24" style="fill:#AEA194;" width="6" height="4"/>
	</g>
	<g>
		<rect x="36" y="24" style="fill:#E8D7C5;" width="4" height="4"/>
	</g>
	<g>
		<path d="M22,29h-6c-0.553,0-1-0.447-1-1v-4c0-0.553,0.447-1,1-1h6c0.553,0,1,0.447,1,1v4C23,28.553,22.553,29,22,29z M17,27h4v-2    h-4V27z"/>
	</g>
	<g>
		<path d="M32,29h-6c-0.553,0-1-0.447-1-1v-4c0-0.553,0.447-1,1-1h6c0.553,0,1,0.447,1,1v4C33,28.553,32.553,29,32,29z M27,27h4v-2    h-4V27z"/>
	</g>
	<g>
		<path d="M42,29h-6c-0.553,0-1-0.447-1-1v-4c0-0.553,0.447-1,1-1h6c0.553,0,1,0.447,1,1v4C43,28.553,42.553,29,42,29z M37,27h4v-2    h-4V27z"/>
	</g>
	<g>
		<rect x="23" y="42" width="2" height="20"/>
	</g>
	<g>
		<rect x="27" y="53" width="2" height="2"/>
	</g>
	<g>
		<rect x="19" y="53" width="2" height="2"/>
	</g>
	<g>
		<path d="M28,15h-8c-0.553,0-1-0.447-1-1V8c0-0.553,0.447-1,1-1h8c0.553,0,1,0.447,1,1v6C29,14.553,28.553,15,28,15z M21,13h6V9h-6    V13z"/>
	</g>
	<g>
		<rect x="23" y="8" width="2" height="6"/>
	</g>
	<g>
		<rect x="41" y="34" width="3" height="2"/>
	</g>
	<g>
		<rect x="41" y="38" width="3" height="2"/>
	</g>
	<g>
		<rect x="41" y="42" width="3" height="2"/>
	</g>
	<g>
		<rect x="41" y="46" width="3" height="2"/>
	</g>
	<g>
		<rect x="41" y="50" width="3" height="2"/>
	</g>
	<g>
		<rect x="41" y="54" width="3" height="2"/>
	</g>
	<g>
		<rect x="41" y="58" width="3" height="2"/>
	</g>
	<g>
		<rect x="4" y="34" width="3" height="2"/>
	</g>
	<g>
		<rect x="4" y="38" width="3" height="2"/>
	</g>
	<g>
		<rect x="4" y="42" width="3" height="2"/>
	</g>
	<g>
		<rect x="4" y="46" width="3" height="2"/>
	</g>
	<g>
		<rect x="4" y="50" width="3" height="2"/>
	</g>
	<g>
		<rect x="4" y="54" width="3" height="2"/>
	</g>
	<g>
		<rect x="4" y="58" width="3" height="2"/>
	</g>
	<g>
		<path d="M62,34h-1.879c-1.635,0-3.172-0.637-4.328-1.793C55.025,31.44,53.964,31,52.879,31H52c-0.553,0-1-0.447-1-1v-7    c0-0.553,0.447-1,1-1h2.197c1.464,0,2.822,0.728,3.635,1.945c0.44,0.66,1.177,1.055,1.971,1.055H62c0.553,0,1,0.447,1,1v7    C63,33.553,62.553,34,62,34z M53,29.001c1.59,0.031,3.079,0.664,4.207,1.792C57.975,31.56,59.036,32,60.121,32H61v-5h-1.197    c-1.464,0-2.822-0.728-3.635-1.945C55.728,24.395,54.991,24,54.197,24H53V29.001z"/>
	</g>
	<g>
		<rect x="51" y="24" width="2" height="20"/>
	</g>
	<g>
		<path d="M51,56h-2V44c0-0.553,0.447-1,1-1h4c0.553,0,1,0.447,1,1v9h-2v-8h-2V56z"/>
	</g>
	<g>
		<path d="M60,63H50c-0.266,0-0.52-0.105-0.707-0.293l-1.265-1.265C47.365,60.779,47,59.897,47,58.96    c0-1.614,1.094-3.015,2.659-3.405L51,55.219V55c0-2.206,1.794-4,4-4s4,1.794,4,4v0.219l1.341,0.336    C61.906,55.945,63,57.346,63,58.96c0,0.938-0.365,1.819-1.028,2.482l-1.265,1.265C60.52,62.895,60.266,63,60,63z M50.414,61h9.172    l0.972-0.972C60.843,59.743,61,59.363,61,58.96c0-0.694-0.471-1.297-1.144-1.466l-2.099-0.524C57.312,56.859,57,56.459,57,56v-1    c0-1.103-0.897-2-2-2s-2,0.897-2,2v1c0,0.459-0.312,0.859-0.758,0.97l-2.099,0.524C49.471,57.663,49,58.266,49,58.96    c0,0.403,0.157,0.783,0.442,1.068L50.414,61z"/>
	</g>
	<g>
		<path d="M53,15c-1.437,0-2.829-0.443-4-1.263c-2.174,1.521-5.204,1.654-7.501,0.325l1.002-1.73    c1.812,1.047,4.25,0.804,5.831-0.613c0.381-0.342,0.955-0.342,1.336,0c1.806,1.62,4.719,1.656,6.557,0.099    c0.312-0.266,0.757-0.313,1.116-0.12C57.719,11.898,58.108,12,58.5,12c1.379,0,2.5-1.121,2.5-2.5c0-1.333-1.049-2.425-2.388-2.485    c-0.408-0.019-0.764-0.283-0.898-0.668C57.011,4.345,55.117,3,53,3c-1.228,0-2.411,0.455-3.332,1.281    c-0.381,0.342-0.955,0.342-1.336,0C47.411,3.455,46.228,3,45,3c-2.757,0-5,2.243-5,5c0,0.28,0.023,0.562,0.069,0.834l-1.973,0.332    C38.032,8.783,38,8.392,38,8c0-3.859,3.141-7,7-7c1.437,0,2.829,0.443,4,1.263C50.171,1.443,51.563,1,53,1    c2.751,0,5.234,1.622,6.363,4.095C61.448,5.497,63,7.319,63,9.5c0,2.481-2.019,4.5-4.5,4.5c-0.507,0-1.006-0.089-1.49-0.266    C55.839,14.555,54.437,15,53,15z"/>
	</g>
</g>
</svg>
