<?xml version="1.0" encoding="iso-8859-1"?>
<!-- Generator: Adobe Illustrator 22.1.0, SVG Export Plug-In . SVG Version: 6.00 Build 0)  -->
<svg xmlns="http://www.w3.org/2000/svg" xmlns:xlink="http://www.w3.org/1999/xlink" version="1.1" id="Layer_3" x="0px" y="0px" viewBox="0 0 64 64" style="enable-background:new 0 0 64 64;" xml:space="preserve" width="512" height="512">
<g>
	<g>
		<path style="fill:#666666;" d="M55,44h4c1.657,0,3,1.343,3,3v7c0,2.209-1.791,4-4,4h-2c-2.209,0-4-1.791-4-4v-7    C52,45.343,53.343,44,55,44z"/>
	</g>
	<g>
		<path style="fill:#808080;" d="M52,47v7c0,2.038,1.53,3.701,3.5,3.95C57.47,57.701,59,56.038,59,54v-7c0-1.657-1.343-3-3-3h-1    C53.343,44,52,45.343,52,47z"/>
	</g>
	<g>
		<path style="fill:#333333;" d="M52,50h10v-3c0-1.657-1.343-3-3-3h-4c-1.657,0-3,1.343-3,3V50z"/>
	</g>
	<g>
		<path style="fill:#4D4D4D;" d="M56,44h-1c-1.657,0-3,1.343-3,3v3h7v-3C59,45.343,57.657,44,56,44z"/>
	</g>
	<g>
		<rect x="2" y="2" style="fill:#00395E;" width="60" height="33"/>
	</g>
	<g>
		<rect x="2" y="2" style="fill:#00558D;" width="56" height="33"/>
	</g>
	<g>
		<rect x="8" y="6" style="fill:#5CA4D4;" width="48" height="25"/>
	</g>
	<g>
		<rect x="8" y="6" style="fill:#85BBDF;" width="44" height="25"/>
	</g>
	<g>
		<rect x="12" y="10" style="fill:#B2151B;" width="20" height="17"/>
	</g>
	<g>
		<rect x="12" y="10" style="fill:#ED1C24;" width="16" height="17"/>
	</g>
	<g>
		<polygon style="fill:#851014;" points="18,14 18,23 26,19   "/>
	</g>
	<g>
		<rect x="36" y="10" style="fill:#F7931E;" width="16" height="4"/>
	</g>
	<g>
		<rect x="36" y="10" style="fill:#FBB03B;" width="13" height="4"/>
	</g>
	<g>
		<path style="fill:#CCCCCC;" d="M60,45H4c-1.105,0-2-0.895-2-2v-8h60v8C62,44.105,61.105,45,60,45z"/>
	</g>
	<g>
		<path style="fill:#E6E6E6;" d="M58,43v-8H2v8c0,1.105,0.895,2,2,2h52C57.105,45,58,44.105,58,43z"/>
	</g>
	<g>
		<rect x="27" y="45" style="fill:#CCCCCC;" width="10" height="11"/>
	</g>
	<g>
		<rect x="27" y="45" style="fill:#E6E6E6;" width="7" height="11"/>
	</g>
	<g>
		<polygon style="fill:#B3B3B3;" points="27,56 22,56 22,62 42,62 42,56 37,56   "/>
	</g>
	<g>
		<polygon style="fill:#CCCCCC;" points="37,56 34,56 27,56 24,56 22,56 22,62 39,62 39,56   "/>
	</g>
	<g>
		<path d="M53,46H4c-1.654,0-3-1.346-3-3V2c0-0.552,0.447-1,1-1h60c0.553,0,1,0.448,1,1v41c0,1.067-0.574,2.062-1.499,2.598    l-1.002-1.73C60.808,43.688,61,43.356,61,43V3H3v40c0,0.551,0.448,1,1,1h49V46z"/>
	</g>
	<g>
		<path d="M56,32H8c-0.553,0-1-0.448-1-1V6c0-0.552,0.447-1,1-1h48c0.553,0,1,0.448,1,1v25C57,31.552,56.553,32,56,32z M9,30h46V7H9    V30z"/>
	</g>
	<g>
		<rect x="2" y="34" width="60" height="2"/>
	</g>
	<g>
		<path d="M37,57H27c-0.553,0-1-0.448-1-1V45h2v10h8V45h2v11C38,56.552,37.553,57,37,57z"/>
	</g>
	<g>
		<path d="M42,63H22c-0.553,0-1-0.448-1-1v-6c0-0.552,0.447-1,1-1h5v2h-4v4h18v-4h-4v-2h5c0.553,0,1,0.448,1,1v6    C43,62.552,42.553,63,42,63z"/>
	</g>
	<g>
		<path d="M32,28H12c-0.553,0-1-0.448-1-1V10c0-0.552,0.447-1,1-1h20c0.553,0,1,0.448,1,1v17C33,27.552,32.553,28,32,28z M13,26h18    V11H13V26z"/>
	</g>
	<g>
		<path d="M18,24c-0.183,0-0.365-0.05-0.525-0.149C17.18,23.668,17,23.347,17,23v-9c0-0.364,0.197-0.698,0.516-0.875    c0.315-0.178,0.705-0.166,1.015,0.026l8,5c0.307,0.192,0.485,0.534,0.469,0.896c-0.018,0.361-0.229,0.685-0.552,0.847l-8,4    C18.306,23.965,18.153,24,18,24z M19,15.804v5.578l4.958-2.479L19,15.804z"/>
	</g>
	<g>
		<path d="M52,15H36c-0.553,0-1-0.448-1-1v-4c0-0.552,0.447-1,1-1h16c0.553,0,1,0.448,1,1v4C53,14.552,52.553,15,52,15z M37,13h14    v-2H37V13z"/>
	</g>
	<g>
		<rect x="36" y="23" style="fill:#F7931E;" width="16" height="4"/>
	</g>
	<g>
		<rect x="36" y="23" style="fill:#FBB03B;" width="13" height="4"/>
	</g>
	<g>
		<path d="M52,28H36c-0.553,0-1-0.448-1-1v-4c0-0.552,0.447-1,1-1h16c0.553,0,1,0.448,1,1v4C53,27.552,52.553,28,52,28z M37,26h14    v-2H37V26z"/>
	</g>
	<g>
		<path d="M58,59h-2c-2.757,0-5-2.243-5-5v-7c0-2.206,1.794-4,4-4h4c2.206,0,4,1.794,4,4v7C63,56.757,60.757,59,58,59z M55,45    c-1.103,0-2,0.897-2,2v7c0,1.654,1.346,3,3,3h2c1.654,0,3-1.346,3-3v-7c0-1.103-0.897-2-2-2H55z"/>
	</g>
	<g>
		<rect x="52" y="49" width="10" height="2"/>
	</g>
	<g>
		<path d="M55,63h-5c-1.654,0-3-1.346-3-3V45h2v15c0,0.551,0.448,1,1,1h5c0.552,0,1-0.449,1-1v-2h2v2C58,61.654,56.654,63,55,63z"/>
	</g>
	<g>
		<rect x="56" y="44" width="2" height="3"/>
	</g>
</g>
</svg>
