<?xml version="1.0" encoding="iso-8859-1"?>
<!-- Generator: Adobe Illustrator 22.1.0, SVG Export Plug-In . SVG Version: 6.00 Build 0)  -->
<svg xmlns="http://www.w3.org/2000/svg" xmlns:xlink="http://www.w3.org/1999/xlink" version="1.1" id="Layer_3" x="0px" y="0px" viewBox="0 0 64 64" style="enable-background:new 0 0 64 64;" xml:space="preserve" width="512" height="512">
<g>
	<g>
		<rect x="2" y="50" style="fill:#333333;" width="60" height="12"/>
	</g>
	<g>
		<rect x="2" y="50" style="fill:#4D4D4D;" width="56" height="12"/>
	</g>
	<g>
		<circle style="fill:#FFFF33;" cx="32" cy="56" r="2"/>
	</g>
	<g>
		<ellipse style="fill:#FFFF66;" cx="31.5" cy="56" rx="1.5" ry="1.929"/>
	</g>
	<g>
		<rect x="8" y="54" style="fill:#C1272D;" width="7" height="4"/>
	</g>
	<g>
		<rect x="8" y="54" style="fill:#CD5257;" width="4" height="4"/>
	</g>
	<g>
		<rect x="4" y="2" style="fill:#4D4D4D;" width="56" height="48"/>
	</g>
	<g>
		<rect x="4" y="2" style="fill:#666666;" width="52" height="48"/>
	</g>
	<g>
		<polygon style="fill:#CCCCCC;" points="56,6 56,46 8,46 8,6 56,6   "/>
	</g>
	<g>
		<rect x="8" y="6" style="fill:#E6E6E6;" width="44" height="40"/>
	</g>
	<g>
		<circle style="fill:#333333;" cx="26" cy="26" r="4"/>
	</g>
	<g>
		<ellipse style="fill:#4D4D4D;" cx="25" cy="26" rx="3" ry="3.859"/>
	</g>
	<g>
		<path style="fill:#00395E;" d="M18,46v-8c0-4.418,3.582-8,8-8h0c4.418,0,8,3.582,8,8v8"/>
	</g>
	<g>
		<path style="fill:#0071BC;" d="M24,30.262c-3.449,0.889-6,4.011-6,7.738v8h12v-8C30,34.274,27.449,31.152,24,30.262z"/>
	</g>
	<g>
		<rect x="40" y="32" style="fill:#FFFF33;" width="10" height="4"/>
	</g>
	<g>
		<rect x="40" y="32" style="fill:#FFFF66;" width="8" height="4"/>
	</g>
	<g>
		<rect x="40" y="24" style="fill:#FFFF33;" width="10" height="4"/>
	</g>
	<g>
		<rect x="40" y="24" style="fill:#FFFF66;" width="8" height="4"/>
	</g>
	<g>
		<rect x="34" y="10" style="fill:#C1272D;" width="18" height="10"/>
	</g>
	<g>
		<rect x="34" y="10" style="fill:#CD5257;" width="14" height="10"/>
	</g>
	<g>
		<path d="M62,63H2c-0.552,0-1-0.448-1-1V50c0-0.552,0.448-1,1-1h60c0.552,0,1,0.448,1,1v12C63,62.552,62.552,63,62,63z M3,61h58V51    H3V61z"/>
	</g>
	<g>
		<path d="M56,47H8c-0.552,0-1-0.448-1-1V6c0-0.552,0.448-1,1-1h48c0.552,0,1,0.448,1,1v40C57,46.552,56.552,47,56,47z M9,45h46V7H9    V45z"/>
	</g>
	<g>
		<path d="M61,50h-2V3H5v47H3V2c0-0.552,0.448-1,1-1h56c0.552,0,1,0.448,1,1V50z"/>
	</g>
	<g>
		<path d="M35,46h-2v-8c0-3.86-3.14-7-7-7s-7,3.14-7,7v8h-2v-8c0-4.962,4.038-9,9-9s9,4.038,9,9V46z"/>
	</g>
	<g>
		<path d="M26,31c-2.757,0-5-2.243-5-5s2.243-5,5-5s5,2.243,5,5S28.757,31,26,31z M26,23c-1.654,0-3,1.346-3,3s1.346,3,3,3    s3-1.346,3-3S27.654,23,26,23z"/>
	</g>
	<g>
		<path d="M32,59c-1.654,0-3-1.346-3-3s1.346-3,3-3s3,1.346,3,3S33.654,59,32,59z M32,55c-0.551,0-1,0.449-1,1s0.449,1,1,1    s1-0.449,1-1S32.551,55,32,55z"/>
	</g>
	<g>
		<path d="M15,59H8c-0.552,0-1-0.448-1-1v-4c0-0.552,0.448-1,1-1h7c0.552,0,1,0.448,1,1v4C16,58.552,15.552,59,15,59z M9,57h5v-2H9    V57z"/>
	</g>
	<g>
		<rect x="49" y="54" style="fill:#C1272D;" width="7" height="4"/>
	</g>
	<g>
		<rect x="49" y="54" style="fill:#CD5257;" width="4" height="4"/>
	</g>
	<g>
		<path d="M56,59h-7c-0.552,0-1-0.448-1-1v-4c0-0.552,0.448-1,1-1h7c0.552,0,1,0.448,1,1v4C57,58.552,56.552,59,56,59z M50,57h5v-2    h-5V57z"/>
	</g>
	<g>
		<rect x="20" y="55" width="5" height="2"/>
	</g>
	<g>
		<rect x="39" y="55" width="5" height="2"/>
	</g>
	<g>
		<path d="M52,21H34c-0.552,0-1-0.448-1-1V10c0-0.552,0.448-1,1-1h18c0.552,0,1,0.448,1,1v10C53,20.552,52.552,21,52,21z M35,19h16    v-8H35V19z"/>
	</g>
	<g>
		<path d="M50,29H40c-0.552,0-1-0.448-1-1v-4c0-0.552,0.448-1,1-1h10c0.552,0,1,0.448,1,1v4C51,28.552,50.552,29,50,29z M41,27h8v-2    h-8V27z"/>
	</g>
	<g>
		<path d="M50,37H40c-0.552,0-1-0.448-1-1v-4c0-0.552,0.448-1,1-1h10c0.552,0,1,0.448,1,1v4C51,36.552,50.552,37,50,37z M41,35h8v-2    h-8V35z"/>
	</g>
</g>
</svg>
