<?xml version="1.0" encoding="utf-8"?>
<!-- Generator: Adobe Illustrator 21.0.0, SVG Export Plug-In . SVG Version: 6.00 Build 0)  -->
<svg version="1.1" id="Layer_3" xmlns="http://www.w3.org/2000/svg" xmlns:xlink="http://www.w3.org/1999/xlink" x="0px" y="0px"
	 viewBox="0 0 512 512" style="enable-background:new 0 0 512 512;" xml:space="preserve">
<style type="text/css">
	.st0{fill:#7E581E;}
	.st1{fill:#BC842C;}
	.st2{fill:#333333;}
	.st3{fill:#4D4D4D;}
	.st4{fill:#FBB03B;}
	.st5{fill:#CCCCCC;}
	.st6{fill:#E6E6E6;}
	.st7{fill:#FCEE21;}
	.st8{fill:#666666;}
	.st9{fill:#808080;}
	.st10{fill:#B3B3B3;}
	.st11{fill:#5C5C5C;}
	.st12{fill:#2C8838;}
	.st13{fill:#39B54A;}
	.st14{fill:#999999;}
	.st15{fill:#7D5D3E;}
	.st16{fill:#A67C52;}
	.st17{fill:#1F80AA;}
	.st18{fill:#29ABE2;}
	.st19{fill:#858D8E;}
	.st20{fill:#A3AAAA;}
	.st21{fill:#8C6239;}
</style>
<g>
	<g>
		<g>
			<polygon class="st0" points="96,400 40,400 40,432 472,432 472,400 416,400 			"/>
		</g>
	</g>
	<g>
		<g>
			<polygon class="st1" points="416,400 384,400 96,400 64,400 40,400 40,432 440,432 440,400 			"/>
		</g>
	</g>
	<g>
		<g>
			<path class="st2" d="M88,432v40c0,13.3,10.7,24,24,24h32c13.3,0,24-10.7,24-24v-40H88z"/>
		</g>
	</g>
	<g>
		<g>
			<path class="st3" d="M144,472v-40H88v40c0,13.3,10.7,24,24,24h8C133.3,496,144,485.3,144,472z"/>
		</g>
	</g>
	<g>
		<g>
			<path class="st2" d="M344,432v40c0,13.3,10.7,24,24,24h32c13.3,0,24-10.7,24-24v-40H344z"/>
		</g>
	</g>
	<g>
		<g>
			<path class="st3" d="M400,472v-40h-56v40c0,13.3,10.7,24,24,24h8C389.3,496,400,485.3,400,472z"/>
		</g>
	</g>
	<g>
		<g>
			<rect x="72" y="48" class="st1" width="368" height="352"/>
		</g>
	</g>
	<g>
		<g>
			<rect x="72" y="48" class="st4" width="328" height="352"/>
		</g>
	</g>
	<g>
		<g>
			<rect x="104" y="144" class="st5" width="304" height="128"/>
		</g>
	</g>
	<g>
		<g>
			<rect x="104" y="144" class="st6" width="272" height="128"/>
		</g>
	</g>
	<g>
		<g>
			<circle class="st7" cx="128" cy="344" r="24"/>
		</g>
	</g>
	<g>
		<g>
			<rect x="184" y="336" class="st8" width="144" height="32"/>
		</g>
	</g>
	<g>
		<g>
			<rect x="184" y="336" class="st9" width="112" height="32"/>
		</g>
	</g>
	<g>
		<g>
			<rect x="184" y="304" class="st10" width="144" height="32"/>
		</g>
	</g>
	<g>
		<g>
			<rect x="184" y="304" class="st5" width="112" height="32"/>
		</g>
	</g>
	<g>
		<g>
			<path class="st2" d="M16,200v-48c0-4.4,3.6-8,8-8h16c4.4,0,8,3.6,8,8v48c0,4.4-3.6,8-8,8H24C19.6,208,16,204.4,16,200z"/>
		</g>
	</g>
	<g>
		<g>
			<path class="st11" d="M32,200v-48c0-4.4-3.6-8-8-8s-8,3.6-8,8v48c0,4.4,3.6,8,8,8S32,204.4,32,200z"/>
		</g>
	</g>
	<g>
		<g>
			<path class="st2" d="M464,200v-48c0-4.4,3.6-8,8-8h16c4.4,0,8,3.6,8,8v48c0,4.4-3.6,8-8,8h-16C467.6,208,464,204.4,464,200z"/>
		</g>
	</g>
	<g>
		<g>
			<path class="st11" d="M480,200v-48c0-4.4-3.6-8-8-8s-8,3.6-8,8v48c0,4.4,3.6,8,8,8S480,204.4,480,200z"/>
		</g>
	</g>
	<g>
		<g>
			<path class="st12" d="M376,240v-24c0-22.1-17.9-40-40-40h-16c-22.1,0-40,17.9-40,40v24H376z"/>
		</g>
	</g>
	<g>
		<g>
			<path class="st13" d="M316,176.4c-20.2,2-36,18.9-36,39.6v24h72v-24C352,195.3,336.2,178.4,316,176.4z"/>
		</g>
	</g>
	<g>
		<g>
			<path class="st12" d="M232,240v-24c0-22.1-17.9-40-40-40h-16c-22.1,0-40,17.9-40,40v24H232z"/>
		</g>
	</g>
	<g>
		<g>
			<path class="st13" d="M172,176.4c-20.2,2-36,18.9-36,39.6v24h72v-24C208,195.3,192.2,178.4,172,176.4z"/>
		</g>
	</g>
	<g>
		<g>
			<rect x="104" y="240" class="st9" width="304" height="32"/>
		</g>
	</g>
	<g>
		<g>
			<rect x="104" y="240" class="st14" width="264" height="32"/>
		</g>
	</g>
	<g>
		<g>
			<path class="st15" d="M176,48V32c0-8.8,7.2-16,16-16h128c8.8,0,16,7.2,16,16v16H176z"/>
		</g>
	</g>
	<g>
		<g>
			<path class="st16" d="M288,16h-96c-8.8,0-16,7.2-16,16v16h128V32C304,23.2,296.8,16,288,16z"/>
		</g>
	</g>
	<g>
		<g>
			<rect x="184" y="80" class="st17" width="144" height="32"/>
		</g>
	</g>
	<g>
		<g>
			<rect x="184" y="80" class="st18" width="112" height="32"/>
		</g>
	</g>
	<g>
		<g>
			<rect x="328" y="80" class="st19" width="48" height="32"/>
		</g>
	</g>
	<g>
		<g>
			<rect x="328" y="80" class="st20" width="32" height="32"/>
		</g>
	</g>
	<g>
		<g>
			<rect x="136" y="80" class="st19" width="48" height="32"/>
		</g>
	</g>
	<g>
		<g>
			<rect x="136" y="80" class="st20" width="32" height="32"/>
		</g>
	</g>
	<g>
		<g>
			<path d="M440,408H72c-4.4,0-8-3.6-8-8V48c0-4.4,3.6-8,8-8h368c4.4,0,8,3.6,8,8v352C448,404.4,444.4,408,440,408z M80,392h352V56
				H80V392z"/>
		</g>
	</g>
	<g>
		<g>
			<path d="M344,48h-16V32c0-4.4-3.6-8-8-8H192c-4.4,0-8,3.6-8,8v16h-16V32c0-13.2,10.8-24,24-24h128c13.2,0,24,10.8,24,24V48z"/>
		</g>
	</g>
	<g>
		<g>
			<path d="M472,440H40c-4.4,0-8-3.6-8-8v-32c0-4.4,3.6-8,8-8h56v16H48v16h416v-16h-48v-16h56c4.4,0,8,3.6,8,8v32
				C480,436.4,476.4,440,472,440z"/>
		</g>
	</g>
	<g>
		<g>
			<path d="M40,144H24v-32c0-4.4,3.6-8,8-8h40v16H40V144z"/>
		</g>
	</g>
	<g>
		<g>
			<path d="M40,216H24c-8.8,0-16-7.2-16-16v-48c0-8.8,7.2-16,16-16h16c8.8,0,16,7.2,16,16v48C56,208.8,48.8,216,40,216z M24,152v48
				l16,0v-48H24z"/>
		</g>
	</g>
	<g>
		<g>
			<path d="M488,144h-16v-24h-32v-16h40c4.4,0,8,3.6,8,8V144z"/>
		</g>
	</g>
	<g>
		<g>
			<path d="M488,216h-16c-8.8,0-16-7.2-16-16v-48c0-8.8,7.2-16,16-16h16c8.8,0,16,7.2,16,16v48C504,208.8,496.8,216,488,216z
				 M472,152v48h16v-48H472z"/>
		</g>
	</g>
	<g>
		<g>
			<path d="M376,120H136c-4.4,0-8-3.6-8-8V80c0-4.4,3.6-8,8-8h240c4.4,0,8,3.6,8,8v32C384,116.4,380.4,120,376,120z M144,104h224V88
				H144V104z"/>
		</g>
	</g>
	<g>
		<g>
			<rect x="176" y="80" width="16" height="32"/>
		</g>
	</g>
	<g>
		<g>
			<rect x="320" y="80" width="16" height="32"/>
		</g>
	</g>
	<g>
		<g>
			<path d="M408,280H104c-4.4,0-8-3.6-8-8V144c0-4.4,3.6-8,8-8h304c4.4,0,8,3.6,8,8v128C416,276.4,412.4,280,408,280z M112,264h288
				V152H112V264z"/>
		</g>
	</g>
	<g>
		<g>
			<rect x="104" y="232" width="304" height="16"/>
		</g>
	</g>
	<g>
		<g>
			<path d="M384,240h-16v-24c0-17.6-14.4-32-32-32h-16c-17.6,0-32,14.4-32,32v24h-16v-24c0-26.5,21.5-48,48-48h16
				c26.5,0,48,21.5,48,48V240z"/>
		</g>
	</g>
	<g>
		<g>
			<path d="M240,240h-16v-24c0-17.6-14.4-32-32-32h-16c-17.6,0-32,14.4-32,32v24h-16v-24c0-26.5,21.5-48,48-48h16
				c26.5,0,48,21.5,48,48V240z"/>
		</g>
	</g>
	<g>
		<g>
			<rect x="248" y="144" width="16" height="96"/>
		</g>
	</g>
	<g>
		<g>
			<path d="M128,376c-17.6,0-32-14.4-32-32s14.4-32,32-32s32,14.4,32,32S145.6,376,128,376z M128,328c-8.8,0-16,7.2-16,16
				s7.2,16,16,16s16-7.2,16-16S136.8,328,128,328z"/>
		</g>
	</g>
	<g>
		<g>
			<circle class="st7" cx="384" cy="344" r="24"/>
		</g>
	</g>
	<g>
		<g>
			<path d="M384,376c-17.6,0-32-14.4-32-32s14.4-32,32-32s32,14.4,32,32S401.6,376,384,376z M384,328c-8.8,0-16,7.2-16,16
				s7.2,16,16,16s16-7.2,16-16S392.8,328,384,328z"/>
		</g>
	</g>
	<g>
		<g>
			<path d="M144,504h-32c-17.6,0-32-14.4-32-32v-40h16v40c0,8.8,7.2,16,16,16h32c8.8,0,16-7.2,16-16v-40h16v40
				C176,489.6,161.6,504,144,504z"/>
		</g>
	</g>
	<g>
		<g>
			<path d="M400,504h-32c-17.6,0-32-14.4-32-32v-40h16v40c0,8.8,7.2,16,16,16h32c8.8,0,16-7.2,16-16v-40h16v40
				C432,489.6,417.6,504,400,504z"/>
		</g>
	</g>
	<g>
		<g>
			<path d="M328,376H184c-4.4,0-8-3.6-8-8v-64c0-4.4,3.6-8,8-8h144c4.4,0,8,3.6,8,8v64C336,372.4,332.4,376,328,376z M192,360h128
				v-48H192V360z"/>
		</g>
	</g>
	<g>
		<g>
			<rect x="184" y="328" width="144" height="16"/>
		</g>
	</g>
	<g>
		<g>
			<path class="st21" d="M304,240c0-13.3,10.7-24,24-24s24,10.7,24,24H304z"/>
			<path d="M352,247.5h-48c-4.1,0-7.5-3.4-7.5-7.5c0-17.4,14.1-31.5,31.5-31.5s31.5,14.1,31.5,31.5
				C359.5,244.1,356.1,247.5,352,247.5z M313.3,232.5h29.4c-2.7-5.3-8.3-9-14.7-9S316,227.2,313.3,232.5z"/>
		</g>
	</g>
</g>
</svg>
