<?xml version="1.0" encoding="iso-8859-1"?>
<!-- Generator: Adobe Illustrator 22.1.0, SVG Export Plug-In . SVG Version: 6.00 Build 0)  -->
<svg xmlns="http://www.w3.org/2000/svg" xmlns:xlink="http://www.w3.org/1999/xlink" version="1.1" id="Layer_3" x="0px" y="0px" viewBox="0 0 64 64" style="enable-background:new 0 0 64 64;" xml:space="preserve" width="512" height="512">
<g>
	<g>
		<path style="fill:#4DBF4D;" d="M46,14h16v-4c0-4.418-3.582-8-8-8h0c-4.418,0-8,3.582-8,8V14z"/>
	</g>
	<g>
		<path style="fill:#66FF66;" d="M52.5,2.145C48.799,2.848,46,6.095,46,10v4h13v-4C59,6.095,56.201,2.848,52.5,2.145z"/>
	</g>
	<g>
		<rect x="50" y="20" style="fill:#808080;" width="8" height="12"/>
	</g>
	<g>
		<rect x="50" y="20" style="fill:#999999;" width="5" height="12"/>
	</g>
	<g>
		<path d="M62,15H46c-0.552,0-1-0.448-1-1v-4c0-4.962,4.038-9,9-9s9,4.038,9,9v4C63,14.552,62.552,15,62,15z M47,13h14v-3    c0-3.86-3.14-7-7-7s-7,3.14-7,7V13z"/>
	</g>
	<g>
		<path style="fill:#4DBF4D;" d="M46,32v24c0,3.314,2.686,6,6,6h4c3.314,0,6-2.686,6-6V32H46z"/>
	</g>
	<g>
		<path style="fill:#66FF66;" d="M58,56V32H46v24c0,3.314,2.686,6,6,6S58,59.314,58,56z"/>
	</g>
	<g>
		<path style="fill:#808080;" d="M2,60V4c0-1.105,0.895-2,2-2h36c1.105,0,2,0.895,2,2v56c0,1.105-0.895,2-2,2H4    C2.895,62,2,61.105,2,60z"/>
	</g>
	<g>
		<path style="fill:#999999;" d="M37,60V4c0-1.105-0.895-2-2-2H4C2.895,2,2,2.895,2,4v56c0,1.105,0.895,2,2,2h31    C36.105,62,37,61.105,37,60z"/>
	</g>
	<g>
		<rect x="28" y="7" style="fill:#B2151B;" width="8" height="4"/>
	</g>
	<g>
		<rect x="28" y="7" style="fill:#ED1C24;" width="5" height="4"/>
	</g>
	<g>
		<rect x="8" y="6" style="fill:#B2151B;" width="14" height="6"/>
	</g>
	<g>
		<rect x="8" y="6" style="fill:#ED1C24;" width="11" height="6"/>
	</g>
	<g>
		<rect x="8" y="16" style="fill:#0A558B;" width="28" height="6"/>
	</g>
	<g>
		<rect x="8" y="16" style="fill:#0071BC;" width="24" height="6"/>
	</g>
	<g>
		<rect x="8" y="26" style="fill:#0A558B;" width="28" height="6"/>
	</g>
	<g>
		<rect x="8" y="26" style="fill:#0071BC;" width="24" height="6"/>
	</g>
	<g>
		<path style="fill:#B2151B;" d="M42,42v18c0,1.105-0.895,2-2,2H4c-1.105,0-2-0.895-2-2V41l5.566-2.783    C10.482,36.759,13.697,36,16.957,36h9.226c3.806,0,7.541,1.034,10.804,2.993L42,42z"/>
	</g>
	<g>
		<path style="fill:#ED1C24;" d="M38,60V42l-5.012-3.007C29.724,37.034,25.989,36,22.183,36h-5.226c-3.26,0-6.475,0.759-9.391,2.217    L2,41v19c0,1.105,0.895,2,2,2h32C37.105,62,38,61.105,38,60z"/>
	</g>
	<g>
		<circle style="fill:#FDF14D;" cx="22" cy="49" r="3"/>
	</g>
	<g>
		<ellipse style="fill:#FDF57A;" cx="21" cy="49" rx="2" ry="2.816"/>
	</g>
	<g>
		<path d="M40,63H4c-1.654,0-3-1.346-3-3V4c0-1.654,1.346-3,3-3h36c1.654,0,3,1.346,3,3v56C43,61.654,41.654,63,40,63z M4,3    C3.449,3,3,3.449,3,4v56c0,0.552,0.449,1,1,1h36c0.551,0,1-0.448,1-1V4c0-0.551-0.449-1-1-1H4z"/>
	</g>
	<g>
		<path d="M41.485,42.857l-5.012-3.008C33.366,37.985,29.808,37,26.183,37h-9.226c-3.089,0-6.182,0.73-8.944,2.111l-5.566,2.783    l-0.895-1.789l5.566-2.783C10.157,35.803,13.56,35,16.958,35h9.226c3.987,0,7.901,1.084,11.319,3.135l5.012,3.008L41.485,42.857z"/>
	</g>
	<g>
		<path d="M22,53c-2.206,0-4-1.794-4-4s1.794-4,4-4s4,1.794,4,4S24.206,53,22,53z M22,47c-1.103,0-2,0.897-2,2s0.897,2,2,2    s2-0.897,2-2S23.103,47,22,47z"/>
	</g>
	<g>
		<path d="M22,13H8c-0.552,0-1-0.448-1-1V6c0-0.552,0.448-1,1-1h14c0.552,0,1,0.448,1,1v6C23,12.552,22.552,13,22,13z M9,11h12V7H9    V11z"/>
	</g>
	<g>
		<path d="M36,23H8c-0.552,0-1-0.448-1-1v-6c0-0.552,0.448-1,1-1h28c0.552,0,1,0.448,1,1v6C37,22.552,36.552,23,36,23z M9,21h26v-4    H9V21z"/>
	</g>
	<g>
		<path d="M36,33H8c-0.552,0-1-0.448-1-1v-6c0-0.552,0.448-1,1-1h28c0.552,0,1,0.448,1,1v6C37,32.552,36.552,33,36,33z M9,31h26v-4    H9V31z"/>
	</g>
	<g>
		<path d="M36,12h-8c-0.552,0-1-0.448-1-1V7c0-0.552,0.448-1,1-1h8c0.552,0,1,0.448,1,1v4C37,11.552,36.552,12,36,12z M29,10h6V8h-6    V10z"/>
	</g>
	<g>
		<path d="M56,63h-4c-3.86,0-7-3.141-7-7V32c0-0.552,0.448-1,1-1h16c0.552,0,1,0.448,1,1v24C63,59.859,59.86,63,56,63z M47,33v23    c0,2.757,2.243,5,5,5h4c2.757,0,5-2.243,5-5V33H47z"/>
	</g>
	<g>
		<path d="M59,32h-2V21h-6v11h-2V20c0-0.552,0.448-1,1-1h8c0.552,0,1,0.448,1,1V32z"/>
	</g>
	<g>
		<path d="M58,50h-7c-0.36,0-0.693-0.193-0.87-0.507c-0.178-0.314-0.173-0.699,0.013-1.008L55.234,40H50v-2h7    c0.36,0,0.693,0.193,0.87,0.507c0.178,0.314,0.173,0.699-0.013,1.008L52.766,48H58V50z"/>
	</g>
	<g>
		<rect x="49" y="54" width="10" height="2"/>
	</g>
</g>
</svg>
