<?xml version="1.0" encoding="iso-8859-1"?>
<!-- Generator: Adobe Illustrator 22.1.0, SVG Export Plug-In . SVG Version: 6.00 Build 0)  -->
<svg xmlns="http://www.w3.org/2000/svg" xmlns:xlink="http://www.w3.org/1999/xlink" version="1.1" id="Layer_3" x="0px" y="0px" viewBox="0 0 64 64" style="enable-background:new 0 0 64 64;" xml:space="preserve" width="512" height="512">
<g>
	<g>
		<polygon style="fill:#496D8C;" points="20,6 20,2 62,2 62,62 20,62 20,59   "/>
	</g>
	<g>
		<polygon style="fill:#4688AA;" points="20,2 20,6 20,59 20,62 58,62 58,2   "/>
	</g>
	<g>
		<polygon style="fill:#41C2C2;" points="24,52 24,6 58,6 58,52 46,52   "/>
	</g>
	<g>
		<polygon style="fill:#71D1D1;" points="24,6 24,52 42,52 46,52 54,52 54,6   "/>
	</g>
	<g>
		<circle style="fill:#BF0000;" cx="42" cy="29" r="3"/>
	</g>
	<g>
		<ellipse style="fill:#FF0000;" cx="41" cy="29" rx="2" ry="2.816"/>
	</g>
	<g>
		<circle style="fill:#BF0000;" cx="13" cy="18" r="3"/>
	</g>
	<g>
		<ellipse style="fill:#FF0000;" cx="12" cy="18" rx="2" ry="2.816"/>
	</g>
	<g>
		<rect x="11" y="20" style="fill:#007E37;" width="4" height="18"/>
	</g>
	<g>
		<rect x="11" y="20" style="fill:#39B54A;" width="2" height="18"/>
	</g>
	<g>
		<rect x="2" y="38" style="fill:#66FF66;" width="44" height="20"/>
	</g>
	<g>
		<rect x="2" y="38" style="fill:#007E37;" width="44" height="20"/>
	</g>
	<g>
		<rect x="2" y="38" style="fill:#00BD53;" width="41" height="20"/>
	</g>
	<g>
		<path style="fill:#58514D;" d="M9,42h30c0.552,0,1,0.448,1,1v2c0,0.552-0.448,1-1,1H9c-0.552,0-1-0.448-1-1v-2    C8,42.448,8.448,42,9,42z"/>
	</g>
	<g>
		<path style="fill:#756C67;" d="M37,45v-2c0-0.552-0.448-1-1-1H9c-0.552,0-1,0.448-1,1v2c0,0.552,0.448,1,1,1h27    C36.552,46,37,45.552,37,45z"/>
	</g>
	<g>
		<circle style="fill:#004F29;" cx="12" cy="52" r="2"/>
	</g>
	<g>
		<ellipse style="fill:#999999;" cx="11.5" cy="52" rx="1.5" ry="1.929"/>
	</g>
	<g>
		<rect x="14" y="20" width="2" height="18"/>
	</g>
	<g>
		<rect x="10" y="20" width="2" height="18"/>
	</g>
	<g>
		<path d="M13,22c-2.206,0-4-1.794-4-4s1.794-4,4-4s4,1.794,4,4S15.206,22,13,22z M13,16c-1.103,0-2,0.897-2,2s0.897,2,2,2    s2-0.897,2-2S14.103,16,13,16z"/>
	</g>
	<g>
		<path d="M12,55c-1.654,0-3-1.346-3-3s1.346-3,3-3s3,1.346,3,3S13.654,55,12,55z M12,51c-0.551,0-1,0.448-1,1s0.449,1,1,1    s1-0.448,1-1S12.551,51,12,51z"/>
	</g>
	<g>
		<circle style="fill:#004F29;" cx="20" cy="52" r="2"/>
	</g>
	<g>
		<ellipse style="fill:#999999;" cx="19.5" cy="52" rx="1.5" ry="1.929"/>
	</g>
	<g>
		<circle style="fill:#004F29;" cx="28" cy="52" r="2"/>
	</g>
	<g>
		<ellipse style="fill:#999999;" cx="27.5" cy="52" rx="1.5" ry="1.929"/>
	</g>
	<g>
		<circle style="fill:#004F29;" cx="36" cy="52" r="2"/>
	</g>
	<g>
		<ellipse style="fill:#999999;" cx="35.5" cy="52" rx="1.5" ry="1.929"/>
	</g>
	<g>
		<path d="M20,55c-1.654,0-3-1.346-3-3s1.346-3,3-3s3,1.346,3,3S21.654,55,20,55z M20,51c-0.551,0-1,0.448-1,1s0.449,1,1,1    s1-0.448,1-1S20.551,51,20,51z"/>
	</g>
	<g>
		<path d="M28,55c-1.654,0-3-1.346-3-3s1.346-3,3-3s3,1.346,3,3S29.654,55,28,55z M28,51c-0.551,0-1,0.448-1,1s0.449,1,1,1    s1-0.448,1-1S28.551,51,28,51z"/>
	</g>
	<g>
		<path d="M36,55c-1.654,0-3-1.346-3-3s1.346-3,3-3s3,1.346,3,3S37.654,55,36,55z M36,51c-0.551,0-1,0.448-1,1s0.449,1,1,1    s1-0.448,1-1S36.551,51,36,51z"/>
	</g>
	<g>
		<path d="M39,47H9c-1.103,0-2-0.897-2-2v-2c0-1.103,0.897-2,2-2h30c1.103,0,2,0.897,2,2v2C41,46.103,40.103,47,39,47z M9,43H8.999    L9,45h30v-2H9z"/>
	</g>
	<g>
		<rect x="11" y="42" width="2" height="4"/>
	</g>
	<g>
		<rect x="15" y="42" width="2" height="4"/>
	</g>
	<g>
		<rect x="19" y="42" width="2" height="4"/>
	</g>
	<g>
		<rect x="23" y="42" width="2" height="4"/>
	</g>
	<g>
		<rect x="27" y="42" width="2" height="4"/>
	</g>
	<g>
		<rect x="31" y="42" width="2" height="4"/>
	</g>
	<g>
		<rect x="35" y="42" width="2" height="4"/>
	</g>
	<g>
		<path d="M62,63H20c-0.552,0-1-0.447-1-1v-4h2v3h40V3H21v3h-2V2c0-0.552,0.448-1,1-1h42c0.552,0,1,0.448,1,1v60    C63,62.553,62.552,63,62,63z"/>
	</g>
	<g>
		<rect x="19" y="20" width="2" height="18"/>
	</g>
	<g>
		<path d="M58,53H46v-2h11V7H25v2h-2V6c0-0.552,0.448-1,1-1h34c0.552,0,1,0.448,1,1v46C59,52.553,58.552,53,58,53z"/>
	</g>
	<g>
		<rect x="23" y="20" width="2" height="18"/>
	</g>
	<g>
		<path d="M42,33c-2.206,0-4-1.794-4-4s1.794-4,4-4s4,1.794,4,4S44.206,33,42,33z M42,27c-1.103,0-2,0.897-2,2s0.897,2,2,2    s2-0.897,2-2S43.103,27,42,27z"/>
	</g>
	<g>
		<path d="M46,59H2c-0.552,0-1-0.447-1-1V38c0-0.553,0.448-1,1-1h44c0.552,0,1,0.447,1,1v20C47,58.553,46.552,59,46,59z M3,57h42V39    H3V57z"/>
	</g>
	<g>
		<path d="M21,18h-2c0-3.309-2.691-6-6-6s-6,2.691-6,6H5c0-4.411,3.589-8,8-8S21,13.589,21,18z"/>
	</g>
	<g>
		<path d="M25,18h-2c0-5.514-4.486-10-10-10S3,12.486,3,18H1C1,11.383,6.383,6,13,6S25,11.383,25,18z"/>
	</g>
	<g>
		<path d="M50,29h-2c0-3.309-2.691-6-6-6s-6,2.691-6,6h-2c0-4.411,3.589-8,8-8S50,24.589,50,29z"/>
	</g>
	<g>
		<path d="M54,29h-2c0-5.514-4.486-10-10-10s-10,4.486-10,10h-2c0-6.617,5.383-12,12-12S54,22.383,54,29z"/>
	</g>
</g>
</svg>
