<?xml version="1.0" encoding="iso-8859-1"?>
<!-- Generator: Adobe Illustrator 22.1.0, SVG Export Plug-In . SVG Version: 6.00 Build 0)  -->
<svg xmlns="http://www.w3.org/2000/svg" xmlns:xlink="http://www.w3.org/1999/xlink" version="1.1" id="Layer_3" x="0px" y="0px" viewBox="0 0 64 64" style="enable-background:new 0 0 64 64;" xml:space="preserve" width="512" height="512">
<g>
	<g>
		<polygon style="fill:#A8AB3B;" points="53,14 53,7 54,4 56,4 57,7 57,14   "/>
	</g>
	<g>
		<polygon style="fill:#808080;" points="53,14 53,7 54,4 56,4 57,7 57,14   "/>
	</g>
	<g>
		<polygon style="fill:#999999;" points="54,4 53,7 53,14 55,14 55,7   "/>
	</g>
	<g>
		<rect x="2" y="2" style="fill:#F06292;" width="47" height="60"/>
	</g>
	<g>
		<rect x="2" y="2" style="fill:#F48FB1;" width="43" height="60"/>
	</g>
	<g>
		<rect x="44" y="29" style="fill:#375269;" width="18" height="29"/>
	</g>
	<g>
		<rect x="44" y="29" style="fill:#496D8C;" width="14" height="29"/>
	</g>
	<g>
		<polyline style="fill:#911D22;" points="57,27 57,14 53,14 53,30 55,34 57,30 57,27   "/>
	</g>
	<g>
		<polygon style="fill:#911D22;" points="57,14 53,14 53,30 55,34 57,30   "/>
	</g>
	<g>
		<polygon style="fill:#C1272D;" points="55,14 53,14 53,30 54,32 55,30   "/>
	</g>
	<g>
		<rect x="8" y="6" style="fill:#F271C5;" width="35" height="18"/>
	</g>
	<g>
		<rect x="8" y="6" style="fill:#F58DD1;" width="31" height="18"/>
	</g>
	<g>
		<rect x="7" y="52" style="fill:#F271C5;" width="37" height="6"/>
	</g>
	<g>
		<rect x="7" y="52" style="fill:#F58DD1;" width="33" height="6"/>
	</g>
	<g>
		<path d="M49,63H2c-0.553,0-1-0.447-1-1V2c0-0.552,0.447-1,1-1h47c0.553,0,1,0.448,1,1v27h-2V3H3v58h45v-3h2v4    C50,62.553,49.553,63,49,63z"/>
	</g>
	<g>
		<path d="M43,25H8c-0.553,0-1-0.448-1-1V6c0-0.552,0.447-1,1-1h35c0.553,0,1,0.448,1,1v18C44,24.552,43.553,25,43,25z M9,23h33V7H9    V23z"/>
	</g>
	<g>
		<rect x="18" y="29" width="16" height="2"/>
	</g>
	<g>
		<rect x="14" y="33" width="24" height="2"/>
	</g>
	<g>
		<rect x="14" y="37" width="24" height="2"/>
	</g>
	<g>
		<rect x="14" y="41" width="24" height="2"/>
	</g>
	<g>
		<path d="M26,21c-0.031,0-0.063-0.001-0.095-0.004c-0.28-0.027-0.536-0.17-0.705-0.396L20,13.667L14.8,20.6l-1.6-1.2l6-8    c0.377-0.504,1.223-0.504,1.6,0l5.341,7.121L36.327,9.26l1.346,1.479l-11,10C26.488,20.908,26.248,21,26,21z"/>
	</g>
	<g>
		<path d="M38,15h-2v-4h-4V9h5c0.553,0,1,0.448,1,1V15z"/>
	</g>
	<g>
		<path d="M44,59H7c-0.553,0-1-0.447-1-1v-6c0-0.553,0.447-1,1-1h37v2H8v4h36V59z"/>
	</g>
	<g>
		<path d="M55,35c-0.379,0-0.725-0.214-0.895-0.553l-2-4C52.036,30.309,52,30.155,52,30V7c0-0.107,0.018-0.214,0.052-0.316l1-3    C53.188,3.275,53.569,3,54,3h2c0.431,0,0.812,0.275,0.948,0.684l1,3C57.982,6.786,58,6.893,58,7v23    c0,0.155-0.036,0.309-0.105,0.447l-2,4C55.725,34.786,55.379,35,55,35z M54,29.764l1,2l1-2V7.162L55.279,5h-0.559L54,7.162V29.764    z"/>
	</g>
	<g>
		<rect x="54" y="1" width="2" height="3"/>
	</g>
	<g>
		<rect x="53" y="13" width="4" height="2"/>
	</g>
	<g>
		<path d="M61,15h-2V9h-2V7h3c0.553,0,1,0.448,1,1V15z"/>
	</g>
	<g>
		<rect x="59" y="5" width="2" height="3"/>
	</g>
	<g>
		<path d="M62,59H44c-0.553,0-1-0.447-1-1V29c0-0.552,0.447-1,1-1h9v2h-8v27h16V30h-4v-2h5c0.553,0,1,0.448,1,1v29    C63,58.553,62.553,59,62,59z"/>
	</g>
	<g>
		<rect x="47" y="37" width="12" height="2"/>
	</g>
	<g>
		<rect x="49" y="41" width="8" height="2"/>
	</g>
	<g>
		<rect x="47" y="45" width="12" height="2"/>
	</g>
	<g>
		<rect x="47" y="53" width="12" height="2"/>
	</g>
	<g>
		<rect x="49" y="49" width="8" height="2"/>
	</g>
</g>
</svg>
